<svg xmlns="http://www.w3.org/2000/svg" viewBox="0 0 128 128">
  <rect width="128" height="128" rx="32" fill="#122033" />
  <path
    d="M28 42c0-7.732 6.268-14 14-14h44c7.732 0 14 6.268 14 14v44c0 7.732-6.268 14-14 14H42c-7.732 0-14-6.268-14-14V42Z"
    fill="#2864FF"
    opacity="0.16"
  />
  <circle cx="45" cy="64" r="12" fill="#7CA1FF" />
  <circle cx="83" cy="64" r="12" fill="#35BF90" />
  <path
    d="M57 64c0-3.314 2.686-6 6-6h2c3.314 0 6 2.686 6 6s-2.686 6-6 6h-2c-3.314 0-6-2.686-6-6Z"
    fill="#EDF4FF"
  />
</svg>
