<svg width="16" height="16" viewBox="0 0 16 16" fill="none" xmlns="http://www.w3.org/2000/svg">
<g clip-path="url(#clip0_2_1001)">
<path d="M16.0079 8.00747C16.0079 10.1443 15.1701 12.087 13.8036 13.5217C13.5815 13.7562 13.344 13.9776 13.0936 14.1839C12.9611 14.2936 12.8256 14.3976 12.6862 14.4982C11.3711 15.4484 9.7545 16.0078 8.00762 16.0078C7.87434 16.0078 7.74043 16.005 7.60997 15.9973C7.46622 15.9904 7.32403 15.9806 7.18309 15.9647C6.18293 15.864 5.2384 15.5767 4.38325 15.1407C4.00356 14.9478 3.64059 14.7243 3.29981 14.4737C2.90903 14.1892 2.54543 13.8706 2.21215 13.5215C0.846372 12.0876 0.00793457 10.1457 0.00793457 8.00747C0.00793457 3.58918 3.58997 0.00793457 8.00762 0.00793457C12.4259 0.00793457 16.0079 3.58918 16.0079 8.00747Z" fill="#FED685"/>
<path d="M8.01486 11.0158C6.44689 11.0158 5.17126 10.2319 5.17126 9.26829C5.17126 8.30469 6.44689 7.52063 8.01486 7.52063C9.58298 7.52063 10.8586 8.30454 10.8586 9.26829C10.8585 10.2317 9.58283 11.0158 8.01486 11.0158ZM8.01486 7.69579C6.54345 7.69579 5.34642 8.4011 5.34642 9.26829C5.34642 10.1353 6.54345 10.8406 8.01486 10.8406C9.48627 10.8406 10.6835 10.1353 10.6835 9.26829C10.6833 8.4011 9.48627 7.69579 8.01486 7.69579Z" fill="#FF9F8E"/>
<path d="M11.0478 8.38091C11.1478 7.97748 11.3264 7.43763 11.6593 6.85654C11.9526 6.34482 12.2767 5.95607 12.5447 5.67904C12.35 5.60904 12.1553 5.53904 11.9604 5.46904C12.1886 5.3656 12.4168 5.26216 12.645 5.15873C12.2415 4.70529 11.6968 4.18841 10.9837 3.71654C10.6901 3.52232 10.4043 3.35982 10.1348 3.22373C10.2879 3.0756 10.4436 2.91748 10.6003 2.74904C10.6887 2.65404 10.7739 2.55951 10.8558 2.46607C10.6572 2.51748 10.3351 2.62779 10.0068 2.87685C9.7245 3.09107 9.5456 3.32607 9.44091 3.48841C9.42778 3.35279 9.4031 3.19873 9.35872 3.03201C9.27513 2.71763 9.15028 2.46654 9.03919 2.28357C9.08544 2.40341 9.16669 2.66576 9.09388 2.97732C9.06497 3.10107 9.01888 3.20201 8.97528 3.27857C8.87122 3.1331 8.6556 2.87935 8.30903 2.77654C8.30903 2.77654 7.96856 2.67544 7.5331 2.8131C6.89153 3.01576 5.35841 4.20029 3.4895 5.99857C3.73294 5.97419 3.97638 5.94982 4.21981 5.9256C4.022 6.13857 3.82419 6.35154 3.62653 6.56451C3.85825 6.60607 4.24888 6.71029 4.6306 7.00263C5.36731 7.56701 5.50638 8.39998 5.53419 8.59998C7.37231 8.52685 9.21013 8.45388 11.0478 8.38091Z" fill="#152140"/>
<path d="M3.9834 6.17966C3.85574 6.19294 3.72809 6.20497 3.60059 6.21825C3.69074 6.13138 3.78105 6.04544 3.87012 5.96075C3.98684 5.94872 4.1034 5.93763 4.22012 5.9256C4.14184 6.01013 4.06371 6.09497 3.9834 6.17966Z" fill="#24365E"/>
<path d="M5.3401 7.91827C5.20588 7.68062 5.01557 7.43296 4.7415 7.22281C4.35963 6.93015 3.969 6.82562 3.73682 6.78484C3.78635 6.73202 3.83588 6.67812 3.88541 6.62531C4.10213 6.68921 4.36838 6.8014 4.6315 7.00281C4.99135 7.2789 5.20807 7.61906 5.3401 7.91827Z" fill="#24365E"/>
<path d="M9.35878 3.03265C9.31596 2.87094 9.2619 2.72672 9.20471 2.59906C9.30049 2.77078 9.39846 2.98969 9.46877 3.25265C9.48206 3.30219 9.49409 3.35062 9.50284 3.39797C9.47971 3.42984 9.45877 3.46062 9.44127 3.48828C9.42815 3.35281 9.40393 3.19875 9.35878 3.03265Z" fill="#24365E"/>
<path d="M10.3525 3.33841C10.2787 3.29763 10.206 3.26029 10.1346 3.22404C10.2523 3.11076 10.3712 2.99076 10.4901 2.86529C10.6771 2.7706 10.8445 2.71779 10.9667 2.68591C10.8842 2.77951 10.7995 2.87404 10.7114 2.96873C10.5901 3.09748 10.4714 3.22076 10.3525 3.33841Z" fill="#24365E"/>
<path d="M3.98336 6.17969C4.09898 6.16875 4.21445 6.15657 4.33008 6.14563C4.18258 6.30625 4.03414 6.46579 3.88555 6.62547C3.78758 6.59688 3.69961 6.57813 3.62695 6.565C3.7457 6.4361 3.86555 6.30844 3.98336 6.17969Z" fill="#24365E"/>
<path d="M9.14973 2.50326C9.19598 2.62326 9.27739 2.88623 9.20473 3.19764C9.17614 3.32092 9.12989 3.42217 9.08582 3.4992C8.98129 3.3528 8.76676 3.09983 8.42004 2.99639C8.42004 2.99639 8.07895 2.89623 7.64317 3.03373C7.03239 3.22623 5.61504 4.30795 3.86989 5.96076C3.74333 5.97295 3.61676 5.98608 3.49036 5.99826C5.35879 4.2003 6.89161 3.01623 7.53317 2.81373C7.96895 2.67623 8.31004 2.77639 8.31004 2.77639C8.65661 2.87983 8.87129 3.13295 8.97583 3.2792C9.01989 3.20217 9.06614 3.10092 9.09473 2.97764C9.16739 2.66623 9.08598 2.40326 9.03973 2.28326C9.09364 2.37233 9.15082 2.47811 9.20473 2.59905C9.18598 2.56483 9.16739 2.53295 9.14973 2.50326Z" fill="#24365E"/>
<path d="M10.4901 2.86532C10.3712 2.92469 10.2448 2.99954 10.117 3.0975C9.83527 3.31094 9.6559 3.54641 9.55137 3.70829C9.54262 3.6136 9.52715 3.50907 9.50293 3.39797C9.61074 3.2461 9.77355 3.05469 10.007 2.8775C10.3361 2.62766 10.6573 2.51766 10.8565 2.46594C10.774 2.55954 10.6893 2.65407 10.6012 2.74875C10.5639 2.78829 10.5275 2.82688 10.4901 2.86532Z" fill="#24365E"/>
<path d="M9.758 13.5444H6.25769L6.5116 11.3156L6.60441 10.502L6.608 10.468H9.40769L9.41128 10.502L9.52941 11.5345L9.758 13.5444Z" fill="#FF9F8E"/>
<path d="M9.52941 11.5345C8.53628 11.7964 7.38816 11.6711 6.5116 11.3156L6.60441 10.502H9.41128L9.52941 11.5345Z" fill="#F5575D"/>
<path d="M5.49772 7.98217C5.51803 8.20546 5.48678 8.42405 5.41115 8.59014C5.33537 8.75624 5.22115 8.85593 5.09365 8.86749C4.96631 8.87921 4.836 8.80155 4.73147 8.65186C4.62709 8.50217 4.55694 8.2928 4.53662 8.06952C4.49444 7.60468 4.67537 7.20827 4.94069 7.18421C5.20615 7.15999 5.45553 7.51733 5.49772 7.98217Z" fill="#FF9F8E"/>
<path d="M5.30986 8.45423C5.29939 8.27235 5.24205 8.08376 5.11376 7.9497C5.08267 7.9172 5.0508 7.88579 5.01126 7.8597C4.97298 7.83376 4.92095 7.81735 4.87345 7.83079C4.77783 7.86032 4.7358 7.95485 4.71814 8.03735C4.74314 7.95642 4.79845 7.87188 4.87923 7.85767C4.96048 7.84595 5.0208 7.92079 5.07205 7.98563C5.1747 8.1186 5.20736 8.29063 5.19986 8.45532C5.19845 8.48579 5.22205 8.51141 5.25236 8.51282C5.28283 8.51423 5.30861 8.49063 5.31001 8.46032C5.31001 8.45845 5.31001 8.4561 5.30986 8.45423Z" fill="#152140"/>
<path d="M11.2559 6.96435C11.5214 6.98842 11.7021 7.38482 11.66 7.84967C11.6178 8.31451 11.3684 8.67185 11.1029 8.64763C10.9756 8.63607 10.8614 8.53623 10.7856 8.37029C10.7098 8.2042 10.6787 7.9856 10.6989 7.76232C10.7192 7.53904 10.7893 7.32967 10.8937 7.17998C10.9982 7.03029 11.1286 6.95263 11.2559 6.96435Z" fill="#FF9F8E"/>
<path d="M10.8969 8.24532C10.9001 8.06313 10.95 7.87235 11.0731 7.73344C11.1029 7.69985 11.1336 7.66704 11.172 7.63954C11.2092 7.61219 11.2604 7.59376 11.3086 7.60532C11.4053 7.6311 11.4509 7.72391 11.4719 7.80563C11.4437 7.72579 11.3851 7.64344 11.3039 7.63235C11.2222 7.62391 11.1648 7.70094 11.1162 7.76766C11.0189 7.90454 10.9929 8.07766 11.0069 8.24204C11.0095 8.27235 10.987 8.29907 10.9567 8.30157C10.9264 8.30407 10.8997 8.28172 10.8972 8.25141C10.8968 8.24954 10.8969 8.24719 10.8969 8.24532Z" fill="#152140"/>
<path d="M11.1547 9.12546C11.1536 9.16171 11.1503 9.19811 11.1437 9.23764V9.23874C11.1437 9.24202 11.1437 9.24639 11.1426 9.25077C11.1348 9.29811 11.1261 9.34436 11.1128 9.39155C11.1073 9.42014 11.0997 9.44874 11.0908 9.47624L11.0467 9.60499V9.60608C11.0423 9.61936 11.0367 9.63249 11.0301 9.64577C11.0159 9.68546 10.9983 9.72389 10.9795 9.76358C10.9751 9.77233 10.9708 9.78124 10.9653 9.79108L10.9103 9.89561C10.8993 9.91655 10.8861 9.93858 10.8729 9.95952C10.8542 9.9903 10.8343 10.0222 10.8147 10.0531C10.7926 10.085 10.7706 10.1169 10.7465 10.1489C10.7278 10.1753 10.709 10.2006 10.6883 10.2248C10.6751 10.2436 10.6608 10.2611 10.6453 10.2776C10.6265 10.303 10.6058 10.3272 10.5837 10.3503C10.5737 10.3623 10.5639 10.3745 10.5518 10.3855C10.5298 10.4119 10.5056 10.4372 10.4803 10.4625C10.4495 10.4944 10.4176 10.5251 10.3856 10.555L10.3053 10.6287C10.2911 10.642 10.2767 10.654 10.2625 10.6661L10.1776 10.7355C10.1458 10.7619 10.1128 10.7883 10.0775 10.8136C10.0489 10.8345 10.0192 10.8555 9.98935 10.8762C9.95857 10.8983 9.92669 10.9192 9.89466 10.94C9.86825 10.9576 9.84075 10.9741 9.81325 10.9906C9.77247 11.0159 9.73075 11.0412 9.68779 11.0644C9.66138 11.0798 9.63388 11.094 9.60638 11.1073C9.5481 11.1392 9.48763 11.1689 9.427 11.1964C9.39841 11.2095 9.37091 11.2217 9.34232 11.2326C9.29497 11.2536 9.24654 11.2734 9.19716 11.2909C9.16419 11.3042 9.13107 11.3151 9.0981 11.3261C9.07497 11.3337 9.05294 11.3415 9.02982 11.3492C8.99575 11.3601 8.96044 11.3701 8.92638 11.38C8.88232 11.3922 8.83732 11.4042 8.79216 11.4151C8.7581 11.4228 8.72279 11.4306 8.68763 11.4372C8.67232 11.4415 8.65685 11.4437 8.64028 11.447C8.60622 11.4536 8.5731 11.459 8.53904 11.4647C8.50716 11.4701 8.47419 11.4745 8.44216 11.478C8.41028 11.4823 8.37825 11.4856 8.34638 11.4878V11.4889C8.29357 11.4933 8.24075 11.4976 8.18685 11.4987C8.15388 11.5009 8.12075 11.502 8.08779 11.502H8.08232C8.06029 11.502 8.03716 11.502 8.01513 11.5009C7.97997 11.5009 7.94466 11.4998 7.9095 11.4976C7.86435 11.4965 7.81935 11.4933 7.77419 11.4889C7.74013 11.4856 7.70591 11.4823 7.67185 11.478C7.65529 11.4758 7.63997 11.4736 7.62341 11.4714C7.59044 11.467 7.55857 11.4626 7.52654 11.457C7.47482 11.4483 7.42419 11.4383 7.37357 11.4273C7.34279 11.4208 7.31294 11.4141 7.28216 11.4064C7.24028 11.3965 7.19747 11.3855 7.1556 11.3734C7.12044 11.3636 7.08528 11.3536 7.05107 11.3415C7.03013 11.3361 7.00919 11.3295 6.98841 11.3206C6.95419 11.3108 6.91903 11.2986 6.88607 11.2855C6.8431 11.27 6.80013 11.2536 6.75841 11.2359C6.72435 11.2226 6.69122 11.2084 6.65825 11.193L6.61638 11.1731H6.61529C6.58341 11.1587 6.55138 11.1434 6.5206 11.128C6.46779 11.1015 6.41607 11.0751 6.36653 11.0465C6.33466 11.0289 6.30388 11.0114 6.27419 10.9926C6.23685 10.9706 6.20153 10.9486 6.16638 10.9244L6.07497 10.8639C6.05841 10.853 6.04419 10.8419 6.02872 10.8309C5.99904 10.8089 5.97044 10.7869 5.94185 10.7648C5.90669 10.7384 5.87247 10.7098 5.8395 10.6812C5.8131 10.6592 5.7856 10.635 5.76029 10.6119C5.7481 10.6009 5.73716 10.5909 5.72622 10.5789C5.702 10.558 5.67888 10.5348 5.65685 10.5119C5.64029 10.4964 5.62497 10.48 5.6106 10.4634C5.58857 10.4403 5.56654 10.4161 5.54685 10.393C5.52044 10.3622 5.49404 10.3314 5.47091 10.3005C5.44669 10.2708 5.42466 10.2411 5.40482 10.2114C5.38935 10.1915 5.37622 10.1706 5.36403 10.1509V10.1498C5.34091 10.1169 5.32107 10.0837 5.30247 10.0497C5.29591 10.0398 5.29044 10.0309 5.28482 10.02V10.0189C5.26388 9.98155 5.24419 9.94186 5.22763 9.90342C5.21982 9.88905 5.21435 9.87483 5.20888 9.86046C5.19013 9.8153 5.17372 9.7703 5.16044 9.72405C5.1495 9.69217 5.1406 9.66139 5.13403 9.62936V9.62827C5.12747 9.59967 5.12185 9.57217 5.11747 9.54358C5.1131 9.51389 5.10872 9.48421 5.10654 9.45327C5.10216 9.40702 5.09997 9.35967 5.09872 9.31124V9.31014C5.09763 9.23967 5.10091 9.16811 5.10528 9.09452C5.11075 9.01639 5.11857 8.93827 5.12841 8.86124C5.14825 8.71483 5.17357 8.57514 5.19997 8.45514V8.45296C5.222 8.34952 5.24404 8.26046 5.26044 8.19655C5.27372 8.14702 5.28357 8.11186 5.28794 8.0953C5.3056 8.03374 5.3231 7.97639 5.34075 7.92139C5.37154 7.82671 5.40232 7.74092 5.43091 7.66171C5.53435 7.37561 5.61247 7.1578 5.5795 6.84077C5.53325 6.38749 5.31107 6.23342 5.26372 5.98905C5.19435 5.63358 5.50028 5.10655 6.81966 4.2978C7.56466 3.84217 8.51872 3.91483 9.1856 4.48046C9.42872 4.68733 9.672 4.89311 9.91622 5.09999C10.309 5.43452 10.5709 5.8978 10.6547 6.40717C10.6898 6.62061 10.7306 6.85608 10.7768 7.10921C10.7901 7.18186 10.8033 7.25108 10.8154 7.31717C10.8628 7.5703 10.9056 7.78155 10.9442 7.96202C10.9662 8.06983 10.9872 8.16671 11.0058 8.25358C11.0156 8.29764 11.0256 8.34046 11.0343 8.38014C11.0564 8.48249 11.0762 8.56936 11.0926 8.6453V8.64639C11.1158 8.75092 11.1322 8.83452 11.1433 8.90717V8.90827C11.1547 8.98889 11.159 9.05608 11.1547 9.12546Z" fill="#FF9F8E"/>
<path d="M10.9292 6.3186C10.8703 6.36735 10.4853 6.04688 9.71517 5.40578C9.25908 5.0261 8.88845 4.69922 8.62908 4.46563C8.49845 4.61032 8.36314 4.77125 8.22751 4.94938C8.06564 5.16188 7.92658 5.36782 7.80767 5.56094C7.78626 5.4386 7.75345 5.15016 7.88986 4.83078C7.98189 4.61516 8.11423 4.47188 8.20017 4.39266C7.54595 4.68235 6.73814 5.1275 5.92736 5.81657C5.56095 6.12797 5.2497 6.44172 4.9872 6.73844C4.78767 6.5261 4.63017 6.27 4.63111 5.98078C4.63517 4.79016 7.32642 3.16625 9.2133 4.0275C10.5031 4.61641 11.0649 6.2061 10.9292 6.3186Z" fill="#152140"/>
<path d="M9.96088 6.0167C9.94885 6.02295 9.91744 5.99763 9.8115 5.90529L9.81182 5.90482C9.729 5.83216 9.60104 5.71873 9.40166 5.54623C9.10275 5.28795 8.92041 5.13654 8.81838 5.04779C8.73322 4.97326 8.70307 4.9417 8.70744 4.92685C8.71479 4.89982 8.83213 4.93623 8.98791 5.01795C9.09385 5.07404 9.21838 5.15154 9.33729 5.24451C9.50744 5.37779 9.65291 5.53201 9.76057 5.66701C9.90869 5.85263 9.98619 6.00357 9.96088 6.0167Z" fill="#152140"/>
<path d="M7.52827 4.85409C7.50639 4.80237 7.22561 4.83784 6.9953 4.9844C6.67874 5.18596 6.52311 5.55612 6.57014 5.59424C6.5928 5.61252 6.65389 5.54737 7.00139 5.2808C7.41983 4.96002 7.54405 4.89127 7.52827 4.85409Z" fill="#152140"/>
<path d="M5.09912 9.31141C5.09912 9.31141 5.09803 9.31032 5.09912 9.31032C5.1124 9.2861 5.12553 9.26188 5.1399 9.23766C5.22131 9.09907 5.32146 8.97469 5.43584 8.84485C5.30381 8.8911 5.19162 8.98344 5.10568 9.09469L5.09912 9.31141Z" fill="#152140"/>
<path d="M5.48966 9.12659C5.37528 9.25643 5.27606 9.38081 5.19466 9.5194C5.17263 9.55456 5.15278 9.59096 5.13419 9.62831C5.12763 9.59971 5.122 9.57221 5.11763 9.54362C5.11325 9.51393 5.10888 9.48424 5.10669 9.45331C5.197 9.30815 5.32903 9.18377 5.48966 9.12659Z" fill="#152140"/>
<path d="M5.54252 9.40045C5.42814 9.5303 5.32799 9.65467 5.24658 9.79326C5.2333 9.8153 5.22018 9.83733 5.20908 9.86045C5.19033 9.8153 5.17393 9.7703 5.16064 9.72405C5.25096 9.57983 5.38189 9.45655 5.54252 9.40045Z" fill="#152140"/>
<path d="M5.59747 9.59747C5.4831 9.72732 5.38294 9.85169 5.30153 9.99029C5.29606 9.99904 5.2906 10.009 5.28497 10.0189C5.26403 9.98154 5.24435 9.94185 5.22778 9.90341C5.31685 9.76685 5.44341 9.65138 5.59747 9.59747Z" fill="#152140"/>
<path d="M5.63961 9.78784C5.53424 9.90755 5.44087 10.0227 5.36403 10.149C5.34096 10.1161 5.32116 10.0831 5.30261 10.0491C5.38819 9.9328 5.50353 9.83616 5.63961 9.78784Z" fill="#152140"/>
<path d="M5.71896 9.98267C5.62559 10.088 5.5422 10.1901 5.47096 10.2999C5.4468 10.2703 5.42483 10.2406 5.40503 10.211C5.48951 10.1089 5.59488 10.0265 5.71896 9.98267Z" fill="#152140"/>
<path d="M5.80048 10.228C5.73127 10.307 5.66768 10.3838 5.61047 10.4629C5.58849 10.4398 5.56652 10.4156 5.54688 10.3926C5.61936 10.3192 5.70509 10.2621 5.80048 10.228Z" fill="#152140"/>
<path d="M5.91823 10.3414C5.84793 10.4205 5.78324 10.4984 5.72619 10.5785C5.70203 10.5576 5.67896 10.5346 5.65698 10.5116C5.73149 10.4368 5.8194 10.3765 5.91823 10.3414Z" fill="#152140"/>
<path d="M6.0777 10.3787C5.98885 10.4797 5.90858 10.5764 5.83953 10.6807C5.81318 10.6587 5.78575 10.6345 5.7605 10.6114C5.84498 10.5083 5.95253 10.4227 6.0777 10.3787Z" fill="#152140"/>
<path d="M6.30193 10.4724C6.19765 10.5921 6.10428 10.7051 6.02868 10.8302C5.99907 10.8083 5.97054 10.7863 5.94202 10.7643C6.03086 10.6337 6.15494 10.525 6.30193 10.4724Z" fill="#152140"/>
<path d="M6.16623 10.9237C6.24198 10.7985 6.33535 10.6855 6.43963 10.5669C6.28921 10.6196 6.16513 10.7304 6.0752 10.8632L6.16623 10.9237Z" fill="#152140"/>
<path d="M6.61578 10.7253C6.52132 10.8318 6.43793 10.935 6.36654 11.0458C6.33474 11.0282 6.30403 11.0107 6.27441 10.992C6.36108 10.8725 6.47845 10.7748 6.61578 10.7253Z" fill="#152140"/>
<path d="M6.84017 10.8915C6.75678 10.986 6.68212 11.077 6.61618 11.1726H6.61509C6.58329 11.1582 6.55134 11.143 6.52063 11.1275C6.60418 11.0222 6.71407 10.9366 6.84017 10.8915Z" fill="#152140"/>
<path d="M6.99984 10.9278C6.90975 11.031 6.82745 11.1287 6.75824 11.2352C6.72426 11.2219 6.69121 11.2077 6.65833 11.1923C6.74515 11.0738 6.86143 10.9761 6.99984 10.9278Z" fill="#152140"/>
<path d="M7.2242 11.0225C7.13629 11.1224 7.05741 11.218 6.98821 11.3199C6.95407 11.3101 6.919 11.298 6.88611 11.2849C6.97168 11.1675 7.08703 11.0708 7.2242 11.0225Z" fill="#152140"/>
<path d="M7.36193 11.1161C7.28617 11.2017 7.21696 11.2851 7.15555 11.373C7.12048 11.3631 7.08541 11.3532 7.05127 11.3412C7.13357 11.24 7.24003 11.1588 7.36193 11.1161Z" fill="#152140"/>
<path d="M7.48097 11.182C7.44153 11.2654 7.40412 11.3455 7.37341 11.4269C7.34271 11.4203 7.31293 11.4136 7.28223 11.406C7.33164 11.3181 7.39866 11.2401 7.48097 11.182Z" fill="#152140"/>
<path d="M7.70774 11.1886C7.67485 11.2852 7.64523 11.3785 7.62325 11.4707C7.59036 11.4664 7.55857 11.462 7.52661 11.4564C7.56729 11.3544 7.62653 11.2611 7.70774 11.1886Z" fill="#152140"/>
<path d="M7.8694 11.1611C7.8309 11.273 7.79801 11.3805 7.77385 11.4883C7.73987 11.485 7.70573 11.4817 7.67175 11.4773C7.71025 11.3565 7.77619 11.2445 7.8694 11.1611Z" fill="#152140"/>
<path d="M8.11374 11.1633C8.0743 11.2797 8.03908 11.3894 8.01492 11.5003C7.97984 11.5003 7.94462 11.4992 7.90955 11.497C7.94898 11.3696 8.01601 11.2512 8.11374 11.1633Z" fill="#152140"/>
<path d="M8.27552 11.1975C8.24045 11.3007 8.20959 11.3995 8.18668 11.4983C8.15379 11.5005 8.12074 11.5016 8.08785 11.5016H8.0824C8.12074 11.3852 8.18559 11.2787 8.27552 11.1975Z" fill="#152140"/>
<path d="M8.47051 11.2117C8.45726 11.3029 8.44744 11.3907 8.44199 11.4773C8.41019 11.4817 8.37823 11.485 8.34644 11.4872C8.36826 11.3874 8.40894 11.2929 8.47051 11.2117Z" fill="#152140"/>
<path d="M8.66083 11.1227C8.64758 11.2357 8.64104 11.3422 8.63995 11.4466C8.60597 11.4531 8.57292 11.4586 8.53894 11.4642C8.5511 11.3411 8.59053 11.2215 8.66083 11.1227Z" fill="#152140"/>
<path d="M8.81297 11.0598C8.79984 11.1831 8.79094 11.2997 8.79203 11.4153C8.75797 11.4229 8.72266 11.4308 8.6875 11.4373C8.69625 11.3031 8.73594 11.1689 8.81297 11.0598Z" fill="#152140"/>
<path d="M9.05174 11.0081C9.03846 11.1269 9.02971 11.2381 9.02971 11.3492C8.99564 11.3601 8.96033 11.3701 8.92627 11.38C8.93502 11.247 8.97471 11.1161 9.05174 11.0081Z" fill="#152140"/>
<path d="M9.21773 11.0059C9.20682 11.1047 9.19903 11.198 9.19685 11.2902C9.16396 11.3035 9.13091 11.3144 9.09802 11.3253C9.11221 11.2101 9.15071 11.0993 9.21773 11.0059Z" fill="#152140"/>
<path d="M9.42677 11.1959C9.39824 11.209 9.37081 11.2211 9.34229 11.232C9.34665 11.1398 9.36754 11.0487 9.40822 10.9653C9.41243 11.0455 9.41788 11.1212 9.42677 11.1959Z" fill="#152140"/>
<path d="M11.1547 9.12549C11.1217 9.06939 11.0876 9.01658 11.049 8.96486C10.9554 8.83283 10.8443 8.71955 10.7189 8.59955C10.8882 8.64361 11.0347 8.75908 11.1381 8.90002C11.1403 8.9022 11.1414 8.90549 11.1436 8.90767V8.90877C11.1547 8.98892 11.159 9.05611 11.1547 9.12549Z" fill="#152140"/>
<path d="M11.1436 9.23766C11.1447 9.23766 11.1436 9.23875 11.1436 9.23875C11.1436 9.24203 11.1436 9.24641 11.1425 9.25078C11.1347 9.29813 11.126 9.34438 11.1127 9.39157C11.0841 9.34313 11.0533 9.29578 11.0203 9.24953C10.9267 9.1186 10.8157 9.00422 10.6902 8.88531C10.8597 8.92828 11.0049 9.04375 11.1094 9.18469C11.1216 9.2025 11.1338 9.22 11.1436 9.23766Z" fill="#152140"/>
<path d="M11.0467 9.60628V9.60519C11.029 9.57878 11.0115 9.55237 10.9928 9.52706C10.8992 9.39612 10.7881 9.28175 10.6626 9.16284C10.8321 9.20581 10.9784 9.32128 11.0818 9.46331C11.0851 9.46769 11.0884 9.47206 11.0906 9.47659L11.0467 9.60628Z" fill="#152140"/>
<path d="M11.0301 9.64594C11.0159 9.68563 10.9982 9.72407 10.9795 9.76375C10.9718 9.75157 10.9642 9.74063 10.9553 9.7286C10.8617 9.59766 10.7517 9.48329 10.6251 9.36438C10.787 9.40485 10.929 9.51282 11.0301 9.64594Z" fill="#152140"/>
<path d="M10.9644 9.79052C10.8667 9.68078 10.7415 9.59396 10.6 9.5578C10.7164 9.66863 10.8207 9.77509 10.9095 9.8948L10.9644 9.79052Z" fill="#152140"/>
<path d="M10.8722 9.95907C10.8535 9.98978 10.8337 10.0216 10.814 10.0524C10.7339 9.95035 10.6416 9.85589 10.5396 9.7594C10.6658 9.79104 10.7799 9.86461 10.8722 9.95907Z" fill="#152140"/>
<path d="M10.7457 10.1484C10.727 10.1747 10.7083 10.2 10.6876 10.2241C10.6251 10.1517 10.5559 10.0814 10.4801 10.0101C10.5777 10.0354 10.6676 10.0837 10.7457 10.1484Z" fill="#152140"/>
<path d="M10.6445 10.2771C10.6258 10.3024 10.605 10.3266 10.5831 10.3496C10.5193 10.2761 10.4492 10.2058 10.3734 10.1345C10.4732 10.1598 10.5654 10.2103 10.6445 10.2771Z" fill="#152140"/>
<path d="M10.5508 10.3848C10.5288 10.4112 10.5046 10.4364 10.4794 10.4617C10.4014 10.3661 10.3137 10.2762 10.217 10.185C10.3444 10.217 10.4576 10.2905 10.5508 10.3848Z" fill="#152140"/>
<path d="M10.3854 10.5549C10.2863 10.4338 10.1543 10.3382 10.0024 10.2996C10.1168 10.4074 10.2181 10.5119 10.3051 10.6286L10.3854 10.5549Z" fill="#152140"/>
<path d="M10.2622 10.6659C10.1621 10.5427 10.0278 10.4436 9.87378 10.4052C9.98925 10.513 10.0905 10.6175 10.1775 10.7353L10.2622 10.6659Z" fill="#152140"/>
<path d="M10.0765 10.8129C10.048 10.8337 10.0184 10.8546 9.9886 10.8754C9.90848 10.7722 9.8162 10.6777 9.71301 10.5801C9.85361 10.6163 9.97878 10.7031 10.0765 10.8129Z" fill="#152140"/>
<path d="M9.89408 10.9395C9.86774 10.9571 9.8403 10.9735 9.81287 10.99C9.76018 10.9088 9.70095 10.8298 9.63611 10.7475C9.6372 10.7486 9.63938 10.7486 9.64047 10.7497C9.66791 10.7606 9.69316 10.7749 9.71841 10.7904C9.78419 10.8296 9.84358 10.8812 9.89408 10.9395Z" fill="#152140"/>
<path d="M9.68729 11.064C9.66094 11.0794 9.63351 11.0936 9.60608 11.1069C9.55885 11.0366 9.50725 10.9686 9.45129 10.8972C9.54123 10.9343 9.62026 10.9926 9.68729 11.064Z" fill="#152140"/>
<path d="M7.0859 5.84955C7.50215 5.94564 7.7223 6.53111 7.57761 7.15736C7.43308 7.78361 6.97855 8.21346 6.56246 8.11752C6.14636 8.02143 5.92621 7.4358 6.07074 6.80955C6.21527 6.1833 6.6698 5.75346 7.0859 5.84955Z" fill="white" fill-opacity="0.4" stroke="#0F0F0F" stroke-opacity="0.4" stroke-width="0.1"/>
<path d="M7.30062 6.48845C7.30062 6.59517 7.21406 6.68173 7.10734 6.68173C7.00062 6.68173 6.91406 6.59517 6.91406 6.48845C6.91406 6.38173 7.00062 6.29517 7.10734 6.29517C7.21406 6.29517 7.30062 6.38173 7.30062 6.48845Z" fill="#152140"/>
<path d="M7.24947 6.41252C7.24947 6.44168 7.22579 6.46535 7.19663 6.46535C7.16747 6.46535 7.1438 6.44168 7.1438 6.41252C7.1438 6.38335 7.16747 6.35968 7.19663 6.35968C7.22579 6.35968 7.24947 6.38335 7.24947 6.41252Z" fill="white"/>
<path d="M9.93021 6.54284C10.2776 7.1944 10.218 7.90425 9.79724 8.12862C9.37662 8.35284 8.75396 8.00659 8.40662 7.35503C8.05927 6.70347 8.1188 5.99362 8.53958 5.76925C8.96021 5.54503 9.58287 5.89128 9.93021 6.54284Z" fill="white" fill-opacity="0.4" stroke="#0F0F0F" stroke-opacity="0.4" stroke-width="0.1"/>
<path d="M9.55551 6.29515C9.55551 6.40187 9.46895 6.48843 9.36223 6.48843C9.25551 6.48843 9.16895 6.40187 9.16895 6.29515C9.16895 6.18843 9.25551 6.10187 9.36223 6.10187C9.46895 6.10187 9.55551 6.18843 9.55551 6.29515Z" fill="#152140"/>
<path d="M9.50411 6.21909C9.50411 6.24826 9.48043 6.27193 9.45127 6.27193C9.42211 6.27193 9.39844 6.24826 9.39844 6.21909C9.39844 6.18993 9.42211 6.16626 9.45127 6.16626C9.48043 6.16626 9.50411 6.18993 9.50411 6.21909Z" fill="white"/>
<path d="M9.57363 10.1059C9.55003 10.119 9.5255 10.1287 9.49925 10.1339C9.37144 10.1628 9.2216 10.1033 9.08769 10.0498L9.07457 10.0454C8.888 9.97107 8.69707 9.90013 8.49925 9.8317C8.45378 9.81591 8.40722 9.80013 8.36003 9.78435C8.25144 9.74763 8.14113 9.7117 8.02722 9.6767C8.52644 9.40779 9.15082 9.37107 9.49941 9.47701C9.50113 9.47795 9.50378 9.47795 9.5055 9.47873C9.62894 9.51638 9.71394 9.57248 9.74457 9.63638C9.81175 9.77482 9.7216 10.0209 9.57363 10.1059Z" fill="#DD5543"/>
<path d="M9.50084 9.5069V9.52096C9.50084 9.66628 9.38256 9.78456 9.23725 9.78456H8.076C8.02615 9.76878 7.97537 9.75299 7.92443 9.73721C7.92365 9.73815 7.92271 9.73815 7.92178 9.73893C7.89646 9.72143 7.87459 9.70034 7.85693 9.67581C7.87006 9.66799 7.8824 9.66003 7.89553 9.65221C7.91037 9.64253 7.92615 9.63299 7.941 9.62503C8.441 9.3369 9.08115 9.2844 9.46662 9.37721C9.48318 9.40706 9.49475 9.44112 9.49896 9.47706C9.50006 9.48674 9.50084 9.49721 9.50084 9.5069Z" fill="white"/>
<path d="M9.50072 10.0953V10.1094C9.50072 10.1172 9.50072 10.1259 9.499 10.1339C9.49635 10.1672 9.4876 10.1988 9.47275 10.2267C9.33166 10.2416 9.18197 10.182 9.05494 10.1313L9.0426 10.1269C8.77994 10.0227 8.50932 9.92548 8.22119 9.83173H9.23713C9.3826 9.83173 9.50072 9.95001 9.50072 10.0953Z" fill="white"/>
<path d="M9.82313 9.59796C9.7811 9.51124 9.68032 9.44124 9.53157 9.39483C9.51141 9.38874 9.48954 9.38249 9.46672 9.37734C9.08141 9.28452 8.44126 9.33702 7.9411 9.62515C7.92626 9.63296 7.91047 9.64265 7.89563 9.65233C7.88251 9.66015 7.87016 9.66812 7.85704 9.67593C7.83079 9.69249 7.80454 9.71015 7.77641 9.72765C7.59329 9.84499 7.38673 9.97905 7.05391 10.0692C6.9111 10.1086 6.76751 10.1331 6.61251 10.1462C6.58891 10.148 6.57047 10.1698 6.57313 10.1936C6.57485 10.2164 6.59422 10.2339 6.6161 10.2339H6.62047C6.77985 10.2198 6.92969 10.1945 7.07672 10.1542C7.42266 10.0597 7.64516 9.91609 7.82376 9.80124C7.85797 9.77937 7.89032 9.75827 7.92188 9.73905C7.92282 9.73812 7.9236 9.73812 7.92454 9.73733C7.97532 9.75312 8.0261 9.7689 8.0761 9.78468C8.12516 9.80046 8.17329 9.81624 8.22141 9.83202C8.50954 9.92577 8.78016 10.023 9.04282 10.1272L9.05516 10.1316C9.18219 10.1823 9.33188 10.2419 9.47298 10.227C9.52204 10.2226 9.57016 10.2086 9.61657 10.1823C9.80657 10.0734 9.91079 9.77921 9.82313 9.59796ZM9.5736 10.1059C9.55001 10.1191 9.52548 10.1287 9.49923 10.1339C9.37141 10.1628 9.22157 10.1033 9.08766 10.0498L9.07454 10.0455C8.88798 9.97108 8.69704 9.90015 8.49923 9.83171C8.45376 9.81593 8.40719 9.80015 8.36001 9.78437C8.25141 9.74765 8.1411 9.71171 8.02719 9.67671C8.52641 9.4078 9.15079 9.37109 9.49938 9.47702C9.5011 9.47796 9.50376 9.47796 9.50547 9.47874C9.62891 9.5164 9.71391 9.57249 9.74454 9.6364C9.81173 9.77483 9.72157 10.0209 9.5736 10.1059Z" fill="#152140"/>
<path d="M13.8032 13.5216C13.5816 13.7562 13.3442 13.9778 13.0938 14.1836C12.9606 14.2931 12.8258 14.3973 12.6856 14.498C12.1558 14.8816 11.5761 15.2003 10.9586 15.4464C10.5803 15.5961 10.1871 15.7187 9.78252 15.8098C9.21159 15.9386 8.61784 16.0078 8.00737 16.0078C7.87424 16.0078 7.74034 16.0044 7.60971 15.9973C7.46612 15.9903 7.32331 15.9808 7.18331 15.965C6.86018 15.9327 6.54315 15.8809 6.23315 15.81C5.82862 15.7189 5.43534 15.5962 5.05706 15.4456C4.82768 15.3545 4.60252 15.253 4.38362 15.1409C4.00362 14.9473 3.64096 14.7241 3.2994 14.4736C2.90877 14.1889 2.54534 13.8702 2.21252 13.5217C2.95518 13.0375 4.02893 12.653 5.29612 12.4236C5.35565 12.4131 5.41518 12.4025 5.47565 12.392C5.66221 12.7212 6.02909 13.0023 6.50643 13.195C6.93377 13.3675 7.45143 13.4683 8.00737 13.4683C8.5644 13.4683 9.0819 13.3675 9.50924 13.195C9.98643 13.0023 10.3535 12.7212 10.54 12.392C10.6005 12.4025 10.66 12.413 10.7196 12.4236C11.9877 12.6528 13.0605 13.0373 13.8032 13.5216Z" fill="#799B51"/>
<path d="M10.9586 15.4464C10.5803 15.5961 10.187 15.7188 9.78248 15.8099C9.21154 15.9386 8.61779 16.0078 8.00732 16.0078C7.87419 16.0078 7.74029 16.0044 7.60966 15.9974C7.46607 15.9903 7.32326 15.9808 7.18326 15.965C6.86013 15.9327 6.5431 15.8809 6.2331 15.81C5.82857 15.7189 5.43529 15.5963 5.05701 15.4456C5.15076 15.3669 5.24357 15.2809 5.33279 15.1917C5.90826 14.6164 6.28904 13.9534 6.43623 13.3509C6.45029 13.2984 6.46076 13.2467 6.47044 13.195H6.50638C6.93373 13.3675 7.45138 13.4683 8.00732 13.4683C8.56435 13.4683 9.08185 13.3675 9.50919 13.195H9.54248C9.55216 13.2467 9.56341 13.2992 9.57748 13.3517C9.72638 13.9542 10.1064 14.6155 10.6826 15.1916C10.7722 15.2809 10.8648 15.3667 10.9586 15.4464Z" fill="#94B46C"/>
<path d="M10.54 12.3918C10.3535 12.7211 9.98661 13.0022 9.50927 13.1948C9.08192 13.3673 8.56427 13.4681 8.00739 13.4681C7.4513 13.4681 6.9338 13.3673 6.50645 13.1948C6.02911 13.0022 5.66224 12.7211 5.47567 12.3918C5.4152 12.4023 5.35567 12.4128 5.29614 12.4234C5.49411 12.8061 5.90208 13.1328 6.4363 13.3508C6.88646 13.5356 7.42677 13.6433 8.00739 13.6433C8.58802 13.6433 9.12833 13.5354 9.5777 13.3517C10.1127 13.1336 10.5218 12.807 10.7197 12.4234C10.66 12.4129 10.6005 12.4023 10.54 12.3918Z" fill="#E0F2C7"/>
<path d="M8.25787 9.15597L8.09068 9.12362C7.67131 9.04269 7.39709 8.63706 7.47803 8.21784L7.50522 8.0769C7.55287 7.8305 7.79115 7.66925 8.03756 7.7169L8.21256 7.75065C8.66865 7.83878 8.96693 8.28003 8.87865 8.73612C8.82318 9.02362 8.54522 9.21159 8.25787 9.15597Z" fill="url(#paint0_linear_2_1001)"/>
</g>
<defs>
<linearGradient id="paint0_linear_2_1001" x1="817.812" y1="832.096" x2="691.934" y2="760.761" gradientUnits="userSpaceOnUse">
<stop offset="0.2403" stop-color="#DD5543" stop-opacity="0"/>
<stop offset="1" stop-color="#DD5543" stop-opacity="0.6"/>
</linearGradient>
<clipPath id="clip0_2_1001">
<rect width="16" height="16" fill="white"/>
</clipPath>
</defs>
</svg>
