<svg width="16" height="16" viewBox="0 0 16 16" fill="none" xmlns="http://www.w3.org/2000/svg">
<g clip-path="url(#clip0_2_1419)">
<path fill-rule="evenodd" clip-rule="evenodd" d="M16 8C16 10.1217 15.1572 12.1566 13.6569 13.6569C12.1566 15.1572 10.1217 16 8 16C5.87828 16 3.84344 15.1572 2.34313 13.6569C0.842813 12.1566 0 10.1217 0 8C0 5.87828 0.842813 3.84344 2.34313 2.34313C3.84344 0.842813 5.87828 0 8 0C10.1217 0 12.1566 0.842813 13.6569 2.34313C15.1572 3.84344 16 5.87828 16 8Z" fill="#C2BDFF"/>
<mask id="mask0_2_1419" style="mask-type:alpha" maskUnits="userSpaceOnUse" x="0" y="0" width="16" height="16">
<path fill-rule="evenodd" clip-rule="evenodd" d="M16 8C16 10.1217 15.1572 12.1566 13.6569 13.6569C12.1566 15.1572 10.1217 16 8 16C5.87828 16 3.84344 15.1572 2.34313 13.6569C0.842813 12.1566 0 10.1217 0 8C0 5.87828 0.842813 3.84344 2.34313 2.34313C3.84344 0.842813 5.87828 0 8 0C10.1217 0 12.1566 0.842813 13.6569 2.34313C15.1572 3.84344 16 5.87828 16 8Z" fill="#C2BDFF"/>
</mask>
<g mask="url(#mask0_2_1419)">
<path fill-rule="evenodd" clip-rule="evenodd" d="M7.14062 9.65625H8.875V11.5312H7.14062V9.65625Z" fill="#FFCACA"/>
<path fill-rule="evenodd" clip-rule="evenodd" d="M8.76562 9.82031C8.76562 10.0231 8.43687 10.1875 8.03125 10.1875C7.62563 10.1875 7.29688 10.0231 7.29688 9.82031C7.29688 9.6175 7.62563 9.45312 8.03125 9.45312C8.43687 9.45312 8.76562 9.6175 8.76562 9.82031Z" fill="#FFB0B0" fill-opacity="0.519148"/>
<path fill-rule="evenodd" clip-rule="evenodd" d="M3.60076 15.175C3.37513 13.0578 4.10185 11.312 5.78123 9.9375C7.14138 11.6298 8.51591 11.7888 9.90513 10.4141C11.2059 10.1902 12.0395 10.8963 12.4056 12.5322C12.7717 14.1683 12.9251 15.4075 12.8661 16.2497C6.91482 17.6505 3.82638 17.2922 3.60076 15.175Z" fill="#6E66D4"/>
<path fill-rule="evenodd" clip-rule="evenodd" d="M9.57812 10.8906C9.57812 11.3467 8.87156 11.7164 8 11.7164C7.12844 11.7164 6.42188 11.3467 6.42188 10.8906C6.42188 10.4345 7.12844 10.0648 8 10.0648C8.87156 10.0648 9.57812 10.4345 9.57812 10.8906Z" fill="white"/>
<path fill-rule="evenodd" clip-rule="evenodd" d="M8.34253 3.13046C9.45472 3.21796 10.3202 4.16984 10.9389 5.98609C11.8669 8.71046 10.8585 9.2739 11.4707 10.4952C12.083 11.7162 13.166 12.0576 12.8785 13.2253C12.591 14.3928 10.2188 15.3495 9.43972 13.9173C8.92019 12.9623 8.67753 11.5405 8.71144 9.65156" fill="#110D2E"/>
<path fill-rule="evenodd" clip-rule="evenodd" d="M8.34244 3.13046C6.85307 2.60921 5.74244 3.5614 5.01057 5.98686C4.91572 6.95358 3.68697 8.33421 4.41713 9.20311C5.14744 10.072 4.20057 11.8892 2.88525 10.9134C2.82729 11.4255 2.94885 11.7387 3.24994 11.8531C2.59447 13.4478 2.89385 14.4292 4.14822 14.7972C6.02947 15.3491 6.60197 13.8186 6.89963 12.9153C7.09822 12.3131 7.579 9.05155 8.34244 3.13046Z" fill="#110D2E"/>
<path fill-rule="evenodd" clip-rule="evenodd" d="M10.2188 6.82812C10.2188 8.54531 9.22531 9.9375 8 9.9375C6.77469 9.9375 5.78125 8.54531 5.78125 6.82812C5.78125 5.11094 6.77469 3.71875 8 3.71875C9.22531 3.71875 10.2188 5.11094 10.2188 6.82812Z" fill="#FFCACA"/>
<path fill-rule="evenodd" clip-rule="evenodd" d="M7.29688 8.39844C7.29688 8.61844 7.04156 8.79688 6.72656 8.79688C6.41156 8.79688 6.15625 8.61844 6.15625 8.39844C6.15625 8.17844 6.41156 8 6.72656 8C7.04156 8 7.29688 8.17844 7.29688 8.39844Z" fill="#FFAAAA" fill-opacity="0.216335"/>
<path fill-rule="evenodd" clip-rule="evenodd" d="M10.2188 8.39844C10.2188 8.61844 9.96344 8.79688 9.64844 8.79688C9.33344 8.79688 9.07812 8.61844 9.07812 8.39844C9.07812 8.17844 9.33344 8 9.64844 8C9.96344 8 10.2188 8.17844 10.2188 8.39844Z" fill="#FFAAAA" fill-opacity="0.216335"/>
<path d="M8.71143 6.40735C8.93627 6.29001 9.11799 6.23141 9.25642 6.23141C9.39486 6.23141 9.57658 6.29001 9.80142 6.40735" stroke="#110D2E" stroke-width="0.109375" stroke-linecap="round"/>
<path d="M6.60205 6.36046C6.82268 6.30171 7.00221 6.27249 7.14064 6.27249C7.27908 6.27249 7.46283 6.30171 7.69205 6.36046" stroke="#110D2E" stroke-width="0.109375" stroke-linecap="round"/>
<path fill-rule="evenodd" clip-rule="evenodd" d="M11.2496 8.10609C10.8097 8.04249 10.4435 8.04874 10.2068 7.87937C10.1916 7.86843 10.1183 7.87499 10.1038 7.86359C10.0716 7.83859 10.1443 7.67249 10.1154 7.64531C9.74584 7.29702 9.63396 6.77171 9.57755 6.06499C9.47896 4.82703 8.93318 4.66218 8.57162 4.66218C8.21005 4.66218 7.01818 4.77046 7.01818 6.06499C7.01818 6.96703 6.54427 7.24734 6.00115 7.56593C5.98662 7.57452 6.03521 7.54609 5.95724 7.59171C5.87912 7.63749 5.8624 7.99999 5.7813 7.99999C5.70021 7.99999 5.52459 7.92687 5.51099 7.90062C5.4363 7.75656 5.3938 6.87921 5.38318 5.26859L7.14068 3.71874L8.28943 3.13046L8.89068 3.42812L10.4354 5.65531C11.0252 7.29593 11.2966 8.11281 11.2496 8.10609Z" fill="#110D2E"/>
<path fill-rule="evenodd" clip-rule="evenodd" d="M7.42188 6.95312C7.42188 7.03078 7.35891 7.09375 7.28125 7.09375C7.20359 7.09375 7.14062 7.03078 7.14062 6.95312C7.14062 6.87547 7.20359 6.8125 7.28125 6.8125C7.35891 6.8125 7.42188 6.87547 7.42188 6.95312Z" fill="#110D2E"/>
<path fill-rule="evenodd" clip-rule="evenodd" d="M9.17188 6.875C9.17188 6.95266 9.10891 7.01562 9.03125 7.01562C8.95359 7.01562 8.89062 6.95266 8.89062 6.875C8.89062 6.79734 8.95359 6.73438 9.03125 6.73438C9.10891 6.73438 9.17188 6.79734 9.17188 6.875Z" fill="#110D2E"/>
<path d="M8.15784 7.375V7.78125C8.15784 7.90203 8.25581 8 8.37659 8H8.48346" stroke="#FF9494" stroke-width="0.109375" stroke-linecap="round"/>
<path d="M8 8.78906H8.45" stroke="#110D2E" stroke-width="0.109375" stroke-linecap="round"/>
<path d="M8.3425 3.13046L8.33594 4.66406" stroke="white" stroke-opacity="0.063684" stroke-width="0.078125"/>
</g>
</g>
<defs>
<clipPath id="clip0_2_1419">
<rect width="16" height="16" fill="white"/>
</clipPath>
</defs>
</svg>
