<svg width="16" height="17" viewBox="0 0 16 17" fill="none" xmlns="http://www.w3.org/2000/svg">
<g clip-path="url(#clip0_2_1512)">
<path d="M16 0H0V16H16V0Z" fill="#FFF7EB"/>
<path d="M9.04826 5.13103C9.79479 5.13103 10.4 4.52584 10.4 3.77931C10.4 3.03277 9.79479 2.42758 9.04826 2.42758C8.30172 2.42758 7.69653 3.03277 7.69653 3.77931C7.69653 4.52584 8.30172 5.13103 9.04826 5.13103Z" fill="#916B5B"/>
<path fill-rule="evenodd" clip-rule="evenodd" d="M6.65752 11.849L6.44222 9.03842H9.59087V11.849C9.62225 12.3166 9.78795 12.6534 11.1719 12.75C11.0616 13.6334 11.8564 15.2574 8.13225 15.2495C4.40811 15.2417 4.93225 13.406 4.89087 12.6606C5.90692 12.702 6.62503 12.3333 6.65752 11.849Z" fill="#FBBFB1"/>
<path fill-rule="evenodd" clip-rule="evenodd" d="M9.5908 9.88019C9.5908 9.88019 8.35598 11.162 6.60426 11.0378C6.60426 10.8859 6.44214 9.03842 6.44214 9.03842H9.5908V9.88019Z" fill="#E99885"/>
<path fill-rule="evenodd" clip-rule="evenodd" d="M5.76928 7.17072C5.76928 7.17072 5.32602 6.73825 5.014 7.0639C4.74417 7.34534 5.00406 8.7364 5.9808 8.7233L5.76928 7.17072Z" fill="#FBBFB1"/>
<path fill-rule="evenodd" clip-rule="evenodd" d="M10.3313 7.17072C10.3313 7.17072 10.7745 6.73825 11.0865 7.0639C11.3564 7.34534 11.0965 8.7364 10.1198 8.7233L10.3313 7.17072Z" fill="#FBBFB1"/>
<path fill-rule="evenodd" clip-rule="evenodd" d="M7.98377 3.26112C6.14476 3.26112 5.15088 4.94937 5.4728 6.82203C5.63101 7.7424 5.68021 7.77948 5.88905 8.69561C5.98388 9.11219 6.7759 10.4936 8.12499 10.466C9.32762 10.4522 10.1367 9.14548 10.2315 8.71944C10.4312 7.82175 10.4974 7.7462 10.6185 6.82203C10.8654 4.93787 9.9464 3.26112 8.10738 3.26112H7.98377Z" fill="#FFD0C5"/>
<path d="M9.5648 12.4409C9.64463 12.3524 9.72566 12.2626 9.81104 12.1746C10.2032 12.5244 11.6953 12.8359 12.3828 12.8984C13.0703 12.9609 13.9935 13.3442 14.2663 14.3513L14.5578 16.002H1.69189L1.84438 14.7372C1.99997 13.2109 2.99035 12.9758 4.01547 12.7902C4.09519 12.7758 4.17736 12.7609 4.26204 12.7448L5.41125 12.6208C5.79725 12.5506 6.15532 12.4643 6.35571 12.2855C6.59307 12.731 7.15866 13.2538 8.0965 13.269C8.80743 13.2804 9.17141 12.877 9.5648 12.4409Z" fill="#FF7FAE"/>
<path fill-rule="evenodd" clip-rule="evenodd" d="M9.87088 6.36237C9.87088 6.36237 9.0476 6.18827 8.62901 6.31768C8.42668 6.41887 8.61173 6.62345 8.91148 6.52715C9.21121 6.43085 9.87088 6.36237 9.87088 6.36237Z" fill="#654840" stroke="#654840" stroke-width="0.110345" stroke-linecap="round" stroke-linejoin="round"/>
<path fill-rule="evenodd" clip-rule="evenodd" d="M6.15259 6.36237C6.15259 6.36237 6.97587 6.18827 7.39446 6.31768C7.59679 6.41887 7.41174 6.62345 7.11199 6.52715C6.81226 6.43085 6.15259 6.36237 6.15259 6.36237Z" fill="#654840" stroke="#654840" stroke-width="0.110345" stroke-linecap="round" stroke-linejoin="round"/>
<path d="M5.26855 6.84597C5.26855 6.84597 4.5909 2.83049 8.19257 2.83049C11.5276 2.83049 10.9071 6.87238 10.9071 6.87238C10.9071 6.87238 10.8716 6.90596 10.8042 6.93257C10.7176 7.26796 10.5427 7.62362 10.5427 7.62362L10.5058 6.94991C10.3359 6.91146 10.1166 6.78857 9.85649 6.4866C9.71788 6.32571 9.44665 6.24333 9.15773 6.15558C8.53546 5.9666 7.83112 5.75268 8.19257 4.6758C7.55421 4.69446 7.24259 5.2261 6.92824 5.76236C6.60638 6.31146 6.28168 6.86538 5.60051 6.87847L5.55898 7.63679C5.55898 7.63679 5.34777 7.20732 5.27463 6.84719C5.2726 6.8468 5.27059 6.8464 5.26855 6.84597Z" fill="#654840"/>
<path fill-rule="evenodd" clip-rule="evenodd" d="M8.26906 6.56673C8.27239 6.56442 8.29074 6.55171 8.31724 6.55171C8.36296 6.55171 8.4 6.58877 8.4 6.63448C8.4 6.66057 8.38792 6.68385 8.36903 6.69902C8.36535 6.70395 8.35963 6.71229 8.35239 6.72432C8.33636 6.75096 8.31516 6.79196 8.29439 6.84545C8.25291 6.95235 8.21419 7.1067 8.22064 7.2937C8.22338 7.3729 8.23286 7.45937 8.24277 7.54966C8.24488 7.56895 8.24702 7.58842 8.24911 7.60802C8.26069 7.71663 8.27099 7.82981 8.26539 7.92881C8.25994 8.02499 8.23877 8.12741 8.1693 8.19687C8.0945 8.27166 7.98658 8.28738 7.85869 8.26026C7.81399 8.25077 7.78542 8.20684 7.79491 8.16213C7.80439 8.11742 7.84833 8.08887 7.89303 8.09835C7.99274 8.11949 8.03308 8.09901 8.05225 8.07984C8.07677 8.05534 8.09524 8.00602 8.10013 7.91945C8.10488 7.8357 8.09621 7.73507 8.08452 7.62559C8.08257 7.60724 8.08052 7.58865 8.07846 7.5699C8.06853 7.47949 8.05819 7.38542 8.05522 7.2994C8.04788 7.0864 8.09192 6.90971 8.1401 6.78557C8.16416 6.72354 8.1895 6.67402 8.21055 6.63902C8.22097 6.62168 8.23092 6.60695 8.23975 6.59563C8.24397 6.59021 8.24919 6.58396 8.25502 6.57827C8.25778 6.57559 8.26252 6.5712 8.26878 6.56692C8.26886 6.56687 8.26896 6.56679 8.26906 6.56673Z" fill="#DD936F"/>
<path fill-rule="evenodd" clip-rule="evenodd" d="M6.85521 7.61379C7.01522 7.61379 7.14486 7.42545 7.14486 7.14483C7.14486 6.86419 7.01522 6.67586 6.85521 6.67586C6.69519 6.67586 6.56555 6.86419 6.56555 7.14483C6.56555 7.42545 6.69519 7.61379 6.85521 7.61379Z" fill="#654840"/>
<path fill-rule="evenodd" clip-rule="evenodd" d="M9.11718 7.61379C9.27714 7.61379 9.40695 7.42545 9.40695 7.14483C9.40695 6.86419 9.27714 6.67586 9.11718 6.67586C8.95743 6.67586 8.82764 6.86419 8.82764 7.14483C8.82764 7.42545 8.95743 7.61379 9.11718 7.61379Z" fill="#654840"/>
<g style="mix-blend-mode:multiply" opacity="0.687386">
<path d="M6.41379 8.44138C6.71088 8.44138 6.95172 8.28082 6.95172 8.08276C6.95172 7.8847 6.71088 7.72414 6.41379 7.72414C6.11669 7.72414 5.87585 7.8847 5.87585 8.08276C5.87585 8.28082 6.11669 8.44138 6.41379 8.44138Z" fill="#FFC0BE"/>
</g>
<g style="mix-blend-mode:multiply" opacity="0.687386">
<path d="M9.66891 8.44138C9.966 8.44138 10.2068 8.28082 10.2068 8.08276C10.2068 7.8847 9.966 7.72414 9.66891 7.72414C9.37182 7.72414 9.13098 7.8847 9.13098 8.08276C9.13098 8.28082 9.37182 8.44138 9.66891 8.44138Z" fill="#FFC0BE"/>
</g>
<path d="M10.7173 8.93794C10.8772 8.93794 11.0069 8.80825 11.0069 8.64828C11.0069 8.48831 10.8772 8.35863 10.7173 8.35863C10.5573 8.35863 10.4276 8.48831 10.4276 8.64828C10.4276 8.80825 10.5573 8.93794 10.7173 8.93794Z" fill="#FFB956"/>
<path d="M5.36802 8.93794C5.528 8.93794 5.65768 8.80825 5.65768 8.64828C5.65768 8.48831 5.528 8.35863 5.36802 8.35863C5.20805 8.35863 5.07837 8.48831 5.07837 8.64828C5.07837 8.80825 5.20805 8.93794 5.36802 8.93794Z" fill="#FFB956"/>
<path fill-rule="evenodd" clip-rule="evenodd" d="M7.35168 8.88276C7.35168 8.88276 7.69651 8.85518 8.02754 8.85518C8.35859 8.85518 8.78617 8.89655 8.78617 8.89655C8.78617 8.89655 8.53789 9.15863 8.06893 9.15863C7.59997 9.15863 7.35168 8.88276 7.35168 8.88276Z" fill="white"/>
<path fill-rule="evenodd" clip-rule="evenodd" d="M7.35168 8.88274C7.29016 8.93812 7.29019 8.93813 7.29022 8.93817L7.29029 8.93824L7.29041 8.93838L7.29075 8.93876C7.29102 8.93906 7.29135 8.9394 7.29172 8.93982C7.29249 8.94065 7.29352 8.94173 7.29479 8.94306C7.29732 8.94571 7.30085 8.94931 7.30536 8.95374C7.31441 8.96259 7.32743 8.97473 7.34438 8.98906C7.37827 9.0177 7.42805 9.05521 7.49338 9.09254C7.62424 9.16732 7.81757 9.24137 8.06893 9.24137C8.31938 9.24137 8.51216 9.17127 8.6429 9.10031C8.70815 9.06488 8.75793 9.02926 8.79185 9.00202C8.80883 8.9884 8.82188 8.97684 8.83094 8.9684C8.83547 8.96418 8.83902 8.96074 8.84157 8.95821C8.84285 8.95695 8.84388 8.9559 8.84466 8.9551C8.84505 8.95471 8.84536 8.95437 8.84563 8.95409L8.84599 8.95373L8.84613 8.95359L8.84619 8.95352C8.84621 8.95349 8.84624 8.95346 8.78616 8.89654L8.84624 8.95346C8.86799 8.93051 8.87475 8.89717 8.86368 8.86754C8.8526 8.83793 8.82561 8.81721 8.79413 8.81417L8.78616 8.89654C8.79413 8.81417 8.79415 8.81417 8.79413 8.81417L8.78905 8.81368C8.78577 8.81337 8.78094 8.81293 8.77471 8.81235C8.76221 8.81121 8.74405 8.80957 8.72125 8.80762C8.67565 8.80371 8.61141 8.79851 8.53675 8.79329C8.3878 8.7829 8.19593 8.7724 8.02754 8.7724C7.85997 8.7724 7.68938 8.77938 7.561 8.78632C7.49674 8.78979 7.44288 8.79326 7.40504 8.79587C7.38611 8.79718 7.37119 8.79827 7.36096 8.79904C7.35585 8.79941 7.35191 8.79973 7.34924 8.79993L7.3451 8.80026C7.34508 8.80026 7.34508 8.80026 7.35168 8.88274ZM7.57947 8.95109C7.68996 9.01349 7.85389 9.07585 8.06893 9.07585C8.28066 9.07585 8.44296 9.01862 8.5535 8.96041C8.54425 8.95974 8.53483 8.95909 8.52522 8.95842C8.37763 8.94812 8.19019 8.93791 8.02754 8.93791C7.86815 8.93791 7.70507 8.9444 7.57947 8.95109ZM7.35168 8.88274L7.3451 8.80026C7.31371 8.80276 7.28644 8.82287 7.2748 8.85212C7.26315 8.88137 7.2691 8.91471 7.29016 8.93812L7.35168 8.88274Z" fill="#C14E45"/>
<path fill-rule="evenodd" clip-rule="evenodd" d="M5.59998 7.36551C5.59998 6.74086 6.10635 6.23448 6.73101 6.23448C7.34476 6.23448 7.84432 6.72334 7.86159 7.33292C7.86991 7.33062 7.87874 7.32825 7.88791 7.32589C7.9416 7.31203 8.01305 7.29654 8.06893 7.29654C8.12552 7.29654 8.19048 7.31231 8.23805 7.3264C8.24213 7.32762 8.2461 7.32883 8.24998 7.33001C8.28271 6.73472 8.7758 6.26208 9.37929 6.26208C10.0039 6.26208 10.5103 6.76845 10.5103 7.39311C10.5103 8.01776 10.0039 8.52414 9.37929 8.52414C8.77232 8.52414 8.27704 8.04604 8.24946 7.4459C8.23741 7.44176 8.2228 7.43698 8.20671 7.43222C8.16119 7.41873 8.1089 7.4069 8.06893 7.4069C8.02827 7.4069 7.96869 7.419 7.91548 7.43273C7.89399 7.43828 7.87449 7.44384 7.85905 7.44844C7.8166 8.03437 7.32777 8.49654 6.73101 8.49654C6.10635 8.49654 5.59998 7.99017 5.59998 7.36551ZM6.73101 6.34483C6.16729 6.34483 5.71032 6.80181 5.71032 7.36551C5.71032 7.92923 6.16729 8.3862 6.73101 8.3862C7.29471 8.3862 7.75169 7.92923 7.75169 7.36551C7.75169 6.80181 7.29471 6.34483 6.73101 6.34483ZM9.37929 6.37242C8.81557 6.37242 8.35859 6.82939 8.35859 7.39311C8.35859 7.95681 8.81557 8.41379 9.37929 8.41379C9.94299 8.41379 10.4 7.95681 10.4 7.39311C10.4 6.82939 9.94299 6.37242 9.37929 6.37242Z" fill="#FFB956"/>
</g>
<defs>
<clipPath id="clip0_2_1512">
<rect width="16" height="16.0156" rx="8" fill="white"/>
</clipPath>
</defs>
</svg>
