<svg width="16" height="16" viewBox="0 0 16 16" fill="none" xmlns="http://www.w3.org/2000/svg">
<g clip-path="url(#clip0_2_1692)">
<path fill-rule="evenodd" clip-rule="evenodd" d="M16 8C16 10.1217 15.1572 12.1566 13.6569 13.6569C12.1566 15.1572 10.1217 16 8 16C5.87828 16 3.84344 15.1572 2.34313 13.6569C0.842813 12.1566 0 10.1217 0 8C0 5.87828 0.842813 3.84344 2.34313 2.34313C3.84344 0.842813 5.87828 0 8 0C10.1217 0 12.1566 0.842813 13.6569 2.34313C15.1572 3.84344 16 5.87828 16 8Z" fill="#C2BDFF"/>
<mask id="mask0_2_1692" style="mask-type:alpha" maskUnits="userSpaceOnUse" x="0" y="0" width="16" height="16">
<path fill-rule="evenodd" clip-rule="evenodd" d="M16 8C16 10.1217 15.1572 12.1566 13.6569 13.6569C12.1566 15.1572 10.1217 16 8 16C5.87828 16 3.84344 15.1572 2.34313 13.6569C0.842813 12.1566 0 10.1217 0 8C0 5.87828 0.842813 3.84344 2.34313 2.34313C3.84344 0.842813 5.87828 0 8 0C10.1217 0 12.1566 0.842813 13.6569 2.34313C15.1572 3.84344 16 5.87828 16 8Z" fill="#C2BDFF"/>
</mask>
<g mask="url(#mask0_2_1692)">
<path fill-rule="evenodd" clip-rule="evenodd" d="M9.19409 7.42188C8.21034 7.42188 7.41284 6.63141 7.41284 5.65625C7.41284 4.68109 8.21034 3.89062 9.19409 3.89062C9.35128 3.89062 9.50347 3.91078 9.64862 3.94859C10.4122 4.14766 10.9753 4.83688 10.9753 5.65625C10.9753 6.63141 10.1778 7.42188 9.19409 7.42188Z" fill="#110D2E"/>
<path fill-rule="evenodd" clip-rule="evenodd" d="M8.16068 3.10938H6.62146C5.72396 3.10938 4.99646 3.83688 4.99646 4.73438C4.99646 4.77047 4.99771 4.80672 5.00005 4.84281C5.05787 5.70813 5.10005 6.22969 5.1263 6.40734C5.16693 6.68234 5.27099 6.81734 5.43818 6.8125L8.32615 6.49281C9.14943 6.40156 9.77224 5.70594 9.77224 4.87766V4.72094C9.77224 3.83094 9.05084 3.10938 8.16068 3.10938Z" fill="#110D2E"/>
<path fill-rule="evenodd" clip-rule="evenodd" d="M7.14062 9.65625H8.875V12.9062H7.14062V9.65625Z" fill="#FFCACA"/>
<path fill-rule="evenodd" clip-rule="evenodd" d="M8.76562 9.82031C8.76562 10.0231 8.43687 10.1875 8.03125 10.1875C7.62563 10.1875 7.29688 10.0231 7.29688 9.82031C7.29688 9.6175 7.62563 9.45312 8.03125 9.45312C8.43687 9.45312 8.76562 9.6175 8.76562 9.82031Z" fill="#FFB0B0" fill-opacity="0.519148"/>
<path fill-rule="evenodd" clip-rule="evenodd" d="M2.875 16.4777L3.12859 13.205C3.17875 12.5581 3.62344 12.0095 4.24594 11.8266C5.72703 11.3912 6.66031 11.1387 7.04563 11.0689C7.41453 11.0022 7.74094 11.6172 7.96875 11.6172C8.19656 11.6172 8.59297 11.002 8.96453 11.0687C9.35141 11.1383 10.2905 11.3892 11.7816 11.8217C12.4189 12.0067 12.87 12.5741 12.9064 13.2369L13.0789 16.3839" fill="#6E66D4"/>
<path d="M4.82875 14.1069L4.39844 16.263" stroke="black" stroke-opacity="0.129434" stroke-width="0.109375" stroke-linecap="round"/>
<path d="M11.3119 14.3228L11.7422 16.4789" stroke="black" stroke-opacity="0.129434" stroke-width="0.109375" stroke-linecap="round"/>
<path fill-rule="evenodd" clip-rule="evenodd" d="M10.2188 6.82812C10.2188 8.54531 9.22531 9.9375 8 9.9375C6.77469 9.9375 5.78125 8.54531 5.78125 6.82812C5.78125 5.11094 6.77469 3.71875 8 3.71875C9.22531 3.71875 10.2188 5.11094 10.2188 6.82812Z" fill="#FFCACA"/>
<path fill-rule="evenodd" clip-rule="evenodd" d="M10.2188 8.39844C10.2188 8.61844 9.96344 8.79688 9.64844 8.79688C9.33344 8.79688 9.07812 8.61844 9.07812 8.39844C9.07812 8.17844 9.33344 8 9.64844 8C9.96344 8 10.2188 8.17844 10.2188 8.39844Z" fill="#FFAAAA" fill-opacity="0.216335"/>
<path fill-rule="evenodd" clip-rule="evenodd" d="M10.2127 6.48438C9.82112 6.30953 9.30394 5.90703 8.66112 5.27688C8.01831 4.64656 7.06065 5.04906 5.78784 6.48438L5.90612 4.49688L7.35034 3.37422L9.25643 3.93219C10.3186 4.76922 10.8292 5.18781 10.7878 5.18781C10.7466 5.18781 10.5549 5.62 10.2127 6.48438Z" fill="#110D2E"/>
<path fill-rule="evenodd" clip-rule="evenodd" d="M6.35938 7.15625C6.35938 7.52734 6.10406 7.82812 5.78906 7.82812C5.47406 7.82812 5.21875 7.52734 5.21875 7.15625C5.21875 6.78516 5.47406 6.48438 5.78906 6.48438C6.10406 6.48438 6.35938 6.78516 6.35938 7.15625Z" fill="#FFCACA"/>
<path d="M5.86934 6.95312C5.60871 6.96141 5.45137 7.03781 5.39746 7.18219" stroke="#FF9494" stroke-width="0.0625" stroke-linecap="round"/>
<path d="M5.58911 7.01562C5.75192 7.13125 5.80896 7.27359 5.76005 7.44266" stroke="#FF9494" stroke-width="0.0625" stroke-linecap="round"/>
<path fill-rule="evenodd" clip-rule="evenodd" d="M10.8125 7.15625C10.8125 7.52734 10.5572 7.82812 10.2422 7.82812C9.92719 7.82812 9.67188 7.52734 9.67188 7.15625C9.67188 6.78516 9.92719 6.48438 10.2422 6.48438C10.5572 6.48438 10.8125 6.78516 10.8125 7.15625Z" fill="#FFCACA"/>
<path d="M10.1475 6.95312C10.4081 6.96141 10.5654 7.03781 10.6193 7.18219" stroke="#FF9494" stroke-width="0.0625" stroke-linecap="round"/>
<path d="M10.4279 7.01562C10.2651 7.13125 10.208 7.27359 10.2569 7.44266" stroke="#FF9494" stroke-width="0.0625" stroke-linecap="round"/>
<path fill-rule="evenodd" clip-rule="evenodd" d="M7.29688 8.39844C7.29688 8.61844 7.04156 8.79688 6.72656 8.79688C6.41156 8.79688 6.15625 8.61844 6.15625 8.39844C6.15625 8.17844 6.41156 8 6.72656 8C7.04156 8 7.29688 8.17844 7.29688 8.39844Z" fill="#FFAAAA" fill-opacity="0.216335"/>
<path d="M8.71143 6.40734C8.93627 6.29 9.11799 6.23141 9.25642 6.23141C9.39486 6.23141 9.57658 6.29 9.80142 6.40734" stroke="#110D2E" stroke-width="0.109375" stroke-linecap="round"/>
<path d="M6.60205 6.36047C6.82268 6.30172 7.00221 6.2725 7.14064 6.2725C7.27908 6.2725 7.46283 6.30172 7.69205 6.36047" stroke="#110D2E" stroke-width="0.109375" stroke-linecap="round"/>
<path fill-rule="evenodd" clip-rule="evenodd" d="M7.42188 6.95312C7.42188 7.03078 7.35891 7.09375 7.28125 7.09375C7.20359 7.09375 7.14062 7.03078 7.14062 6.95312C7.14062 6.87547 7.20359 6.8125 7.28125 6.8125C7.35891 6.8125 7.42188 6.87547 7.42188 6.95312Z" fill="#110D2E"/>
<path fill-rule="evenodd" clip-rule="evenodd" d="M9.17188 6.875C9.17188 6.95266 9.10891 7.01562 9.03125 7.01562C8.95359 7.01562 8.89062 6.95266 8.89062 6.875C8.89062 6.79734 8.95359 6.73438 9.03125 6.73438C9.10891 6.73438 9.17188 6.79734 9.17188 6.875Z" fill="#110D2E"/>
<path d="M8.15784 7.375V7.78125C8.15784 7.90203 8.25581 8 8.37659 8H8.48346" stroke="#FF9494" stroke-width="0.109375" stroke-linecap="round"/>
<path d="M8 8.78906H8.45" stroke="#110D2E" stroke-width="0.109375" stroke-linecap="round"/>
<path d="M9.26562 11.1031V12.1312C9.26562 12.277 9.14734 12.3953 9.00156 12.3953C8.94937 12.3953 8.89828 12.3798 8.855 12.3508L8.00781 11.7853L7.16062 12.3508C7.03937 12.4317 6.87547 12.3991 6.79437 12.2778C6.76547 12.2344 6.75 12.1834 6.75 12.1312V11.1031C6.75 10.9573 6.86828 10.8391 7.01406 10.8391C7.06625 10.8391 7.11734 10.8545 7.16062 10.8836L8.00781 11.4491L8.855 10.8836C8.97625 10.8027 9.14016 10.8353 9.22125 10.9566C9.25016 11 9.26562 11.0509 9.26562 11.1031Z" fill="#3C3596"/>
<path fill-rule="evenodd" clip-rule="evenodd" d="M8.09375 11.6094C8.09375 11.7906 8.05875 11.9375 8.01562 11.9375C7.9725 11.9375 7.9375 11.7906 7.9375 11.6094C7.9375 11.4281 7.9725 11.2812 8.01562 11.2812C8.05875 11.2812 8.09375 11.4281 8.09375 11.6094Z" fill="white" fill-opacity="0.421876"/>
</g>
</g>
<defs>
<clipPath id="clip0_2_1692">
<rect width="16" height="16" fill="white"/>
</clipPath>
</defs>
</svg>
