<svg width="16" height="16" viewBox="0 0 16 16" fill="none" xmlns="http://www.w3.org/2000/svg">
<g clip-path="url(#clip0_2_1908)">
<path fill-rule="evenodd" clip-rule="evenodd" d="M16 8C16 10.1217 15.1572 12.1566 13.6569 13.6569C12.1566 15.1572 10.1217 16 8 16C5.87828 16 3.84344 15.1572 2.34313 13.6569C0.842813 12.1566 0 10.1217 0 8C0 5.87828 0.842813 3.84344 2.34313 2.34313C3.84344 0.842813 5.87828 0 8 0C10.1217 0 12.1566 0.842813 13.6569 2.34313C15.1572 3.84344 16 5.87828 16 8Z" fill="#FFDCDC"/>
<mask id="mask0_2_1908" style="mask-type:alpha" maskUnits="userSpaceOnUse" x="0" y="0" width="16" height="16">
<path fill-rule="evenodd" clip-rule="evenodd" d="M16 8C16 10.1217 15.1572 12.1566 13.6569 13.6569C12.1566 15.1572 10.1217 16 8 16C5.87828 16 3.84344 15.1572 2.34313 13.6569C0.842813 12.1566 0 10.1217 0 8C0 5.87828 0.842813 3.84344 2.34313 2.34313C3.84344 0.842813 5.87828 0 8 0C10.1217 0 12.1566 0.842813 13.6569 2.34313C15.1572 3.84344 16 5.87828 16 8Z" fill="#FFDCDC"/>
</mask>
<g mask="url(#mask0_2_1908)">
<path fill-rule="evenodd" clip-rule="evenodd" d="M6.83515 11.1508L5.46734 9.69406C5.43781 9.66266 5.43937 9.61328 5.47078 9.58375C5.48531 9.57 5.50437 9.5625 5.52421 9.5625H10.4952C10.5383 9.5625 10.5733 9.5975 10.5733 9.64062C10.5733 9.66 10.5661 9.67875 10.553 9.69312L9.24499 11.1311C8.48687 11.7595 7.90859 12.0613 7.51015 12.0363C7.11187 12.0114 6.88687 11.7163 6.83515 11.1508Z" fill="#B25857"/>
<path fill-rule="evenodd" clip-rule="evenodd" d="M6.4375 8.71875C7.30906 8.71875 8.01562 7.56094 8.01562 6.13281C8.01562 4.70469 7.30906 3.54688 6.4375 3.54688C5.99484 3.54688 6.31562 4.11719 6.02906 4.59812C5.75141 5.06422 4.85938 4.59812 4.85938 6.13281C4.85938 7.56094 5.56594 8.71875 6.4375 8.71875Z" fill="#110D2E"/>
<path fill-rule="evenodd" clip-rule="evenodd" d="M11.25 6.13281C11.25 7.56094 10.5434 8.71875 9.67188 8.71875C8.80031 8.71875 8.09375 7.56094 8.09375 6.13281C8.09375 4.70469 8.80031 3.54688 9.67188 3.54688C10.5434 3.54688 11.25 4.70469 11.25 6.13281Z" fill="#110D2E"/>
<path fill-rule="evenodd" clip-rule="evenodd" d="M7.14062 9.65625H8.875V11.5312H7.14062V9.65625Z" fill="#FFCACA"/>
<path fill-rule="evenodd" clip-rule="evenodd" d="M8.76562 9.82031C8.76562 10.0231 8.43687 10.1875 8.03125 10.1875C7.62563 10.1875 7.29688 10.0231 7.29688 9.82031C7.29688 9.6175 7.62563 9.45312 8.03125 9.45312C8.43687 9.45312 8.76562 9.6175 8.76562 9.82031Z" fill="#FFB0B0" fill-opacity="0.519148"/>
<path fill-rule="evenodd" clip-rule="evenodd" d="M10.2188 6.82812C10.2188 8.54531 9.22531 9.9375 8 9.9375C6.77469 9.9375 5.78125 8.54531 5.78125 6.82812C5.78125 5.11094 6.77469 3.71875 8 3.71875C9.22531 3.71875 10.2188 5.11094 10.2188 6.82812Z" fill="#FFCACA"/>
<path fill-rule="evenodd" clip-rule="evenodd" d="M10.2188 8.39844C10.2188 8.61844 9.96344 8.79688 9.64844 8.79688C9.33344 8.79688 9.07812 8.61844 9.07812 8.39844C9.07812 8.17844 9.33344 8 9.64844 8C9.96344 8 10.2188 8.17844 10.2188 8.39844Z" fill="#FFAAAA" fill-opacity="0.216335"/>
<path fill-rule="evenodd" clip-rule="evenodd" d="M6.35938 7.15625C6.35938 7.52734 6.10406 7.82812 5.78906 7.82812C5.47406 7.82812 5.21875 7.52734 5.21875 7.15625C5.21875 6.78516 5.47406 6.48438 5.78906 6.48438C6.10406 6.48438 6.35938 6.78516 6.35938 7.15625Z" fill="#FFCACA"/>
<path d="M5.86934 6.95312C5.60871 6.96141 5.45137 7.03781 5.39746 7.18219" stroke="#FF9494" stroke-width="0.0625" stroke-linecap="round"/>
<path d="M5.58911 7.01562C5.75192 7.13125 5.80896 7.27359 5.76005 7.44266" stroke="#FF9494" stroke-width="0.0625" stroke-linecap="round"/>
<path fill-rule="evenodd" clip-rule="evenodd" d="M10.8125 7.15625C10.8125 7.52734 10.5572 7.82812 10.2422 7.82812C9.92719 7.82812 9.67188 7.52734 9.67188 7.15625C9.67188 6.78516 9.92719 6.48438 10.2422 6.48438C10.5572 6.48438 10.8125 6.78516 10.8125 7.15625Z" fill="#FFCACA"/>
<path d="M10.1475 6.95312C10.4081 6.96141 10.5654 7.03781 10.6193 7.18219" stroke="#FF9494" stroke-width="0.0625" stroke-linecap="round"/>
<path d="M10.4279 7.01562C10.2651 7.13125 10.208 7.27359 10.2569 7.44266" stroke="#FF9494" stroke-width="0.0625" stroke-linecap="round"/>
<path fill-rule="evenodd" clip-rule="evenodd" d="M7.98438 5.38281C6.55625 5.38281 5.39844 4.85109 5.39844 4.19531C5.39844 3.53953 6.55625 3.00781 7.98438 3.00781C9.4125 3.00781 10.5703 3.53953 10.5703 4.19531C10.5703 4.85109 9.4125 5.38281 7.98438 5.38281Z" fill="#110D2E"/>
<path fill-rule="evenodd" clip-rule="evenodd" d="M6.82422 11.1311L7.54203 11.3691C7.85984 11.4744 8.20297 11.475 8.52094 11.3706L9.24016 11.1345C9.90859 11.2736 10.7653 11.5 11.8106 11.8138C12.4333 12.0006 12.875 12.5534 12.9202 13.2019L13.1414 16.3839L2.875 16.4777L3.1275 13.2192C3.17813 12.5664 3.63047 12.0142 4.26078 11.8363C5.60547 11.4566 6.46 11.2214 6.82422 11.1311Z" fill="white"/>
<path fill-rule="evenodd" clip-rule="evenodd" d="M6.83375 11.122L6.82141 11.1311L6.12219 16.448L2.875 16.4777L3.13 13.1878C3.17969 12.5464 3.6175 12.0009 4.23313 11.8138C5.29609 11.4905 6.16297 11.2598 6.83375 11.122ZM11.8106 11.8138C12.4333 12.0006 12.875 12.5534 12.9202 13.2019L13.1414 16.3839L9.89891 16.4136L9.24547 11.1356C9.91313 11.2747 10.7681 11.5008 11.8106 11.8138Z" fill="#CD6664"/>
<path d="M4.82875 14.1069L4.39844 16.263" stroke="black" stroke-opacity="0.129434" stroke-width="0.109375" stroke-linecap="round"/>
<path d="M11.3119 14.3228L11.7422 16.4789" stroke="black" stroke-opacity="0.129434" stroke-width="0.109375" stroke-linecap="round"/>
<path fill-rule="evenodd" clip-rule="evenodd" d="M6.5045 12.2594C6.50575 12.3283 6.45075 12.3853 6.38185 12.3864C6.31278 12.3877 6.25575 12.3327 6.25466 12.2638C6.25341 12.1947 6.30841 12.1377 6.37747 12.1366C6.44638 12.1353 6.50341 12.1903 6.5045 12.2594Z" fill="white"/>
<path fill-rule="evenodd" clip-rule="evenodd" d="M6.35048 13.2778C6.35173 13.3469 6.29673 13.4037 6.22767 13.405C6.15861 13.4061 6.10173 13.3512 6.10048 13.2822C6.09939 13.2131 6.15423 13.1562 6.22329 13.155C6.29236 13.1537 6.34923 13.2087 6.35048 13.2778Z" fill="white"/>
<path fill-rule="evenodd" clip-rule="evenodd" d="M6.19643 14.2963C6.19753 14.3653 6.14268 14.4222 6.07362 14.4234C6.00456 14.4247 5.94768 14.3697 5.94643 14.3006C5.94518 14.2316 6.00018 14.1747 6.06924 14.1734C6.13831 14.1722 6.19518 14.2272 6.19643 14.2963Z" fill="white"/>
<path fill-rule="evenodd" clip-rule="evenodd" d="M6.05785 15.3144C6.0591 15.3834 6.0041 15.4405 5.93504 15.4416C5.86613 15.4428 5.8091 15.3878 5.808 15.3187C5.80675 15.2498 5.86175 15.1928 5.93066 15.1917C5.99972 15.1905 6.05675 15.2455 6.05785 15.3144Z" fill="white"/>
<path d="M8.71143 6.40734C8.93627 6.29 9.11799 6.23141 9.25642 6.23141C9.39486 6.23141 9.57658 6.29 9.80142 6.40734" stroke="#110D2E" stroke-width="0.109375" stroke-linecap="round"/>
<path d="M6.60205 6.36047C6.82268 6.30172 7.00221 6.2725 7.14064 6.2725C7.27908 6.2725 7.46283 6.30172 7.69205 6.36047" stroke="#110D2E" stroke-width="0.109375" stroke-linecap="round"/>
<path fill-rule="evenodd" clip-rule="evenodd" d="M7.42188 6.95312C7.42188 7.03078 7.35891 7.09375 7.28125 7.09375C7.20359 7.09375 7.14062 7.03078 7.14062 6.95312C7.14062 6.87547 7.20359 6.8125 7.28125 6.8125C7.35891 6.8125 7.42188 6.87547 7.42188 6.95312Z" fill="#110D2E"/>
<path fill-rule="evenodd" clip-rule="evenodd" d="M9.17188 6.875C9.17188 6.95266 9.10891 7.01562 9.03125 7.01562C8.95359 7.01562 8.89062 6.95266 8.89062 6.875C8.89062 6.79734 8.95359 6.73438 9.03125 6.73438C9.10891 6.73438 9.17188 6.79734 9.17188 6.875Z" fill="#110D2E"/>
<path d="M8.15784 7.375V7.78125C8.15784 7.90203 8.25581 8 8.37659 8H8.48346" stroke="#FF9494" stroke-width="0.109375" stroke-linecap="round"/>
<path d="M8 8.78906H8.45" stroke="#110D2E" stroke-width="0.109375" stroke-linecap="round"/>
<path fill-rule="evenodd" clip-rule="evenodd" d="M7.29688 8.39844C7.29688 8.61844 7.04156 8.79688 6.72656 8.79688C6.41156 8.79688 6.15625 8.61844 6.15625 8.39844C6.15625 8.17844 6.41156 8 6.72656 8C7.04156 8 7.29688 8.17844 7.29688 8.39844Z" fill="#FFAAAA" fill-opacity="0.216335"/>
</g>
</g>
<defs>
<clipPath id="clip0_2_1908">
<rect width="16" height="16" fill="white"/>
</clipPath>
</defs>
</svg>
