<svg width="16" height="16" viewBox="0 0 16 16" fill="none" xmlns="http://www.w3.org/2000/svg">
<g clip-path="url(#clip0_2_1187)">
<path d="M16.0078 8.00781C16.0078 10.4941 14.8728 12.7177 13.0933 14.1845C12.9611 14.2941 12.8262 14.3983 12.6861 14.4989C12.5136 14.6233 12.3358 14.7416 12.1536 14.8509C10.945 15.5856 9.52547 16.0078 8.00781 16.0078C7.87375 16.0078 7.74062 16.0052 7.60938 15.9981C7.46578 15.9911 7.32391 15.9806 7.18297 15.9648C6.18281 15.8641 5.23875 15.5769 4.38312 15.1417C4.15547 15.0253 3.93391 14.8983 3.71922 14.7616C3.57562 14.6705 3.43641 14.5741 3.29969 14.4744C1.30391 13.0206 0.0078125 10.6666 0.0078125 8.00781C0.0078125 3.58969 3.58969 0.0078125 8.00781 0.0078125C12.4259 0.0078125 16.0078 3.58969 16.0078 8.00781Z" fill="#FED685"/>
<path d="M5.26326 7.26859C5.28857 7.5475 5.24498 7.82109 5.14201 8.02937C5.03888 8.23765 4.88498 8.36328 4.71404 8.3789C4.54294 8.39437 4.36888 8.29859 4.22998 8.11218C4.09107 7.92593 3.99888 7.66468 3.97357 7.38578C3.92076 6.80484 4.16669 6.30765 4.52279 6.27531C4.87888 6.24297 5.21044 6.68765 5.26326 7.26859Z" fill="#FF9F8E"/>
<path d="M5.07667 7.59608C5.04652 7.41639 4.96886 7.23514 4.82667 7.11593C4.79214 7.08702 4.75714 7.05921 4.71496 7.03764C4.67418 7.01608 4.62058 7.00546 4.57496 7.02389C4.48308 7.06374 4.45167 7.16233 4.44324 7.24624C4.45933 7.16311 4.50496 7.07296 4.58371 7.04999C4.66324 7.02952 4.73136 7.09718 4.78933 7.15608C4.90589 7.27702 4.9573 7.44452 4.96761 7.60905C4.96949 7.63936 4.99574 7.66249 5.02605 7.66061C5.05636 7.65874 5.07949 7.63249 5.07761 7.60218C5.0773 7.6003 5.07699 7.59796 5.07667 7.59608Z" fill="#152140"/>
<path d="M11.2094 6.39984C11.3645 6.41406 11.5038 6.53562 11.596 6.73781C11.6883 6.94015 11.7263 7.20656 11.7016 7.47859C11.6769 7.75047 11.5914 8.00578 11.4642 8.18812C11.3369 8.37047 11.1783 8.465 11.023 8.45078C10.6997 8.4214 10.4792 7.93859 10.5308 7.37218C10.5822 6.80578 10.8861 6.37047 11.2094 6.39984Z" fill="#FF9F8E"/>
<path d="M10.7996 7.68376C10.8298 7.50407 10.9074 7.32282 11.0496 7.2036C11.0842 7.1747 11.1192 7.14688 11.1613 7.12532C11.2021 7.10376 11.2557 7.09313 11.3013 7.11157C11.3932 7.15141 11.4246 7.25001 11.4331 7.33391C11.417 7.25079 11.3713 7.16063 11.2926 7.13766C11.2131 7.1172 11.1449 7.18485 11.087 7.24376C10.9704 7.3647 10.919 7.5322 10.9087 7.69673C10.9068 7.72704 10.8806 7.75016 10.8503 7.74829C10.8199 7.74641 10.7968 7.72016 10.7987 7.68985C10.799 7.68782 10.7992 7.68548 10.7996 7.68376Z" fill="#152140"/>
<path d="M6.55005 10.7669H9.18021V13.6573H6.55005V10.7669Z" fill="#FF9F8E"/>
<path d="M5.0803 6.72156C4.98373 6.34984 4.82748 5.8139 4.58139 5.18202C4.37498 4.65249 4.31108 4.58343 4.32655 4.3964C4.39217 3.60687 5.68233 3.01265 6.66233 2.86749C7.18952 2.78937 7.62873 2.84093 7.89389 2.88874C7.88795 2.79828 7.86108 2.58906 7.7028 2.41093C7.65311 2.35499 7.60077 2.31374 7.55405 2.28359C7.64748 2.27077 8.02248 2.23015 8.37155 2.47468C8.59998 2.63468 8.70873 2.84062 8.75373 2.94187C8.78061 2.78124 8.7953 2.56843 8.75373 2.32609C8.73983 2.24499 8.72123 2.17062 8.70061 2.10312C8.77452 2.14718 8.89905 2.23546 8.99795 2.38984C9.15327 2.63218 9.14342 2.87812 9.13592 2.96312C9.2228 2.86406 9.40233 2.68624 9.68795 2.57031C9.94623 2.46546 10.1751 2.45859 10.3037 2.46421C10.2625 2.4689 10.023 2.49999 9.87905 2.70843C9.80811 2.81109 9.7892 2.91499 9.78358 2.9739C9.90936 2.95031 10.0908 2.93187 10.3039 2.96327C10.6401 3.01281 10.8808 3.16046 11.0047 3.24999C10.8455 3.28187 10.6862 3.31374 10.5269 3.34562C10.6578 3.37734 10.8558 3.43921 11.0683 3.56859C11.1536 3.62046 11.747 3.9814 11.6947 4.34359C11.6758 4.47406 11.5847 4.52562 11.4823 4.64093C11.0215 5.15999 11.3784 5.79718 11.0151 6.48828C10.9334 6.6439 10.7805 6.86796 10.4737 7.08281C8.67592 6.96218 6.87811 6.84187 5.0803 6.72156Z" fill="#152140"/>
<path d="M9.18021 10.7669V11.5777C8.44333 11.9091 7.39364 11.9788 6.55005 11.6331V10.7669H9.18021Z" fill="#F5575D"/>
<path d="M7.6019 3.64704C6.48706 3.8297 5.59972 4.67407 5.29815 5.76267C5.01284 6.79235 4.85769 8.04892 5.1444 9.3822C5.36815 10.4225 5.70956 10.8058 5.88753 10.9749C6.85862 11.8959 8.63503 11.8095 9.56112 11.2084C10.8588 10.3661 11.3139 7.97642 10.3478 5.25235C9.96644 4.17689 8.89831 3.49079 7.76519 3.62407C7.75519 3.62532 7.74519 3.62642 7.73503 3.62782C7.69003 3.63345 7.64565 3.64001 7.6019 3.64704Z" fill="#FF9F8E"/>
<path d="M9.9342 5.9922C10.1008 6.71345 9.79951 7.39892 9.26154 7.52314C8.72358 7.64735 8.15248 7.16314 7.98608 6.44173C7.81951 5.72048 8.12061 5.03501 8.65858 4.91079C9.19655 4.78657 9.76764 5.27079 9.9342 5.9922Z" fill="white" fill-opacity="0.4" stroke="#0F0F0F" stroke-opacity="0.4" stroke-width="0.1"/>
<path d="M7.17434 4.99251C7.70825 5.24751 7.867 6.02782 7.52887 6.73532C7.19075 7.44282 6.48387 7.80954 5.95012 7.55438C5.41622 7.29923 5.25762 6.51891 5.59559 5.81157C5.93372 5.10407 6.64059 4.73735 7.17434 4.99251Z" fill="white" fill-opacity="0.4" stroke="#0F0F0F" stroke-opacity="0.4" stroke-width="0.1"/>
<path d="M6.39113 6.72358C6.39113 6.88421 6.26098 7.01436 6.10035 7.01436C5.93973 7.01436 5.80957 6.88421 5.80957 6.72358C5.80957 6.56296 5.93973 6.4328 6.10035 6.4328C6.26098 6.4328 6.39113 6.56296 6.39113 6.72358Z" fill="#152140"/>
<path d="M6.31322 6.60907C6.31322 6.63 6.30494 6.65016 6.2901 6.66516C6.2751 6.68 6.25494 6.68828 6.234 6.68828C6.21307 6.68828 6.19291 6.68 6.17791 6.66516C6.16307 6.65016 6.15479 6.63 6.15479 6.60907C6.15479 6.58813 6.16307 6.56797 6.17791 6.55297C6.19291 6.53813 6.21307 6.52985 6.234 6.52985C6.25494 6.52985 6.2751 6.53813 6.2901 6.55297C6.30494 6.56797 6.31322 6.58813 6.31322 6.60907Z" fill="white"/>
<path d="M8.92434 6.72358C8.92434 6.88421 8.79418 7.01436 8.63355 7.01436C8.47293 7.01436 8.34277 6.88421 8.34277 6.72358C8.34277 6.56296 8.47293 6.4328 8.63355 6.4328C8.79418 6.4328 8.92434 6.56296 8.92434 6.72358Z" fill="#152140"/>
<path d="M8.84655 6.60907C8.84655 6.63 8.83827 6.65016 8.82342 6.66516C8.80842 6.68 8.78827 6.68828 8.76733 6.68828C8.74639 6.68828 8.72624 6.68 8.71124 6.66516C8.69639 6.65016 8.68811 6.63 8.68811 6.60907C8.68811 6.58813 8.69639 6.56797 8.71124 6.55297C8.72624 6.53813 8.74639 6.52985 8.76733 6.52985C8.78827 6.52985 8.80842 6.53813 8.82342 6.55297C8.83827 6.56797 8.84655 6.58813 8.84655 6.60907Z" fill="white"/>
<path d="M10.7377 5.75797C10.4749 5.58719 10.1789 5.35937 9.88832 5.05719C9.77769 4.94219 9.6791 4.82812 9.59097 4.7175C9.6016 4.85531 9.62769 5.02265 9.6866 5.20594C9.71566 5.29625 9.74847 5.37781 9.78207 5.45015C9.68863 5.36125 9.51175 5.16828 9.42113 4.86625C9.29019 4.43031 9.428 4.06328 9.47425 3.95312C9.38988 4.10765 9.24222 4.33156 8.99644 4.53703C8.6166 4.85469 8.21582 4.95015 8.01957 4.98297C8.12707 4.85562 8.25035 4.72297 8.39113 4.59015C8.7316 4.26906 9.07441 4.04078 9.368 3.87875C8.91769 4.00328 8.42019 4.16797 7.89222 4.38844C7.49082 4.55594 7.12613 4.73281 6.79863 4.90875C6.85644 4.80344 6.94988 4.66265 7.09597 4.52656C7.31441 4.32312 7.54394 4.23 7.67988 4.18687C7.29535 4.25437 6.763 4.395 6.19347 4.70719C5.848 4.8964 5.57003 5.10437 5.35472 5.29109C5.22738 5.015 5.09988 4.73906 4.97253 4.46297C5.37519 4.31719 5.93019 4.12281 6.59691 3.91094C8.9855 3.15156 9.36816 3.25812 9.56972 3.34828C10.5002 3.76359 10.691 5.21953 10.7377 5.75797Z" fill="#152140"/>
<path d="M6.78635 4.64109C6.77119 4.60812 6.59275 4.6303 6.44916 4.72374C6.2515 4.85202 6.16025 5.08827 6.19104 5.11265C6.20588 5.12437 6.24354 5.0828 6.45947 4.91312C6.71932 4.70874 6.79713 4.66499 6.78635 4.64109Z" fill="#152140"/>
<path d="M8.75892 4.6425C8.76658 4.60703 8.94564 4.59047 9.10611 4.65078C9.32674 4.73375 9.46642 4.94484 9.44158 4.97531C9.42971 4.99 9.38392 4.95734 9.13658 4.83797C8.83877 4.69406 8.7533 4.66797 8.75892 4.6425Z" fill="#152140"/>
<path d="M9.75082 7.43608C9.77379 7.5414 9.55926 7.67749 9.27176 7.74015C8.9841 7.80265 8.73254 7.76796 8.70957 7.66265C8.6866 7.55733 8.90113 7.42124 9.18863 7.35874C9.47629 7.29624 9.72785 7.33077 9.75082 7.43608Z" fill="#FF8777"/>
<path d="M6.14123 7.44484C6.42873 7.50734 6.64326 7.64343 6.62045 7.74874C6.59748 7.85406 6.34576 7.88874 6.05826 7.82609C5.77076 7.76359 5.55623 7.62749 5.5792 7.52218C5.60201 7.41687 5.85373 7.38218 6.14123 7.44484Z" fill="#FF8777"/>
<path d="M12.1536 14.8509C10.945 15.5856 9.52549 16.0078 8.00783 16.0078C7.87377 16.0078 7.74064 16.0051 7.60939 15.9981C7.4658 15.9911 7.32393 15.9806 7.18299 15.9648C6.18283 15.864 5.23877 15.5769 4.38314 15.1417C4.15549 15.0253 3.93393 14.8983 3.71924 14.7615C3.72455 14.7537 3.73064 14.7467 3.7358 14.7387C3.78221 14.6765 3.82861 14.6144 3.87861 14.5522C4.19658 14.1423 4.5258 13.778 4.85424 13.4514C5.30877 12.9951 5.75533 12.6176 6.15564 12.313C6.27049 12.2298 6.44205 12.2211 6.56018 12.2981C6.76424 12.4312 7.09971 12.6003 7.55424 12.6475C8.21549 12.7194 8.73393 12.4908 8.99486 12.3392C9.10877 12.2744 9.25939 12.2744 9.36611 12.348C9.83111 12.6562 10.3172 13.0214 10.7997 13.4514C10.8391 13.4837 10.875 13.517 10.9144 13.5522C11.3575 13.9533 11.7402 14.3561 12.0766 14.7572C12.1028 14.7887 12.1283 14.8194 12.1536 14.8509Z" fill="white"/>
<path d="M10.8001 13.4517H4.85449C5.30855 12.995 5.75543 12.6183 6.1559 12.3126C6.27043 12.2295 6.44184 12.2206 6.5598 12.2978C6.76371 12.4312 7.0998 12.6003 7.55371 12.6478C8.21496 12.7191 8.7334 12.4906 8.99434 12.3394C9.10871 12.2742 9.25902 12.2742 9.36621 12.3483C9.83121 12.6567 10.3175 13.0216 10.8001 13.4517Z" fill="#020202"/>
<path d="M12.1536 14.8509C10.945 15.5856 9.52549 16.0078 8.00783 16.0078C7.87377 16.0078 7.74064 16.0051 7.60939 15.9981C7.4658 15.9911 7.32393 15.9806 7.18299 15.9648C6.18283 15.8641 5.23877 15.5769 4.38314 15.1417C4.15549 15.0253 3.93393 14.8983 3.71924 14.7616C3.72455 14.7537 3.73064 14.7467 3.7358 14.7387L5.29471 15.237H10.5781L12.0766 14.7572C12.1028 14.7887 12.1283 14.8194 12.1536 14.8509Z" fill="#020202"/>
<path d="M8.74331 10.0847V10.0858C8.70113 10.3208 8.30519 10.4466 7.85972 10.3672C7.73284 10.3445 7.61644 10.3073 7.51425 10.2609C7.25863 10.1434 7.09972 9.96406 7.12972 9.79594C7.15659 9.6475 7.32159 9.54328 7.55034 9.50625C7.68753 9.4825 7.84628 9.48359 8.01331 9.51344C8.18863 9.54547 8.34628 9.60422 8.46894 9.67844C8.65878 9.79187 8.768 9.9414 8.74331 10.0847Z" fill="#DD5543"/>
<path d="M8.46904 9.67844C8.38451 9.76297 8.22373 9.81969 8.03919 9.81969C7.76591 9.81969 7.54529 9.69594 7.54529 9.54437C7.54529 9.53094 7.54732 9.51859 7.55044 9.50625C7.68763 9.4825 7.84638 9.48359 8.01341 9.51344C8.18857 9.54547 8.34623 9.60422 8.46904 9.67844Z" fill="white"/>
<path d="M8.74322 10.0847V10.0858C8.70104 10.3208 8.3051 10.4466 7.85963 10.3672C7.73275 10.3445 7.61635 10.3074 7.51416 10.2609C7.5915 10.1392 7.92244 10.0466 8.31838 10.0466C8.47416 10.0466 8.61947 10.0609 8.74322 10.0847Z" fill="white"/>
<path d="M7.8327 8.77468L7.66551 8.74234C7.24614 8.6614 6.97192 8.25577 7.05286 7.83656L7.08004 7.69562C7.1277 7.44921 7.36598 7.28796 7.61239 7.33562L7.78739 7.36937C8.24348 7.45749 8.54176 7.89874 8.45348 8.35484C8.39801 8.64218 8.12005 8.83015 7.8327 8.77468Z" fill="url(#paint0_linear_2_1187)"/>
</g>
<defs>
<linearGradient id="paint0_linear_2_1187" x1="778.462" y1="2127.82" x2="652.584" y2="2056.48" gradientUnits="userSpaceOnUse">
<stop offset="0.2403" stop-color="#DD5543" stop-opacity="0"/>
<stop offset="1" stop-color="#DD5543" stop-opacity="0.6"/>
</linearGradient>
<clipPath id="clip0_2_1187">
<rect width="16" height="16" fill="white"/>
</clipPath>
</defs>
</svg>
