<svg width="16" height="16" viewBox="0 0 16 16" fill="none" xmlns="http://www.w3.org/2000/svg">
<g clip-path="url(#clip0_2_1742)">
<path fill-rule="evenodd" clip-rule="evenodd" d="M16 8C16 10.1217 15.1572 12.1566 13.6569 13.6569C12.1566 15.1572 10.1217 16 8 16C5.87828 16 3.84344 15.1572 2.34313 13.6569C0.842813 12.1566 0 10.1217 0 8C0 5.87828 0.842813 3.84344 2.34313 2.34313C3.84344 0.842813 5.87828 0 8 0C10.1217 0 12.1566 0.842813 13.6569 2.34313C15.1572 3.84344 16 5.87828 16 8Z" fill="#BDDFFF"/>
<mask id="mask0_2_1742" style="mask-type:alpha" maskUnits="userSpaceOnUse" x="0" y="0" width="16" height="16">
<path fill-rule="evenodd" clip-rule="evenodd" d="M16 8C16 10.1217 15.1572 12.1566 13.6569 13.6569C12.1566 15.1572 10.1217 16 8 16C5.87828 16 3.84344 15.1572 2.34313 13.6569C0.842813 12.1566 0 10.1217 0 8C0 5.87828 0.842813 3.84344 2.34313 2.34313C3.84344 0.842813 5.87828 0 8 0C10.1217 0 12.1566 0.842813 13.6569 2.34313C15.1572 3.84344 16 5.87828 16 8Z" fill="#BDDFFF"/>
</mask>
<g mask="url(#mask0_2_1742)">
<path fill-rule="evenodd" clip-rule="evenodd" d="M10.3906 7.84375C10.3906 9.03469 9.32031 10 8 10C6.67969 10 5.60938 9.03469 5.60938 7.84375C5.60938 6.65281 6.67969 5.6875 8 5.6875C9.32031 5.6875 10.3906 6.65281 10.3906 7.84375Z" fill="#110D2E"/>
<path fill-rule="evenodd" clip-rule="evenodd" d="M7.69198 2.88328C10.1734 2.42078 11.3064 3.73063 11.0907 6.8125C11.0373 7.57641 10.5223 7.85719 10.3679 8.14813C10.0229 8.79797 9.08885 7.18219 7.56604 3.30109L7.69198 2.88328Z" fill="#110D2E"/>
<path fill-rule="evenodd" clip-rule="evenodd" d="M7.84037 2.85828C5.81068 2.87781 4.88083 3.92266 5.05099 5.99297C5.2213 8.06312 6.54802 8.39141 9.0313 6.97766L7.84037 2.85828Z" fill="#110D2E"/>
<path fill-rule="evenodd" clip-rule="evenodd" d="M7.14062 9.65625H8.875V11.5312H7.14062V9.65625Z" fill="#FFCACA"/>
<path fill-rule="evenodd" clip-rule="evenodd" d="M9.26562 9.46094C9.26562 9.86219 8.7025 10.1875 8.00781 10.1875C7.31313 10.1875 6.75 9.86219 6.75 9.46094C6.75 9.05969 7.31313 8.73438 8.00781 8.73438C8.7025 8.73438 9.26562 9.05969 9.26562 9.46094Z" fill="#FFB0B0" fill-opacity="0.519148"/>
<path fill-rule="evenodd" clip-rule="evenodd" d="M8.00781 11.3594C8.38219 11.3594 8.70797 11.2403 8.87703 11.0644C9.58719 11.19 10.5652 11.4398 11.8106 11.8138C12.4333 12.0006 12.875 12.5534 12.9202 13.2019L13.1414 16.3839L2.875 16.4777L3.13 13.1878C3.17969 12.5464 3.6175 12.0009 4.23313 11.8138C5.46453 11.4392 6.43281 11.1891 7.13797 11.0636C7.30672 11.2398 7.63297 11.3594 8.00781 11.3594Z" fill="#4E86BA"/>
<path d="M4.82875 14.1069L4.39844 16.263" stroke="black" stroke-opacity="0.129434" stroke-width="0.109375" stroke-linecap="round"/>
<path d="M11.3119 14.3228L11.7422 16.4789" stroke="black" stroke-opacity="0.129434" stroke-width="0.109375" stroke-linecap="round"/>
<path fill-rule="evenodd" clip-rule="evenodd" d="M8.875 11.0636L8 11.3594L8.84141 12.2316L9.43437 11.1425C9.23156 11.1223 9.10531 11.1075 9.05562 11.0978C9.00594 11.0881 8.94578 11.0767 8.875 11.0636Z" fill="white"/>
<path fill-rule="evenodd" clip-rule="evenodd" d="M7.12187 11.0636L7.99687 11.3594L7.15531 12.2316L6.5625 11.1425C6.76531 11.1223 6.89156 11.1075 6.94125 11.0978C6.99094 11.0881 7.05109 11.0767 7.12187 11.0636Z" fill="white"/>
<path fill-rule="evenodd" clip-rule="evenodd" d="M5.50685 8.2L5.39747 9.41281L5.21872 10.4658L5.15685 11.7534L4.82153 12.3467L5.31372 12.5856L5.74356 11.4341L5.8506 10.2644L6.05966 9.09562L5.8506 8.73438L6.31966 8.36187L5.74356 8.16063L5.50685 8.2Z" fill="#110D2E"/>
<path fill-rule="evenodd" clip-rule="evenodd" d="M5.98751 8.15828C5.68907 8.4 5.37017 8.50078 5.27517 8.38344C5.18017 8.26609 5.34501 7.975 5.64345 7.73328C5.94189 7.49156 6.26079 7.39094 6.35579 7.50828C6.45095 7.62563 6.28595 7.91656 5.98751 8.15828Z" fill="#110D2E"/>
<path fill-rule="evenodd" clip-rule="evenodd" d="M5.59282 8.08703C5.81313 8.40156 6.09188 8.58641 6.21563 8.49984C6.33938 8.41313 6.2611 8.08797 6.04079 7.77344C5.82063 7.45891 5.54173 7.27406 5.41798 7.36063C5.29438 7.44734 5.37266 7.7725 5.59282 8.08703Z" fill="#110D2E"/>
<path fill-rule="evenodd" clip-rule="evenodd" d="M5.90051 9.15453C5.60207 9.39609 5.28301 9.49688 5.18801 9.37953C5.09301 9.26219 5.25785 8.97109 5.55629 8.72953C5.85473 8.48781 6.17364 8.38703 6.26879 8.50438C6.36379 8.62172 6.19895 8.91281 5.90051 9.15453Z" fill="#110D2E"/>
<path fill-rule="evenodd" clip-rule="evenodd" d="M5.50561 9.08328C5.72593 9.39781 6.00483 9.58266 6.12843 9.49594C6.25218 9.40938 6.17389 9.08422 5.95358 8.76953C5.73343 8.455 5.45452 8.27031 5.33093 8.35688C5.20718 8.44344 5.28546 8.76875 5.50561 9.08328Z" fill="#110D2E"/>
<path fill-rule="evenodd" clip-rule="evenodd" d="M5.7794 10.1791C5.48096 10.4208 5.16206 10.5216 5.0669 10.4042C4.9719 10.2869 5.1369 9.99578 5.43518 9.75406C5.73362 9.5125 6.05268 9.41172 6.14768 9.52906C6.24268 9.64641 6.07784 9.9375 5.7794 10.1791Z" fill="#110D2E"/>
<path fill-rule="evenodd" clip-rule="evenodd" d="M5.38467 10.1078C5.60498 10.4225 5.88373 10.6072 6.00748 10.5206C6.13123 10.4339 6.05295 10.1088 5.83264 9.79422C5.61233 9.47969 5.33358 9.29485 5.20983 9.38141C5.08608 9.46813 5.16436 9.79328 5.38467 10.1078Z" fill="#110D2E"/>
<path fill-rule="evenodd" clip-rule="evenodd" d="M5.66113 11.1725C5.36269 11.4142 5.04379 11.515 4.94863 11.3977C4.85363 11.2803 5.01847 10.9892 5.31691 10.7475C5.61535 10.5059 5.93441 10.4052 6.02941 10.5225C6.12441 10.6398 5.95957 10.9309 5.66113 11.1725Z" fill="#110D2E"/>
<path fill-rule="evenodd" clip-rule="evenodd" d="M5.26638 11.1014C5.4867 11.4159 5.76545 11.6006 5.8892 11.5141C6.01295 11.4275 5.93467 11.1022 5.71435 10.7877C5.49404 10.4731 5.21529 10.2883 5.09154 10.375C4.96779 10.4616 5.04607 10.7867 5.26638 11.1014Z" fill="#110D2E"/>
<path fill-rule="evenodd" clip-rule="evenodd" d="M5.44201 12.0956C5.10295 12.2759 4.7706 12.3139 4.69982 12.1806C4.62888 12.0472 4.84623 11.793 5.18529 11.6127C5.52435 11.4325 5.8567 11.3944 5.92763 11.5277C5.99857 11.6611 5.78107 11.9153 5.44201 12.0956Z" fill="#110D2E"/>
<path fill-rule="evenodd" clip-rule="evenodd" d="M5.0683 11.9503C5.22439 12.3011 5.46283 12.5358 5.6008 12.4744C5.73877 12.413 5.72408 12.0788 5.56783 11.728C5.41158 11.377 5.17314 11.1425 5.03518 11.2039C4.89721 11.2653 4.91205 11.5995 5.0683 11.9503Z" fill="#110D2E"/>
<path fill-rule="evenodd" clip-rule="evenodd" d="M5.12951 12.978C4.79045 13.1583 4.45826 13.1963 4.38732 13.063C4.31638 12.9297 4.53373 12.6753 4.87279 12.4952C5.21185 12.3148 5.5442 12.2767 5.61513 12.4102C5.68607 12.5434 5.46857 12.7977 5.12951 12.978Z" fill="#110D2E"/>
<path fill-rule="evenodd" clip-rule="evenodd" d="M4.75574 12.8327C4.91183 13.1836 5.15027 13.4181 5.28824 13.3567C5.42621 13.2953 5.41152 12.9611 5.25527 12.6103C5.09918 12.2595 4.86058 12.0248 4.72261 12.0863C4.5848 12.1478 4.59949 12.4819 4.75574 12.8327Z" fill="#110D2E"/>
<path fill-rule="evenodd" clip-rule="evenodd" d="M10.1087 8.33016C10.4072 8.57188 10.7261 8.67266 10.8211 8.55531C10.9162 8.43797 10.7512 8.14688 10.4528 7.90516C10.1543 7.66344 9.83544 7.56281 9.74044 7.68016C9.64528 7.7975 9.81028 8.08844 10.1087 8.33016Z" fill="#110D2E"/>
<path fill-rule="evenodd" clip-rule="evenodd" d="M10.5034 8.25891C10.2831 8.57344 10.0044 8.75828 9.8806 8.67172C9.75685 8.585 9.83513 8.25985 10.0554 7.94531C10.2756 7.63078 10.5545 7.44594 10.6783 7.5325C10.8019 7.61922 10.7236 7.94438 10.5034 8.25891Z" fill="#110D2E"/>
<path fill-rule="evenodd" clip-rule="evenodd" d="M10.196 9.32641C10.4943 9.56797 10.8133 9.66875 10.9083 9.55141C11.0033 9.43406 10.8385 9.14297 10.5401 8.90141C10.2416 8.65969 9.92272 8.55891 9.82772 8.67625C9.73256 8.79359 9.89756 9.08469 10.196 9.32641Z" fill="#110D2E"/>
<path fill-rule="evenodd" clip-rule="evenodd" d="M10.5906 9.25516C10.3703 9.56969 10.0914 9.75453 9.96776 9.66781C9.84401 9.58125 9.92229 9.25609 10.1426 8.94141C10.3628 8.62688 10.6417 8.44219 10.7654 8.52875C10.889 8.61531 10.8107 8.94063 10.5906 9.25516Z" fill="#110D2E"/>
<path fill-rule="evenodd" clip-rule="evenodd" d="M10.3169 10.3509C10.6153 10.5927 10.9343 10.6934 11.0294 10.5761C11.1244 10.4588 10.9596 10.1677 10.6611 9.92594C10.3627 9.68438 10.0436 9.5836 9.94863 9.70094C9.85363 9.81828 10.0185 10.1094 10.3169 10.3509Z" fill="#110D2E"/>
<path fill-rule="evenodd" clip-rule="evenodd" d="M10.7115 10.2797C10.4912 10.5944 10.2125 10.7791 10.0887 10.6925C9.96498 10.6058 10.0433 10.2806 10.2636 9.9661C10.4839 9.65157 10.7626 9.46672 10.8864 9.55328C11.0101 9.64 10.9319 9.96516 10.7115 10.2797Z" fill="#110D2E"/>
<path fill-rule="evenodd" clip-rule="evenodd" d="M10.4352 11.3444C10.7336 11.5861 11.0525 11.6869 11.1477 11.5695C11.2427 11.4522 11.0779 11.1611 10.7794 10.9194C10.481 10.6778 10.1619 10.577 10.0669 10.6944C9.97192 10.8117 10.1368 11.1028 10.4352 11.3444Z" fill="#110D2E"/>
<path fill-rule="evenodd" clip-rule="evenodd" d="M10.8298 11.2733C10.6095 11.5878 10.3308 11.7725 10.207 11.6859C10.0833 11.5994 10.1616 11.2741 10.3819 10.9595C10.6022 10.645 10.8809 10.4602 11.0047 10.5469C11.1284 10.6334 11.0501 10.9586 10.8298 11.2733Z" fill="#110D2E"/>
<path fill-rule="evenodd" clip-rule="evenodd" d="M10.6543 12.2675C10.9933 12.4478 11.3257 12.4858 11.3966 12.3525C11.4674 12.2191 11.25 11.9648 10.911 11.7845C10.5719 11.6044 10.2396 11.5663 10.1686 11.6995C10.0979 11.833 10.3152 12.0872 10.6543 12.2675Z" fill="#110D2E"/>
<path fill-rule="evenodd" clip-rule="evenodd" d="M11.0281 12.1222C10.8719 12.473 10.6334 12.7077 10.4954 12.6463C10.3575 12.5848 10.3722 12.2506 10.5284 11.8998C10.6847 11.5489 10.9231 11.3144 11.0611 11.3758C11.199 11.4372 11.1842 11.7714 11.0281 12.1222Z" fill="#110D2E"/>
<path fill-rule="evenodd" clip-rule="evenodd" d="M10.9667 13.1498C11.3058 13.3302 11.6381 13.3681 11.7089 13.2348C11.7798 13.1016 11.5625 12.8472 11.2234 12.667C10.8843 12.4867 10.552 12.4486 10.4811 12.582C10.4101 12.7153 10.6276 12.9695 10.9667 13.1498Z" fill="#110D2E"/>
<path fill-rule="evenodd" clip-rule="evenodd" d="M11.3404 13.0045C11.1844 13.3555 10.9459 13.59 10.8079 13.5286C10.67 13.4672 10.6847 13.133 10.8409 12.7822C10.9972 12.4314 11.2356 12.1967 11.3736 12.2581C11.5115 12.3197 11.4967 12.6538 11.3404 13.0045Z" fill="#110D2E"/>
<path fill-rule="evenodd" clip-rule="evenodd" d="M10.2188 6.82812C10.2188 8.54531 9.22531 9.9375 8 9.9375C6.77469 9.9375 5.78125 8.54531 5.78125 6.82812C5.78125 5.11094 6.77469 3.71875 8 3.71875C9.22531 3.71875 10.2188 5.11094 10.2188 6.82812Z" fill="#FFCACA"/>
<path fill-rule="evenodd" clip-rule="evenodd" d="M10.2188 8.47656C10.2188 8.69656 9.96344 8.875 9.64844 8.875C9.33344 8.875 9.07812 8.69656 9.07812 8.47656C9.07812 8.25656 9.33344 8.07812 9.64844 8.07812C9.96344 8.07812 10.2188 8.25656 10.2188 8.47656Z" fill="#FFAAAA" fill-opacity="0.216335"/>
<path d="M8.71143 6.48547C8.93627 6.36813 9.11799 6.30953 9.25642 6.30953C9.39486 6.30953 9.57658 6.36813 9.80142 6.48547" stroke="#110D2E" stroke-width="0.109375" stroke-linecap="round"/>
<path d="M6.60205 6.43859C6.82268 6.37984 7.00221 6.35062 7.14064 6.35062C7.27908 6.35062 7.46283 6.37984 7.69205 6.43859" stroke="#110D2E" stroke-width="0.109375" stroke-linecap="round"/>
<path fill-rule="evenodd" clip-rule="evenodd" d="M7.42188 7.03125C7.42188 7.10891 7.35891 7.17188 7.28125 7.17188C7.20359 7.17188 7.14062 7.10891 7.14062 7.03125C7.14062 6.95359 7.20359 6.89062 7.28125 6.89062C7.35891 6.89062 7.42188 6.95359 7.42188 7.03125Z" fill="#110D2E"/>
<path fill-rule="evenodd" clip-rule="evenodd" d="M9.17188 6.95312C9.17188 7.03078 9.10891 7.09375 9.03125 7.09375C8.95359 7.09375 8.89062 7.03078 8.89062 6.95312C8.89062 6.87547 8.95359 6.8125 9.03125 6.8125C9.10891 6.8125 9.17188 6.87547 9.17188 6.95312Z" fill="#110D2E"/>
<path d="M8.15784 7.45312V7.85938C8.15784 7.98016 8.25581 8.07812 8.37659 8.07812H8.48346" stroke="#FF9494" stroke-width="0.109375" stroke-linecap="round"/>
<path d="M8 8.86719H8.45" stroke="#110D2E" stroke-width="0.109375" stroke-linecap="round"/>
<path fill-rule="evenodd" clip-rule="evenodd" d="M7.29688 8.47656C7.29688 8.69656 7.04156 8.875 6.72656 8.875C6.41156 8.875 6.15625 8.69656 6.15625 8.47656C6.15625 8.25656 6.41156 8.07812 6.72656 8.07812C7.04156 8.07812 7.29688 8.25656 7.29688 8.47656Z" fill="#FFAAAA" fill-opacity="0.216335"/>
<path fill-rule="evenodd" clip-rule="evenodd" d="M7.68746 4.89984L5.78121 7.6875L5.50684 6.01437L6.15621 4.42109L7.99996 3.37047L7.69199 3.71875L7.68746 4.89984Z" fill="#110D2E"/>
<path fill-rule="evenodd" clip-rule="evenodd" d="M7.69203 4.89984C8.66969 5.69281 9.41219 6.27078 9.91969 6.63391C10.427 6.99703 10.7064 7.15031 10.7577 7.09375L10.5884 5.61922L9.80141 3.77734L7.6875 3.03016L7.69203 4.89984Z" fill="#110D2E"/>
<path fill-rule="evenodd" clip-rule="evenodd" d="M6.35938 7.15625C6.35938 7.52734 6.10406 7.82812 5.78906 7.82812C5.47406 7.82812 5.21875 7.52734 5.21875 7.15625C5.21875 6.78516 5.47406 6.48438 5.78906 6.48438C6.10406 6.48438 6.35938 6.78516 6.35938 7.15625Z" fill="#FFCACA"/>
<path d="M5.86934 6.95312C5.60871 6.96141 5.45137 7.03781 5.39746 7.18219" stroke="#FF9494" stroke-width="0.0625" stroke-linecap="round"/>
<path d="M5.58911 7.01562C5.75192 7.13125 5.80896 7.27359 5.76005 7.44266" stroke="#FF9494" stroke-width="0.0625" stroke-linecap="round"/>
<path fill-rule="evenodd" clip-rule="evenodd" d="M10.8125 7.15625C10.8125 7.52734 10.5572 7.82812 10.2422 7.82812C9.92719 7.82812 9.67188 7.52734 9.67188 7.15625C9.67188 6.78516 9.92719 6.48438 10.2422 6.48438C10.5572 6.48438 10.8125 6.78516 10.8125 7.15625Z" fill="#FFCACA"/>
<path d="M10.1475 6.95312C10.4081 6.96141 10.5654 7.03781 10.6193 7.18219" stroke="#FF9494" stroke-width="0.0625" stroke-linecap="round"/>
<path d="M10.4279 7.01562C10.2651 7.13125 10.208 7.27359 10.2569 7.44266" stroke="#FF9494" stroke-width="0.0625" stroke-linecap="round"/>
<path fill-rule="evenodd" clip-rule="evenodd" d="M11.2369 12.8822C11.3355 12.5755 11.3601 12.422 11.3108 12.422C11.2616 12.422 11.1253 12.242 10.9022 11.8822L10.9894 11.3594L10.7576 10.9688L11.0466 10.5516L10.7512 10.31L10.9022 9.82469L10.7783 9.35703L10.4278 8.94203L10.7512 8.65672L10.4889 8.16063L10.1475 8.3325L9.91968 8.76781L10.2187 9.09828L10.0403 9.48844L10.1475 9.86422L10.3834 10.2188L10.2187 10.6167L10.5581 11.0636L10.3834 11.4581V11.8391L10.6275 11.9752L10.6059 12.422L10.8125 12.7575L11.2369 12.8822Z" fill="#110D2E"/>
<path fill-rule="evenodd" clip-rule="evenodd" d="M4.83638 13.0339C4.83091 13.0339 4.66185 13.2014 4.32935 13.5364L4.52841 13.4836L4.45872 13.6398L4.60263 13.5364L4.55716 13.6987L4.73091 13.6083L4.68638 13.7527L4.81888 13.6553V13.7862L4.91763 13.6844L4.9906 13.8137L4.97419 13.0339C4.88778 13.0339 4.84169 13.0339 4.83638 13.0339Z" fill="#110D2E"/>
<path fill-rule="evenodd" clip-rule="evenodd" d="M11.2493 13.1745C11.2548 13.1745 11.4237 13.342 11.7562 13.677L11.5573 13.6242L11.6268 13.7805L11.4829 13.677L11.5284 13.8394L11.3547 13.7489L11.3992 13.8933L11.2668 13.7959V13.9269L11.1681 13.825L11.095 13.9544L11.1114 13.1745C11.1979 13.1745 11.2439 13.1745 11.2493 13.1745Z" fill="#110D2E"/>
<path d="M10.2992 13.4669C10.2551 13.4487 10.1993 13.4378 10.1395 13.435C10.1797 13.3908 10.2112 13.3437 10.2297 13.2998C10.2657 13.2141 10.2398 13.17 10.2212 13.1512C10.2025 13.1327 10.1582 13.1067 10.0725 13.1428C10.0286 13.1614 9.98137 13.193 9.93715 13.2333C9.93434 13.1737 9.9234 13.1181 9.90543 13.0741C9.87043 12.9878 9.8209 12.975 9.7945 12.975C9.76793 12.975 9.7184 12.9878 9.6834 13.0741C9.66543 13.1181 9.65434 13.1739 9.65153 13.2337C9.60731 13.1936 9.56028 13.162 9.51653 13.1436C9.43059 13.1075 9.38668 13.1334 9.36778 13.152C9.34918 13.1708 9.32325 13.2148 9.35934 13.3008C9.37793 13.3447 9.40965 13.3919 9.44981 13.4361C9.39028 13.4389 9.33465 13.4498 9.29059 13.4678C9.20434 13.5028 9.19153 13.5523 9.19153 13.5787C9.19153 13.6053 9.20434 13.6548 9.29059 13.6898C9.33465 13.7078 9.39059 13.7189 9.45028 13.7217C9.41012 13.7658 9.37856 13.813 9.36012 13.8567C9.32403 13.9425 9.34997 13.9866 9.36856 14.0055C9.38043 14.0172 9.40262 14.032 9.43903 14.032C9.46012 14.032 9.4859 14.027 9.51715 14.0139C9.56106 13.9953 9.60825 13.9636 9.65247 13.9233C9.65528 13.983 9.66637 14.0386 9.68418 14.0827C9.71918 14.1687 9.76872 14.1817 9.79528 14.1817C9.82168 14.1817 9.87122 14.1687 9.90622 14.0827C9.92434 14.0386 9.93528 13.9827 9.93809 13.923C9.98231 13.9631 10.0293 13.9947 10.0732 14.0131C10.1047 14.0264 10.1304 14.0312 10.1514 14.0312C10.1878 14.0312 10.2098 14.0164 10.2217 14.0045C10.2404 13.9859 10.2662 13.9417 10.2301 13.8559C10.2117 13.812 10.18 13.7648 10.1397 13.7206C10.1993 13.7178 10.2548 13.7067 10.2989 13.6889C10.3851 13.6539 10.3979 13.6044 10.3979 13.5778C10.3979 13.5514 10.3854 13.5019 10.2992 13.4669ZM10.1 13.2262C10.1373 13.2092 10.1557 13.2114 10.1593 13.2133C10.1611 13.217 10.1634 13.2356 10.1462 13.273C10.1282 13.3122 10.0962 13.3559 10.0565 13.3958C10.0364 13.4159 10.0151 13.4341 9.99372 13.4497C9.99215 13.4506 9.99059 13.4517 9.98918 13.4528C9.98856 13.4533 9.98825 13.4534 9.98762 13.4537C9.98653 13.4545 9.98543 13.4553 9.9845 13.4559C9.98403 13.4564 9.98356 13.4566 9.98293 13.457C9.982 13.4577 9.9809 13.4583 9.97997 13.4591C9.9795 13.4594 9.97887 13.4597 9.9784 13.4602C9.97731 13.4608 9.97637 13.4614 9.97528 13.4622C9.97497 13.4623 9.97434 13.4627 9.97403 13.463C9.97278 13.4637 9.97137 13.4645 9.97012 13.4653C9.97012 13.4655 9.96981 13.4656 9.96965 13.4656C9.96825 13.4666 9.96668 13.4675 9.96543 13.4683C9.96528 13.4684 9.96512 13.4684 9.96481 13.4686C9.96356 13.4694 9.96247 13.47 9.96122 13.4706C9.96075 13.4709 9.96059 13.4711 9.96012 13.4714C9.95903 13.472 9.95809 13.4727 9.957 13.4731C9.95668 13.4734 9.95622 13.4736 9.95575 13.4737C9.95481 13.4744 9.95387 13.4748 9.95293 13.4755C9.95247 13.4756 9.95215 13.4759 9.95184 13.4761C9.95075 13.4767 9.94965 13.4773 9.9484 13.4778C9.94825 13.478 9.94809 13.4781 9.94778 13.4783C9.94512 13.4795 9.94247 13.4809 9.93997 13.4822L9.93918 13.4827C9.93825 13.4831 9.93715 13.4836 9.93622 13.4841C9.93575 13.4842 9.93559 13.4844 9.93512 13.4847C9.93434 13.485 9.9334 13.4855 9.93262 13.4859C9.93215 13.4859 9.93184 13.4862 9.93153 13.4864C9.93075 13.4869 9.92997 13.4872 9.92903 13.4875C9.92856 13.4877 9.92825 13.4878 9.92793 13.488C9.927 13.4883 9.92606 13.4887 9.92528 13.4891C9.92497 13.4892 9.92481 13.4892 9.9245 13.4894C9.9234 13.4898 9.92247 13.4903 9.92137 13.4908C9.9209 13.4908 9.92043 13.4909 9.92028 13.4911L9.91825 13.4919C9.91762 13.492 9.91731 13.4923 9.91668 13.4925C9.91622 13.4927 9.91575 13.4928 9.91512 13.493C9.91465 13.4931 9.91403 13.4934 9.91356 13.4936C9.91309 13.4936 9.91262 13.4937 9.91215 13.4939C9.91168 13.4941 9.91106 13.4944 9.91043 13.4945C9.90997 13.4945 9.90981 13.4947 9.90934 13.4947C9.90872 13.4948 9.90809 13.4952 9.90747 13.4953C9.90497 13.4961 9.90247 13.4966 9.90028 13.4972H9.89997C9.89934 13.4973 9.89856 13.4975 9.89778 13.4975H9.89762C9.89684 13.4977 9.89622 13.4978 9.89543 13.498H9.89528C9.89372 13.4983 9.89247 13.4984 9.8909 13.4986C9.89075 13.4984 9.89059 13.4981 9.89028 13.4978C9.88934 13.4967 9.88856 13.4958 9.88762 13.4947C9.88715 13.4944 9.88684 13.4939 9.88653 13.4936C9.88528 13.4922 9.88418 13.4909 9.88278 13.4898L9.88247 13.4895C9.88106 13.4881 9.87965 13.4869 9.87809 13.4855C9.87778 13.4853 9.87762 13.485 9.87747 13.485C9.87622 13.4839 9.87481 13.4828 9.87356 13.4817L9.87309 13.4812V13.4808C9.87325 13.4802 9.87325 13.4795 9.8734 13.4789C9.8734 13.4786 9.87356 13.4783 9.87356 13.4781C9.87372 13.4775 9.87372 13.477 9.87372 13.4764C9.87372 13.4761 9.87387 13.4758 9.87387 13.4755C9.87403 13.475 9.87418 13.4744 9.87434 13.4737C9.87434 13.4736 9.8745 13.4733 9.8745 13.473L9.87481 13.4709C9.87481 13.4706 9.87497 13.4706 9.87497 13.4703C9.87543 13.4686 9.8759 13.4667 9.87653 13.4647C9.87653 13.4644 9.87653 13.4641 9.87668 13.4639C9.877 13.4631 9.87715 13.4625 9.87747 13.4617C9.87747 13.4614 9.87762 13.4611 9.87762 13.4606C9.87793 13.46 9.87809 13.4592 9.8784 13.4586C9.87856 13.4583 9.87856 13.458 9.87872 13.4575C9.87903 13.4569 9.87934 13.4561 9.8795 13.4555C9.87965 13.4552 9.87981 13.4547 9.87997 13.4545C9.88028 13.4534 9.88059 13.4527 9.88106 13.4517C9.88106 13.4516 9.88122 13.4514 9.88122 13.4512C9.88153 13.4502 9.882 13.4489 9.88247 13.4478C9.88262 13.4477 9.88278 13.4473 9.88278 13.4472C9.88325 13.4462 9.8834 13.4455 9.88387 13.4445C9.88403 13.4441 9.88418 13.4437 9.88434 13.4433C9.88465 13.4425 9.88512 13.4417 9.88543 13.4409C9.88559 13.4405 9.8859 13.4402 9.88606 13.4395C9.88637 13.4387 9.88668 13.438 9.887 13.4372C9.88715 13.4367 9.88747 13.4362 9.88762 13.4358C9.88809 13.435 9.8884 13.4341 9.88887 13.4333C9.88903 13.4328 9.88918 13.4325 9.88934 13.4322C9.88997 13.4309 9.89059 13.4297 9.89122 13.4284C9.89122 13.4284 9.89122 13.4283 9.89137 13.4283C9.892 13.427 9.89262 13.4258 9.89325 13.4245C9.89356 13.4241 9.89372 13.4237 9.89387 13.4233C9.8945 13.4223 9.89481 13.4216 9.89543 13.4206C9.89575 13.4202 9.8959 13.4197 9.89622 13.4192C9.89668 13.4183 9.89715 13.4173 9.89762 13.4166C9.89793 13.4161 9.89825 13.4155 9.89856 13.415C9.89918 13.4142 9.8995 13.4133 9.90012 13.4123C9.90043 13.4117 9.90059 13.4114 9.9009 13.4108C9.90153 13.4097 9.90215 13.4086 9.90278 13.4077C9.90309 13.4073 9.90325 13.407 9.9034 13.4067C9.90434 13.4053 9.90528 13.4039 9.90606 13.4025C9.90622 13.402 9.90653 13.4017 9.90668 13.4014L9.90872 13.3981C9.90903 13.3977 9.90934 13.3972 9.90981 13.3966C9.91028 13.3956 9.9109 13.3947 9.91153 13.3937C9.91184 13.3933 9.91231 13.3925 9.91278 13.392C9.9134 13.3911 9.91387 13.3902 9.91465 13.3892C9.91497 13.3886 9.91543 13.388 9.91575 13.3875C9.91653 13.3866 9.91715 13.3855 9.91778 13.3845C9.91825 13.3839 9.91856 13.3834 9.91887 13.3828C9.91997 13.3814 9.9209 13.38 9.922 13.3784L9.92215 13.3783C9.93778 13.3567 9.9559 13.3355 9.97622 13.3152C10.017 13.2761 10.0606 13.2444 10.1 13.2262ZM9.82887 13.5995C9.82543 13.6052 9.82075 13.61 9.81512 13.6133C9.81465 13.6136 9.81434 13.6137 9.81387 13.6139C9.8134 13.6142 9.81262 13.6147 9.812 13.6148C9.8109 13.6155 9.80981 13.6158 9.80872 13.6162C9.80028 13.6194 9.79075 13.6194 9.78231 13.6162L9.782 13.6161C9.78106 13.6158 9.77997 13.6153 9.77903 13.6148L9.77872 13.6147C9.7709 13.6108 9.76465 13.6044 9.7609 13.5964C9.76012 13.5948 9.75965 13.5934 9.75918 13.592V13.5919C9.75809 13.5891 9.75762 13.5862 9.75747 13.5833C9.75731 13.5823 9.75731 13.5812 9.75731 13.5803C9.75731 13.5759 9.75809 13.5719 9.75934 13.568V13.5678C9.75997 13.5661 9.76075 13.5642 9.76168 13.5625C9.76528 13.5556 9.77106 13.55 9.77809 13.5462C9.77981 13.5453 9.78168 13.5445 9.78372 13.5439L9.78653 13.5431C9.78747 13.5428 9.78825 13.5427 9.78918 13.5425H9.78934C9.79012 13.5423 9.79106 13.5423 9.792 13.5423H9.79231C9.79309 13.5423 9.79372 13.5422 9.7945 13.5422H9.79825C9.79903 13.5422 9.79981 13.5423 9.80075 13.5423H9.80106C9.80184 13.5425 9.80247 13.5427 9.80325 13.5428C9.80356 13.5428 9.80387 13.543 9.80403 13.543C9.80481 13.5431 9.80543 13.5433 9.8059 13.5434C9.80622 13.5436 9.80653 13.5436 9.80684 13.5437C9.80856 13.5442 9.81028 13.545 9.812 13.5458C9.81934 13.5492 9.82559 13.5552 9.82934 13.5623V13.5625C9.82997 13.5639 9.83075 13.5652 9.83122 13.5669C9.83278 13.5711 9.83356 13.5756 9.83356 13.5803C9.83356 13.5844 9.83293 13.5884 9.83168 13.5922V13.5925C9.83122 13.5937 9.83075 13.5948 9.83028 13.5959C9.83012 13.597 9.8295 13.5983 9.82887 13.5995ZM9.76153 13.1137C9.7759 13.0755 9.79059 13.0639 9.7945 13.0623C9.79825 13.0637 9.81293 13.0753 9.82731 13.1137C9.84231 13.1544 9.85075 13.2078 9.85075 13.2642C9.85075 13.2892 9.84903 13.3136 9.8459 13.3369L9.84512 13.338C9.84418 13.3392 9.84325 13.3405 9.84247 13.3417C9.842 13.3425 9.84122 13.3434 9.84075 13.3442C9.83997 13.3456 9.83903 13.3467 9.83825 13.3481C9.83762 13.3489 9.83731 13.3495 9.83668 13.3503C9.83559 13.352 9.83465 13.3534 9.83372 13.3552C9.83356 13.3556 9.83309 13.3561 9.83278 13.3566C9.83153 13.3586 9.83028 13.3608 9.82903 13.3628C9.82887 13.3631 9.82856 13.3637 9.82825 13.3641C9.82731 13.3656 9.82637 13.3672 9.82543 13.3687C9.82497 13.3695 9.82465 13.3702 9.82418 13.3709C9.8234 13.3723 9.82278 13.3736 9.822 13.375C9.82153 13.3758 9.82122 13.3764 9.82059 13.3772C9.81997 13.3784 9.81934 13.3798 9.81856 13.3809L9.81731 13.3834C9.81668 13.3847 9.81606 13.3859 9.81543 13.3872C9.81497 13.388 9.8145 13.3886 9.81418 13.3895C9.81356 13.3908 9.81278 13.392 9.81231 13.3933C9.81184 13.3941 9.81168 13.3947 9.81122 13.3955C9.81059 13.397 9.80981 13.3984 9.80918 13.3998L9.8084 13.4014C9.80747 13.4034 9.80668 13.4053 9.80575 13.4073C9.80575 13.4075 9.80559 13.4075 9.80559 13.4077C9.80481 13.4095 9.80403 13.4114 9.80309 13.4131C9.80293 13.4136 9.80262 13.4144 9.80247 13.4148L9.8009 13.4189C9.80059 13.4195 9.80028 13.4202 9.80012 13.4211C9.79965 13.4222 9.79918 13.4234 9.79872 13.4247C9.7984 13.4253 9.79825 13.4261 9.79793 13.4267C9.79747 13.428 9.79715 13.4291 9.79668 13.4303C9.79637 13.4309 9.79622 13.4317 9.79606 13.4325C9.79559 13.4336 9.79528 13.4348 9.79497 13.4359C9.79481 13.4362 9.79465 13.4369 9.7945 13.4373C9.7945 13.4367 9.79418 13.4362 9.79403 13.4356C9.79372 13.4345 9.7934 13.4336 9.79293 13.4325C9.79262 13.4317 9.79247 13.4309 9.79215 13.43C9.79168 13.4289 9.79153 13.4278 9.79106 13.4269C9.79075 13.4261 9.79043 13.4252 9.79012 13.4244L9.78887 13.4211C9.78872 13.4203 9.78825 13.4195 9.78793 13.4186C9.78762 13.4175 9.787 13.4162 9.78668 13.4152C9.78637 13.4144 9.7859 13.4136 9.78575 13.4128C9.78497 13.4114 9.7845 13.4098 9.78387 13.4084C9.78356 13.4077 9.78309 13.4069 9.78293 13.4061C9.78215 13.4045 9.78137 13.403 9.78075 13.4014C9.78028 13.4006 9.77997 13.3998 9.77965 13.3991C9.77918 13.3978 9.77856 13.3967 9.77809 13.3955C9.77762 13.3945 9.77731 13.3937 9.77668 13.3928L9.77512 13.3895C9.77465 13.3886 9.77418 13.3877 9.77356 13.3867C9.77309 13.3858 9.77247 13.3847 9.77184 13.3836C9.77137 13.3827 9.7709 13.3817 9.77043 13.3808C9.76981 13.3797 9.76918 13.3786 9.76872 13.3775L9.767 13.3747C9.76637 13.3736 9.76575 13.3723 9.76512 13.3714C9.76465 13.3705 9.76403 13.3695 9.76356 13.3686C9.76293 13.3675 9.762 13.3661 9.76137 13.3648C9.76106 13.3641 9.76043 13.3633 9.76012 13.3627C9.75887 13.3606 9.75762 13.3587 9.75637 13.3567C9.75606 13.3559 9.75543 13.3552 9.75497 13.3544C9.75418 13.3531 9.7534 13.3519 9.75247 13.3505C9.75184 13.3495 9.75122 13.3487 9.75059 13.3478C9.74981 13.3466 9.74903 13.3455 9.74825 13.3444C9.74762 13.3434 9.747 13.3427 9.74637 13.3417C9.74559 13.3405 9.74481 13.3394 9.74387 13.3381C9.74372 13.3378 9.7434 13.3373 9.74293 13.3369C9.73981 13.3134 9.73809 13.2889 9.73809 13.2637C9.73809 13.2078 9.74653 13.1544 9.76153 13.1137ZM9.42965 13.2139C9.43356 13.2122 9.452 13.21 9.48934 13.2272C9.52872 13.2452 9.57231 13.277 9.61215 13.317C9.63231 13.337 9.65043 13.3583 9.66606 13.3798C9.66715 13.3814 9.6684 13.3828 9.66934 13.3844C9.66981 13.3848 9.67012 13.3853 9.67043 13.3858C9.67122 13.3869 9.672 13.3878 9.67262 13.3889C9.67309 13.3895 9.6734 13.3902 9.67387 13.3906C9.6745 13.3916 9.67512 13.3925 9.67575 13.3934C9.67606 13.3941 9.67653 13.3947 9.677 13.3953C9.67747 13.3962 9.67809 13.3972 9.67872 13.398C9.67903 13.3984 9.6795 13.3991 9.67981 13.3997C9.68043 13.4006 9.6809 13.4016 9.68153 13.4025C9.68184 13.403 9.68215 13.4036 9.68247 13.4039L9.6845 13.4072C9.68465 13.4075 9.68481 13.4078 9.68512 13.4081C9.6859 13.4095 9.68684 13.4109 9.68762 13.4123C9.68793 13.4127 9.68809 13.413 9.68825 13.4134C9.68872 13.4144 9.68934 13.4153 9.68997 13.4164C9.69028 13.417 9.69043 13.4173 9.69075 13.418C9.69137 13.4187 9.69168 13.4197 9.69231 13.4205C9.69247 13.4211 9.69278 13.4216 9.69309 13.422C9.6934 13.4228 9.69403 13.4236 9.69434 13.4244C9.69465 13.4248 9.69497 13.4255 9.69512 13.4258L9.69637 13.4283C9.69668 13.4287 9.697 13.4292 9.69715 13.4297C9.69762 13.4306 9.69809 13.4316 9.69856 13.4323C9.69872 13.4327 9.69903 13.4331 9.69903 13.4334C9.69981 13.4347 9.70028 13.4359 9.7009 13.4372C9.7009 13.4373 9.7009 13.4373 9.7009 13.4373C9.70153 13.4384 9.702 13.4397 9.70262 13.4408C9.70278 13.4411 9.70293 13.4416 9.70309 13.442C9.70356 13.4428 9.70372 13.4436 9.70418 13.4442C9.70434 13.4447 9.70465 13.4452 9.70465 13.4456C9.70497 13.4462 9.70528 13.447 9.70559 13.4478C9.70575 13.4481 9.70606 13.4487 9.70622 13.4491L9.707 13.4511C9.70715 13.4516 9.70747 13.4519 9.70762 13.4525C9.70778 13.4531 9.70809 13.4537 9.7084 13.4545L9.70872 13.4558L9.7095 13.4583C9.70965 13.4584 9.70965 13.4587 9.70981 13.4589C9.71028 13.46 9.71043 13.4609 9.7109 13.462C9.71106 13.4622 9.71106 13.4625 9.71122 13.4628C9.71137 13.4634 9.71153 13.4642 9.71184 13.465C9.712 13.4653 9.71215 13.4656 9.71215 13.4659C9.71231 13.4666 9.71247 13.4672 9.71262 13.4678C9.71278 13.4681 9.71293 13.4686 9.71293 13.4687L9.71325 13.4705C9.7134 13.4708 9.7134 13.4712 9.71356 13.4716L9.71403 13.4731C9.71418 13.4736 9.71418 13.4737 9.71418 13.4742C9.71434 13.4747 9.7145 13.4755 9.71465 13.4759C9.71465 13.4762 9.71481 13.4764 9.71481 13.4767L9.71512 13.4792V13.4795C9.71528 13.4803 9.71543 13.4809 9.71543 13.4816C9.71543 13.4819 9.71559 13.4822 9.71559 13.4823C9.71559 13.4828 9.71575 13.4831 9.71575 13.4834C9.71543 13.4836 9.71528 13.4839 9.71512 13.4841C9.71418 13.4848 9.71325 13.4858 9.71215 13.4866C9.71168 13.4869 9.71137 13.4872 9.71106 13.4875C9.7084 13.4898 9.70575 13.4925 9.70325 13.4952L9.70247 13.4959C9.70153 13.497 9.70059 13.4981 9.69965 13.4994C9.6995 13.4994 9.69934 13.4995 9.69918 13.4998C9.69903 13.4998 9.69872 13.4998 9.6984 13.4997C9.69809 13.4997 9.69793 13.4995 9.69762 13.4995C9.697 13.4994 9.69653 13.4994 9.69606 13.4994C9.69575 13.4994 9.69543 13.4992 9.69528 13.4992L9.69325 13.4987C9.69325 13.4987 9.69309 13.4987 9.69293 13.4986C9.69215 13.4984 9.69122 13.4983 9.69043 13.4981C9.69028 13.4981 9.69012 13.4981 9.68997 13.498C9.68934 13.4978 9.6884 13.4975 9.68762 13.4975C9.68747 13.4973 9.68715 13.4973 9.68684 13.4972C9.68622 13.497 9.68559 13.4969 9.68497 13.4966C9.68465 13.4964 9.68434 13.4964 9.68387 13.4964C9.6834 13.4962 9.68278 13.4959 9.682 13.4958C9.68168 13.4956 9.68137 13.4955 9.6809 13.4955C9.68028 13.4955 9.67981 13.4952 9.67903 13.495C9.67872 13.4948 9.6784 13.4947 9.67793 13.4947C9.67731 13.4945 9.67653 13.4942 9.6759 13.4941C9.67559 13.4939 9.67528 13.4939 9.67512 13.4937C9.67403 13.4934 9.67309 13.4931 9.672 13.4927C9.67168 13.4927 9.67153 13.4927 9.67122 13.4925C9.67043 13.4922 9.6695 13.4917 9.66872 13.4916L9.66747 13.4911C9.66684 13.4908 9.66606 13.4906 9.66543 13.4903C9.66497 13.4902 9.6645 13.4898 9.66403 13.4898L9.662 13.4889C9.66153 13.4889 9.66106 13.4886 9.66059 13.4883C9.65981 13.488 9.65903 13.4877 9.6584 13.4873C9.65793 13.487 9.65747 13.4869 9.657 13.4867C9.65622 13.4862 9.65543 13.4859 9.65465 13.4856C9.65418 13.4855 9.65387 13.4852 9.6534 13.485C9.65215 13.4845 9.65106 13.4841 9.64981 13.4833L9.64903 13.483C9.64809 13.4823 9.647 13.482 9.64606 13.4814C9.64543 13.4812 9.64512 13.4809 9.6445 13.4808L9.64215 13.4795L9.64059 13.4787L9.63809 13.4775C9.63762 13.4773 9.637 13.477 9.63653 13.4766C9.63575 13.4762 9.63497 13.4756 9.63403 13.4753C9.63356 13.475 9.63309 13.4747 9.63247 13.4744C9.63153 13.4737 9.63075 13.4733 9.62981 13.4727C9.62934 13.4725 9.62887 13.4722 9.6284 13.4719C9.62715 13.4711 9.62575 13.4703 9.62434 13.4695C9.62418 13.4694 9.62387 13.4692 9.62372 13.4692C9.62262 13.4684 9.62137 13.4678 9.61997 13.4669C9.6195 13.4667 9.61903 13.4662 9.61856 13.4659C9.61762 13.4655 9.61668 13.4648 9.61575 13.4642C9.61512 13.4639 9.61465 13.4636 9.61403 13.4631C9.61309 13.4627 9.612 13.462 9.61122 13.4614C9.61075 13.4611 9.61012 13.4606 9.6095 13.4602C9.60856 13.4595 9.60762 13.4591 9.60668 13.4583C9.60622 13.458 9.60543 13.4575 9.60497 13.4572C9.60387 13.4564 9.60293 13.4556 9.60184 13.455C9.60137 13.4545 9.6009 13.4544 9.60043 13.4539C9.59887 13.4528 9.59731 13.4517 9.5959 13.4506C9.57418 13.435 9.55293 13.4169 9.53278 13.3966C9.49278 13.3567 9.4609 13.3131 9.44293 13.2737C9.4259 13.2361 9.42793 13.2177 9.42965 13.2139ZM9.27903 13.5789C9.28043 13.575 9.292 13.5605 9.33043 13.5461C9.37106 13.5309 9.4245 13.5227 9.4809 13.5227C9.5059 13.5227 9.53028 13.5242 9.55356 13.5275C9.55387 13.5278 9.55418 13.528 9.5545 13.5281C9.55575 13.5291 9.55715 13.53 9.55856 13.5309C9.55934 13.5314 9.55997 13.5319 9.56059 13.5323C9.56247 13.5336 9.56434 13.5347 9.56606 13.5359C9.56622 13.5361 9.56637 13.5362 9.56668 13.5364C9.56872 13.5377 9.57075 13.5389 9.57278 13.5403C9.57325 13.5406 9.57387 13.5409 9.57434 13.5414C9.57575 13.5423 9.57731 13.5433 9.57872 13.5441L9.58075 13.5452L9.58481 13.5477L9.58684 13.5489C9.58825 13.5497 9.58965 13.5505 9.59106 13.5512C9.59153 13.5516 9.59215 13.5519 9.59278 13.5522L9.59793 13.555L9.59872 13.5555C9.60075 13.5566 9.60293 13.5577 9.60497 13.5586C9.60512 13.5587 9.60528 13.5587 9.60543 13.5589C9.60731 13.5598 9.60903 13.5608 9.6109 13.5616C9.61122 13.5619 9.61184 13.562 9.61215 13.5623C9.61372 13.5631 9.61528 13.5637 9.61684 13.5644C9.61731 13.5647 9.61778 13.5648 9.61825 13.5652C9.61981 13.5658 9.62137 13.5664 9.62278 13.5672C9.62325 13.5672 9.62356 13.5675 9.62403 13.5677C9.62575 13.5684 9.62762 13.5692 9.62934 13.57C9.6295 13.57 9.62965 13.57 9.62981 13.57C9.63387 13.5717 9.63793 13.5733 9.64168 13.5747C9.64184 13.5747 9.642 13.5748 9.64215 13.5748C9.64387 13.5755 9.64575 13.5759 9.64747 13.5767C9.64778 13.5767 9.64809 13.5767 9.6484 13.5769C9.65012 13.5775 9.65168 13.578 9.65325 13.5786C9.6534 13.5786 9.65356 13.5786 9.65372 13.5786C9.65309 13.5787 9.65231 13.5791 9.65184 13.5794C9.65106 13.5795 9.65012 13.5798 9.64934 13.5802C9.6484 13.5805 9.64731 13.5808 9.64637 13.5812C9.64543 13.5814 9.6445 13.5817 9.64372 13.5822C9.64262 13.5825 9.64168 13.5828 9.64075 13.5833C9.63981 13.5834 9.63887 13.5839 9.63809 13.5842C9.637 13.5845 9.63606 13.585 9.63497 13.5853C9.63418 13.5858 9.63325 13.5861 9.63247 13.5864C9.63137 13.5869 9.63043 13.5872 9.62934 13.5877C9.62856 13.5881 9.62762 13.5884 9.62684 13.5887C9.62481 13.5895 9.62293 13.5905 9.6209 13.5912C9.61997 13.5917 9.61903 13.592 9.61825 13.5925C9.61715 13.593 9.61622 13.5934 9.61512 13.5939C9.61418 13.5944 9.61325 13.5948 9.61231 13.5953C9.61122 13.5958 9.61028 13.5962 9.60918 13.5967C9.60825 13.5973 9.60731 13.5977 9.60637 13.5983C9.60543 13.5987 9.6045 13.5994 9.6034 13.5998C9.60247 13.6005 9.60153 13.6009 9.60043 13.6014C9.59934 13.6019 9.5984 13.6025 9.59731 13.603C9.59637 13.6034 9.59528 13.6041 9.59434 13.6045C9.5934 13.6052 9.59231 13.6056 9.59137 13.6062C9.59028 13.6067 9.58918 13.6073 9.58825 13.608L9.58543 13.6095C9.58434 13.6102 9.58309 13.6111 9.58184 13.6117C9.58106 13.6122 9.58028 13.6127 9.5795 13.6131C9.57747 13.6144 9.57559 13.6156 9.57356 13.6169C9.57293 13.6172 9.572 13.6178 9.57137 13.6181C9.57012 13.6189 9.56872 13.6197 9.56747 13.6206C9.56668 13.6212 9.56575 13.6217 9.56497 13.6223L9.56137 13.6247C9.56059 13.6253 9.5595 13.6259 9.55872 13.6264C9.55762 13.6273 9.55637 13.6281 9.55512 13.6291L9.55387 13.6298C9.53059 13.633 9.50606 13.6347 9.4809 13.6347C9.4245 13.6347 9.37106 13.6264 9.33043 13.6112C9.292 13.5975 9.28043 13.5828 9.27903 13.5789ZM9.48997 13.9305C9.45262 13.9475 9.43418 13.9453 9.43059 13.9434C9.42872 13.9397 9.42653 13.9212 9.44372 13.8839C9.46168 13.8445 9.49372 13.8009 9.5334 13.7609C9.55356 13.7409 9.57481 13.7228 9.59622 13.7072C9.59778 13.7061 9.59934 13.705 9.60075 13.7039C9.60122 13.7037 9.60168 13.7033 9.60215 13.703C9.60325 13.7023 9.60434 13.7016 9.60528 13.7008C9.60575 13.7005 9.60637 13.7002 9.60668 13.6998C9.60778 13.6991 9.60872 13.6984 9.60981 13.6978C9.61028 13.6975 9.61075 13.697 9.61106 13.6969C9.61231 13.6961 9.6134 13.6953 9.61465 13.6945C9.61497 13.6944 9.61512 13.6941 9.61559 13.6941C9.61856 13.6922 9.62153 13.6903 9.62434 13.6884C9.6245 13.6884 9.62465 13.6883 9.62497 13.6881C9.62622 13.6873 9.62731 13.6866 9.62856 13.6859C9.62887 13.6858 9.62918 13.6856 9.62918 13.6856C9.63043 13.6848 9.63168 13.6841 9.63293 13.6834C9.63309 13.6833 9.63309 13.6833 9.6334 13.6831C9.65918 13.6684 9.68043 13.6608 9.6959 13.6583C9.69622 13.6581 9.69684 13.6581 9.69715 13.658C9.69747 13.6583 9.69762 13.6586 9.69793 13.6587C9.69887 13.66 9.69981 13.6611 9.70075 13.6622C9.70106 13.6627 9.70153 13.6631 9.70184 13.6636C9.70325 13.665 9.70465 13.6666 9.70606 13.6681L9.70653 13.6684C9.70778 13.6698 9.70918 13.6711 9.71043 13.6723C9.7109 13.6728 9.71137 13.6731 9.712 13.6737L9.71512 13.6766L9.71606 13.6773V13.6777C9.71606 13.678 9.7159 13.6781 9.7159 13.6784C9.71575 13.6789 9.71575 13.6795 9.71559 13.68C9.71559 13.6803 9.71543 13.6808 9.71543 13.6809L9.71512 13.6827C9.71512 13.6828 9.71497 13.6833 9.71481 13.6836C9.71465 13.6842 9.7145 13.6847 9.71434 13.6855C9.71434 13.6856 9.71418 13.6858 9.71418 13.6861C9.71403 13.6869 9.71387 13.6878 9.71356 13.6887C9.7134 13.6891 9.7134 13.6894 9.71325 13.6895C9.71325 13.6903 9.71293 13.6909 9.71278 13.6916C9.71262 13.692 9.71247 13.6922 9.71247 13.6927C9.71231 13.6931 9.71215 13.6939 9.712 13.6945L9.71153 13.6958C9.71137 13.6964 9.71122 13.697 9.7109 13.6978C9.71075 13.6981 9.71059 13.6984 9.71043 13.6989C9.71012 13.6998 9.70981 13.7008 9.7095 13.7017C9.7095 13.7019 9.70934 13.702 9.70934 13.7022C9.70887 13.7031 9.70856 13.7041 9.70825 13.705L9.70778 13.7062C9.70762 13.7069 9.70731 13.7075 9.707 13.7084C9.70684 13.7087 9.70668 13.7092 9.70653 13.7097C9.70622 13.7103 9.7059 13.7111 9.70559 13.7119C9.70543 13.7123 9.70512 13.7127 9.70497 13.7133C9.70465 13.7141 9.70434 13.7148 9.70387 13.7156C9.70372 13.7159 9.70372 13.7162 9.70356 13.7166C9.70293 13.7178 9.70247 13.7189 9.70184 13.72C9.70184 13.7205 9.70168 13.7208 9.70137 13.7211C9.7009 13.7219 9.70059 13.7228 9.70012 13.7237C9.69997 13.7241 9.69981 13.7247 9.6995 13.725L9.69825 13.7275C9.69793 13.728 9.69778 13.7284 9.69762 13.7289C9.69715 13.7297 9.69684 13.7305 9.69622 13.7314C9.69606 13.7319 9.6959 13.7323 9.69559 13.7328C9.69497 13.7341 9.69418 13.7353 9.69356 13.7366C9.69356 13.7367 9.6934 13.7369 9.6934 13.737L9.69137 13.7406C9.69122 13.7409 9.6909 13.7416 9.69059 13.7419C9.69012 13.7428 9.6895 13.7437 9.68903 13.7447C9.68872 13.7452 9.6884 13.7458 9.68809 13.7461C9.68747 13.747 9.687 13.7478 9.68653 13.7487C9.68622 13.7494 9.6859 13.7497 9.68559 13.7503C9.68481 13.7514 9.68434 13.7523 9.68372 13.7533C9.6834 13.7537 9.68325 13.7541 9.68293 13.7544C9.682 13.7558 9.68122 13.7572 9.68028 13.7586C9.67997 13.7591 9.67981 13.7592 9.67965 13.7597C9.67887 13.7608 9.67825 13.7619 9.67747 13.763C9.677 13.7634 9.67684 13.7639 9.67637 13.7645C9.67575 13.7655 9.67512 13.7664 9.67434 13.7675C9.67403 13.768 9.67372 13.7686 9.67325 13.7691C9.67262 13.7702 9.672 13.7711 9.67122 13.7722C9.6709 13.7727 9.67043 13.7731 9.67028 13.7736C9.66918 13.7752 9.66809 13.7766 9.667 13.7781C9.65122 13.7998 9.63309 13.8211 9.61293 13.8412C9.57293 13.8806 9.52934 13.9125 9.48997 13.9305ZM9.8284 14.043C9.81403 14.0814 9.79934 14.093 9.79543 14.0944C9.79153 14.0931 9.777 14.0816 9.76262 14.043C9.74762 14.0025 9.73918 13.9491 9.73918 13.8927C9.73918 13.8677 9.7409 13.8431 9.74403 13.82L9.74481 13.8187C9.74575 13.8175 9.74668 13.8162 9.74747 13.815L9.74903 13.8125C9.74997 13.8112 9.75075 13.8098 9.75153 13.8087C9.75215 13.8078 9.75247 13.8072 9.75309 13.8064C9.75418 13.8048 9.75512 13.8031 9.75606 13.8017C9.75622 13.8011 9.75668 13.8008 9.757 13.8002C9.75825 13.7983 9.7595 13.7961 9.76075 13.7941C9.76106 13.7934 9.76122 13.7931 9.76153 13.7925C9.76247 13.7909 9.7634 13.7895 9.76434 13.7878C9.76481 13.7872 9.76512 13.7864 9.76559 13.7858C9.76637 13.7844 9.767 13.783 9.76778 13.7819C9.76825 13.7811 9.76872 13.7802 9.76918 13.7794C9.76981 13.7781 9.77059 13.777 9.77122 13.7756C9.77153 13.7748 9.772 13.7741 9.77247 13.7733C9.77325 13.772 9.77387 13.7708 9.77434 13.7695L9.77559 13.7672C9.77637 13.7659 9.77684 13.7647 9.77747 13.7634C9.77793 13.7628 9.77825 13.7619 9.77856 13.7612C9.77918 13.7598 9.77997 13.7584 9.78059 13.7572C9.7809 13.7566 9.78106 13.7561 9.78137 13.7553C9.78231 13.7533 9.78309 13.7514 9.78403 13.7495C9.78418 13.7492 9.78418 13.7491 9.78434 13.7487C9.78512 13.747 9.7859 13.7453 9.78653 13.7436C9.78684 13.7428 9.787 13.7422 9.78731 13.7417C9.78778 13.7403 9.7884 13.7391 9.78872 13.7378C9.78903 13.737 9.78934 13.7362 9.78965 13.7356C9.78997 13.7344 9.79059 13.7333 9.7909 13.7322C9.79122 13.7314 9.79153 13.7306 9.79168 13.7298C9.79215 13.7286 9.79262 13.7275 9.79293 13.7266C9.79325 13.7256 9.79356 13.725 9.79372 13.7242C9.79418 13.723 9.7945 13.7219 9.79481 13.7208C9.79497 13.7202 9.79512 13.7198 9.79543 13.7192C9.79543 13.7198 9.79575 13.7203 9.7959 13.7209C9.79622 13.7219 9.79653 13.723 9.797 13.7239C9.79731 13.7247 9.79747 13.7256 9.79778 13.7266C9.79825 13.7275 9.7984 13.7284 9.79887 13.7295C9.79918 13.7305 9.7995 13.7314 9.79981 13.7322L9.80106 13.7353C9.80122 13.7361 9.80168 13.737 9.802 13.738C9.80231 13.7391 9.80293 13.7402 9.80325 13.7412C9.80356 13.742 9.80403 13.7428 9.80418 13.7437C9.80481 13.745 9.80543 13.7466 9.8059 13.7478C9.81106 13.7509 9.81465 13.7572 9.81684 13.762C9.81747 13.7631 9.81793 13.7644 9.81856 13.7655C9.81887 13.7664 9.8195 13.7673 9.81981 13.7681L9.82137 13.7712C9.822 13.7722 9.82231 13.7731 9.82293 13.7741C9.8234 13.7752 9.82403 13.7761 9.8245 13.7772C9.82512 13.7781 9.82559 13.7791 9.82606 13.78C9.82653 13.7811 9.82715 13.7822 9.82778 13.7831L9.82934 13.7859C9.82997 13.787 9.83059 13.7881 9.83122 13.7892L9.83278 13.792C9.83356 13.7933 9.83418 13.7944 9.83497 13.7956C9.83559 13.7964 9.8359 13.7972 9.83653 13.7981C9.83762 13.8002 9.83887 13.802 9.84012 13.8041C9.84059 13.8048 9.84122 13.8056 9.84153 13.8066C9.84247 13.8077 9.84325 13.8091 9.84403 13.8103C9.8445 13.8112 9.84528 13.812 9.84575 13.813C9.84653 13.8142 9.84715 13.8152 9.84809 13.8164C9.84872 13.8173 9.84918 13.8183 9.84997 13.8192C9.85075 13.8205 9.85153 13.8216 9.85231 13.8228C9.85262 13.8231 9.85293 13.8236 9.85325 13.8241C9.85653 13.8475 9.85809 13.872 9.85809 13.8972C9.85825 13.9536 9.84997 14.007 9.83481 14.0475L9.8284 14.043ZM10.1601 13.9428C10.1564 13.9445 10.1379 13.9469 10.1006 13.9297C10.0612 13.9117 10.0176 13.8797 9.97778 13.8398C9.95762 13.8197 9.9395 13.7986 9.92387 13.7772C9.92278 13.7756 9.92168 13.7741 9.92059 13.7725L9.91981 13.7714C9.91903 13.7703 9.9184 13.7692 9.91762 13.7681C9.91731 13.7677 9.91684 13.7672 9.91668 13.7667C9.9159 13.7656 9.91512 13.7645 9.9145 13.7636C9.91418 13.7631 9.91387 13.7628 9.91372 13.7622C9.91278 13.7609 9.91184 13.7597 9.91106 13.7583C9.9109 13.7581 9.9109 13.7581 9.9109 13.758C9.90997 13.7564 9.90903 13.7552 9.90809 13.7536C9.90793 13.7533 9.90778 13.753 9.90747 13.7525C9.90684 13.7514 9.90622 13.7505 9.90559 13.7495C9.90528 13.7491 9.90512 13.7486 9.90481 13.7481C9.90434 13.7472 9.90356 13.7462 9.90309 13.7453C9.90278 13.7448 9.90247 13.7445 9.90231 13.7439C9.90153 13.7428 9.90106 13.7419 9.90043 13.7408L9.89997 13.74C9.89918 13.7386 9.89856 13.7372 9.89762 13.7359L9.89731 13.7352C9.89668 13.7341 9.89622 13.7331 9.89575 13.732C9.89543 13.7316 9.89528 13.7312 9.89497 13.7308C9.8945 13.7298 9.89403 13.7291 9.89372 13.7281C9.8934 13.7277 9.89325 13.7273 9.89293 13.7269C9.89247 13.7259 9.892 13.725 9.89153 13.7241L9.89106 13.7233C9.89043 13.722 9.88997 13.7209 9.88934 13.7197C9.88934 13.7195 9.88918 13.7194 9.88918 13.7192C9.88872 13.7181 9.88825 13.717 9.88778 13.7161C9.88762 13.7156 9.88747 13.7153 9.88731 13.715C9.887 13.7142 9.88653 13.7133 9.88622 13.7123C9.88606 13.712 9.88606 13.7117 9.8859 13.7112C9.88543 13.7105 9.88512 13.7097 9.88481 13.7087C9.88465 13.7084 9.8845 13.7083 9.88434 13.7078C9.8834 13.7056 9.88262 13.7034 9.88184 13.7014C9.88168 13.7011 9.88153 13.7008 9.88153 13.7005C9.88137 13.6997 9.88106 13.6989 9.88075 13.6981C9.88059 13.698 9.88043 13.6975 9.88043 13.6972C9.88012 13.6966 9.87981 13.6958 9.87965 13.6952C9.8795 13.6948 9.8795 13.6945 9.8795 13.6941C9.87918 13.6933 9.87887 13.6923 9.87856 13.6916C9.87856 13.6914 9.87856 13.6912 9.87856 13.6912L9.87762 13.6884C9.87747 13.6883 9.87747 13.688 9.87747 13.6877C9.87731 13.687 9.877 13.6864 9.87684 13.6858C9.87668 13.6856 9.87668 13.6852 9.87653 13.6848C9.87653 13.6844 9.87637 13.6836 9.87622 13.6831C9.87606 13.6828 9.87606 13.6825 9.8759 13.6822C9.87575 13.6816 9.87559 13.6809 9.87559 13.6803C9.87559 13.68 9.87543 13.6798 9.87543 13.6797C9.87528 13.6789 9.87512 13.6781 9.87497 13.6773L9.87747 13.6753L9.87762 13.675L9.88137 13.6719C9.88153 13.6716 9.882 13.6712 9.88231 13.6711C9.8834 13.67 9.8845 13.6689 9.88559 13.6677L9.88606 13.6673C9.887 13.6662 9.88809 13.6652 9.88903 13.6641C9.88918 13.6637 9.8895 13.6634 9.88981 13.6631C9.8909 13.6619 9.89184 13.6608 9.89278 13.6597C9.89309 13.6594 9.89325 13.6591 9.89356 13.6587C9.89403 13.6583 9.8945 13.6577 9.89497 13.657C9.89543 13.6572 9.89575 13.6572 9.89637 13.6573C9.89684 13.6575 9.89747 13.6575 9.89778 13.6577L9.8995 13.658C9.89981 13.6581 9.90028 13.6581 9.90043 13.6583C9.90106 13.6584 9.90137 13.6586 9.902 13.6587C9.90231 13.6587 9.90278 13.6587 9.90325 13.6589L9.90481 13.6594C9.90528 13.6595 9.90543 13.6595 9.9059 13.6597C9.90653 13.6598 9.90731 13.66 9.90809 13.6603C9.90825 13.6603 9.9084 13.6605 9.90872 13.6605L9.91153 13.6612C9.91184 13.6614 9.912 13.6614 9.91247 13.6616C9.91309 13.6617 9.91387 13.6619 9.91465 13.6622C9.91497 13.6623 9.91528 13.6625 9.91575 13.6627C9.91637 13.6628 9.91715 13.6631 9.91778 13.6634C9.91809 13.6636 9.91856 13.6636 9.91872 13.6637C9.91965 13.6642 9.92059 13.6645 9.92153 13.6648C9.92168 13.6648 9.92184 13.665 9.92184 13.665C9.92293 13.6655 9.92418 13.6658 9.92528 13.6664C9.92528 13.6664 9.92559 13.6664 9.92575 13.6666L9.92856 13.6678C9.92887 13.668 9.92918 13.6681 9.9295 13.6683C9.93043 13.6686 9.93122 13.6691 9.93215 13.6694C9.93247 13.6695 9.93278 13.6697 9.93309 13.6698C9.93418 13.6703 9.93528 13.6708 9.93637 13.6712C9.93653 13.6712 9.93668 13.6714 9.93668 13.6714C9.93778 13.672 9.93918 13.6727 9.94043 13.6733C9.94059 13.6733 9.94059 13.6734 9.94059 13.6734C9.94168 13.6741 9.94293 13.6745 9.94403 13.6752C9.94434 13.6753 9.94465 13.6755 9.94497 13.6756C9.9459 13.6761 9.947 13.6767 9.94793 13.677C9.94825 13.6772 9.94856 13.6775 9.94887 13.6777C9.94997 13.6781 9.95106 13.6789 9.95215 13.6794C9.95247 13.6795 9.95262 13.6797 9.95293 13.6798C9.95418 13.6806 9.95559 13.6812 9.957 13.682C9.95715 13.682 9.95715 13.6822 9.95731 13.6822C9.95856 13.6828 9.95981 13.6836 9.96106 13.6844C9.96153 13.6845 9.96184 13.6847 9.96215 13.685C9.96325 13.6856 9.96418 13.6862 9.96528 13.6867C9.96559 13.687 9.96606 13.6873 9.96653 13.6875C9.96762 13.6883 9.96872 13.6889 9.96981 13.6894C9.97012 13.6897 9.97043 13.6898 9.9709 13.6902C9.97231 13.6911 9.97372 13.6919 9.97512 13.6928C9.97528 13.693 9.97543 13.693 9.97559 13.6931C9.97684 13.6939 9.97825 13.6948 9.9795 13.6956C9.97981 13.6959 9.98043 13.6962 9.98075 13.6966C9.98184 13.6972 9.98278 13.698 9.98387 13.6986C9.9845 13.6989 9.98497 13.6992 9.98543 13.6997C9.98653 13.7003 9.98747 13.7011 9.98856 13.7017C9.98918 13.702 9.9895 13.7025 9.99012 13.7028C9.99153 13.7037 9.99309 13.7047 9.9945 13.7058L9.99465 13.7059C10.0162 13.7217 10.0375 13.7398 10.0578 13.76C10.0976 13.8 10.1297 13.8436 10.1476 13.883C10.164 13.9206 10.162 13.9391 10.1601 13.9428ZM10.2595 13.6108C10.219 13.6258 10.1656 13.6341 10.1092 13.6341C10.0842 13.6341 10.0598 13.6325 10.0365 13.6292L10.0353 13.6284C10.034 13.6275 10.0328 13.6267 10.0314 13.6258C10.0306 13.6253 10.0298 13.6247 10.0292 13.6242C10.0278 13.6233 10.0264 13.6223 10.025 13.6214C10.0243 13.6209 10.0236 13.6206 10.0229 13.62C10.0212 13.6187 10.0193 13.6178 10.0176 13.6166C10.0173 13.6164 10.017 13.6162 10.0168 13.6159C10.0147 13.6147 10.0126 13.6133 10.0104 13.612C10.0103 13.612 10.0101 13.6119 10.01 13.6117C10.0081 13.6106 10.0062 13.6095 10.0045 13.6084C10.0039 13.6081 10.0034 13.608 10.0029 13.6075C10.0015 13.6066 9.99981 13.6058 9.9984 13.6048C9.99778 13.6044 9.99715 13.6042 9.99668 13.6039C9.99512 13.6031 9.99372 13.6023 9.99231 13.6016C9.99168 13.6012 9.99122 13.6008 9.99043 13.6006C9.98903 13.5997 9.98747 13.5989 9.98606 13.5983L9.9845 13.5975C9.98278 13.5967 9.98137 13.5958 9.97965 13.5952C9.97934 13.5948 9.97887 13.5948 9.9784 13.5945C9.97653 13.5936 9.97465 13.5927 9.97278 13.5919C9.97262 13.5919 9.97262 13.5917 9.97247 13.5917C9.96825 13.5898 9.96434 13.5881 9.96028 13.5862C9.96012 13.5862 9.95997 13.5862 9.95965 13.5862C9.95793 13.5855 9.95606 13.5847 9.95434 13.5841C9.95387 13.5839 9.95356 13.5837 9.95325 13.5836C9.95168 13.583 9.95012 13.5823 9.94856 13.5819C9.94825 13.5817 9.94778 13.5816 9.94715 13.5814C9.94575 13.5809 9.94418 13.5805 9.94262 13.5798L9.94153 13.5795C9.93981 13.5789 9.9384 13.5784 9.93668 13.578C9.93653 13.5778 9.93637 13.5778 9.93606 13.5777C9.93637 13.5777 9.93668 13.5775 9.93715 13.5775C9.93825 13.577 9.9395 13.5767 9.94059 13.5764C9.94122 13.5761 9.94184 13.5759 9.94262 13.5758C9.94403 13.5753 9.94528 13.5748 9.94653 13.5744C9.94715 13.5742 9.94762 13.5739 9.94825 13.5739C9.95012 13.5731 9.95184 13.5725 9.95372 13.5719C9.95418 13.5716 9.95481 13.5714 9.95528 13.5711L9.95934 13.5695C9.96012 13.5692 9.96075 13.5689 9.96153 13.5686C9.96278 13.5681 9.96387 13.5677 9.96512 13.5672C9.9659 13.5667 9.96668 13.5664 9.96747 13.5661C9.96856 13.5655 9.96981 13.565 9.9709 13.5645C9.97168 13.5642 9.97247 13.5637 9.97325 13.5634C9.9745 13.563 9.97575 13.5623 9.97684 13.5617C9.97778 13.5614 9.9784 13.5611 9.97918 13.5606C9.98059 13.5598 9.98231 13.5592 9.98372 13.5584C9.98434 13.5581 9.98465 13.5578 9.98528 13.5577C9.98715 13.5566 9.98887 13.5556 9.99075 13.5547C9.99153 13.5544 9.99215 13.5539 9.99309 13.5536L9.99668 13.5516C9.99747 13.5509 9.9984 13.5506 9.99918 13.55C10.0003 13.5494 10.0015 13.5487 10.0026 13.5481C10.0034 13.5475 10.0043 13.547 10.0053 13.5466C10.0064 13.5459 10.0075 13.5452 10.0087 13.5445C10.0095 13.5441 10.0104 13.5434 10.0112 13.5431C10.0125 13.5423 10.0139 13.5416 10.015 13.5408C10.0159 13.5405 10.0165 13.5398 10.0173 13.5394C10.0193 13.5383 10.0212 13.537 10.0232 13.5356C10.0237 13.5353 10.0245 13.5348 10.025 13.5345C10.0265 13.5336 10.0278 13.5327 10.0293 13.5317L10.0317 13.53C10.0329 13.5292 10.0342 13.5284 10.0354 13.5275C10.0359 13.5272 10.0361 13.527 10.0365 13.5269C10.06 13.5236 10.0845 13.522 10.1095 13.522C10.1659 13.522 10.2193 13.5303 10.26 13.5453C10.2984 13.5597 10.31 13.5744 10.3114 13.5783C10.3095 13.5817 10.2979 13.5964 10.2595 13.6108Z" fill="white" fill-opacity="0.262811"/>
</g>
</g>
<defs>
<clipPath id="clip0_2_1742">
<rect width="16" height="16" fill="white"/>
</clipPath>
</defs>
</svg>
