<svg width="16" height="16" viewBox="0 0 16 16" fill="none" xmlns="http://www.w3.org/2000/svg">
<g clip-path="url(#clip0_2_1855)">
<path fill-rule="evenodd" clip-rule="evenodd" d="M8 16C5.87828 16 3.84344 15.1572 2.34313 13.6569C0.842813 12.1566 0 10.1217 0 8C0 5.87828 0.842813 3.84344 2.34313 2.34313C3.84344 0.842813 5.87828 0 8 0C10.1217 0 12.1566 0.842813 13.6569 2.34313C15.1572 3.84344 16 5.87828 16 8C16 10.1217 15.1572 12.1566 13.6569 13.6569C12.1566 15.1572 10.1217 16 8 16Z" fill="#FFDBCF"/>
<mask id="mask0_2_1855" style="mask-type:alpha" maskUnits="userSpaceOnUse" x="0" y="0" width="16" height="16">
<path fill-rule="evenodd" clip-rule="evenodd" d="M8 16C5.87828 16 3.84344 15.1572 2.34313 13.6569C0.842813 12.1566 0 10.1217 0 8C0 5.87828 0.842813 3.84344 2.34313 2.34313C3.84344 0.842813 5.87828 0 8 0C10.1217 0 12.1566 0.842813 13.6569 2.34313C15.1572 3.84344 16 5.87828 16 8C16 10.1217 15.1572 12.1566 13.6569 13.6569C12.1566 15.1572 10.1217 16 8 16Z" fill="#FFDBCF"/>
</mask>
<g mask="url(#mask0_2_1855)">
<path fill-rule="evenodd" clip-rule="evenodd" d="M7.14062 9.65625H8.875V11.5312H7.14062V9.65625Z" fill="#FFCACA"/>
<path fill-rule="evenodd" clip-rule="evenodd" d="M8.76562 9.82031C8.76562 10.0231 8.43687 10.1875 8.03125 10.1875C7.62563 10.1875 7.29688 10.0231 7.29688 9.82031C7.29688 9.6175 7.62563 9.45312 8.03125 9.45312C8.43687 9.45312 8.76562 9.6175 8.76562 9.82031Z" fill="#FFB0B0" fill-opacity="0.519148"/>
<path fill-rule="evenodd" clip-rule="evenodd" d="M8.00781 11.3594C8.38219 11.3594 8.70797 11.2403 8.87703 11.0644C9.58719 11.19 10.5652 11.4398 11.8106 11.8137C12.4333 12.0006 12.875 12.5534 12.9202 13.2019L13.1414 16.3839L2.875 16.4777L3.13 13.1878C3.17969 12.5464 3.6175 12.0009 4.23313 11.8137C5.46453 11.4392 6.43281 11.1891 7.13797 11.0636C7.30672 11.2398 7.63297 11.3594 8.00781 11.3594Z" fill="#FF7D5B"/>
<path fill-rule="evenodd" clip-rule="evenodd" d="M5.94187 10.9687C5.97 10.9983 6.18344 11.2723 6.58219 11.7908L7.42187 12.3708L7.99406 12.6302L10.217 11.1948L9.48375 10.4525L7.72969 10.5487C6.64641 10.7962 6.10484 10.9202 6.10484 10.9202C6.10484 10.9202 5.89969 10.9245 5.94187 10.9687Z" fill="white"/>
<path fill-rule="evenodd" clip-rule="evenodd" d="M10.2188 6.82812C10.2188 8.54531 9.22531 9.9375 8 9.9375C6.77469 9.9375 5.78125 8.54531 5.78125 6.82812C5.78125 5.11094 6.77469 3.71875 8 3.71875C9.22531 3.71875 10.2188 5.11094 10.2188 6.82812Z" fill="#FFCACA"/>
<path fill-rule="evenodd" clip-rule="evenodd" d="M10.2188 8.39844C10.2188 8.61844 9.96344 8.79688 9.64844 8.79688C9.33344 8.79688 9.07812 8.61844 9.07812 8.39844C9.07812 8.17844 9.33344 8 9.64844 8C9.96344 8 10.2188 8.17844 10.2188 8.39844Z" fill="#FFAAAA" fill-opacity="0.216335"/>
<path fill-rule="evenodd" clip-rule="evenodd" d="M9.60938 3.75C9.60938 4.63891 8.88891 5.35938 8 5.35938C7.11109 5.35938 6.39062 4.63891 6.39062 3.75C6.39062 2.86109 7.11109 2.14062 8 2.14062C8.88891 2.14062 9.60938 2.86109 9.60938 3.75Z" fill="#110D2E"/>
<path fill-rule="evenodd" clip-rule="evenodd" d="M7.76562 3.92188C7.76562 4.595 7.22 5.14062 6.54688 5.14062C5.87375 5.14062 5.32812 4.595 5.32812 3.92188C5.32812 3.24875 5.87375 2.70312 6.54688 2.70312C7.22 2.70312 7.76562 3.24875 7.76562 3.92188Z" fill="#110D2E"/>
<path fill-rule="evenodd" clip-rule="evenodd" d="M11.1562 3.92188C11.1562 4.595 10.6106 5.14062 9.9375 5.14062C9.26437 5.14062 8.71875 4.595 8.71875 3.92188C8.71875 3.24875 9.26437 2.70312 9.9375 2.70312C10.6106 2.70312 11.1562 3.24875 11.1562 3.92188Z" fill="#110D2E"/>
<path fill-rule="evenodd" clip-rule="evenodd" d="M11.4844 5.375C11.4844 6.07406 10.9178 6.64062 10.2188 6.64062C9.51969 6.64062 8.95312 6.07406 8.95312 5.375C8.95312 4.67594 9.51969 4.10938 10.2188 4.10938C10.9178 4.10938 11.4844 4.67594 11.4844 5.375Z" fill="#110D2E"/>
<path fill-rule="evenodd" clip-rule="evenodd" d="M7.10938 5.375C7.10938 6.07406 6.54281 6.64062 5.84375 6.64062C5.14469 6.64062 4.57812 6.07406 4.57812 5.375C4.57812 4.67594 5.14469 4.10938 5.84375 4.10938C6.54281 4.10938 7.10938 4.67594 7.10938 5.375Z" fill="#110D2E"/>
<path fill-rule="evenodd" clip-rule="evenodd" d="M6.35938 7.15625C6.35938 7.52734 6.10406 7.82812 5.78906 7.82812C5.47406 7.82812 5.21875 7.52734 5.21875 7.15625C5.21875 6.78516 5.47406 6.48438 5.78906 6.48438C6.10406 6.48438 6.35938 6.78516 6.35938 7.15625Z" fill="#FFCACA"/>
<path d="M5.86934 6.95312C5.60871 6.96141 5.45137 7.03781 5.39746 7.18219" stroke="#FF9494" stroke-width="0.0625" stroke-linecap="round"/>
<path d="M5.58911 7.01562C5.75192 7.13125 5.80896 7.27359 5.76005 7.44266" stroke="#FF9494" stroke-width="0.0625" stroke-linecap="round"/>
<path fill-rule="evenodd" clip-rule="evenodd" d="M10.8125 7.15625C10.8125 7.52734 10.5572 7.82812 10.2422 7.82812C9.92719 7.82812 9.67188 7.52734 9.67188 7.15625C9.67188 6.78516 9.92719 6.48438 10.2422 6.48438C10.5572 6.48438 10.8125 6.78516 10.8125 7.15625Z" fill="#FFCACA"/>
<path d="M10.1475 6.95312C10.4081 6.96141 10.5654 7.03781 10.6193 7.18219" stroke="#FF9494" stroke-width="0.0625" stroke-linecap="round"/>
<path d="M10.4279 7.01562C10.2651 7.13125 10.208 7.27359 10.2569 7.44266" stroke="#FF9494" stroke-width="0.0625" stroke-linecap="round"/>
<path d="M8.3425 3.13047L8.33594 4.66406" stroke="white" stroke-opacity="0.063684" stroke-width="0.078125"/>
<path d="M8.71143 6.40734C8.93627 6.29 9.11799 6.23141 9.25642 6.23141C9.39486 6.23141 9.57658 6.29 9.80142 6.40734" stroke="#110D2E" stroke-width="0.109375" stroke-linecap="round"/>
<path d="M6.60205 6.36047C6.82268 6.30172 7.00221 6.2725 7.14064 6.2725C7.27908 6.2725 7.46283 6.30172 7.69205 6.36047" stroke="#110D2E" stroke-width="0.109375" stroke-linecap="round"/>
<path fill-rule="evenodd" clip-rule="evenodd" d="M7.42188 6.95312C7.42188 7.03078 7.35891 7.09375 7.28125 7.09375C7.20359 7.09375 7.14062 7.03078 7.14062 6.95312C7.14062 6.87547 7.20359 6.8125 7.28125 6.8125C7.35891 6.8125 7.42188 6.87547 7.42188 6.95312Z" fill="#110D2E"/>
<path fill-rule="evenodd" clip-rule="evenodd" d="M9.17188 6.875C9.17188 6.95266 9.10891 7.01562 9.03125 7.01562C8.95359 7.01562 8.89062 6.95266 8.89062 6.875C8.89062 6.79734 8.95359 6.73438 9.03125 6.73438C9.10891 6.73438 9.17188 6.79734 9.17188 6.875Z" fill="#110D2E"/>
<path d="M8.15784 7.375V7.78125C8.15784 7.90203 8.25581 8 8.37659 8H8.48346" stroke="#FF9494" stroke-width="0.109375" stroke-linecap="round"/>
<path d="M8 8.78906H8.45" stroke="#110D2E" stroke-width="0.109375" stroke-linecap="round"/>
<path fill-rule="evenodd" clip-rule="evenodd" d="M7.29688 8.39844C7.29688 8.61844 7.04156 8.79688 6.72656 8.79688C6.41156 8.79688 6.15625 8.61844 6.15625 8.39844C6.15625 8.17844 6.41156 8 6.72656 8C7.04156 8 7.29688 8.17844 7.29688 8.39844Z" fill="#FFAAAA" fill-opacity="0.216335"/>
<path fill-rule="evenodd" clip-rule="evenodd" d="M5.74292 11.3819C5.90667 11.1553 6.22323 11.1042 6.44995 11.2681C6.46276 11.2773 6.47511 11.2872 6.48698 11.2977L8.00808 12.6302C7.16808 12.4294 6.62386 12.2559 6.37558 12.11C6.12714 11.9641 5.91636 11.7214 5.74292 11.3819Z" fill="#D75B3B"/>
<path fill-rule="evenodd" clip-rule="evenodd" d="M10.2592 11.3819C10.0954 11.1553 9.77886 11.1042 9.55214 11.2681C9.53933 11.2773 9.52699 11.2872 9.51511 11.2977L7.99402 12.6302C8.83402 12.4294 9.37824 12.2559 9.62667 12.11C9.87496 11.9641 10.0859 11.7214 10.2592 11.3819Z" fill="#D75B3B"/>
<path d="M6.94839 12.2409C6.72105 12.7566 6.64448 13.1769 6.7187 13.5019C6.83011 13.9892 7.04183 14.697 6.48901 14.7628" stroke="#D75B3B" stroke-width="0.125" stroke-linecap="round"/>
<path d="M9.17186 12.1639C9.35936 12.4502 9.35936 12.8481 9.17186 13.3578C8.98436 13.8673 9.05436 14.4011 9.38171 14.9587" stroke="#D75B3B" stroke-width="0.125" stroke-linecap="round"/>
</g>
</g>
<defs>
<clipPath id="clip0_2_1855">
<rect width="16" height="16" fill="white"/>
</clipPath>
</defs>
</svg>
