<svg width="16" height="17" viewBox="0 0 16 17" fill="none" xmlns="http://www.w3.org/2000/svg">
<g clip-path="url(#clip0_2_1662)">
<path fill-rule="evenodd" clip-rule="evenodd" d="M6.65745 11.8431L6.44214 9.03453H9.59073V11.8431C9.62214 12.3105 9.82401 12.633 11.2081 12.7295C11.0976 13.6123 11.8564 15.2492 8.13214 15.2414C4.40807 15.2336 4.93214 13.4616 4.89073 12.7167C5.90682 12.7581 6.62495 12.3272 6.65745 11.8431Z" fill="#D4A37A"/>
<path d="M7.54853 13.1277L6.6001 12.8153" stroke="#BB7E4B" stroke-width="0.110345" stroke-linecap="round"/>
<path d="M8.77942 13.1277L9.72801 12.8153" stroke="#BB7E4B" stroke-width="0.110345" stroke-linecap="round"/>
<path fill-rule="evenodd" clip-rule="evenodd" d="M9.59073 9.87562C9.59073 9.87562 8.35589 11.1566 6.60433 11.0325C6.60433 10.8808 6.44214 9.03453 6.44214 9.03453H9.59073V9.87562Z" fill="#BB7E4B"/>
<path fill-rule="evenodd" clip-rule="evenodd" d="M5.76919 7.16797C5.76919 7.16797 5.3259 6.73594 5.01387 7.06141C4.74403 7.3425 5.00403 8.73266 5.98075 8.71953L5.76919 7.16797Z" fill="#D4A37A"/>
<path fill-rule="evenodd" clip-rule="evenodd" d="M10.3314 7.16797C10.3314 7.16797 10.7746 6.73594 11.0866 7.06141C11.3564 7.3425 11.0966 8.73266 10.1199 8.71953L10.3314 7.16797Z" fill="#D4A37A"/>
<path fill-rule="evenodd" clip-rule="evenodd" d="M7.98378 3.2611C6.14471 3.2611 5.15081 4.94828 5.47284 6.81953C5.63096 7.73938 5.68018 7.77641 5.88909 8.69188C5.98393 9.10813 6.77581 10.4888 8.12503 10.4611C9.32768 10.4473 10.1367 9.14141 10.2316 8.71578C10.4313 7.81859 10.4974 7.74313 10.6185 6.81953C10.8653 4.93672 9.94643 3.2611 8.10737 3.2611H7.98378Z" fill="#DDB390"/>
<path fill-rule="evenodd" clip-rule="evenodd" d="M6.12404 6.17781C6.12497 6.13219 6.16263 6.09578 6.20841 6.09656L6.20685 6.17938C6.20841 6.09656 6.20841 6.09656 6.20841 6.09656H6.20904H6.21091C6.21247 6.09672 6.21466 6.09672 6.21763 6.09672C6.22341 6.09687 6.23216 6.09719 6.2431 6.0975C6.26529 6.09828 6.29716 6.09953 6.337 6.10156C6.41654 6.10578 6.52747 6.11328 6.65341 6.12625C6.90325 6.15234 7.21904 6.20141 7.46404 6.29516C7.50669 6.31141 7.5281 6.35922 7.51169 6.40203C7.49544 6.44469 7.44763 6.46609 7.40482 6.44969C7.18091 6.36406 6.88294 6.31656 6.63622 6.29094C6.51372 6.27812 6.40575 6.27094 6.32841 6.26687C6.28982 6.26484 6.25872 6.26375 6.23763 6.26297C6.227 6.26266 6.21888 6.26234 6.21341 6.26219C6.2106 6.26219 6.20857 6.26219 6.20716 6.26203H6.20575H6.20529C6.15966 6.26125 6.12325 6.22344 6.12404 6.17781Z" fill="#654840"/>
<path fill-rule="evenodd" clip-rule="evenodd" d="M9.91714 6.17781C9.91636 6.13219 9.8787 6.09578 9.83292 6.09656L9.83448 6.17938C9.83292 6.09656 9.83292 6.09656 9.83292 6.09656H9.8323H9.83042C9.82886 6.09672 9.82667 6.09672 9.8237 6.09672C9.81777 6.09687 9.80917 6.09719 9.79808 6.0975C9.77605 6.09828 9.74402 6.09953 9.70433 6.10156C9.6248 6.10578 9.5137 6.11328 9.38792 6.12625C9.13808 6.15234 8.8223 6.20141 8.5773 6.29516C8.53464 6.31141 8.51323 6.35922 8.52948 6.40203C8.54589 6.44469 8.5937 6.46609 8.63636 6.44969C8.86042 6.36406 9.15839 6.31656 9.40511 6.29094C9.52745 6.27812 9.63558 6.27094 9.71292 6.26687C9.75152 6.26484 9.78245 6.26375 9.8037 6.26297C9.81433 6.26266 9.82245 6.26234 9.82792 6.26219C9.83058 6.26219 9.83261 6.26219 9.83402 6.26203H9.83558H9.83589C9.88167 6.26125 9.91792 6.22344 9.91714 6.17781Z" fill="#654840"/>
<path fill-rule="evenodd" clip-rule="evenodd" d="M10.1117 4.91656C10.2429 5.46609 10.2136 6.07453 10.2136 6.07453L10.3879 6.33109L10.565 7.20797C10.6582 6.81391 10.7351 6.01172 10.7351 5.90656C10.7351 4.23141 9.86231 3.01172 8.15012 3.01172C6.16715 3.01172 5.32825 4.16641 5.32825 5.90422C5.32825 6.60016 5.54606 7.2275 5.54606 7.2275L5.64997 6.33109C5.64997 6.33109 5.79856 6.10328 5.80872 6.06828C5.84653 5.93672 5.8245 5.42391 5.95215 4.91422C5.95215 4.91422 10.0211 4.91656 10.1117 4.91656Z" fill="#8E685E"/>
<path fill-rule="evenodd" clip-rule="evenodd" d="M10.0247 5.08266C10.0247 5.08266 10.534 5.72672 10.6986 6.28422C10.7886 5.56031 10.8071 4.98937 10.7586 4.59047C10.7286 4.34437 10.6836 4.00422 10.2007 3.41812C10.0346 3.21641 10.021 3.54844 10.021 3.54844C10.021 3.54844 9.99474 3.30219 9.60536 3.04172C9.2363 2.79484 9.38067 3.11406 9.38067 3.11406C9.38067 3.11406 9.20099 2.94875 8.9613 2.70875C8.72161 2.46891 8.38442 2.33547 8.22739 2.31797C8.09192 2.30281 7.86442 2.54422 7.46349 2.67969C6.86442 2.88234 6.55677 3.29984 6.52849 3.31625C6.54911 3.19344 6.57989 2.95812 6.26536 3.24437C5.99677 3.48875 5.72927 3.88687 5.71505 3.90031C5.71771 3.78641 5.70333 3.59234 5.54645 3.85219C5.33677 4.19969 5.26192 4.57609 5.26192 4.57609C5.17302 4.89906 5.38161 6.4 5.38161 6.4C5.56146 5.67625 6.03317 5.09 6.03317 5.09C6.03317 5.09 6.96567 5.04656 8.1227 5.19844C8.9763 5.04656 10.0247 5.08266 10.0247 5.08266Z" fill="#654840"/>
<path fill-rule="evenodd" clip-rule="evenodd" d="M8.36908 6.70703C8.36908 6.70703 8.36924 6.70719 8.34486 6.78625L8.36924 6.70719C8.41283 6.72062 8.43736 6.76687 8.42393 6.81047C8.41065 6.85391 8.36486 6.87844 8.32143 6.86562C8.32143 6.86562 8.32111 6.86547 8.32096 6.86547C8.32002 6.86516 8.31815 6.86484 8.31533 6.86422C8.30986 6.86328 8.3019 6.86234 8.29283 6.8625C8.27408 6.86281 8.25643 6.86734 8.24236 6.87969C8.22893 6.89125 8.20721 6.91984 8.20033 6.99203C8.19315 7.06531 8.20205 7.17719 8.24565 7.34469C8.2458 7.34516 8.2458 7.34547 8.24596 7.34594C8.28049 7.48734 8.30893 7.61312 8.32408 7.71922C8.33908 7.82328 8.34299 7.91969 8.31971 7.99734C8.30752 8.03766 8.28736 8.07531 8.2558 8.10562C8.22393 8.13625 8.18471 8.15547 8.14111 8.16531C8.05768 8.18422 7.95283 8.17031 7.82971 8.13547C7.78565 8.12312 7.76018 8.07734 7.77252 8.03328C7.78502 7.98937 7.83065 7.96375 7.87471 7.97625C7.99127 8.00906 8.06283 8.01344 8.10455 8.00391C8.12361 7.99953 8.13424 7.99297 8.14111 7.98641C8.14815 7.97953 8.15549 7.96875 8.16111 7.94969C8.17346 7.90844 8.17455 7.84219 8.16033 7.74266C8.14643 7.64547 8.11971 7.52687 8.08533 7.38578C8.03924 7.20875 8.0258 7.07594 8.03549 6.97609C8.04533 6.875 8.07971 6.80187 8.13361 6.75484C8.18674 6.70844 8.24752 6.69766 8.29049 6.69703C8.31221 6.69672 8.3308 6.69891 8.34424 6.70125C8.35096 6.7025 8.35658 6.70375 8.3608 6.70484C8.36283 6.70531 8.36471 6.70578 8.36611 6.70625C8.36674 6.70641 8.36736 6.70656 8.36783 6.70672L8.36861 6.70687L8.36893 6.70703H8.36908Z" fill="#BB6957"/>
<path fill-rule="evenodd" clip-rule="evenodd" d="M6.85512 7.47578C7.0759 7.47578 7.1448 7.21328 7.1448 7.00688C7.1448 6.80063 7.00137 6.95172 6.84137 6.95172C6.68137 6.95172 6.56543 6.80063 6.56543 7.00688C6.56543 7.21328 6.63449 7.47578 6.85512 7.47578Z" fill="#654840"/>
<path fill-rule="evenodd" clip-rule="evenodd" d="M6.35488 7.0475H6.3552L6.35645 7.04734C6.35754 7.04719 6.35942 7.04687 6.36176 7.04656C6.36645 7.04594 6.37348 7.045 6.3827 7.04391C6.40098 7.04156 6.42754 7.03828 6.46067 7.035C6.52707 7.02828 6.61895 7.02062 6.72129 7.01719C6.92942 7.01031 7.16832 7.02156 7.32613 7.08469C7.36145 7.09891 7.4016 7.08172 7.41582 7.04625C7.42988 7.01094 7.4127 6.97078 7.37738 6.95672C7.19051 6.88187 6.92582 6.87234 6.71676 6.87937C6.61051 6.88281 6.51535 6.89078 6.4466 6.89781C6.41238 6.90125 6.38457 6.90453 6.36535 6.90703C6.35567 6.90828 6.34817 6.90922 6.34301 6.91C6.34051 6.91031 6.33848 6.91047 6.33707 6.91078L6.33551 6.91094L6.33488 6.91109C6.33488 6.91109 6.33488 6.91109 6.34473 6.97859L6.33488 6.91109C6.29723 6.91656 6.27113 6.95156 6.2766 6.98922C6.28207 7.02687 6.31707 7.05297 6.35488 7.0475Z" fill="#654840"/>
<path fill-rule="evenodd" clip-rule="evenodd" d="M9.21376 7.47578C8.99313 7.47578 8.92407 7.21328 8.92407 7.00688C8.92407 6.80063 9.06767 6.95172 9.22767 6.95172C9.38767 6.95172 9.50345 6.80063 9.50345 7.00688C9.50345 7.21328 9.43454 7.47578 9.21376 7.47578Z" fill="#654840"/>
<path fill-rule="evenodd" clip-rule="evenodd" d="M9.71425 7.0475H9.71393L9.71268 7.04734C9.71143 7.04719 9.70972 7.04687 9.70737 7.04656C9.70268 7.04594 9.6955 7.045 9.68643 7.04391C9.66815 7.04156 9.64143 7.03828 9.60831 7.035C9.54206 7.02828 9.45003 7.02062 9.34768 7.01719C9.13972 7.01031 8.90081 7.02156 8.74284 7.08469C8.70753 7.09891 8.66737 7.08172 8.65331 7.04625C8.63909 7.01094 8.65628 6.97078 8.69159 6.95672C8.87862 6.88187 9.14315 6.87234 9.35237 6.87937C9.45862 6.88281 9.55378 6.89078 9.62237 6.89781C9.65675 6.90125 9.6844 6.90453 9.70362 6.90703C9.71331 6.90828 9.72081 6.90922 9.72597 6.91C9.72862 6.91031 9.7305 6.91047 9.7319 6.91078L9.73347 6.91094L9.73409 6.91109C9.73409 6.91109 9.73409 6.91109 9.72425 6.97859L9.73409 6.91109C9.77175 6.91656 9.798 6.95156 9.79237 6.98922C9.7869 7.02687 9.7519 7.05297 9.71425 7.0475Z" fill="#654840"/>
<path fill-rule="evenodd" clip-rule="evenodd" d="M7.43584 8.82078C7.38256 8.80484 7.35334 8.75219 7.37053 8.70297C7.38787 8.65406 7.4485 8.65625 7.50303 8.67234C7.50787 8.67391 8.03037 8.82391 8.70647 8.67047C8.76178 8.65797 8.81147 8.65938 8.82459 8.70922C8.83803 8.75953 8.80475 8.81031 8.75021 8.82266C8.50193 8.87891 8.27412 8.89781 8.08021 8.89781C7.70037 8.89781 7.45115 8.82547 7.43584 8.82078Z" fill="#BB6855"/>
<path fill-rule="evenodd" clip-rule="evenodd" d="M8.08455 9.29703C7.90752 9.29703 7.7919 9.24172 7.78455 9.23812C7.74987 9.22109 7.73565 9.17891 7.75268 9.14406C7.76971 9.10922 7.81237 9.09562 7.84643 9.11187C7.85534 9.11641 8.06893 9.21625 8.35924 9.10359C8.39596 9.08984 8.43627 9.1075 8.45018 9.14375C8.46424 9.17984 8.44643 9.22047 8.41002 9.23453C8.28909 9.28156 8.17815 9.29703 8.08455 9.29703Z" fill="#BB6855" fill-opacity="0.2"/>
<path d="M5.79309 6.62172C5.79309 6.59063 5.81825 6.56547 5.84934 6.56547H7.72309C7.75403 6.56547 7.77934 6.59063 7.77934 6.62172V7.03453C7.77934 7.58297 7.33465 8.02766 6.78622 8.02766C6.23762 8.02766 5.79309 7.58297 5.79309 7.03453V6.62172Z" stroke="#697A8D" stroke-width="0.110345"/>
<path d="M8.27576 6.62172C8.27576 6.59063 8.30107 6.56547 8.33201 6.56547H10.2058C10.2368 6.56547 10.262 6.59063 10.262 6.62172V7.03453C10.262 7.58297 9.81748 8.02766 9.26888 8.02766C8.72044 8.02766 8.27576 7.58297 8.27576 7.03453V6.62172Z" stroke="#697A8D" stroke-width="0.110345"/>
<path d="M7.77942 7.15859C7.77942 7.15859 7.94489 7.10344 8.04145 7.10344C8.13801 7.10344 8.27583 7.15859 8.27583 7.15859" stroke="#697A8D" stroke-width="0.110345"/>
<path d="M9.56486 12.4409C9.64471 12.3525 9.72565 12.2627 9.81111 12.1747C10.2033 12.5244 11.6953 12.8359 12.3828 12.8984C13.0703 12.9609 14.1499 13.3442 14.4225 14.3512L14.7141 16.002H1.53564L1.68814 14.7372C1.84377 13.2109 2.99033 12.9758 4.01549 12.7902C4.09518 12.7758 4.17736 12.7609 4.26205 12.7448L5.41127 12.6208C5.79736 12.5506 6.15533 12.4644 6.3558 12.2855C6.59314 12.7311 7.15877 13.2539 8.09658 13.2689C8.80752 13.2805 9.17143 12.877 9.56486 12.4409Z" fill="#FFC17F"/>
<path fill-rule="evenodd" clip-rule="evenodd" d="M8.22059 13.2966C8.07559 13.5867 6.08075 13.2492 5.68263 12.8138C5.43997 12.5483 5.51231 12.4027 5.61388 12.2892L5.62497 12.277L5.63638 12.265L5.65919 12.2416L5.67606 12.2244L5.69231 12.2075L5.70294 12.1963L5.71294 12.1852C5.75559 12.137 5.78388 12.0898 5.76747 12.0341L5.76544 12.0277C5.66888 11.7517 5.92888 11.3995 6.35856 11.462C6.51559 11.4848 6.5845 11.5558 6.63044 11.6591L6.63653 11.6734L6.64247 11.6881L6.64809 11.7031L6.65356 11.7186L6.66153 11.7425L6.66684 11.7588L6.6745 11.7839L6.69825 11.8638L6.70684 11.8917L6.71591 11.9203L6.72231 11.9397L6.72903 11.9594L6.73606 11.9792C6.73966 11.9894 6.74341 11.9994 6.74731 12.0095L6.75544 12.03C6.77216 12.0713 6.79184 12.1138 6.81559 12.1572C7.00044 12.4948 7.32997 12.7278 7.62403 12.8972L7.66216 12.9189C7.66856 12.9225 7.67481 12.9261 7.68106 12.9295L7.71841 12.9503L7.75513 12.9703L7.80888 12.9991L7.97263 13.0855L8.00184 13.1011L8.02966 13.1161L8.05591 13.1308C8.17544 13.198 8.24388 13.2502 8.22059 13.2966Z" fill="#D88F42"/>
<path fill-rule="evenodd" clip-rule="evenodd" d="M7.94392 13.2689C8.08908 13.5592 10.0838 13.2216 10.4819 12.7863C10.7114 12.5352 10.6592 12.3913 10.567 12.2805L10.5563 12.2678C10.5544 12.2658 10.5527 12.2638 10.5508 12.2617L10.5395 12.2494L10.5281 12.2373L10.4999 12.2081L10.4886 12.1967L10.4722 12.1798L10.4617 12.1688C10.4119 12.1148 10.377 12.063 10.3991 12C10.4956 11.7241 10.2356 11.372 9.80595 11.4345C9.63829 11.4589 9.57095 11.5381 9.52501 11.6531L9.51923 11.668L9.51361 11.6833L9.50829 11.6989L9.50298 11.7148L9.49517 11.7395L9.48751 11.7648L9.46626 11.8363L9.45767 11.8642L9.45173 11.8831L9.44548 11.9023L9.43892 11.9219L9.43204 11.9417L9.42486 11.9617C9.42236 11.9684 9.41986 11.9752 9.4172 11.982L9.40908 12.0025C9.39236 12.0436 9.37283 12.0861 9.34892 12.1297C9.15611 12.4819 8.80564 12.7203 8.50236 12.8914L8.4647 12.9123C8.45845 12.9159 8.45236 12.9192 8.44611 12.9227L8.40939 12.9427L8.35564 12.9716L8.19204 13.0578L8.16282 13.0734L8.13501 13.0886L8.10861 13.1033C7.98923 13.1705 7.92079 13.2227 7.94392 13.2689Z" fill="#D88F42"/>
<path d="M7.69659 13.2002C7.69628 13.162 7.66519 13.1314 7.62722 13.1316C7.58909 13.1319 7.55847 13.163 7.55862 13.2011L7.56878 14.7788C7.48253 14.8089 7.42065 14.8908 7.42065 14.9872C7.42065 15.0847 7.48378 15.1673 7.57144 15.1966L7.57237 15.3652C7.57269 15.4033 7.60378 15.4339 7.6419 15.4337C7.67987 15.4334 7.71065 15.4023 7.71034 15.3644L7.70925 15.1973C7.798 15.1686 7.86206 15.0855 7.86206 14.9872C7.86206 14.8881 7.79675 14.8042 7.70659 14.7764L7.69659 13.2002Z" fill="#D88F42"/>
<path d="M8.45144 14.7788C8.36534 14.8089 8.30347 14.8908 8.30347 14.9872C8.30347 15.0847 8.36659 15.1673 8.45409 15.1966L8.45519 15.3652C8.4555 15.4033 8.48644 15.4339 8.52456 15.4337C8.56269 15.4334 8.59331 15.4023 8.59315 15.3644L8.59206 15.1973C8.68065 15.1686 8.74487 15.0855 8.74487 14.9872C8.74487 14.8881 8.6794 14.8042 8.5894 14.7764L8.5794 13.2002C8.57909 13.162 8.548 13.1314 8.50987 13.1316C8.4719 13.1319 8.44112 13.163 8.44144 13.2011L8.45144 14.7788Z" fill="#D88F42"/>
</g>
<defs>
<clipPath id="clip0_2_1662">
<rect width="16" height="16.0156" rx="8" fill="white"/>
</clipPath>
</defs>
</svg>
