<svg width="16" height="16" viewBox="0 0 16 16" fill="none" xmlns="http://www.w3.org/2000/svg">
<g clip-path="url(#clip0_2_1559)">
<path d="M0 0H16V16H0V0Z" fill="#E0F4FF"/>
<path fill-rule="evenodd" clip-rule="evenodd" d="M6.6669 12.3173L6.74268 9.53938L9.45002 9.45672L9.60658 12.3173C9.63815 12.7845 10.1822 12.9428 11.2274 13.0317C11.1169 13.9142 11.8772 15.6672 8.14486 15.6594C4.41252 15.6516 4.93768 13.9003 4.89627 13.1558C6.0658 12.9016 6.46643 12.8189 6.6669 12.3173Z" fill="#FFD1AA"/>
<path fill-rule="evenodd" clip-rule="evenodd" d="M9.6066 10.323C9.6066 10.323 8.443 11.5925 6.68738 11.4684C6.68738 11.3167 6.7841 9.47047 6.7841 9.47047L9.6066 9.48203V10.323Z" fill="#FFC18D"/>
<path fill-rule="evenodd" clip-rule="evenodd" d="M5.77651 7.58859C5.77651 7.58859 5.33229 7.15656 5.01963 7.48203C4.87213 7.63515 4.8826 8.0625 5.08088 8.46765C5.17229 8.62328 5.29885 8.79156 5.46572 8.91297C5.60916 9.0175 5.7776 8.96687 5.98354 8.96406L5.77651 7.58859Z" fill="#FFD1AA"/>
<path fill-rule="evenodd" clip-rule="evenodd" d="M10.3516 7.58859C10.3516 7.58859 10.7958 7.15656 11.1086 7.48203C11.2559 7.63515 11.2456 8.0625 11.0473 8.46765C10.9559 8.62328 10.8292 8.79156 10.6625 8.91297C10.5189 9.0175 10.3506 8.96687 10.1445 8.96406L10.3516 7.58859Z" fill="#FFD1AA"/>
<path fill-rule="evenodd" clip-rule="evenodd" d="M7.99616 3.68297C6.15303 3.68297 5.38725 5.24578 5.53491 7.15766C5.61006 7.70672 5.69287 8.20265 5.76194 9.20172C5.83428 9.51859 6.45194 10.4369 7.29147 10.8223C7.55428 10.943 7.81209 10.9034 8.11022 10.9034C8.36756 10.9034 8.63944 10.9547 8.86553 10.8503C9.66647 10.4811 10.3015 9.53359 10.3757 9.20172C10.4171 8.97437 10.4171 7.95469 10.5813 7.15766C10.733 5.25609 9.96303 3.68297 8.11991 3.68297H7.99616Z" fill="#FFE1C7"/>
<path fill-rule="evenodd" clip-rule="evenodd" d="M6.22372 6.89015C6.1909 6.89015 6.15887 6.87281 6.14169 6.84203C6.11653 6.79672 6.13293 6.73984 6.17809 6.71468C6.68043 6.43625 7.44653 6.62734 7.47887 6.63562C7.52918 6.64828 7.55934 6.69922 7.54653 6.74937C7.53356 6.79953 7.48356 6.82984 7.43231 6.81703C7.42528 6.81515 6.70575 6.63609 6.26919 6.87843C6.25481 6.8864 6.23919 6.89015 6.22372 6.89015Z" fill="#654840"/>
<path fill-rule="evenodd" clip-rule="evenodd" d="M9.73713 6.89015C9.72166 6.89015 9.70603 6.8864 9.69166 6.87843C9.25635 6.63687 8.57806 6.81484 8.57088 6.81656C8.5215 6.83015 8.46947 6.80047 8.45619 6.75062C8.4426 6.70078 8.47213 6.64937 8.52213 6.63593C8.55291 6.62765 9.27978 6.43593 9.78275 6.71468C9.82791 6.73984 9.84431 6.79672 9.81916 6.84203C9.80213 6.87281 9.76994 6.89015 9.73713 6.89015Z" fill="#654840"/>
<path fill-rule="evenodd" clip-rule="evenodd" d="M10.1589 6.89172L10.3283 7.12172L10.5004 7.90766C10.591 7.55438 10.6657 6.83531 10.6657 6.7411C10.6657 5.23938 9.8177 4.1461 8.15411 4.1461C6.22723 4.1461 5.41223 5.18125 5.41223 6.73906C5.41223 7.36281 5.62379 7.92531 5.62379 7.92531L5.72473 7.12172C5.72473 7.12172 5.86911 6.9175 5.87895 6.88594C5.91583 6.76828 5.84692 5.91906 5.97098 5.46219C5.97098 5.46219 7.28426 4.95156 8.37082 5.42281C8.37082 5.42281 9.06833 5.01703 9.96411 5.4425C10.0916 5.93516 10.1589 6.89172 10.1589 6.89172Z" fill="#86665D"/>
<path fill-rule="evenodd" clip-rule="evenodd" d="M5.43871 7.05359C5.43871 7.05359 5.09511 5.90391 5.18277 5.31078C5.23386 4.96578 5.7873 4.30547 6.0598 4.05094C6.37871 3.75313 6.61355 3.56484 7.17027 3.31859C8.16386 2.87938 8.74855 3.67031 8.74855 3.67031C8.74855 3.67031 9.71293 2.93781 10.9112 5.13484C11.0811 5.44641 10.8965 6.21875 10.6225 7.13063C10.6225 7.13063 10.217 6.85594 9.86621 5.99906C9.35668 4.75375 8.44168 5.73531 8.44168 5.73531C8.44168 5.73531 7.37449 5.21484 6.8123 5.53031C5.71621 6.14547 6.5784 6.42375 5.43871 7.05359Z" fill="#654840"/>
<path fill-rule="evenodd" clip-rule="evenodd" d="M6.64573 4.97766C6.28261 5.30859 6.2312 5.505 6.15698 6.18734C6.61917 5.26922 7.46745 5.33219 8.43292 5.73219C8.43292 5.73219 7.70214 4.24969 6.64573 4.97766Z" fill="#452E28"/>
<path fill-rule="evenodd" clip-rule="evenodd" d="M9.92267 6.09078C9.92267 6.09078 9.3847 4.29781 8.43298 5.73219C9.28814 5.27703 9.92267 6.09078 9.92267 6.09078Z" fill="#452E28"/>
<path fill-rule="evenodd" clip-rule="evenodd" d="M8.37435 7.1289C8.37451 7.1289 8.37451 7.1289 8.35013 7.20812L8.37451 7.1289C8.41826 7.1425 8.44279 7.18875 8.42935 7.23234C8.41592 7.27578 8.37029 7.30031 8.32685 7.2875C8.3267 7.2875 8.32654 7.28734 8.32623 7.28734C8.32529 7.28703 8.32342 7.28672 8.32076 7.28625C8.31514 7.28515 8.30717 7.28422 8.2981 7.28437C8.27935 7.28469 8.2617 7.28922 8.24763 7.30156C8.23435 7.31312 8.21263 7.34172 8.2056 7.4139C8.19857 7.48718 8.20748 7.59906 8.25092 7.76656C8.25107 7.76703 8.25123 7.76734 8.25123 7.76781C8.28576 7.90922 8.31435 8.035 8.32951 8.14109C8.34435 8.24515 8.34826 8.34156 8.32498 8.41922C8.31295 8.45953 8.29279 8.49719 8.26107 8.5275C8.2292 8.55812 8.19014 8.57734 8.14654 8.58719C8.06295 8.60609 7.95826 8.59218 7.83498 8.55734C7.79107 8.545 7.76545 8.49922 7.77795 8.45515C7.79029 8.41125 7.83607 8.38562 7.87998 8.39812C7.99654 8.43093 8.0681 8.43531 8.10982 8.42578C8.12889 8.4214 8.13951 8.41484 8.14638 8.40828C8.15342 8.4014 8.16076 8.39062 8.16654 8.37156C8.17888 8.33031 8.17982 8.26406 8.1656 8.16453C8.1517 8.06734 8.12498 7.94875 8.0906 7.80765C8.04467 7.63062 8.03123 7.49781 8.04092 7.39797C8.05076 7.29687 8.08498 7.22375 8.13889 7.17672C8.19201 7.13031 8.25279 7.11937 8.29576 7.1189C8.31748 7.11859 8.33607 7.12078 8.34951 7.12312C8.35623 7.12437 8.36185 7.12562 8.36607 7.12672C8.36826 7.12718 8.36998 7.12765 8.37139 7.12812C8.37217 7.12828 8.37279 7.12844 8.37326 7.12859L8.37388 7.12875L8.3742 7.1289H8.37435Z" fill="#DD936F"/>
<path fill-rule="evenodd" clip-rule="evenodd" d="M6.86045 7.89765C7.02061 7.89765 7.15014 7.75375 7.15014 7.53906C7.15014 7.32453 7.02061 7.18047 6.86045 7.18047C6.70045 7.18047 6.57092 7.32453 6.57092 7.53906C6.57092 7.75375 6.70045 7.89765 6.86045 7.89765Z" fill="#3B4453"/>
<path fill-rule="evenodd" clip-rule="evenodd" d="M9.12254 7.89765C9.28254 7.89765 9.41223 7.75375 9.41223 7.53906C9.41223 7.32453 9.28254 7.18047 9.12254 7.18047C8.96285 7.18047 8.83301 7.32453 8.83301 7.53906C8.83301 7.75375 8.96285 7.89765 9.12254 7.89765Z" fill="#3B4453"/>
<path d="M6.96628 8.61328C6.96628 8.75593 6.90972 8.89281 6.80878 8.99359C6.70785 9.09453 6.57113 9.15125 6.42847 9.15125C6.28582 9.15125 6.14894 9.09453 6.048 8.99359C5.94722 8.89281 5.8905 8.75593 5.8905 8.61328C5.8905 8.47062 5.94722 8.33375 6.048 8.23281C6.14894 8.13203 6.28582 8.07531 6.42847 8.07531C6.57113 8.07531 6.70785 8.13203 6.80878 8.23281C6.90972 8.33375 6.96628 8.47062 6.96628 8.61328Z" fill="#FFD2B9" fill-opacity="0.604969"/>
<path d="M10.2216 8.61328C10.2216 8.75593 10.1648 8.89281 10.0639 8.99359C9.96313 9.09453 9.82625 9.15125 9.6836 9.15125C9.54094 9.15125 9.40407 9.09453 9.30313 8.99359C9.20235 8.89281 9.14563 8.75593 9.14563 8.61328C9.14563 8.47062 9.20235 8.33375 9.30313 8.23281C9.40407 8.13203 9.54094 8.07531 9.6836 8.07531C9.82625 8.07531 9.96313 8.13203 10.0639 8.23281C10.1648 8.33375 10.2216 8.47062 10.2216 8.61328Z" fill="#FFD2B9" fill-opacity="0.604969"/>
<path fill-rule="evenodd" clip-rule="evenodd" d="M7.35718 9.30469C7.35718 9.30469 7.70187 9.27703 8.03296 9.27703C8.36405 9.27703 8.79155 9.31844 8.79155 9.31844C8.79155 9.31844 8.54327 9.58047 8.07437 9.58047C7.60546 9.58047 7.35718 9.30469 7.35718 9.30469Z" fill="white"/>
<path fill-rule="evenodd" clip-rule="evenodd" d="M7.35714 9.30469C7.29558 9.36 7.29558 9.36 7.29558 9.36L7.29573 9.36016V9.36032L7.2962 9.36063C7.29636 9.36094 7.29667 9.36125 7.29714 9.36172C7.29792 9.3625 7.29886 9.3636 7.30011 9.365C7.30261 9.36766 7.3062 9.37125 7.31073 9.37563C7.3198 9.38453 7.33277 9.39657 7.3498 9.41094C7.3837 9.43953 7.43339 9.47703 7.4987 9.51438C7.62964 9.58922 7.82292 9.66328 8.07433 9.66328C8.3248 9.66328 8.51761 9.59313 8.64823 9.52219C8.71355 9.48672 8.76339 9.4511 8.7973 9.42391C8.81417 9.41032 8.8273 9.39875 8.83636 9.39032C8.84089 9.3861 8.84433 9.38266 8.84698 9.38016C8.84823 9.37891 8.84933 9.37782 8.84995 9.37703C8.85042 9.37657 8.85073 9.37625 8.85105 9.37594L8.85136 9.37563L8.85152 9.37547C8.85152 9.37532 8.85167 9.37532 8.79151 9.31844L8.85167 9.37532C8.87339 9.35235 8.88011 9.31907 8.86902 9.28938C8.85792 9.25985 8.83105 9.23907 8.79948 9.2361L8.79151 9.31844C8.79948 9.2361 8.79948 9.2361 8.79948 9.2361L8.79448 9.23563C8.7912 9.23532 8.78636 9.23485 8.78011 9.23422C8.76761 9.23313 8.74948 9.23141 8.72667 9.22953C8.68105 9.22563 8.61683 9.22047 8.54214 9.21516C8.39323 9.20485 8.20136 9.19422 8.03292 9.19422C7.86527 9.19422 7.6948 9.20125 7.56636 9.20828C7.50214 9.21172 7.44823 9.21516 7.41042 9.21782C7.39152 9.21907 7.37652 9.22016 7.36636 9.22094C7.3612 9.22125 7.3573 9.22157 7.35464 9.22188L7.35042 9.22219C7.35042 9.22219 7.35042 9.22219 7.35714 9.30469ZM7.5848 9.37297C7.69527 9.43532 7.85933 9.49782 8.07433 9.49782C8.28605 9.49782 8.44839 9.44047 8.55886 9.38235C8.54964 9.38156 8.54027 9.38094 8.53058 9.38032C8.38292 9.37 8.19558 9.35985 8.03292 9.35985C7.87355 9.35985 7.71042 9.36625 7.5848 9.37297ZM7.35714 9.30469L7.35042 9.22219C7.31902 9.22469 7.29183 9.24469 7.28011 9.27407C7.26855 9.30328 7.27448 9.33657 7.29558 9.36L7.35714 9.30469Z" fill="#C14E45"/>
<path d="M6.2426 12.3725C6.08229 12.4216 5.78713 12.538 5.78713 12.538L5.83354 12.7769L5.99416 15.1172C5.99416 15.1172 5.86042 15.5123 5.73792 16H11.0824C11.1101 15.5264 11.1009 15.1172 11.1009 15.1172L10.6868 12.5241C10.6868 12.5241 10.2751 12.4097 10.1348 12.3311C9.92354 12.2127 9.8312 12.1517 9.74823 12.0689C9.71167 12.0909 9.64651 12.1323 9.56323 12.1853C9.17557 12.4316 8.39401 12.9281 8.25776 12.8828C8.05073 12.9103 6.76713 12.2345 6.5462 12.1103C6.52729 12.1072 6.45526 12.1767 6.38307 12.2461C6.3287 12.2988 6.27432 12.3513 6.2426 12.3725Z" fill="#20293A"/>
<path d="M9.97778 16H15.1051L15 14.7648C14.75 13.1953 13.9378 13.0112 12.8804 12.8216C11.9801 12.6598 11.0781 12.5862 10.19 12.3448C10.19 12.3448 10.1148 14.3234 9.97778 16Z" fill="#353E4D"/>
<path d="M6.61439 16H1.61768L1.73846 14.7648C1.91408 13.1172 2.72252 13.0112 3.78002 12.8216C4.59158 12.6758 5.39236 12.6267 6.18752 12.3725C6.18752 12.3725 6.36893 14.3225 6.61439 16Z" fill="#353E4D"/>
<path fill-rule="evenodd" clip-rule="evenodd" d="M10.5563 12.4733C10.5936 12.4467 10.6452 12.4556 10.6716 12.493L11.5411 13.7048C11.5539 13.723 11.5589 13.7453 11.5552 13.7672C11.5513 13.7889 11.5389 13.8083 11.5206 13.8208L10.6984 14.3887L11.2202 14.6439C11.2424 14.6548 11.2586 14.6752 11.2644 14.6992C11.27 14.7234 11.2645 14.7489 11.2494 14.7686L10.3384 15.9548C10.3106 15.9911 10.2586 15.998 10.2225 15.97C10.1861 15.9422 10.1794 15.8903 10.2072 15.8541L11.0564 14.7481L10.4988 14.4753C10.4724 14.4623 10.4547 14.4364 10.4525 14.4072C10.4503 14.3778 10.4639 14.3495 10.488 14.3328L11.3577 13.7322L10.5366 12.5886C10.5102 12.5512 10.5189 12.4997 10.5563 12.4733Z" fill="#20293A"/>
<path fill-rule="evenodd" clip-rule="evenodd" d="M5.86267 12.52C5.82533 12.4936 5.77376 12.5025 5.74736 12.5398L4.87783 13.7048C4.86501 13.723 4.86001 13.7453 4.86376 13.7672C4.86767 13.7889 4.88001 13.8083 4.89829 13.8208L5.72048 14.3887L5.19876 14.6439C5.17642 14.6548 5.16017 14.6752 5.15455 14.6992C5.14892 14.7234 5.15439 14.7489 5.16954 14.7686L6.08048 15.9548C6.10829 15.9911 6.16017 15.998 6.19642 15.97C6.23267 15.9422 6.23954 15.8903 6.21173 15.8541L5.36236 14.7481L5.92017 14.4753C5.94658 14.4623 5.96423 14.4364 5.96642 14.4072C5.96861 14.3778 5.95501 14.3495 5.93079 14.3328L5.06126 13.7322L5.88236 12.6355C5.90876 12.5981 5.90001 12.5466 5.86267 12.52Z" fill="#20293A"/>
<path fill-rule="evenodd" clip-rule="evenodd" d="M10.042 12.4925C10.067 12.5098 10.0734 12.5442 10.0561 12.5692L9.35218 13.59C9.33687 13.6122 9.30765 13.62 9.28327 13.6086L8.34171 13.165L7.39968 13.6491C7.37827 13.6602 7.35218 13.6559 7.33515 13.6388L6.3828 12.6733C6.3614 12.6516 6.36171 12.6166 6.38343 12.5952C6.40515 12.5738 6.43999 12.5741 6.4614 12.5958L7.3853 13.5323L8.31546 13.0544C8.33062 13.0466 8.34859 13.0463 8.36405 13.0536L9.28796 13.4888L9.96515 12.5066C9.98249 12.4816 10.0169 12.4752 10.042 12.4925Z" fill="#353E4D"/>
<path d="M8.56145 13.8483C8.56145 13.955 8.47489 14.0414 8.36817 14.0414C8.26145 14.0414 8.17505 13.955 8.17505 13.8483C8.17505 13.7416 8.26145 13.6552 8.36817 13.6552C8.47489 13.6552 8.56145 13.7416 8.56145 13.8483Z" fill="#353E4D"/>
<path d="M8.56145 15.4206C8.56145 15.5273 8.47489 15.6137 8.36817 15.6137C8.26145 15.6137 8.17505 15.5273 8.17505 15.4206C8.17505 15.3141 8.26145 15.2277 8.36817 15.2277C8.47489 15.2277 8.56145 15.3141 8.56145 15.4206Z" fill="#353E4D"/>
</g>
<defs>
<clipPath id="clip0_2_1559">
<rect width="16" height="16" rx="8" fill="white"/>
</clipPath>
</defs>
</svg>
