<svg width="16" height="16" viewBox="0 0 16 16" fill="none" xmlns="http://www.w3.org/2000/svg">
<g clip-path="url(#clip0_2_1298)">
<path fill-rule="evenodd" clip-rule="evenodd" d="M16 8C16 10.1217 15.1572 12.1566 13.6569 13.6569C12.1566 15.1572 10.1217 16 8 16C5.87828 16 3.84344 15.1572 2.34313 13.6569C0.842813 12.1566 0 10.1217 0 8C0 5.87828 0.842813 3.84344 2.34313 2.34313C3.84344 0.842813 5.87828 0 8 0C10.1217 0 12.1566 0.842813 13.6569 2.34313C15.1572 3.84344 16 5.87828 16 8Z" fill="#A2EDBD"/>
<mask id="mask0_2_1298" style="mask-type:alpha" maskUnits="userSpaceOnUse" x="0" y="0" width="16" height="16">
<path fill-rule="evenodd" clip-rule="evenodd" d="M16 8C16 10.1217 15.1572 12.1566 13.6569 13.6569C12.1566 15.1572 10.1217 16 8 16C5.87828 16 3.84344 15.1572 2.34313 13.6569C0.842813 12.1566 0 10.1217 0 8C0 5.87828 0.842813 3.84344 2.34313 2.34313C3.84344 0.842813 5.87828 0 8 0C10.1217 0 12.1566 0.842813 13.6569 2.34313C15.1572 3.84344 16 5.87828 16 8Z" fill="#A2EDBD"/>
</mask>
<g mask="url(#mask0_2_1298)">
<path d="M7.14062 9.65625V9.60156H7.08594V9.65625H7.14062ZM8.875 9.65625H8.92969V9.60156H8.875V9.65625ZM8.875 13.5156V13.5703H8.92969V13.5156H8.875ZM7.14062 13.5156H7.08594V13.5703H7.14062V13.5156ZM3.12859 13.205L3.07407 13.2008L3.07407 13.2008L3.12859 13.205ZM4.24594 11.8266L4.23052 11.7741H4.23052L4.24594 11.8266ZM7.04563 11.0689L7.03589 11.0151L7.03587 11.0151L7.04563 11.0689ZM8.96453 11.0687L8.9742 11.0149L8.9742 11.0149L8.96453 11.0687ZM11.7816 11.8217L11.7968 11.7692L11.7968 11.7692L11.7816 11.8217ZM12.9064 13.2369L12.961 13.2339V13.2339L12.9064 13.2369ZM11.3655 14.3121C11.3596 14.2825 11.3308 14.2633 11.3012 14.2692C11.2716 14.2751 11.2523 14.3039 11.2582 14.3335L11.3119 14.3228L11.3655 14.3121ZM11.6886 16.4896C11.6945 16.5192 11.7233 16.5384 11.7529 16.5325C11.7825 16.5266 11.8017 16.4978 11.7958 16.4682L11.7422 16.4789L11.6886 16.4896ZM9.79688 6.5625H9.74219C9.74219 7.51462 9.46693 8.37432 9.02467 8.99458C8.58234 9.61495 7.97623 9.99219 7.3125 9.99219V10.0469V10.1016C8.0208 10.1016 8.65688 9.6988 9.11373 9.05808C9.57065 8.41724 9.85156 7.53475 9.85156 6.5625H9.79688ZM7.3125 10.0469V9.99219C6.64877 9.99219 6.04266 9.61495 5.60033 8.99458C5.15807 8.37432 4.88281 7.51462 4.88281 6.5625H4.82812H4.77344C4.77344 7.53475 5.05435 8.41724 5.51127 9.05808C5.96812 9.6988 6.60419 10.1016 7.3125 10.1016V10.0469ZM4.82812 6.5625H4.88281C4.88281 5.61038 5.15807 4.75068 5.60033 4.13042C6.04266 3.51005 6.64877 3.13281 7.3125 3.13281V3.07812V3.02344C6.60419 3.02344 5.96812 3.4262 5.51127 4.06692C5.05435 4.70776 4.77344 5.59025 4.77344 6.5625H4.82812ZM7.3125 3.07812V3.13281C7.97623 3.13281 8.58234 3.51005 9.02467 4.13042C9.46693 4.75068 9.74219 5.61038 9.74219 6.5625H9.79688H9.85156C9.85156 5.59025 9.57065 4.70776 9.11373 4.06692C8.65688 3.4262 8.0208 3.02344 7.3125 3.02344V3.07812ZM11.3125 6.5625H11.2578C11.2578 7.51462 10.9826 8.37432 10.5403 8.99458C10.098 9.61495 9.49185 9.99219 8.82812 9.99219V10.0469V10.1016C9.53643 10.1016 10.1725 9.6988 10.6294 9.05808C11.0863 8.41724 11.3672 7.53475 11.3672 6.5625H11.3125ZM8.82812 10.0469V9.99219C8.1644 9.99219 7.55829 9.61495 7.11595 8.99458C6.6737 8.37432 6.39844 7.51462 6.39844 6.5625H6.34375H6.28906C6.28906 7.53475 6.56997 8.41724 7.0269 9.05808C7.48374 9.6988 8.11982 10.1016 8.82812 10.1016V10.0469ZM6.34375 6.5625H6.39844C6.39844 5.61038 6.6737 4.75068 7.11595 4.13042C7.55829 3.51005 8.1644 3.13281 8.82812 3.13281V3.07812V3.02344C8.11982 3.02344 7.48374 3.4262 7.0269 4.06692C6.56997 4.70776 6.28906 5.59025 6.28906 6.5625H6.34375ZM8.82812 3.07812V3.13281C9.49185 3.13281 10.098 3.51005 10.5403 4.13042C10.9826 4.75068 11.2578 5.61038 11.2578 6.5625H11.3125H11.3672C11.3672 5.59025 11.0863 4.70776 10.6294 4.06692C10.1725 3.4262 9.53643 3.02344 8.82812 3.02344V3.07812ZM7.14062 9.65625V9.71094H8.875V9.65625V9.60156H7.14062V9.65625ZM8.875 9.65625H8.82031V13.5156H8.875H8.92969V9.65625H8.875ZM8.875 13.5156V13.4609H7.14062V13.5156V13.5703H8.875V13.5156ZM7.14062 13.5156H7.19531V9.65625H7.14062H7.08594V13.5156H7.14062ZM9.10938 9.63281H9.05469C9.05469 9.74977 8.95844 9.8704 8.76915 9.96505C8.58314 10.0581 8.32233 10.1172 8.03125 10.1172V10.1719V10.2266C8.33564 10.2266 8.61389 10.165 8.81807 10.0629C9.01898 9.96241 9.16406 9.81351 9.16406 9.63281H9.10938ZM8.03125 10.1719V10.1172C7.74017 10.1172 7.47936 10.0581 7.29335 9.96505C7.10406 9.8704 7.00781 9.74977 7.00781 9.63281H6.95312H6.89844C6.89844 9.81351 7.04352 9.96241 7.24443 10.0629C7.44861 10.165 7.72686 10.2266 8.03125 10.2266V10.1719ZM6.95312 9.63281H7.00781C7.00781 9.51586 7.10406 9.39523 7.29335 9.30057C7.47936 9.20756 7.74017 9.14844 8.03125 9.14844V9.09375V9.03906C7.72686 9.03906 7.44861 9.10065 7.24443 9.20275C7.04352 9.30321 6.89844 9.45211 6.89844 9.63281H6.95312ZM8.03125 9.09375V9.14844C8.32233 9.14844 8.58314 9.20756 8.76915 9.30057C8.95844 9.39523 9.05469 9.51586 9.05469 9.63281H9.10938H9.16406C9.16406 9.45211 9.01898 9.30321 8.81807 9.20275C8.61389 9.10065 8.33564 9.03906 8.03125 9.03906V9.09375ZM2.875 16.4777L2.92952 16.4819L3.18312 13.2092L3.12859 13.205L3.07407 13.2008L2.82048 16.4734L2.875 16.4777ZM3.12859 13.205L3.18312 13.2092C3.23152 12.585 3.66064 12.0556 4.26136 11.879L4.24594 11.8266L4.23052 11.7741C3.58623 11.9635 3.12598 12.5313 3.07407 13.2008L3.12859 13.205ZM4.24594 11.8266L4.26136 11.879C5.74347 11.4434 6.67358 11.1919 7.05538 11.1227L7.04563 11.0689L7.03587 11.0151C6.64705 11.0856 5.7106 11.3391 4.23052 11.7741L4.24594 11.8266ZM7.04563 11.0689L7.05536 11.1227C7.11526 11.1119 7.18824 11.1521 7.2766 11.2565C7.36167 11.357 7.4458 11.499 7.52785 11.6475C7.60861 11.7937 7.68793 11.9475 7.76035 12.0626C7.79665 12.1204 7.83316 12.1716 7.86949 12.209C7.90381 12.2444 7.94804 12.278 8 12.278V12.2233V12.1686C7.99501 12.1686 7.97823 12.164 7.94795 12.1328C7.91966 12.1037 7.88797 12.0601 7.85294 12.0044C7.78271 11.8927 7.70684 11.7453 7.62359 11.5946C7.54164 11.4463 7.45295 11.2955 7.36008 11.1858C7.27051 11.08 7.16045 10.9926 7.03589 11.0151L7.04563 11.0689ZM8 12.2233V12.278C8.05189 12.278 8.09623 12.2445 8.13072 12.2092C8.16724 12.1718 8.20405 12.1206 8.24073 12.0628C8.31388 11.9477 8.39424 11.7939 8.47608 11.6477C8.55923 11.4991 8.64452 11.3571 8.73064 11.2566C8.82 11.1523 8.89401 11.1117 8.95487 11.1226L8.96453 11.0687L8.9742 11.0149C8.84927 10.9925 8.7383 11.0795 8.64757 11.1854C8.55361 11.2951 8.4637 11.4459 8.38064 11.5943C8.29627 11.745 8.2194 11.8924 8.14841 12.0042C8.113 12.0599 8.08101 12.1035 8.0525 12.1327C8.02197 12.1639 8.00506 12.1686 8 12.1686V12.2233ZM8.96453 11.0687L8.95486 11.1226C9.33829 11.1915 10.2742 11.4415 11.7663 11.8742L11.7816 11.8217L11.7968 11.7692C10.3067 11.337 9.36452 11.0851 8.9742 11.0149L8.96453 11.0687ZM11.7816 11.8217L11.7663 11.8742C12.3814 12.0528 12.8167 12.6003 12.8518 13.2399L12.9064 13.2369L12.961 13.2339C12.9233 12.5479 12.4565 11.9607 11.7968 11.7692L11.7816 11.8217ZM12.9064 13.2369L12.8518 13.2399L13.0243 16.3869L13.0789 16.3839L13.1335 16.3809L12.961 13.2339L12.9064 13.2369ZM11.3119 14.3228L11.2582 14.3335L11.6886 16.4896L11.7422 16.4789L11.7958 16.4682L11.3655 14.3121L11.3119 14.3228Z" fill="black" fill-opacity="0.129434"/>
</g>
<path fill-rule="evenodd" clip-rule="evenodd" d="M8.15625 12.3203C8.15625 12.4109 8.08281 12.4844 7.99219 12.4844C7.90156 12.4844 7.82812 12.4109 7.82812 12.3203C7.82812 12.2297 7.90156 12.1562 7.99219 12.1562C8.08281 12.1562 8.15625 12.2297 8.15625 12.3203Z" fill="white"/>
<path fill-rule="evenodd" clip-rule="evenodd" d="M8.15625 13.3359C8.15625 13.4266 8.08281 13.5 7.99219 13.5C7.90156 13.5 7.82812 13.4266 7.82812 13.3359C7.82812 13.2453 7.90156 13.1719 7.99219 13.1719C8.08281 13.1719 8.15625 13.2453 8.15625 13.3359Z" fill="white"/>
<path fill-rule="evenodd" clip-rule="evenodd" d="M8.15625 14.3516C8.15625 14.4422 8.08281 14.5156 7.99219 14.5156C7.90156 14.5156 7.82812 14.4422 7.82812 14.3516C7.82812 14.2609 7.90156 14.1875 7.99219 14.1875C8.08281 14.1875 8.15625 14.2609 8.15625 14.3516Z" fill="white"/>
<path fill-rule="evenodd" clip-rule="evenodd" d="M8.15625 15.3672C8.15625 15.4578 8.08281 15.5312 7.99219 15.5312C7.90156 15.5312 7.82812 15.4578 7.82812 15.3672C7.82812 15.2766 7.90156 15.2031 7.99219 15.2031C8.08281 15.2031 8.15625 15.2766 8.15625 15.3672Z" fill="white"/>
<path fill-rule="evenodd" clip-rule="evenodd" d="M10.2188 6.82812C10.2188 8.54531 9.22531 9.9375 8 9.9375C6.77469 9.9375 5.78125 8.54531 5.78125 6.82812C5.78125 5.11094 6.77469 3.71875 8 3.71875C9.22531 3.71875 10.2188 5.11094 10.2188 6.82812Z" fill="#FFCACA"/>
<path d="M8.71143 6.40735C8.93627 6.29001 9.11799 6.23141 9.25642 6.23141C9.39486 6.23141 9.57658 6.29001 9.80142 6.40735" stroke="#110D2E" stroke-width="0.109375" stroke-linecap="round"/>
<path d="M6.60205 6.36046C6.82268 6.30171 7.00221 6.27249 7.14064 6.27249C7.27908 6.27249 7.46283 6.30171 7.69205 6.36046" stroke="#110D2E" stroke-width="0.109375" stroke-linecap="round"/>
<path fill-rule="evenodd" clip-rule="evenodd" d="M7.42188 6.95312C7.42188 7.03078 7.35891 7.09375 7.28125 7.09375C7.20359 7.09375 7.14062 7.03078 7.14062 6.95312C7.14062 6.87547 7.20359 6.8125 7.28125 6.8125C7.35891 6.8125 7.42188 6.87547 7.42188 6.95312Z" fill="#110D2E"/>
<path fill-rule="evenodd" clip-rule="evenodd" d="M9.17188 6.875C9.17188 6.95266 9.10891 7.01562 9.03125 7.01562C8.95359 7.01562 8.89062 6.95266 8.89062 6.875C8.89062 6.79734 8.95359 6.73438 9.03125 6.73438C9.10891 6.73438 9.17188 6.79734 9.17188 6.875Z" fill="#110D2E"/>
<path fill-rule="evenodd" clip-rule="evenodd" d="M7.68746 4.89983L5.78121 7.68749L5.50684 6.01437L6.15621 4.42108C6.64449 4.08202 7.02996 3.84796 7.31246 3.71874C7.59496 3.58952 7.91293 3.58952 8.26621 3.71874L7.68746 4.89983Z" fill="#110D2E"/>
<path fill-rule="evenodd" clip-rule="evenodd" d="M7.69202 4.89983C8.66967 5.6928 9.41217 6.27077 9.91967 6.63389C10.427 6.99702 10.7064 7.1503 10.7576 7.09374L10.5884 5.61921L9.80139 3.77733L8.05859 3.23828L7.34766 3.5625L7.69202 4.89983Z" fill="#110D2E"/>
<path fill-rule="evenodd" clip-rule="evenodd" d="M6.35938 7.15625C6.35938 7.52734 6.10406 7.82812 5.78906 7.82812C5.47406 7.82812 5.21875 7.52734 5.21875 7.15625C5.21875 6.78516 5.47406 6.48438 5.78906 6.48438C6.10406 6.48438 6.35938 6.78516 6.35938 7.15625Z" fill="#FFCACA"/>
<path d="M5.86934 6.95312C5.60871 6.96141 5.45137 7.03781 5.39746 7.18219" stroke="#FF9494" stroke-width="0.0625" stroke-linecap="round"/>
<path d="M5.58911 7.01562C5.75192 7.13125 5.80896 7.27359 5.76005 7.44266" stroke="#FF9494" stroke-width="0.0625" stroke-linecap="round"/>
<path fill-rule="evenodd" clip-rule="evenodd" d="M10.8125 7.15625C10.8125 7.52734 10.5572 7.82812 10.2422 7.82812C9.92719 7.82812 9.67188 7.52734 9.67188 7.15625C9.67188 6.78516 9.92719 6.48438 10.2422 6.48438C10.5572 6.48438 10.8125 6.78516 10.8125 7.15625Z" fill="#FFCACA"/>
<path d="M10.1475 6.95312C10.4081 6.96141 10.5654 7.03781 10.6193 7.18219" stroke="#FF9494" stroke-width="0.0625" stroke-linecap="round"/>
<path d="M10.4279 7.01562C10.2651 7.13125 10.208 7.27359 10.2569 7.44266" stroke="#FF9494" stroke-width="0.0625" stroke-linecap="round"/>
<path fill-rule="evenodd" clip-rule="evenodd" d="M7.29688 8.39844C7.29688 8.61844 7.04156 8.79688 6.72656 8.79688C6.41156 8.79688 6.15625 8.61844 6.15625 8.39844C6.15625 8.17844 6.41156 8 6.72656 8C7.04156 8 7.29688 8.17844 7.29688 8.39844Z" fill="#FFAAAA" fill-opacity="0.216335"/>
<path fill-rule="evenodd" clip-rule="evenodd" d="M10.2188 8.39844C10.2188 8.61844 9.96344 8.79688 9.64844 8.79688C9.33344 8.79688 9.07812 8.61844 9.07812 8.39844C9.07812 8.17844 9.33344 8 9.64844 8C9.96344 8 10.2188 8.17844 10.2188 8.39844Z" fill="#FFAAAA" fill-opacity="0.216335"/>
<path d="M8.15784 7.375V7.78125C8.15784 7.90203 8.25581 8 8.37659 8H8.48346" stroke="#FF9494" stroke-width="0.109375" stroke-linecap="round"/>
<path d="M8 8.78906H8.45" stroke="#110D2E" stroke-width="0.109375" stroke-linecap="round"/>
<path fill-rule="evenodd" clip-rule="evenodd" d="M6.05469 9.25781C6.42578 9.25781 6.72656 9.55859 6.72656 9.92969C6.72656 10.3008 6.42578 10.6016 6.05469 10.6016C5.68359 10.6016 5.38281 10.3008 5.38281 9.92969C5.38281 9.55859 5.68359 9.25781 6.05469 9.25781Z" fill="#110D2E"/>
<path fill-rule="evenodd" clip-rule="evenodd" d="M5.41406 9.92969C5.75922 9.92969 6.03906 10.2095 6.03906 10.5547C6.03906 10.8998 5.75922 11.1797 5.41406 11.1797C5.06891 11.1797 4.78906 10.8998 4.78906 10.5547C4.78906 10.2095 5.06891 9.92969 5.41406 9.92969Z" fill="#110D2E"/>
<path fill-rule="evenodd" clip-rule="evenodd" d="M4.69531 10.0078C5.04047 10.0078 5.32031 10.2877 5.32031 10.6328C5.32031 10.978 5.04047 11.2578 4.69531 11.2578C4.35016 11.2578 4.07031 10.978 4.07031 10.6328C4.07031 10.2877 4.35016 10.0078 4.69531 10.0078Z" fill="#110D2E"/>
<path fill-rule="evenodd" clip-rule="evenodd" d="M5.24219 8.61719C5.58734 8.61719 5.86719 8.89703 5.86719 9.24219C5.86719 9.58734 5.58734 9.86719 5.24219 9.86719C4.89703 9.86719 4.61719 9.58734 4.61719 9.24219C4.61719 8.89703 4.89703 8.61719 5.24219 8.61719Z" fill="#110D2E"/>
<path fill-rule="evenodd" clip-rule="evenodd" d="M4.78906 9.24219C5.13422 9.24219 5.41406 9.52203 5.41406 9.86719C5.41406 10.2123 5.13422 10.4922 4.78906 10.4922C4.44391 10.4922 4.16406 10.2123 4.16406 9.86719C4.16406 9.52203 4.44391 9.24219 4.78906 9.24219Z" fill="#110D2E"/>
<path fill-rule="evenodd" clip-rule="evenodd" d="M9.94531 9.25781C9.57422 9.25781 9.27344 9.55859 9.27344 9.92969C9.27344 10.3008 9.57422 10.6016 9.94531 10.6016C10.3164 10.6016 10.6172 10.3008 10.6172 9.92969C10.6172 9.55859 10.3164 9.25781 9.94531 9.25781Z" fill="#110D2E"/>
<path fill-rule="evenodd" clip-rule="evenodd" d="M10.5859 9.92969C10.2408 9.92969 9.96094 10.2095 9.96094 10.5547C9.96094 10.8998 10.2408 11.1797 10.5859 11.1797C10.9311 11.1797 11.2109 10.8998 11.2109 10.5547C11.2109 10.2095 10.9311 9.92969 10.5859 9.92969Z" fill="#110D2E"/>
<path fill-rule="evenodd" clip-rule="evenodd" d="M11.3047 10.0078C10.9595 10.0078 10.6797 10.2877 10.6797 10.6328C10.6797 10.978 10.9595 11.2578 11.3047 11.2578C11.6498 11.2578 11.9297 10.978 11.9297 10.6328C11.9297 10.2877 11.6498 10.0078 11.3047 10.0078Z" fill="#110D2E"/>
<path fill-rule="evenodd" clip-rule="evenodd" d="M10.7578 8.61719C10.4127 8.61719 10.1328 8.89703 10.1328 9.24219C10.1328 9.58734 10.4127 9.86719 10.7578 9.86719C11.103 9.86719 11.3828 9.58734 11.3828 9.24219C11.3828 8.89703 11.103 8.61719 10.7578 8.61719Z" fill="#110D2E"/>
<path fill-rule="evenodd" clip-rule="evenodd" d="M11.2109 9.24219C10.8658 9.24219 10.5859 9.52203 10.5859 9.86719C10.5859 10.2123 10.8658 10.4922 11.2109 10.4922C11.5561 10.4922 11.8359 10.2123 11.8359 9.86719C11.8359 9.52203 11.5561 9.24219 11.2109 9.24219Z" fill="#110D2E"/>
<path fill-rule="evenodd" clip-rule="evenodd" d="M6.34375 6.87499C6.34375 6.87499 7.60516 5.15905 8.50672 5.04389C9.10766 4.96702 9.01047 4.81827 8.215 4.59749C7.59047 4.48249 7.27812 4.42499 7.27812 4.42499C7.27812 4.42499 7.24812 4.64155 7.18844 5.07452C7.14 5.20014 7.12359 5.26921 7.13922 5.28139C7.16281 5.29983 6.34375 6.87499 6.34375 6.87499Z" fill="#110D2E"/>
</g>
<defs>
<clipPath id="clip0_2_1298">
<rect width="16" height="16" fill="white"/>
</clipPath>
</defs>
</svg>
