<svg width="16" height="16" viewBox="0 0 16 16" fill="none" xmlns="http://www.w3.org/2000/svg">
<g clip-path="url(#clip0_2_1590)">
<path d="M0 0H16V15.9844H0V0Z" fill="#FFE0E0"/>
<path fill-rule="evenodd" clip-rule="evenodd" d="M6.65702 11.8372L6.44155 9.02946H9.59248V11.8372C9.62389 12.3044 9.82592 12.5955 11.2109 12.692C11.1005 13.5746 11.8597 15.2423 8.1328 15.2343C4.40592 15.2265 4.93045 13.4203 4.88905 12.6756C5.90577 12.717 6.62436 12.3211 6.65702 11.8372Z" fill="#F6B88A"/>
<path fill-rule="evenodd" clip-rule="evenodd" d="M9.5925 9.89799C9.5925 9.89799 8.35672 11.1785 6.60375 11.0544C6.60375 10.9026 6.44141 9.05709 6.44141 9.05709H9.5925V9.89799Z" fill="#EA9E66"/>
<path fill-rule="evenodd" clip-rule="evenodd" d="M5.76791 7.16363C5.76791 7.16363 5.32431 6.73155 5.01213 7.05686C4.86494 7.21014 4.87525 7.63754 5.07338 8.04277C5.16463 8.19824 5.29103 8.36652 5.4576 8.4878C5.60088 8.59239 5.769 8.54181 5.97478 8.539L5.76791 7.16363Z" fill="#F6B88A"/>
<path fill-rule="evenodd" clip-rule="evenodd" d="M10.3364 7.16363C10.3364 7.16363 10.78 6.73155 11.0922 7.05686C11.2394 7.21014 11.229 7.63754 11.0309 8.04277C10.9397 8.19824 10.8133 8.36652 10.6467 8.4878C10.5034 8.59239 10.3353 8.54181 10.1295 8.539L10.3364 7.16363Z" fill="#F6B88A"/>
<path fill-rule="evenodd" clip-rule="evenodd" d="M7.98425 3.25791C6.14378 3.25791 5.37909 4.8206 5.52659 6.73264C5.59612 7.63395 5.55065 7.79551 5.75972 8.71087C5.8319 9.02775 6.44237 10.0118 7.28065 10.3973C7.543 10.518 7.81019 10.5097 8.10784 10.5097C8.36472 10.5097 8.62659 10.5296 8.85237 10.4254C9.65206 10.056 10.2194 9.04273 10.2935 8.71087C10.4933 7.81409 10.4933 7.64066 10.5657 6.73264C10.7171 4.83106 9.94831 3.25791 8.10784 3.25791H7.98425Z" fill="#FFCCA6"/>
<path fill-rule="evenodd" clip-rule="evenodd" d="M9.86907 6.35623C9.86907 6.35623 9.04579 6.18217 8.6272 6.31154C8.42485 6.41279 8.60985 6.61732 8.90969 6.52107C9.20938 6.42467 9.86907 6.35623 9.86907 6.35623Z" fill="#654840" stroke="#654840" stroke-width="0.110345" stroke-linecap="round"/>
<path fill-rule="evenodd" clip-rule="evenodd" d="M6.15076 6.35623C6.15076 6.35623 6.97404 6.18217 7.39263 6.31154C7.59498 6.41279 7.40982 6.61732 7.11013 6.52107C6.81044 6.42467 6.15076 6.35623 6.15076 6.35623Z" fill="#654840" stroke="#654840" stroke-width="0.110345" stroke-linecap="round"/>
<path fill-rule="evenodd" clip-rule="evenodd" d="M10.1098 4.91177C10.2411 5.46076 10.2119 6.06861 10.2119 6.06861L10.3861 6.32492L10.5631 7.20094C10.6564 6.80726 10.7334 6.00585 10.7334 5.9008C10.7334 4.22728 9.86044 3.00878 8.14841 3.00878C6.16529 3.00878 5.32654 4.16234 5.32654 5.89846C5.32654 6.59372 5.54419 7.22045 5.54419 7.22045L5.6481 6.32492C5.6481 6.32492 5.79669 6.09733 5.80685 6.06236C5.84466 5.93093 5.82263 5.41862 5.95029 4.90943C5.95029 4.90943 10.0192 4.91177 10.1098 4.91177Z" fill="#85521D"/>
<path fill-rule="evenodd" clip-rule="evenodd" d="M5.36936 4.89179C5.22295 5.63606 5.47201 6.39469 6.16076 5.03758C6.46857 5.49729 7.89748 6.4896 7.45779 5.13233C8.19045 5.77452 9.01123 5.99337 8.6667 5.28562C9.39951 6.04441 10.3814 6.0736 9.9417 5.37319C11.2461 6.52597 10.7039 5.0521 10.7039 5.0521C10.7039 5.0521 11.1715 5.32714 11.0848 4.76035C10.9823 4.08913 10.1176 3.44695 10.1176 3.44695C10.1176 3.44695 10.5133 3.28648 9.95639 2.99473C9.39951 2.70283 8.57889 2.81959 8.57889 2.81959C8.57889 2.81959 9.01857 2.73186 8.69607 2.52784C8.37373 2.32351 7.33311 2.38174 6.70311 3.09682C6.70311 3.09682 5.77701 3.06529 5.51592 3.41791C5.31076 3.69514 5.69186 3.84109 5.69186 3.84109C5.69186 3.84109 5.25561 4.12535 5.10561 4.45393C4.95904 4.77487 5.36936 4.89179 5.36936 4.89179Z" fill="#B07436"/>
<path fill-rule="evenodd" clip-rule="evenodd" d="M7.83573 8.26162C7.7851 8.26162 7.7437 8.22166 7.74198 8.17093C7.74057 8.11926 7.7812 8.07618 7.83292 8.07462L8.11651 8.06619L8.08823 6.95009C8.08776 6.93542 8.09073 6.9209 8.09729 6.90763L8.24651 6.61151C8.2687 6.56468 8.32495 6.54502 8.37135 6.56718C8.41807 6.58919 8.43807 6.64507 8.41589 6.69175L8.2762 6.96804L8.3062 8.15438C8.3076 8.20589 8.26682 8.24866 8.2151 8.25023L7.83854 8.26162H7.83573Z" fill="#DD936F"/>
<path fill-rule="evenodd" clip-rule="evenodd" d="M7.11327 7.00998C7.05952 6.95202 6.97827 6.89811 6.85717 6.90373C6.73186 6.90936 6.65545 6.96498 6.60889 7.01842C6.58499 7.04577 6.56874 7.07295 6.55874 7.09295C6.55374 7.10295 6.5503 7.11092 6.54827 7.11608C6.54717 7.11873 6.54655 7.12045 6.54608 7.12155C6.54608 7.12186 6.54592 7.12217 6.54592 7.12233C6.53202 7.16561 6.48561 7.18952 6.44217 7.17577C6.39858 7.16202 6.37452 7.11545 6.38827 7.07202L6.46717 7.09686C6.38827 7.07202 6.38827 7.07186 6.38827 7.07186V7.0717V7.07155L6.38842 7.07108C6.38858 7.07077 6.38874 7.0703 6.38889 7.06983C6.3892 7.06889 6.38967 7.0678 6.39014 7.06639C6.39108 7.06342 6.39249 7.05967 6.39436 7.05498C6.39795 7.04577 6.40342 7.03327 6.41092 7.01842C6.42577 6.98889 6.4492 6.94967 6.48405 6.90967C6.55467 6.82873 6.67139 6.74639 6.84952 6.73827C7.03186 6.72998 7.15749 6.8142 7.23467 6.89748C7.27295 6.93873 7.29999 6.9803 7.31733 7.01139C7.32608 7.02702 7.33264 7.0403 7.33702 7.04998C7.3392 7.05483 7.34092 7.05889 7.34217 7.06186C7.3428 7.06327 7.34327 7.06452 7.34374 7.06545C7.34389 7.06592 7.34405 7.06623 7.3442 7.0667L7.34436 7.06702V7.06733H7.34452C7.34452 7.06733 7.34452 7.06748 7.26717 7.09686L7.34452 7.06748C7.36077 7.11014 7.33936 7.15795 7.29655 7.1742C7.25405 7.19045 7.20639 7.1692 7.18999 7.1267C7.18983 7.12655 7.18983 7.12655 7.18983 7.12639V7.12655L7.18999 7.1267C7.18983 7.12655 7.18967 7.12608 7.18936 7.12545C7.18889 7.1242 7.18795 7.12186 7.18655 7.11889C7.18374 7.1128 7.1792 7.10358 7.17295 7.09217C7.16014 7.06952 7.14061 7.03952 7.11327 7.00998Z" fill="#654840"/>
<path fill-rule="evenodd" clip-rule="evenodd" d="M9.51329 7.00998C9.45954 6.95202 9.37829 6.89811 9.2572 6.90373C9.13189 6.90936 9.05548 6.96498 9.00892 7.01842C8.98501 7.04577 8.96876 7.07295 8.95876 7.09295C8.95376 7.10295 8.95032 7.11092 8.94829 7.11608C8.9472 7.11873 8.94657 7.12045 8.9461 7.12155C8.9461 7.12186 8.94595 7.12217 8.94595 7.12233C8.93188 7.16561 8.88564 7.18952 8.8422 7.17577C8.7986 7.16202 8.77454 7.11545 8.78829 7.07202L8.8672 7.09686C8.78829 7.07202 8.78829 7.07186 8.78829 7.07186V7.0717V7.07155L8.78845 7.07108C8.7886 7.07077 8.78876 7.0703 8.78892 7.06983C8.78923 7.06889 8.7897 7.0678 8.79017 7.06639C8.7911 7.06342 8.79251 7.05967 8.79439 7.05498C8.79798 7.04577 8.80345 7.03327 8.81095 7.01842C8.82579 6.98889 8.84923 6.94967 8.88407 6.90967C8.9547 6.82873 9.07142 6.74639 9.24954 6.73827C9.43188 6.72998 9.55751 6.8142 9.6347 6.89748C9.67298 6.93873 9.70001 6.9803 9.71735 7.01139C9.7261 7.02702 9.73267 7.0403 9.73704 7.04998C9.73938 7.05483 9.74095 7.05889 9.7422 7.06186C9.74282 7.06327 9.74329 7.06452 9.74376 7.06545C9.74392 7.06592 9.74407 7.06623 9.74423 7.0667L9.74439 7.06702V7.06733C9.74454 7.06733 9.74454 7.06748 9.6672 7.09686L9.74454 7.06748C9.76079 7.11014 9.73939 7.15795 9.69657 7.1742C9.65407 7.19045 9.60642 7.1692 9.59001 7.1267C9.58985 7.12655 9.58985 7.12655 9.58985 7.12639V7.12655V7.1267C9.58985 7.12655 9.5897 7.12608 9.58938 7.12545C9.58892 7.1242 9.58798 7.12186 9.58657 7.11889C9.58376 7.1128 9.57923 7.10358 9.57298 7.09217C9.56017 7.06952 9.54063 7.03952 9.51329 7.00998Z" fill="#654840"/>
<path fill-rule="evenodd" clip-rule="evenodd" d="M7.34985 8.87417C7.34985 8.87417 7.6947 8.84652 8.02579 8.84652C8.35673 8.84652 8.78438 8.88792 8.78438 8.88792C8.78438 8.88792 8.5361 9.14995 8.0672 9.14995C7.59813 9.14995 7.34985 8.87417 7.34985 8.87417Z" fill="white"/>
<path fill-rule="evenodd" clip-rule="evenodd" d="M7.34979 8.87426C7.28823 8.92957 7.28838 8.92957 7.28838 8.92957V8.92972L7.28854 8.92988L7.28885 8.93019C7.28916 8.93051 7.28948 8.93082 7.28994 8.93129C7.29073 8.93207 7.29166 8.93316 7.29291 8.93457C7.29541 8.93707 7.29901 8.94082 7.30354 8.94519C7.3126 8.9541 7.32557 8.96613 7.3426 8.9805C7.37635 9.0091 7.42619 9.0466 7.49151 9.08394C7.62244 9.15879 7.81573 9.23285 8.06713 9.23285C8.3176 9.23285 8.51026 9.16269 8.64104 9.09175C8.70635 9.05629 8.75604 9.02066 8.78994 8.99347C8.80698 8.97988 8.8201 8.96832 8.82916 8.95988C8.83369 8.95566 8.83713 8.95222 8.83979 8.94972C8.84104 8.94847 8.84198 8.94738 8.84276 8.9466C8.84323 8.94613 8.84354 8.94582 8.84369 8.94551L8.84416 8.94519L8.84432 8.94504V8.94488C8.84432 8.94488 8.84432 8.94488 8.78432 8.88801L8.84432 8.94488C8.86619 8.92191 8.87291 8.88863 8.86182 8.85894C8.85072 8.82941 8.82369 8.80863 8.79229 8.80566L8.78432 8.88801C8.79229 8.80566 8.79229 8.80566 8.79229 8.80566L8.78713 8.80519C8.78385 8.80488 8.77916 8.80441 8.77291 8.80379C8.76041 8.80269 8.74213 8.80097 8.71932 8.7991C8.67385 8.79519 8.60948 8.78988 8.53494 8.78472C8.38588 8.77441 8.19401 8.76379 8.02573 8.76379C7.85807 8.76379 7.68744 8.77082 7.55916 8.77785C7.49494 8.78129 7.44104 8.78472 7.40323 8.78738C7.38432 8.78863 7.36932 8.78972 7.35916 8.79051C7.35401 8.79082 7.3501 8.79113 7.34744 8.79144L7.34323 8.79175C7.34323 8.79175 7.34323 8.79176 7.34979 8.87426ZM7.5776 8.94254C7.68807 9.00488 7.85198 9.06738 8.06713 9.06738C8.27885 9.06738 8.44104 9.01004 8.55166 8.95191C8.54244 8.95113 8.53291 8.95051 8.52338 8.94988C8.37573 8.93957 8.18838 8.92941 8.02573 8.92941C7.86635 8.92941 7.70323 8.93582 7.5776 8.94254ZM7.34979 8.87426L7.34323 8.79175C7.31182 8.79425 7.28463 8.81425 7.27291 8.84363C7.26135 8.87285 7.26729 8.90613 7.28823 8.92957L7.34979 8.87426Z" fill="#C14E45"/>
<path fill-rule="evenodd" clip-rule="evenodd" d="M9.37755 6.47649C8.80099 6.47649 8.35677 6.84379 8.35677 7.27149C8.35677 7.6992 8.80099 8.0665 9.37755 8.0665C9.95396 8.0665 10.3982 7.6992 10.3982 7.27149C10.3982 6.84379 9.95396 6.47649 9.37755 6.47649ZM8.24646 7.27149C8.24646 6.76012 8.76568 6.36613 9.37755 6.36613C9.98943 6.36613 10.5085 6.76012 10.5085 7.27149C10.5085 7.78287 9.98943 8.17686 9.37755 8.17686C8.76568 8.17686 8.24646 7.78287 8.24646 7.27149Z" fill="#835C54"/>
<path fill-rule="evenodd" clip-rule="evenodd" d="M6.72924 6.47649C6.15268 6.47649 5.70846 6.84379 5.70846 7.27149C5.70846 7.6992 6.15268 8.0665 6.72924 8.0665C7.30564 8.0665 7.74986 7.6992 7.74986 7.27149C7.74986 6.84379 7.30564 6.47649 6.72924 6.47649ZM5.59814 7.27149C5.59814 6.76012 6.11736 6.36613 6.72924 6.36613C7.34111 6.36613 7.86018 6.76012 7.86018 7.27149C7.86018 7.78287 7.34111 8.17686 6.72924 8.17686C6.11736 8.17686 5.59814 7.78287 5.59814 7.27149Z" fill="#835C54"/>
<path fill-rule="evenodd" clip-rule="evenodd" d="M7.82244 7.12133C7.82244 7.12133 7.82244 7.12133 7.80494 7.06914C7.7876 7.01664 7.7876 7.01664 7.7876 7.01664H7.78775L7.78822 7.01648L7.78978 7.01602C7.79103 7.01555 7.79291 7.01492 7.79541 7.01414C7.80041 7.01258 7.80744 7.01039 7.81635 7.00773C7.83385 7.00227 7.85838 6.99523 7.88603 6.98805C7.93978 6.97414 8.01119 6.95867 8.06697 6.95867C8.12369 6.95867 8.18854 6.97445 8.23619 6.98852C8.26057 6.99586 8.28197 7.00305 8.29713 7.00852C8.30463 7.01117 8.31072 7.01352 8.3151 7.01508C8.31713 7.01602 8.31885 7.01664 8.3201 7.01711L8.3215 7.01758L8.32182 7.01773L8.32197 7.01789C8.32197 7.01789 8.32197 7.01789 8.3015 7.06914C8.28103 7.12023 8.28103 7.12023 8.28103 7.12023H8.28088L8.27978 7.11977C8.279 7.11945 8.2776 7.11898 8.27572 7.1182C8.27213 7.1168 8.26666 7.11477 8.25979 7.11242C8.24619 7.10742 8.22682 7.10086 8.20478 7.09445C8.15932 7.08086 8.10697 7.06914 8.06697 7.06914C8.02635 7.06914 7.96682 7.08117 7.91354 7.09492C7.88775 7.10148 7.86494 7.1082 7.84838 7.1132C7.8401 7.1157 7.83354 7.11789 7.82916 7.1193C7.82682 7.11992 7.8251 7.12055 7.824 7.12086L7.82275 7.12133H7.82244Z" fill="#835C54"/>
<path d="M9.56486 12.4288C9.64471 12.3404 9.72565 12.2507 9.81111 12.1628C10.2033 12.5122 11.6953 12.8234 12.3828 12.8859C13.0703 12.9483 14.1499 13.3312 14.4225 14.3372L14.7141 15.9864H1.53564L1.68814 14.7228C1.84377 13.1981 2.99033 12.9631 4.01549 12.7777C4.09518 12.7633 4.17736 12.7485 4.26205 12.7324L5.41127 12.6085C5.79736 12.5384 6.15533 12.4522 6.3558 12.2735C6.59314 12.7187 7.15877 13.241 8.09658 13.256C8.80752 13.2675 9.17143 12.8645 9.56486 12.4288Z" fill="#3760E4"/>
</g>
<defs>
<clipPath id="clip0_2_1590">
<rect width="16" height="16" rx="8" fill="white"/>
</clipPath>
</defs>
</svg>
