<svg width="16" height="16" viewBox="0 0 16 16" fill="none" xmlns="http://www.w3.org/2000/svg">
<g clip-path="url(#clip0_2_718)">
<path d="M0 0H16V16H0V0Z" fill="#FFE1BE"/>
<path fill-rule="evenodd" clip-rule="evenodd" d="M7.21926 14.6228C8.64661 14.7035 9.82067 14.7713 10.3043 14.4813C10.4411 14.3989 13.2225 14.6027 13.2721 14.5805C13.4224 14.5131 13.7377 14.7497 13.7236 13.6069C13.7094 12.4641 13.673 12.4489 12.5525 11.1378C12.1641 10.6835 12.8407 9.90627 12.1433 9.12034C11.446 8.3344 11.4661 8.57002 11.5225 7.00393C11.579 5.43784 10.7593 5.12018 10.4361 4.56315C9.30739 2.61612 7.74129 3.51909 7.74129 3.51909C7.74129 3.51909 5.37114 3.01112 4.58098 5.2544C4.20692 5.96049 3.74848 5.69174 3.73442 7.82221C3.84723 8.92283 2.77504 8.54174 3.00083 10.0938C3.15051 11.1236 2.25301 11.5753 2.28129 12.9297C2.39411 14.6228 3.88192 14.7886 4.50551 14.9752C6.02926 15.7228 6.41161 14.5772 7.21926 14.6228Z" fill="#232E36"/>
<path fill-rule="evenodd" clip-rule="evenodd" d="M6.32576 12.2895L6.1056 9.41656H9.32622V12.2895C9.35841 12.7675 9.56497 13.4064 10.9806 13.5052C10.8676 14.4081 11.6437 15.7736 7.83435 15.7656C4.02482 15.7575 4.56091 14.3658 4.51872 13.6039C5.55794 13.6463 6.29247 12.7845 6.32576 12.2895Z" fill="#FBBFB1"/>
<path fill-rule="evenodd" clip-rule="evenodd" d="M9.32625 10.277C9.32625 10.277 8.06312 11.5872 6.27141 11.4603C6.27141 11.305 6.10547 9.41656 6.10547 9.41656H9.32625V10.277Z" fill="#E99885"/>
<path fill-rule="evenodd" clip-rule="evenodd" d="M5.41713 7.50736C5.41713 7.50736 4.96369 7.06532 4.64463 7.39829C4.36853 7.68595 4.63447 9.10782 5.63353 9.09439L5.41713 7.50736Z" fill="#FBBFB1"/>
<path fill-rule="evenodd" clip-rule="evenodd" d="M10.0837 7.50736C10.0837 7.50736 10.5372 7.06532 10.8562 7.39829C11.1323 7.68595 10.8665 9.10782 9.86731 9.09439L10.0837 7.50736Z" fill="#FBBFB1"/>
<path fill-rule="evenodd" clip-rule="evenodd" d="M7.68236 3.51093C5.80127 3.51093 4.78471 5.23671 5.11393 7.15093C5.2758 8.09171 5.32611 8.12967 5.53971 9.06608C5.63674 9.49202 6.44689 10.904 7.82689 10.8759C9.05705 10.8617 9.88455 9.52592 9.98158 9.09046C10.186 8.1728 10.2536 8.09561 10.3775 7.15093C10.63 5.22499 9.69002 3.51093 7.80877 3.51093H7.68236Z" fill="#FFD0C5"/>
<path fill-rule="evenodd" clip-rule="evenodd" d="M5.78029 6.49452C5.78107 6.44764 5.81967 6.41046 5.86638 6.41139L5.86482 6.49593C5.86638 6.41139 5.86638 6.41139 5.86638 6.41139H5.86717H5.86888C5.87045 6.41139 5.87279 6.41155 5.87592 6.41155C5.88185 6.41171 5.8906 6.41202 5.90201 6.41233C5.92467 6.41311 5.95732 6.41436 5.99795 6.41655C6.07935 6.42077 6.19279 6.42843 6.32154 6.44171C6.57717 6.46843 6.90013 6.51858 7.15076 6.61436C7.19451 6.63108 7.21638 6.68014 7.19967 6.72374C7.18295 6.76733 7.13404 6.78921 7.09029 6.77264C6.86123 6.68499 6.55638 6.63639 6.30404 6.61014C6.17888 6.59718 6.06826 6.58968 5.9892 6.58561C5.94967 6.58358 5.91795 6.58233 5.89623 6.58155C5.88545 6.58124 5.87717 6.58093 5.87154 6.58077C5.86873 6.58077 5.86654 6.58077 5.86529 6.58061H5.86373H5.86326C5.81654 6.57983 5.77935 6.54124 5.78029 6.49452Z" fill="#654840"/>
<path fill-rule="evenodd" clip-rule="evenodd" d="M9.6601 6.49452C9.65932 6.44764 9.62072 6.41046 9.57385 6.41139L9.57541 6.49593C9.57385 6.41139 9.57385 6.41139 9.57385 6.41139H9.57322H9.57135C9.56979 6.41139 9.56744 6.41155 9.56447 6.41155C9.55838 6.41171 9.54963 6.41202 9.53838 6.41233C9.51573 6.41311 9.48291 6.41436 9.44229 6.41655C9.36088 6.42077 9.24744 6.42843 9.11869 6.44171C8.86322 6.46843 8.5401 6.51858 8.28948 6.61436C8.24588 6.63108 8.22401 6.68014 8.24072 6.72374C8.25744 6.76733 8.30635 6.78921 8.34994 6.77264C8.57916 6.68499 8.88385 6.63639 9.13619 6.61014C9.26151 6.59718 9.37197 6.58968 9.45119 6.58561C9.49072 6.58358 9.52229 6.58233 9.54401 6.58155C9.55479 6.58124 9.56323 6.58093 9.56869 6.58077C9.57151 6.58077 9.57369 6.58077 9.5751 6.58061H9.57651H9.57697C9.62369 6.57983 9.66088 6.54124 9.6601 6.49452Z" fill="#654840"/>
<path fill-rule="evenodd" clip-rule="evenodd" d="M5.8683 5.59672L5.58173 5.93625L5.70705 5.95422C5.70705 5.95422 5.23408 6.30391 5.3147 7.48359C5.3308 7.72172 5.17283 7.96531 5.04736 7.78672C3.89939 4.79703 5.61314 2.96844 7.81408 2.96875C10.3935 2.96922 10.9317 5.69234 10.7466 8.14672C8.96892 8.66875 9.1622 6.33437 9.02533 5.5225C8.82783 4.35141 7.41689 5.08516 7.41689 5.08516L6.75548 4.95406L6.77345 5.15094C6.77345 5.15094 6.39689 5.06484 6.15501 5.13203C5.74798 5.38063 5.67142 5.61453 5.67142 5.61453C5.71548 5.59 5.8683 5.59672 5.8683 5.59672Z" fill="#232E36"/>
<path fill-rule="evenodd" clip-rule="evenodd" d="M8.07654 7.03579C8.07654 7.03595 8.0767 7.03595 8.05216 7.11532L8.07669 7.03595C8.12138 7.0497 8.14638 7.09704 8.13263 7.14173C8.11904 7.1861 8.07216 7.2111 8.02779 7.19798C8.02779 7.19798 8.02748 7.19798 8.02732 7.19782C8.02638 7.19767 8.02435 7.1972 8.02154 7.19673C8.01591 7.19564 8.00779 7.1947 7.99841 7.19485C7.97935 7.19517 7.96123 7.19985 7.94685 7.21235C7.93326 7.22423 7.91107 7.2536 7.90388 7.32735C7.89654 7.40235 7.90576 7.51673 7.95029 7.68814C7.95029 7.68829 7.95029 7.68845 7.95044 7.68876C7.95044 7.68892 7.95044 7.68907 7.9506 7.68939C7.98591 7.83392 8.01498 7.96267 8.0306 8.07126C8.04576 8.17767 8.04982 8.27626 8.02591 8.35564C8.01357 8.39689 7.99295 8.43548 7.9606 8.46657C7.9281 8.49782 7.88795 8.51735 7.84341 8.52751C7.75795 8.54689 7.65076 8.53251 7.52482 8.49704C7.47982 8.48423 7.45357 8.43751 7.46638 8.39251C7.47904 8.34751 7.52576 8.32142 7.57076 8.33407C7.68998 8.36767 7.76326 8.37204 7.80591 8.36235C7.82529 8.35798 7.83638 8.3511 7.84326 8.34439C7.85044 8.33751 7.85795 8.32642 7.86388 8.30704C7.87654 8.2647 7.87748 8.19704 7.86295 8.09517C7.84873 7.99579 7.82138 7.87439 7.78623 7.73001C7.7392 7.54892 7.72544 7.41314 7.73529 7.31095C7.74544 7.20751 7.78045 7.13282 7.8356 7.0847C7.88998 7.03735 7.95216 7.0261 7.99607 7.02548C8.01826 7.02517 8.03732 7.02751 8.05107 7.03001C8.05795 7.03126 8.06373 7.03251 8.0681 7.0336C8.07013 7.03407 8.07201 7.03454 8.07341 7.03501C8.0742 7.03517 8.07482 7.03532 8.07529 7.03548L8.07607 7.03579H8.07638H8.07654Z" fill="#DD936F"/>
<path fill-rule="evenodd" clip-rule="evenodd" d="M6.52794 7.96328C6.69169 7.96328 6.82419 7.77063 6.82419 7.48359C6.82419 7.19656 6.69169 7.00391 6.52794 7.00391C6.36419 7.00391 6.23169 7.19656 6.23169 7.48359C6.23169 7.77063 6.36419 7.96328 6.52794 7.96328Z" fill="#654840"/>
<path fill-rule="evenodd" clip-rule="evenodd" d="M8.84175 7.96328C9.00534 7.96328 9.13815 7.77063 9.13815 7.48359C9.13815 7.19656 9.00534 7.00391 8.84175 7.00391C8.67831 7.00391 8.54565 7.19656 8.54565 7.48359C8.54565 7.77063 8.67831 7.96328 8.84175 7.96328Z" fill="#654840"/>
<path d="M6.63611 8.55422C6.63611 8.85812 6.38986 9.10437 6.08596 9.10437C5.78205 9.10437 5.53564 8.85812 5.53564 8.55422C5.53564 8.25031 5.78205 8.00391 6.08596 8.00391C6.38986 8.00391 6.63611 8.25031 6.63611 8.55422Z" fill="#FFD2B9" fill-opacity="0.604969"/>
<path d="M9.96583 8.55422C9.96583 8.85812 9.71957 9.10437 9.41567 9.10437C9.11176 9.10437 8.86536 8.85812 8.86536 8.55422C8.86536 8.25031 9.11176 8.00391 9.41567 8.00391C9.71957 8.00391 9.96583 8.25031 9.96583 8.55422Z" fill="#FFD2B9" fill-opacity="0.604969"/>
<path d="M10.4926 9.02157C10.4926 9.18516 10.4294 9.31782 10.3515 9.31782C10.2736 9.31782 10.2104 9.18516 10.2104 9.02157C10.2104 8.85782 10.2736 8.72516 10.3515 8.72516C10.4294 8.72516 10.4926 8.85782 10.4926 9.02157Z" fill="white"/>
<path d="M5.2723 9.02157C5.2723 9.18516 5.20902 9.31782 5.13121 9.31782C5.05324 9.31782 4.99011 9.18516 4.99011 9.02157C4.99011 8.85782 5.05324 8.72516 5.13121 8.72516C5.20902 8.72516 5.2723 8.85782 5.2723 9.02157Z" fill="white"/>
<path d="M7.35177 9.27231C7.29692 9.26013 7.26505 9.20247 7.29708 9.15763C7.32927 9.11263 7.33849 9.09856 7.39739 9.10935H7.39786C7.39849 9.1095 7.39942 9.10981 7.40067 9.11013C7.40317 9.11075 7.40724 9.11184 7.41255 9.11309C7.42333 9.11575 7.43958 9.1195 7.46036 9.12356C7.50224 9.132 7.56255 9.14216 7.63536 9.14888C7.78161 9.16231 7.97536 9.162 8.17067 9.10903C8.21583 9.09684 8.26239 9.12356 8.27458 9.16856C8.28677 9.21372 8.26021 9.26028 8.21505 9.27247C7.99396 9.33247 7.77849 9.332 7.61974 9.31747C7.54005 9.30997 7.4738 9.29903 7.42724 9.28966C7.40395 9.28497 7.38552 9.28075 7.37271 9.27763C7.3663 9.27606 7.3613 9.27481 7.35771 9.27388C7.35599 9.27341 7.35458 9.2731 7.35349 9.27278L7.35224 9.27247L7.35192 9.27231H7.35177Z" fill="#C14E45"/>
<path fill-rule="evenodd" clip-rule="evenodd" d="M8.00781 9.46937C8.02546 9.51265 8.00468 9.56202 7.9614 9.57968C7.87406 9.61515 7.78968 9.61468 7.72937 9.60624C7.6989 9.60202 7.67359 9.59562 7.65546 9.5903C7.6464 9.58749 7.63906 9.58499 7.63374 9.58312C7.63109 9.58202 7.6289 9.58124 7.62718 9.58062C7.6264 9.5803 7.62562 9.57999 7.62515 9.57984L7.62437 9.57952L7.62406 9.57937L7.6239 9.57921C7.6239 9.57921 7.6239 9.57921 7.65671 9.50124L7.6239 9.57921C7.58077 9.56109 7.56046 9.5114 7.57874 9.46827C7.59671 9.42546 7.64609 9.40515 7.68906 9.42296C7.68906 9.42296 7.68921 9.42296 7.68921 9.42312C7.68952 9.42327 7.69046 9.42359 7.69171 9.4239C7.69421 9.42484 7.69843 9.4264 7.70406 9.42796C7.71546 9.4314 7.73234 9.43562 7.75265 9.43859C7.7939 9.44421 7.84609 9.44374 7.89765 9.4228C7.94093 9.40515 7.99031 9.42593 8.00781 9.46937Z" fill="#F3DCDA"/>
<path d="M9.49675 11.9456C9.49675 11.9456 9.48253 12.6567 9.7369 12.8841C10.1675 13.268 11.3222 13.4039 11.7916 13.4494C11.7986 13.4528 11.8055 13.4564 11.8122 13.4598L12.2761 13.51C12.3691 13.5276 12.4592 13.5439 12.5467 13.5598C13.6721 13.7634 14.345 14.1894 14.7172 16C11.5724 16 5.4069 16 1.18628 16C1.18628 14.2483 2.24956 13.7634 3.37487 13.5598C3.46237 13.5439 3.55269 13.5276 3.6455 13.51L4.90706 13.3739C5.33081 13.2967 5.72394 13.202 5.94394 13.0056C6.19847 12.7784 6.1894 11.9353 6.1894 11.9353L9.49675 11.9456Z" fill="#5D887E"/>
<path fill-rule="evenodd" clip-rule="evenodd" d="M9.05112 13.1945C9.0544 13.2363 9.02315 13.2727 8.98143 13.2758C8.51956 13.3114 7.91643 13.4013 7.42737 13.4828C7.183 13.5234 6.96784 13.5619 6.81362 13.5902C6.73659 13.6042 6.67471 13.6159 6.63221 13.6239C6.61096 13.628 6.59456 13.6311 6.58346 13.6333L6.56675 13.6364C6.56675 13.6364 6.56675 13.6364 6.55221 13.5622C6.53784 13.4878 6.53784 13.4878 6.53784 13.4878L6.54222 13.487C6.54503 13.4864 6.5494 13.4856 6.55487 13.4845C6.56612 13.4824 6.58268 13.4792 6.60409 13.4752C6.6469 13.467 6.70893 13.4555 6.78628 13.4413C6.94112 13.4128 7.15722 13.3742 7.40253 13.3334C7.89237 13.2519 8.50097 13.1609 8.96987 13.1249C9.01159 13.1217 9.048 13.1528 9.05112 13.1945ZM6.47784 13.5766C6.46987 13.5356 6.49675 13.4958 6.53784 13.4878L6.55221 13.5622L6.56675 13.6364C6.52565 13.6444 6.48596 13.6177 6.47784 13.5766Z" fill="#324E47"/>
</g>
<defs>
<clipPath id="clip0_2_718">
<rect width="16" height="16" rx="8" fill="white"/>
</clipPath>
</defs>
</svg>
