<svg width="16" height="16" viewBox="0 0 16 16" fill="none" xmlns="http://www.w3.org/2000/svg">
<g clip-path="url(#clip0_2_1968)">
<path fill-rule="evenodd" clip-rule="evenodd" d="M16 8C16 10.1217 15.1572 12.1566 13.6569 13.6569C12.1566 15.1572 10.1217 16 8 16C5.87828 16 3.84344 15.1572 2.34313 13.6569C0.842813 12.1566 0 10.1217 0 8C0 5.87828 0.842813 3.84344 2.34313 2.34313C3.84344 0.842813 5.87828 0 8 0C10.1217 0 12.1566 0.842813 13.6569 2.34313C15.1572 3.84344 16 5.87828 16 8Z" fill="#FFDCDC"/>
<mask id="mask0_2_1968" style="mask-type:alpha" maskUnits="userSpaceOnUse" x="0" y="0" width="16" height="16">
<path fill-rule="evenodd" clip-rule="evenodd" d="M16 8C16 10.1217 15.1572 12.1566 13.6569 13.6569C12.1566 15.1572 10.1217 16 8 16C5.87828 16 3.84344 15.1572 2.34313 13.6569C0.842813 12.1566 0 10.1217 0 8C0 5.87828 0.842813 3.84344 2.34313 2.34313C3.84344 0.842813 5.87828 0 8 0C10.1217 0 12.1566 0.842813 13.6569 2.34313C15.1572 3.84344 16 5.87828 16 8Z" fill="#FFDCDC"/>
</mask>
<g mask="url(#mask0_2_1968)">
<path fill-rule="evenodd" clip-rule="evenodd" d="M8.34253 3.13046C9.45472 3.21796 10.3202 4.16984 10.9389 5.98609C11.8669 8.71046 11.0182 7.84765 11.6303 9.0689C12.0385 9.88296 10.9433 10.2805 8.34456 10.2616" fill="#110D2E"/>
<path fill-rule="evenodd" clip-rule="evenodd" d="M8.34251 3.13047C6.85313 2.60922 5.74251 3.56141 5.01063 5.98688C4.91579 6.9536 3.65939 8.95141 4.3897 9.82032C4.55032 10.0116 7.3522 10.5638 7.69204 10.1875C8.15173 9.6786 8.36845 7.32625 8.34251 3.13047Z" fill="#110D2E"/>
<path fill-rule="evenodd" clip-rule="evenodd" d="M7.14062 9.65625H8.875V11.5312H7.14062V9.65625Z" fill="#FFCACA"/>
<path fill-rule="evenodd" clip-rule="evenodd" d="M9.10938 9.63281C9.10938 9.93047 8.62672 10.1719 8.03125 10.1719C7.43578 10.1719 6.95312 9.93047 6.95312 9.63281C6.95312 9.33516 7.43578 9.09375 8.03125 9.09375C8.62672 9.09375 9.10938 9.33516 9.10938 9.63281Z" fill="#FFB0B0" fill-opacity="0.519148"/>
<path fill-rule="evenodd" clip-rule="evenodd" d="M8.00781 11.3594C8.38219 11.3594 8.70797 11.2403 8.87703 11.0644C9.58719 11.19 10.5652 11.4398 11.8106 11.8138C12.4333 12.0006 12.875 12.5534 12.9202 13.2019L13.1414 16.3839L2.875 16.4777L3.13 13.1878C3.17969 12.5464 3.6175 12.0009 4.23313 11.8138C5.46453 11.4392 6.43281 11.1891 7.13797 11.0636C7.30672 11.2398 7.63297 11.3594 8.00781 11.3594Z" fill="white"/>
<path fill-rule="evenodd" clip-rule="evenodd" d="M7.90625 11.3605H8.09375V16.173H7.90625V11.3605Z" fill="#B25857" fill-opacity="0.224923"/>
<path fill-rule="evenodd" clip-rule="evenodd" d="M6.32031 11.2366L5.77484 16.4512L2.875 16.4776L3.13 13.1878C3.17969 12.5464 3.6175 12.0009 4.23313 11.8137C5.0425 11.5675 5.73828 11.3752 6.32031 11.2366ZM11.8106 11.8137C12.4333 12.0006 12.875 12.5534 12.9202 13.2019L13.1414 16.3839L10.2642 16.4102L9.83391 11.2689C10.3938 11.4047 11.0527 11.5862 11.8106 11.8137Z" fill="#CD6664"/>
<path d="M4.82875 14.1069L4.39844 16.263" stroke="black" stroke-opacity="0.129434" stroke-width="0.109375" stroke-linecap="round"/>
<path d="M11.3119 14.3228L11.7422 16.4789" stroke="black" stroke-opacity="0.129434" stroke-width="0.109375" stroke-linecap="round"/>
<path fill-rule="evenodd" clip-rule="evenodd" d="M10.2188 6.82812C10.2188 8.54531 9.22531 9.9375 8 9.9375C6.77469 9.9375 5.78125 8.54531 5.78125 6.82812C5.78125 5.11094 6.77469 3.71875 8 3.71875C9.22531 3.71875 10.2188 5.11094 10.2188 6.82812Z" fill="#FFCACA"/>
<path fill-rule="evenodd" clip-rule="evenodd" d="M7.29688 8.39844C7.29688 8.61844 7.04156 8.79688 6.72656 8.79688C6.41156 8.79688 6.15625 8.61844 6.15625 8.39844C6.15625 8.17844 6.41156 8 6.72656 8C7.04156 8 7.29688 8.17844 7.29688 8.39844Z" fill="#FFAAAA" fill-opacity="0.216335"/>
<path fill-rule="evenodd" clip-rule="evenodd" d="M10.2188 8.39844C10.2188 8.61844 9.96344 8.79688 9.64844 8.79688C9.33344 8.79688 9.07812 8.61844 9.07812 8.39844C9.07812 8.17844 9.33344 8 9.64844 8C9.96344 8 10.2188 8.17844 10.2188 8.39844Z" fill="#FFAAAA" fill-opacity="0.216335"/>
<path d="M8.71143 6.40734C8.93627 6.28999 9.11799 6.2314 9.25642 6.2314C9.39486 6.2314 9.57658 6.28999 9.80142 6.40734" stroke="#110D2E" stroke-width="0.109375" stroke-linecap="round"/>
<path d="M6.60205 6.36048C6.82268 6.30173 7.00221 6.27251 7.14064 6.27251C7.27908 6.27251 7.46283 6.30173 7.69205 6.36048" stroke="#110D2E" stroke-width="0.109375" stroke-linecap="round"/>
<path fill-rule="evenodd" clip-rule="evenodd" d="M11.2496 8.10609C10.8097 8.04249 10.4435 8.04874 10.2068 7.87937C10.1916 7.86843 10.1183 7.87499 10.1038 7.86359C10.0716 7.83859 10.1443 7.67249 10.1154 7.64531C9.74584 7.29702 9.63396 6.77171 9.57755 6.06499C9.47896 4.82703 8.93318 4.66218 8.57162 4.66218C8.21005 4.66218 7.01818 4.77046 7.01818 6.06499C7.01818 6.96703 6.54427 7.24734 6.00115 7.56593C5.98662 7.57452 6.03521 7.54609 5.95724 7.59171C5.87912 7.63749 5.8624 7.99999 5.7813 7.99999C5.70021 7.99999 5.52459 7.92687 5.51099 7.90062C5.4363 7.75656 5.3938 6.87921 5.38318 5.26859L7.14068 3.71874L8.28943 3.13046L8.89068 3.42812L10.4354 5.65531C11.0252 7.29593 11.2966 8.11281 11.2496 8.10609Z" fill="#110D2E"/>
<path fill-rule="evenodd" clip-rule="evenodd" d="M7.42188 6.95312C7.42188 7.03078 7.35891 7.09375 7.28125 7.09375C7.20359 7.09375 7.14062 7.03078 7.14062 6.95312C7.14062 6.87547 7.20359 6.8125 7.28125 6.8125C7.35891 6.8125 7.42188 6.87547 7.42188 6.95312Z" fill="#110D2E"/>
<path fill-rule="evenodd" clip-rule="evenodd" d="M9.17188 6.875C9.17188 6.95266 9.10891 7.01562 9.03125 7.01562C8.95359 7.01562 8.89062 6.95266 8.89062 6.875C8.89062 6.79734 8.95359 6.73438 9.03125 6.73438C9.10891 6.73438 9.17188 6.79734 9.17188 6.875Z" fill="#110D2E"/>
<path d="M8.15784 7.375V7.78125C8.15784 7.90203 8.25581 8 8.37659 8H8.48346" stroke="#FF9494" stroke-width="0.109375" stroke-linecap="round"/>
<path d="M8 8.78906H8.45" stroke="#110D2E" stroke-width="0.109375" stroke-linecap="round"/>
<path d="M8.3425 3.13046L8.33594 4.66406" stroke="white" stroke-opacity="0.063684" stroke-width="0.078125"/>
</g>
</g>
<defs>
<clipPath id="clip0_2_1968">
<rect width="16" height="16" fill="white"/>
</clipPath>
</defs>
</svg>
