<svg width="16" height="16" viewBox="0 0 16 16" fill="none" xmlns="http://www.w3.org/2000/svg">
<g clip-path="url(#clip0_2_1485)">
<path d="M0 0H16V16H0V0Z" fill="#E0E6FF"/>
<path fill-rule="evenodd" clip-rule="evenodd" d="M6.39799 12.678L6.29909 9.43266L9.2819 9.46298L9.30362 12.678C9.33799 13.1914 10.8111 13.2736 11.2352 13.5919C11.22 15.3419 11.1739 15.9527 7.90346 15.9311C4.89034 15.877 4.37612 15.6145 4.36096 13.5919C4.7244 13.3494 6.36237 13.2097 6.39799 12.678Z" fill="#FFD1AA"/>
<path fill-rule="evenodd" clip-rule="evenodd" d="M9.2819 10.4478C9.2819 10.4478 8.29769 11.7661 6.37472 11.6297C6.37472 11.463 6.28394 9.4175 6.28394 9.4175L9.32737 9.49328L9.2819 10.4478Z" fill="#FFC18D"/>
<path fill-rule="evenodd" clip-rule="evenodd" d="M5.34513 7.40235C5.34513 7.40235 4.81341 7.09813 4.47091 7.45563C4.17466 7.76454 4.34857 8.93188 5.42076 8.91751L5.34513 7.40235Z" fill="#FFD1AA"/>
<path fill-rule="evenodd" clip-rule="evenodd" d="M10.2623 7.40235C10.2623 7.40235 10.794 7.09813 11.1365 7.45563C11.4326 7.76454 11.2587 8.93188 10.1865 8.91751L10.2623 7.40235Z" fill="#FFD1AA"/>
<path fill-rule="evenodd" clip-rule="evenodd" d="M7.78136 3.09921C5.83229 3.09921 4.90839 4.45984 5.01042 7.25937C5.01042 7.25937 4.99026 8.80734 5.79386 9.75109C6.17323 10.2092 7.03511 10.8491 7.78276 10.8491C8.53042 10.8491 9.32323 10.4302 9.81495 9.77749C10.3434 9.07593 10.5606 8.34015 10.5606 7.26031C10.5606 4.44078 9.9062 3.09921 7.78136 3.09921Z" fill="#FFE1C7"/>
<path fill-rule="evenodd" clip-rule="evenodd" d="M9.80265 6.5036C9.80265 6.5036 8.8989 6.3125 8.43937 6.45469C8.21718 6.56563 8.42031 6.79031 8.74937 6.68453C9.07843 6.57891 9.80265 6.5036 9.80265 6.5036Z" fill="#654840" stroke="#654840" stroke-width="0.12113" stroke-linecap="round"/>
<path fill-rule="evenodd" clip-rule="evenodd" d="M5.72083 6.5036C5.72083 6.5036 6.62458 6.3125 7.08411 6.45469C7.30629 6.56563 7.10317 6.79031 6.77411 6.68453C6.44504 6.57891 5.72083 6.5036 5.72083 6.5036Z" fill="#654840" stroke="#654840" stroke-width="0.12113" stroke-linecap="round"/>
<path fill-rule="evenodd" clip-rule="evenodd" d="M10.6473 7.9139C10.9445 7.1664 11.1759 6.69437 11.2334 6.15312C11.4869 3.76468 9.94123 2.33562 8.66654 2.47202C7.34654 1.68452 4.91982 2.68796 4.48482 4.99515C4.20748 6.46812 4.55279 7.02171 4.9656 7.89249C4.98513 7.9339 5.04904 7.91437 5.04889 7.86843C5.04467 6.67843 5.59576 6.09624 6.71326 5.83656C6.71326 5.83656 7.52107 5.71656 8.00185 5.39843C8.04248 5.37171 8.09185 5.41452 8.06998 5.45812C8.02451 5.55015 7.97888 5.63484 7.9392 5.70577C7.89576 5.78327 7.96951 5.87281 8.0542 5.84656C8.43513 5.72812 9.35154 5.47812 9.70154 5.21249C9.76123 5.16734 9.84701 5.19702 9.86795 5.26859C9.94717 5.53718 10.1133 6.05999 10.2651 6.27077C10.4701 6.55546 10.5511 7.21577 10.5625 7.89171C10.5633 7.93812 10.6304 7.95671 10.6473 7.9139Z" fill="#654840"/>
<path fill-rule="evenodd" clip-rule="evenodd" d="M8.15387 6.88203C8.15403 6.88203 8.15403 6.88203 8.12731 6.96891L8.15403 6.88203C8.202 6.89688 8.22887 6.94766 8.21418 6.99562C8.1995 7.04328 8.14934 7.07016 8.10168 7.05609C8.10153 7.05609 8.10137 7.05594 8.10106 7.05594C8.10012 7.05562 8.09793 7.05516 8.09496 7.05469C8.08887 7.05359 8.08012 7.0525 8.07012 7.05266C8.04965 7.05297 8.03028 7.05797 8.01481 7.07141C8.00012 7.08422 7.97637 7.11562 7.96871 7.19484C7.9609 7.27531 7.97059 7.39812 8.0184 7.58203C8.01856 7.5825 8.01871 7.58281 8.01871 7.58328C8.05653 7.73859 8.08793 7.87656 8.10465 7.99312C8.1209 8.1075 8.12528 8.21328 8.09965 8.29844C8.08637 8.34266 8.06434 8.38406 8.0295 8.41734C7.99465 8.45094 7.95153 8.47203 7.90371 8.48281C7.812 8.50359 7.697 8.48828 7.56184 8.45016C7.51356 8.43641 7.48543 8.38625 7.49903 8.33797C7.51278 8.28969 7.56293 8.26156 7.61121 8.27531C7.73918 8.31141 7.81762 8.31609 7.86356 8.30562C7.88434 8.30094 7.89621 8.29359 7.90371 8.28641C7.91137 8.27891 7.91934 8.26703 7.92575 8.24625C7.93918 8.20094 7.94028 8.12813 7.92465 8.01891C7.9095 7.91219 7.88012 7.78187 7.84231 7.62703C7.792 7.43266 7.77715 7.28703 7.78778 7.17734C7.79856 7.06625 7.83621 6.98609 7.89543 6.93453C7.95371 6.88359 8.02043 6.87172 8.06762 6.87094C8.09153 6.87062 8.11184 6.87312 8.12668 6.87578C8.13403 6.87703 8.14012 6.87844 8.14481 6.87953C8.14715 6.88016 8.14903 6.88063 8.15059 6.88109C8.15137 6.88125 8.152 6.88156 8.15262 6.88172L8.1534 6.88187L8.15372 6.88203H8.15387Z" fill="#DD936F"/>
<path fill-rule="evenodd" clip-rule="evenodd" d="M6.49204 7.72594C6.66767 7.72594 6.81001 7.56797 6.81001 7.33235C6.81001 7.09672 6.66767 6.9386 6.49204 6.9386C6.31642 6.9386 6.17407 7.09672 6.17407 7.33235C6.17407 7.56797 6.31642 7.72594 6.49204 7.72594Z" fill="#3B4453"/>
<path fill-rule="evenodd" clip-rule="evenodd" d="M8.97516 7.72594C9.15079 7.72594 9.29329 7.56797 9.29329 7.33235C9.29329 7.09672 9.15079 6.9386 8.97516 6.9386C8.79985 6.9386 8.65735 7.09672 8.65735 7.33235C8.65735 7.56797 8.79985 7.72594 8.97516 7.72594Z" fill="#3B4453"/>
<path d="M6.59809 8.39219C6.59809 8.49656 6.5359 8.59672 6.42512 8.67063C6.31434 8.74438 6.16418 8.78594 6.00762 8.78594C5.8509 8.78594 5.70074 8.74438 5.58996 8.67063C5.47934 8.59672 5.41699 8.49656 5.41699 8.39219C5.41699 8.17485 5.68137 7.9986 6.00762 7.9986C6.33371 7.9986 6.59809 8.17485 6.59809 8.39219Z" fill="#FFC0BE" fill-opacity="0.687386"/>
<path d="M10.1714 8.39219C10.1714 8.49656 10.1092 8.59672 9.99845 8.67063C9.88782 8.74438 9.73751 8.78594 9.58095 8.78594C9.42438 8.78594 9.27407 8.74438 9.16345 8.67063C9.05267 8.59672 8.99048 8.49656 8.99048 8.39219C8.99048 8.28781 9.05267 8.18766 9.16345 8.11391C9.27407 8.04 9.42438 7.9986 9.58095 7.9986C9.73751 7.9986 9.88782 8.04 9.99845 8.11391C10.1092 8.18766 10.1714 8.28781 10.1714 8.39219Z" fill="#FFC0BE" fill-opacity="0.687386"/>
<path d="M11.0496 9.01298C11.0496 9.09735 11.016 9.17829 10.9565 9.23782C10.8968 9.29751 10.8159 9.33095 10.7317 9.33095C10.6473 9.33095 10.5664 9.29751 10.5068 9.23782C10.4471 9.17829 10.4137 9.09735 10.4137 9.01298C10.4137 8.9286 10.4471 8.84782 10.5068 8.78813C10.5664 8.7286 10.6473 8.69501 10.7317 8.69501C10.8159 8.69501 10.8968 8.7286 10.9565 8.78813C11.016 8.84782 11.0496 8.9286 11.0496 9.01298Z" fill="#FFB956"/>
<path d="M5.17769 9.01298C5.17769 9.09735 5.14409 9.17829 5.08456 9.23782C5.02487 9.29751 4.94394 9.33095 4.85972 9.33095C4.77534 9.33095 4.6944 9.29751 4.63487 9.23782C4.57519 9.17829 4.54175 9.09735 4.54175 9.01298C4.54175 8.9286 4.57519 8.84782 4.63487 8.78813C4.6944 8.7286 4.77534 8.69501 4.85972 8.69501C4.94394 8.69501 5.02487 8.7286 5.08456 8.78813C5.14409 8.84782 5.17769 8.9286 5.17769 9.01298Z" fill="#FFB956"/>
<path fill-rule="evenodd" clip-rule="evenodd" d="M6.90088 8.99782C6.90088 8.99782 7.47619 9.04329 7.83963 9.04329C8.20307 9.04329 8.73291 8.99782 8.73291 8.99782C8.73291 8.99782 8.33932 9.69438 7.82447 9.69438C7.30963 9.69438 6.90088 8.99782 6.90088 8.99782Z" fill="white"/>
<path fill-rule="evenodd" clip-rule="evenodd" d="M8.81216 9.0425L8.73294 8.99782L8.72528 8.90735C8.75887 8.90438 8.79122 8.92047 8.8095 8.94875C8.82763 8.97703 8.82872 9.01328 8.81216 9.0425ZM6.90091 8.99782L6.90809 8.90735L6.9145 8.90782C6.91872 8.90813 6.92497 8.9086 6.93325 8.90922C6.9495 8.91047 6.97325 8.91219 7.00294 8.91438C7.06231 8.9186 7.14528 8.92422 7.2395 8.92985C7.42841 8.94125 7.66091 8.9525 7.83966 8.9525C8.01841 8.9525 8.23934 8.94125 8.41684 8.92985C8.50528 8.92422 8.58247 8.9186 8.63747 8.91438C8.66512 8.91219 8.687 8.91047 8.70216 8.90922C8.70966 8.9086 8.71544 8.90813 8.71934 8.90782L8.72528 8.90735L8.73294 8.99782C8.81216 9.0425 8.81216 9.04266 8.812 9.04266V9.04282L8.81169 9.04344L8.81059 9.04532C8.80966 9.04688 8.80841 9.04907 8.80669 9.05188C8.80341 9.0575 8.79856 9.06547 8.79231 9.07563C8.77997 9.09563 8.76169 9.12422 8.73825 9.15813C8.69153 9.2261 8.62341 9.31688 8.53825 9.40813C8.37153 9.58641 8.12153 9.78516 7.8245 9.78516C7.52794 9.78516 7.27419 9.58688 7.10403 9.40891C7.01684 9.31782 6.94684 9.22704 6.89872 9.15922C6.87466 9.12532 6.85575 9.09688 6.84294 9.07672C6.83653 9.06672 6.83153 9.0586 6.82809 9.05313C6.82638 9.05032 6.82513 9.04813 6.82419 9.04657L6.82309 9.04469L6.82278 9.04422L6.82262 9.04391C6.82262 9.04391 6.82263 9.04391 6.90091 8.99782ZM6.90091 8.99782L6.90809 8.90735C6.87434 8.90469 6.84184 8.92094 6.82388 8.94969C6.80591 8.97829 6.80544 9.01469 6.82262 9.04391L6.90091 8.99782ZM7.08184 9.10188C7.12294 9.15641 7.17466 9.22 7.23528 9.28329C7.39825 9.4536 7.60637 9.60344 7.8245 9.60344C8.04231 9.60344 8.24653 9.45407 8.40544 9.28407C8.46466 9.22079 8.51513 9.15719 8.55497 9.10266C8.51669 9.10547 8.47403 9.10829 8.42841 9.11125C8.24997 9.12266 8.02434 9.13407 7.83966 9.13407C7.65512 9.13407 7.41809 9.12266 7.22856 9.11125C7.17544 9.10813 7.12575 9.10485 7.08184 9.10188Z" fill="#C14E45"/>
<path fill-rule="evenodd" clip-rule="evenodd" d="M6.35582 6.48438C5.73707 6.48438 5.23535 6.98609 5.23535 7.60484C5.23535 8.22359 5.73707 8.72531 6.35582 8.72531C6.97473 8.72531 7.47629 8.22359 7.47629 7.60484C7.47629 6.98609 6.97473 6.48438 6.35582 6.48438ZM5.11426 7.60484C5.11426 6.91922 5.6702 6.36328 6.35582 6.36328C7.0416 6.36328 7.59738 6.91922 7.59738 7.60484C7.59738 8.29062 7.0416 8.84641 6.35582 8.84641C5.6702 8.84641 5.11426 8.29062 5.11426 7.60484Z" fill="#FFB956"/>
<path fill-rule="evenodd" clip-rule="evenodd" d="M9.26293 6.51469C8.64418 6.51469 8.14246 7.01641 8.14246 7.63516C8.14246 8.25391 8.64418 8.75563 9.26293 8.75563C9.88168 8.75563 10.3834 8.25391 10.3834 7.63516C10.3834 7.01641 9.88168 6.51469 9.26293 6.51469ZM8.02136 7.63516C8.02136 6.94938 8.5773 6.3936 9.26293 6.3936C9.94871 6.3936 10.5045 6.94938 10.5045 7.63516C10.5045 8.32079 9.94871 8.87673 9.26293 8.87673C8.5773 8.87673 8.02136 8.32079 8.02136 7.63516Z" fill="#FFB956"/>
<path fill-rule="evenodd" clip-rule="evenodd" d="M7.55598 7.70781C7.55598 7.70781 7.55598 7.70781 7.53692 7.65031C7.5177 7.59281 7.5177 7.59281 7.5177 7.59281H7.51786L7.51833 7.59266L7.52004 7.59203C7.52161 7.59156 7.52364 7.59078 7.52645 7.59C7.53192 7.58828 7.53958 7.58578 7.54926 7.58281C7.56864 7.57703 7.59551 7.56922 7.62582 7.56141C7.68473 7.5461 7.76317 7.52922 7.82457 7.52922C7.88661 7.52922 7.95801 7.54641 8.0102 7.56188C8.03708 7.56985 8.06036 7.57781 8.07708 7.58375C8.08536 7.58672 8.09208 7.58922 8.09676 7.5911C8.09911 7.59203 8.10098 7.59266 8.10223 7.59313L8.10379 7.59375L8.10426 7.59391L8.10442 7.59406C8.10442 7.59406 8.10442 7.59406 8.08192 7.65031C8.05942 7.70656 8.05942 7.70656 8.05942 7.70656L8.05926 7.70641L8.05817 7.70594C8.05723 7.70563 8.05567 7.705 8.05364 7.70422C8.04958 7.70281 8.04364 7.70047 8.03614 7.69781C8.02114 7.6925 8.00004 7.68531 7.97583 7.67813C7.92583 7.66328 7.86832 7.65031 7.82457 7.65031C7.77989 7.65031 7.71457 7.6636 7.65614 7.6786C7.62786 7.68594 7.60254 7.69328 7.58458 7.69875C7.57551 7.70156 7.56832 7.70375 7.56332 7.70531C7.56082 7.7061 7.55895 7.70672 7.5577 7.70719L7.55645 7.70766H7.55598V7.70781Z" fill="#FFB956"/>
<path d="M9.49675 11.9456C9.49675 11.9456 9.48253 12.6567 9.7369 12.8841C10.1675 13.268 11.3222 13.4039 11.7916 13.4494C11.7986 13.4528 11.8055 13.4564 11.8122 13.4598L12.2761 13.51C12.3691 13.5277 12.4592 13.5439 12.5467 13.5598C13.6721 13.7634 14.345 14.1894 14.7172 16C11.5724 16 5.4069 16 1.18628 16C1.18628 14.2483 2.24956 13.7634 3.37487 13.5598C3.46237 13.5439 3.55269 13.5277 3.6455 13.51L4.90706 13.3739C5.33081 13.2967 5.72394 13.202 5.94394 13.0056C6.19847 12.7784 6.1894 11.9353 6.1894 11.9353L9.49675 11.9456Z" fill="#353E4D"/>
<path fill-rule="evenodd" clip-rule="evenodd" d="M9.05112 13.1945C9.0544 13.2363 9.02315 13.2727 8.98143 13.2758C8.51956 13.3114 7.91643 13.4013 7.42737 13.4828C7.183 13.5234 6.96784 13.5619 6.81362 13.5902C6.73659 13.6042 6.67471 13.6159 6.63221 13.6239C6.61096 13.628 6.59456 13.6311 6.58346 13.6333L6.56675 13.6364C6.56675 13.6364 6.56675 13.6364 6.55221 13.5622C6.53784 13.4878 6.53784 13.4878 6.53784 13.4878L6.54222 13.487C6.54503 13.4864 6.5494 13.4856 6.55487 13.4845C6.56612 13.4824 6.58268 13.4792 6.60409 13.4752C6.6469 13.467 6.70893 13.4555 6.78628 13.4413C6.94112 13.4128 7.15722 13.3742 7.40253 13.3334C7.89237 13.2519 8.50097 13.1609 8.96987 13.1249C9.01159 13.1217 9.048 13.1528 9.05112 13.1945ZM6.47784 13.5766C6.46987 13.5356 6.49675 13.4958 6.53784 13.4878L6.55221 13.5622L6.56675 13.6364C6.52565 13.6444 6.48596 13.6177 6.47784 13.5766Z" fill="#1E2634"/>
</g>
<defs>
<clipPath id="clip0_2_1485">
<rect width="16" height="16" rx="8" fill="white"/>
</clipPath>
</defs>
</svg>
