<svg width="16" height="16" viewBox="0 0 16 16" fill="none" xmlns="http://www.w3.org/2000/svg">
<g clip-path="url(#clip0_2_1093)">
<path d="M16.0078 8.00781C16.0078 10.1447 15.1697 12.087 13.8034 13.5216C13.6064 13.7291 13.398 13.927 13.1791 14.1109C13.1511 14.1364 13.1222 14.16 13.0933 14.1836C13.0459 14.223 12.9988 14.2606 12.9514 14.2983C12.8647 14.3666 12.7762 14.4331 12.6861 14.498C11.3708 15.4481 9.75406 16.0078 8.00703 16.0078C7.87391 16.0078 7.73984 16.0052 7.60938 15.9973C7.57609 15.9956 7.54187 15.9939 7.50859 15.9913C7.39906 15.9852 7.29063 15.9772 7.18281 15.965C7.11188 15.958 7.04094 15.9492 6.97094 15.9405C6.95344 15.9388 6.93594 15.9361 6.91844 15.9334C6.79063 15.9169 6.66453 15.8967 6.54016 15.873C5.77641 15.7328 5.05219 15.4823 4.38312 15.1408C4.00312 14.9481 3.64047 14.7248 3.29984 14.4744C3.29109 14.4683 3.28234 14.4613 3.27359 14.4552C3.21578 14.4131 3.15969 14.3702 3.10375 14.3264C2.78672 14.0813 2.48891 13.8114 2.21219 13.5216C0.845937 12.088 0.0078125 10.1464 0.0078125 8.00781C0.0078125 3.58969 3.58969 0.0078125 8.00703 0.0078125C12.4252 0.0078125 16.0078 3.58969 16.0078 8.00781Z" fill="#9BA9DE"/>
<path d="M12.9514 14.2983C12.8647 14.3666 12.7762 14.4331 12.6861 14.498C11.3707 15.4481 9.75403 16.0078 8.007 16.0078C7.90106 16.0078 7.79419 16.0061 7.68903 16.0017C7.66278 16 7.63559 15.9991 7.60934 15.9973C7.6059 15.9973 7.60137 15.9973 7.59793 15.9964C7.56825 15.9955 7.5384 15.9937 7.50856 15.9911C7.39903 15.985 7.29059 15.977 7.18278 15.9648C7.11184 15.9578 7.0409 15.9491 6.9709 15.9403C6.9534 15.9386 6.9359 15.9359 6.9184 15.9333C6.79059 15.9167 6.6645 15.8966 6.54012 15.8728C5.77637 15.7327 5.05215 15.4822 4.38309 15.1406C4.00309 14.948 3.64043 14.7247 3.29981 14.4742C3.29106 14.4681 3.28231 14.4611 3.27356 14.455C3.69043 14.1712 4.10731 13.8858 4.52418 13.6011C4.53653 13.5941 4.54965 13.587 4.56184 13.5809C5.25715 13.2 5.95168 12.8191 6.64793 12.4389C6.71809 12.4423 6.78715 12.4459 6.85543 12.4494C8.00887 12.5055 9.00887 12.5545 10.1237 12.6097C10.3514 12.6202 10.5843 12.6316 10.8243 12.6439C11.3086 12.9741 11.8087 13.3436 12.3157 13.7578C12.3884 13.8173 12.4611 13.8769 12.5337 13.9383C12.6764 14.0584 12.8156 14.1784 12.9514 14.2983Z" fill="#274E88"/>
<path d="M4.55019 13.4917C4.55488 13.4098 4.60253 13.343 4.63894 13.2919C4.80628 13.057 5.1041 13.0258 5.183 13.0198C5.21769 12.9608 5.32113 12.8033 5.52722 12.7091C5.75238 12.6061 5.95691 12.6444 6.02128 12.6591C6.1155 12.4864 6.29285 12.225 6.6041 12.0595C6.76816 11.9723 6.90957 11.9436 6.99816 11.9263C8.43082 11.6469 8.75191 11.8773 9.40175 11.6266C9.52332 11.5795 9.77925 11.4683 9.99566 11.5766C10.086 11.6217 10.088 11.6645 10.2677 11.8042C10.4793 11.9688 10.5463 11.9636 10.6341 12.0595C10.7107 12.1433 10.7916 12.2911 10.7839 12.5702C10.8191 12.5241 10.9827 12.3195 11.2169 12.3148C11.5078 12.3091 11.8182 12.6133 11.8497 13.0642C11.8921 13.0645 12.1289 13.0702 12.316 13.2641C12.5025 13.4573 12.5003 13.6933 12.4991 13.7359C12.0399 13.7859 11.3693 13.8986 10.6007 14.1856C10.2649 14.3109 10.321 14.3163 9.92894 14.4688C8.91128 14.8647 7.98332 15.2256 7.3366 14.8739C7.2055 14.8027 7.08894 14.7038 6.82597 14.6019C6.50925 14.4794 6.29222 14.4733 6.08206 14.4409C5.32863 14.3245 4.52972 13.8475 4.55019 13.4917Z" fill="#1467A8"/>
<path d="M10.163 12.5372C9.94405 12.9427 9.5342 13.5697 8.82045 14.1136C8.41764 14.4202 8.02624 14.6172 7.70999 14.7459C7.63733 14.5752 7.52514 14.3641 7.35436 14.1469C7.25717 14.0225 7.15733 13.92 7.06624 13.8359C6.6792 13.5338 6.53905 13.0522 6.69936 12.6808C6.82374 12.3944 7.08827 12.2649 7.20295 12.2192C7.21952 12.2122 7.23358 12.207 7.24327 12.2034L7.13999 11.868L6.82217 10.8381L9.44155 9.89407C9.41092 10.1008 9.3803 10.4274 9.4292 10.8206C9.45545 11.0405 9.50624 11.2813 9.59561 11.5327C9.59655 11.5344 9.59655 11.5361 9.59733 11.538C9.75842 11.9891 9.98702 12.3217 10.163 12.5372Z" fill="#FF9F8E"/>
<path d="M9.59552 10.7498V11.5486C9.30395 11.7203 8.92911 11.8866 8.43427 12.1283C8.18724 12.2491 7.94552 12.3516 7.68286 12.3508H7.67583C7.65036 12.3508 7.62411 12.3491 7.5988 12.3473C7.58474 12.3456 7.56989 12.3439 7.55583 12.342C7.54099 12.3394 7.52692 12.3377 7.51114 12.335C7.4752 12.328 7.43927 12.3202 7.40427 12.3088C7.33161 12.2869 7.26583 12.2563 7.20286 12.2194C7.21942 12.2123 7.23349 12.2072 7.24317 12.2036L7.13989 11.8681C7.16099 11.8217 7.17755 11.7884 7.1863 11.7727C7.93427 11.4556 8.68114 11.1386 9.42911 10.8206C9.48442 10.797 9.54036 10.7734 9.59552 10.7498Z" fill="#F5575D"/>
<path d="M9.96845 3.84561C9.91079 3.88014 10.0819 4.14014 10.2009 4.84811C10.2527 5.15545 10.2727 5.41795 10.2808 5.61092C10.2986 5.50311 10.3305 5.37983 10.3897 5.37124C10.5002 5.35514 10.6395 5.74639 10.6584 5.79983C10.7211 5.97592 10.7902 6.24889 10.7747 6.61342C10.9109 6.5128 11.0792 6.35389 11.1669 6.11952C11.5374 5.12967 10.1111 3.76014 9.96845 3.84561Z" fill="white" fill-opacity="0.05"/>
<path d="M9.12576 3.31531C8.99919 3.31234 8.87388 3.33203 8.6681 3.4025C8.51373 3.45531 8.30388 3.54031 8.06513 3.67859C8.07966 3.62297 8.09419 3.56719 8.10873 3.51156C7.80841 3.55453 7.42341 3.64875 7.01904 3.86031C6.88998 3.92781 6.77388 3.99938 6.67029 4.07094C6.69498 4.00375 6.74373 3.88406 6.83013 3.75125C7.39513 2.88313 8.89669 2.48719 9.61232 3.07563C9.71685 3.16156 9.84826 3.30438 9.94654 3.54781C9.70091 3.42984 9.49388 3.37359 9.35076 3.34438C9.23154 3.32 9.16544 3.31625 9.12576 3.31531Z" fill="white" fill-opacity="0.05"/>
<path d="M10.6964 10.0019C10.7854 9.82797 10.9895 9.48766 11.3878 9.21625C11.7145 8.99344 12.0306 8.91329 12.2153 8.8811C12.2023 8.84297 12.1781 8.7911 12.1315 8.745C11.994 8.6086 11.7889 8.64594 11.765 8.65079C11.9234 8.60954 12.2009 8.51125 12.4353 8.26313C12.5059 8.18829 12.5606 8.11282 12.6029 8.04313C12.5331 8.00829 12.4632 7.97329 12.3934 7.93844C12.5411 7.56813 12.9468 6.41047 12.5296 5.04735C12.2623 4.17407 11.7726 3.59344 11.4821 3.29797C11.5461 3.26469 11.6436 3.20391 11.7336 3.09891C11.8031 3.01782 11.8448 2.93782 11.8696 2.87891C11.7701 2.85594 11.654 2.83625 11.524 2.82657C11.3514 2.81375 11.1989 2.82188 11.0736 2.83703C11.0989 2.80047 11.1925 2.65578 11.1678 2.46C11.1359 2.20703 10.9329 2.07844 10.9059 2.06188C10.2523 2.05657 9.31074 2.12094 8.23465 2.44953C7.14777 2.78141 6.32449 3.26047 5.78355 3.63328C5.99652 3.62282 6.20949 3.61235 6.42262 3.60188C6.21215 3.68922 5.90371 3.84657 5.59512 4.12563C5.25793 4.43063 5.06277 4.7525 4.95605 4.9636C5.07215 4.84141 5.20418 4.71766 5.35402 4.59703C6.00449 4.07375 6.69496 3.85063 7.18715 3.7486C6.88527 3.82188 6.37121 3.9925 5.88824 4.41907C5.66434 4.61672 5.50184 4.8211 5.38543 4.99516C5.51637 4.94375 5.71152 4.86172 5.94059 4.74375C6.2959 4.56063 6.50184 4.40969 6.51668 4.42953C6.5348 4.45375 6.25371 4.70922 5.96152 4.94282C5.41949 5.3761 5.08887 5.53407 5.12355 5.64469C5.13746 5.68907 5.21309 5.73594 5.51121 5.72844C5.4148 5.75235 5.2684 5.80516 5.21793 5.9275C5.17371 6.03453 5.2234 6.1461 5.24934 6.21032C5.31887 6.38188 5.3909 6.63829 5.40652 7.01688C7.1698 8.01157 8.93309 9.00672 10.6964 10.0019Z" fill="#152140"/>
<path d="M10.8325 9.09061C10.7681 9.64655 10.7159 10.0898 10.4034 10.5567C10.0417 11.0956 9.4895 11.2992 8.43341 11.8136C8.09716 11.9784 7.77044 12.113 7.39622 12.0342C7.08935 11.9698 6.89997 11.7926 6.61106 11.5105C5.04935 9.9828 4.93653 9.62186 4.90341 9.40499C4.85607 9.09718 4.88638 8.82249 4.91388 8.54593C5.02278 7.45296 5.55325 6.5239 5.55325 6.5239C6.25607 5.00952 6.46247 4.48561 6.56481 4.2603C6.60466 4.23858 6.64435 4.21765 6.68419 4.19686C7.0981 3.97999 7.49216 3.80952 7.84919 3.67311C7.70419 3.73374 7.51388 3.83702 7.33685 4.01593C7.21935 4.13436 7.13982 4.25468 7.08497 4.35311C7.317 4.1789 7.62013 3.97999 7.997 3.80374C8.39294 3.61718 8.75669 3.50827 9.04935 3.44186C9.18091 3.45046 9.37794 3.48171 9.55981 3.60671C9.717 3.71468 9.98325 3.97327 10.1026 5.3039C10.1358 5.67608 10.1633 6.19421 10.1339 6.8203C10.2239 6.65452 10.3356 6.39983 10.3848 6.07405C10.417 5.8628 10.4142 5.67811 10.4009 5.53233C10.435 5.63655 10.4662 5.7464 10.4947 5.86186C10.5448 6.06452 10.58 6.25874 10.6017 6.44155C10.5837 6.47186 10.5667 6.49936 10.5497 6.5239C10.58 6.61577 10.6084 6.70577 10.634 6.79483C10.6397 6.81561 10.6454 6.83749 10.6511 6.85827C10.9178 7.83093 10.8875 8.6189 10.8325 9.09061Z" fill="#FF9F8E"/>
<path d="M6.86895 5.7114C7.34582 5.9414 7.48114 6.6489 7.17114 7.2914C6.86098 7.9339 6.22317 8.26812 5.74629 8.03797C5.26942 7.80781 5.13411 7.10047 5.44411 6.45797C5.75426 5.81547 6.39207 5.48125 6.86895 5.7114Z" fill="white" fill-opacity="0.4" stroke="#0F0F0F" stroke-opacity="0.4" stroke-width="0.1"/>
<path d="M6.4751 6.65749C6.66385 6.70108 6.78151 6.8903 6.7376 7.08015C6.69385 7.26999 6.50526 7.38858 6.31635 7.34499C6.12745 7.3014 6.00995 7.11218 6.0537 6.92233C6.0976 6.73249 6.2862 6.6139 6.4751 6.65749Z" fill="#152140"/>
<path d="M6.60582 6.80861C6.65722 6.82048 6.6891 6.87189 6.67722 6.92361C6.66535 6.97533 6.61394 7.00767 6.56254 6.9958C6.51113 6.98392 6.47925 6.93236 6.49113 6.8808C6.50316 6.82908 6.55441 6.79673 6.60582 6.80861Z" fill="white"/>
<path d="M9.34124 6.08703C9.81811 6.31718 9.95343 7.02453 9.64343 7.66703C9.33327 8.30953 8.69546 8.64375 8.21858 8.41359C7.74171 8.18359 7.6064 7.47609 7.9164 6.83359C8.22655 6.19125 8.86436 5.85687 9.34124 6.08703Z" fill="white" fill-opacity="0.4" stroke="#0F0F0F" stroke-opacity="0.4" stroke-width="0.1"/>
<path d="M8.94747 7.03313C9.03809 7.05407 9.11684 7.11032 9.16606 7.18953C9.21528 7.26891 9.23106 7.36453 9.21012 7.45578C9.18903 7.54703 9.13278 7.6261 9.05387 7.67578C8.97481 7.72547 8.8795 7.74157 8.78872 7.72063C8.69809 7.69969 8.6195 7.64344 8.57028 7.56407C8.52091 7.48485 8.50512 7.38907 8.52622 7.29797C8.54716 7.20672 8.60341 7.12766 8.68247 7.07797C8.76137 7.02828 8.85684 7.01219 8.94747 7.03313Z" fill="#152140"/>
<path d="M9.07809 7.18422C9.10278 7.18985 9.12418 7.20516 9.13762 7.22672C9.15106 7.24828 9.15528 7.27438 9.1495 7.29922C9.14387 7.32407 9.12856 7.34563 9.10699 7.35922C9.08559 7.37266 9.05965 7.37719 9.03496 7.37141C9.01028 7.36578 8.98887 7.35047 8.97543 7.32875C8.96215 7.30719 8.95778 7.2811 8.96356 7.25625C8.96918 7.23141 8.9845 7.21 9.00606 7.19641C9.02762 7.18282 9.05356 7.17844 9.07809 7.18422Z" fill="white"/>
<path d="M8.68278 5.37313C8.69622 5.39798 8.98419 5.2111 9.29497 5.26048C9.4206 5.28048 9.50716 5.33219 9.52419 5.34282C9.6031 5.3911 9.65497 5.44844 9.68544 5.48798C9.67966 5.44876 9.667 5.39204 9.63591 5.33063C9.57044 5.20048 9.45622 5.11407 9.36122 5.07844C9.03185 4.95469 8.66638 5.34282 8.68278 5.37313Z" fill="#152140"/>
<path d="M6.79082 5.3811C6.78253 5.25797 6.62082 5.13172 6.47128 5.11141C6.29613 5.08751 6.10753 5.20469 5.99988 5.40469C6.16222 5.27422 6.27144 5.26391 6.343 5.28157C6.39785 5.29516 6.46785 5.33438 6.60222 5.40985C6.67785 5.45235 6.73144 5.48626 6.76457 5.46485C6.79519 5.44532 6.79144 5.38985 6.79082 5.3811Z" fill="#152140"/>
<path d="M8.68472 10.8886C8.68472 11.5341 8.20237 12.0573 7.60737 12.0573C7.01237 12.0573 6.53003 11.5341 6.53003 10.8886C6.53003 10.2431 7.01237 9.71985 7.60737 9.71985C8.20237 9.71985 8.68472 10.2431 8.68472 10.8886Z" fill="url(#paint0_linear_2_1093)" fill-opacity="0.6"/>
<path d="M9.75567 8.35717C9.76254 8.4128 9.70895 8.47342 9.60645 8.52608C9.5041 8.57858 9.36145 8.61874 9.20973 8.63749C9.05801 8.65639 8.90989 8.65233 8.7977 8.62624C8.68567 8.6003 8.61879 8.55452 8.61192 8.49889C8.60504 8.44342 8.65864 8.38264 8.76098 8.32999C8.86348 8.27749 9.00614 8.23733 9.15785 8.21858C9.30942 8.19983 9.4577 8.20374 9.56973 8.22983C9.68192 8.25577 9.74879 8.30155 9.75567 8.35717Z" fill="#FF8777"/>
<path d="M5.77707 8.02657C5.89082 8.03626 5.99847 8.0622 6.07644 8.09861C6.15441 8.13501 6.19628 8.17876 6.19269 8.22048C6.1891 8.2622 6.1405 8.29829 6.05753 8.32095C5.97456 8.34361 5.86394 8.35079 5.75019 8.34111C5.63628 8.33126 5.52863 8.30548 5.45066 8.26907C5.37269 8.23267 5.33097 8.18876 5.33456 8.1472C5.338 8.10548 5.38675 8.06923 5.46972 8.04673C5.55269 8.02407 5.66316 8.01689 5.77707 8.02657Z" fill="#FF8777"/>
<path d="M10.6135 6.73327C10.5807 6.62155 10.555 6.54171 10.5494 6.52405C10.5002 6.36858 10.4432 6.08608 10.4007 5.53202C10.414 5.67796 10.4168 5.86343 10.3849 6.07405C10.3357 6.4003 10.2238 6.65421 10.1335 6.82046C10.1625 6.19452 10.1352 5.67593 10.1021 5.30421C9.98333 3.97312 9.71677 3.71468 9.56005 3.60718C9.37755 3.48218 9.18114 3.4503 9.04942 3.44218C8.75661 3.50827 8.3927 3.61749 7.99661 3.80358C7.62036 3.98046 7.31677 4.17874 7.08521 4.35358C7.13927 4.25515 7.21927 4.13468 7.33661 4.01577C7.56567 3.78374 7.81755 3.67874 7.9652 3.63077C7.57692 3.7728 7.1438 3.95655 6.68458 4.1964C6.20895 4.44483 5.79802 4.70483 5.45114 4.95062C5.52942 4.79577 5.62724 4.63905 5.74974 4.48718C6.50333 3.55155 7.69661 3.40343 8.13021 3.37155C7.90771 3.3278 7.70474 3.31702 7.5252 3.32437C6.12255 3.38202 5.1938 4.58983 4.9563 4.91921C5.02458 4.75124 5.13458 4.52062 5.30974 4.27499C6.38286 2.77093 8.68958 2.40468 10.2357 2.98655C10.5866 3.11858 11.4608 3.44765 11.6105 4.13358C11.6394 4.26577 11.6346 4.38046 11.6263 4.45562C11.6241 4.5164 11.6244 4.61046 11.6421 4.7228C11.7058 5.13124 11.9332 5.37843 12.0611 5.57124C12.2057 5.78905 12.36 6.14358 12.3544 6.72358C12.3435 6.7264 11.5496 6.92718 11.5385 6.92983C11.5275 6.93265 10.7335 7.13343 10.7224 7.13608C10.6991 7.04187 10.663 6.90218 10.6135 6.73327Z" fill="#152140"/>
<path d="M11.5211 6.70796C11.6868 6.76342 11.8126 6.91546 11.8711 7.13046C11.9293 7.34561 11.9154 7.60608 11.8321 7.85483C11.7489 8.10342 11.6031 8.31983 11.427 8.45655C11.2511 8.59311 11.0589 8.63858 10.8932 8.58311C10.5481 8.46764 10.4087 7.95405 10.5821 7.43624C10.7554 6.91842 11.1759 6.59233 11.5211 6.70796Z" fill="#FF9F8E"/>
<path d="M11.5599 7.59705C11.5485 7.49095 11.5002 7.37251 11.4036 7.3347C11.3061 7.30064 11.2124 7.37923 11.1336 7.44642C10.9736 7.58658 10.8911 7.79205 10.8608 7.99861C10.8599 8.00705 10.8571 8.0147 10.8531 8.02236C10.8455 7.92298 10.8352 7.8197 10.8219 7.71267C10.8863 7.58673 10.9744 7.47392 11.0899 7.39251C11.1363 7.35939 11.1836 7.32814 11.2396 7.30533C11.2925 7.28267 11.3617 7.27501 11.4177 7.30345C11.5286 7.36314 11.558 7.49001 11.5599 7.59705Z" fill="#152140"/>
<path d="M7.73107 14.9306C7.73029 14.9323 7.73029 14.9341 7.72935 14.9359C7.72326 14.9534 7.71794 14.9701 7.71357 14.9876C7.67497 15.1128 7.65044 15.2416 7.63919 15.3712C7.62076 15.5797 7.63747 15.7934 7.68904 16.0019C7.66279 16.0001 7.6356 15.9992 7.60935 15.9975C7.60591 15.9975 7.60138 15.9975 7.59794 15.9966C7.54888 15.7872 7.5331 15.5726 7.55154 15.3634C7.5656 15.2067 7.59794 15.0525 7.64794 14.9028L7.6506 14.9037L7.7031 14.9212L7.73107 14.9306Z" fill="white"/>
<path d="M7.89046 14.7013L7.62781 14.8677L7.65062 14.9036L7.70671 14.992L7.71375 14.9877L7.96953 14.8266L7.89046 14.7013ZM7.71703 14.9438L7.70312 14.921L7.67593 14.878L7.88 14.7492L7.92109 14.8149L7.72937 14.9356L7.71703 14.9438Z" fill="white"/>
<path d="M8.69359 10.7516C8.48172 10.7831 8.1664 10.8181 7.78281 10.8111C7.4325 10.8041 6.58484 10.7883 6.52531 10.5335C6.49906 10.4195 6.63125 10.2708 6.79765 10.163C6.8625 10.12 6.9325 10.0833 7 10.0578C7.36 9.92376 7.80047 10.036 8.21984 10.3311C8.38265 10.4442 8.54281 10.5861 8.69359 10.7516Z" fill="#DD5543"/>
<path d="M8.21967 10.3313C8.18905 10.3427 8.15577 10.347 8.12077 10.3444L6.95249 10.2445C6.88936 10.2392 6.8342 10.2086 6.79749 10.1631C6.86233 10.1202 6.93233 10.0834 6.99983 10.058C7.35967 9.92392 7.8003 10.0361 8.21967 10.3313Z" fill="white"/>
<path d="M9.96845 3.84561C9.91079 3.88014 10.0819 4.14014 10.2009 4.84811C10.2527 5.15545 10.2727 5.41795 10.2808 5.61092C10.2986 5.50311 10.3305 5.37983 10.3897 5.37124C10.5002 5.35514 10.6395 5.74639 10.6584 5.79983C10.7211 5.97592 10.7902 6.24889 10.7747 6.61342C10.9109 6.5128 11.0792 6.35389 11.1669 6.11952C11.5374 5.12967 10.1111 3.76014 9.96845 3.84561Z" fill="white" fill-opacity="0.05"/>
<path d="M9.12576 3.31531C8.99919 3.31234 8.87388 3.33203 8.6681 3.4025C8.51373 3.45531 8.30388 3.54031 8.06513 3.67859C8.07966 3.62297 8.09419 3.56719 8.10873 3.51156C7.80841 3.55453 7.42341 3.64875 7.01904 3.86031C6.88998 3.92781 6.77388 3.99938 6.67029 4.07094C6.69498 4.00375 6.74373 3.88406 6.83013 3.75125C7.39513 2.88313 8.89669 2.48719 9.61232 3.07563C9.71685 3.16156 9.84826 3.30438 9.94654 3.54781C9.70091 3.42984 9.49388 3.37359 9.35076 3.34438C9.23154 3.32 9.16544 3.31625 9.12576 3.31531Z" fill="white" fill-opacity="0.05"/>
<path d="M7.39764 9.52297L7.23046 9.49063C6.81108 9.40969 6.53686 9.00406 6.6178 8.58485L6.64499 8.44391C6.69264 8.1975 6.93092 8.03625 7.17733 8.08391L7.35233 8.11766C7.80842 8.20578 8.10671 8.64703 8.01842 9.10313C7.96295 9.39047 7.68499 9.57844 7.39764 9.52297Z" fill="url(#paint1_linear_2_1093)"/>
</g>
<defs>
<linearGradient id="paint0_linear_2_1093" x1="1055.59" y1="1813.5" x2="1055.59" y2="1463.79" gradientUnits="userSpaceOnUse">
<stop stop-color="#E9705E" stop-opacity="0.8"/>
<stop offset="0.6685" stop-color="#FF9F8E" stop-opacity="0"/>
</linearGradient>
<linearGradient id="paint1_linear_2_1093" x1="738.214" y1="866.652" x2="612.336" y2="795.315" gradientUnits="userSpaceOnUse">
<stop offset="0.2403" stop-color="#DD5543" stop-opacity="0"/>
<stop offset="1" stop-color="#DD5543" stop-opacity="0.6"/>
</linearGradient>
<clipPath id="clip0_2_1093">
<rect width="16" height="16" fill="white"/>
</clipPath>
</defs>
</svg>
