<svg width="16" height="16" viewBox="0 0 16 16" fill="none" xmlns="http://www.w3.org/2000/svg">
<g clip-path="url(#clip0_2_1142)">
<path d="M16.0078 8.00781C16.0078 10.1447 15.1697 12.087 13.8034 13.5216C13.6064 13.7291 13.398 13.927 13.1791 14.1109C13.1511 14.1364 13.1222 14.16 13.0933 14.1836C12.9602 14.2939 12.8253 14.3973 12.6861 14.498C11.3708 15.4481 9.75406 16.0078 8.00703 16.0078C7.87391 16.0078 7.73984 16.0052 7.60938 15.9973C7.57609 15.9956 7.54187 15.9939 7.50859 15.9913C7.39906 15.9852 7.29063 15.9772 7.18281 15.965C7.11188 15.958 7.04094 15.9492 6.97094 15.9405C6.95344 15.9388 6.93594 15.9361 6.91844 15.9334C6.79063 15.9169 6.66453 15.8967 6.54016 15.873C5.77641 15.7328 5.05219 15.4823 4.38312 15.1408C4.00312 14.9481 3.64047 14.7248 3.29984 14.4744C3.23328 14.4262 3.16844 14.3772 3.10359 14.3264C2.78656 14.0813 2.48875 13.8114 2.21203 13.5216C0.845938 12.088 0.0078125 10.1464 0.0078125 8.00781C0.0078125 3.58969 3.58969 0.0078125 8.00703 0.0078125C12.4252 0.0078125 16.0078 3.58969 16.0078 8.00781Z" fill="#8CDBF4"/>
<path d="M13.1791 14.1109C13.1511 14.1364 13.1222 14.16 13.0933 14.1836C12.9602 14.2939 12.8254 14.3973 12.6861 14.498C11.3708 15.4481 9.75411 16.0078 8.00708 16.0078C7.87395 16.0078 7.73989 16.0051 7.60942 15.9973C7.57614 15.9956 7.54192 15.9939 7.50864 15.9912C7.39911 15.9851 7.29067 15.9772 7.18286 15.965C7.11192 15.958 7.04098 15.9492 6.97098 15.9405C6.95348 15.9387 6.93598 15.9361 6.91848 15.9334C6.79067 15.9169 6.66458 15.8967 6.5402 15.873C5.77645 15.7328 5.05223 15.4823 4.38317 15.1408C4.00317 14.9481 3.64051 14.7248 3.29989 14.4744C3.23333 14.4262 3.16848 14.3772 3.10364 14.3264C3.54239 13.9831 3.90676 13.7037 3.97676 13.6494C4.41551 13.2728 5.0452 12.827 5.87629 12.5022C5.87895 12.5012 5.88145 12.4995 5.88411 12.4987H5.88489C5.98739 12.4594 6.08895 12.4225 6.18973 12.3892C6.19051 12.3892 6.19051 12.3892 6.19145 12.3883C6.19754 12.3866 6.20551 12.3839 6.21161 12.3812C6.21239 12.3812 6.21239 12.3812 6.21333 12.3803C6.40254 12.3198 6.58989 12.2683 6.77379 12.2262C7.87817 11.9748 8.87567 12.0591 9.61473 12.2026C9.83973 12.2464 10.0404 12.2955 10.2129 12.3428C10.2252 12.3462 10.2383 12.3498 10.2515 12.3533C10.2918 12.3647 10.3329 12.3769 10.3758 12.3883C10.3766 12.3883 10.3785 12.3892 10.3793 12.3892C10.3846 12.3909 10.3889 12.3919 10.3941 12.3936C10.4869 12.4208 10.5683 12.4461 10.6375 12.4672C10.6533 12.4716 10.6699 12.4769 10.6883 12.483C10.691 12.4839 10.6927 12.4847 10.6954 12.4856C11.0352 12.5925 11.8505 12.8858 12.6413 13.5436C12.9339 13.7869 13.0863 13.9656 13.1791 14.1109Z" fill="#274E88"/>
<path d="M6.19376 12.2644C6.61845 12.1184 7.21236 11.9677 7.93079 11.9447C9.03439 11.9094 9.9072 12.1925 10.4139 12.403C9.55064 13.4189 8.68751 14.4348 7.82423 15.4508C7.24517 15.3264 7.04158 15.2827 6.46251 15.1584C6.49798 14.2206 6.15829 13.2022 6.19376 12.2644Z" fill="white"/>
<path d="M10.6237 12.1405C10.5423 11.9461 10.3662 11.7377 9.90559 11.5431C9.01669 11.1675 7.56919 11.0527 6.41747 11.8698C6.21481 12.0141 6.012 12.1912 5.91059 12.2916C5.89403 12.3078 5.88434 12.3292 5.88372 12.3523C5.88247 12.3983 5.88278 12.4472 5.88419 12.4987C5.92278 13.3911 6.48841 14.9622 6.54012 15.873C6.6645 15.8966 6.79059 15.9167 6.91841 15.9334C6.93591 15.9361 6.95341 15.9387 6.97091 15.9405C7.04091 15.9492 7.11184 15.958 7.18278 15.965C7.29044 15.9772 7.39903 15.9852 7.50856 15.9912C8.30122 15.3247 10.2251 13.6608 10.6307 12.8437C10.6667 12.7711 10.699 12.6397 10.6956 12.4856C10.6937 12.3787 10.6726 12.2587 10.6237 12.1405ZM6.96559 15.88C6.94715 15.6925 6.90778 15.4762 6.85606 15.2425C6.64669 14.2958 6.23778 13.0662 6.21325 12.3805C6.21153 12.3586 6.21153 12.3375 6.21153 12.3173C6.33231 12.263 6.52934 12.1816 6.77981 12.1116C7.74669 11.8409 8.61356 11.9908 9.46481 12.1475C9.65841 12.1825 9.90528 12.2552 10.2126 12.3428C10.225 12.3462 10.2381 12.3498 10.2512 12.3533C10.295 12.3647 10.3362 12.3769 10.3756 12.3883C10.3764 12.3883 10.3782 12.3892 10.379 12.3892C10.3843 12.3909 10.3887 12.3919 10.3939 12.3936C10.3931 12.3945 10.3931 12.3945 10.3931 12.3953C9.682 13.2159 8.38762 14.4034 7.44622 15.3694C7.27122 15.5489 7.10934 15.7197 6.96559 15.88Z" fill="#1467A8"/>
<path d="M9.61451 10.57C9.61451 11.1775 9.61451 11.7849 9.61451 12.3924C9.22654 12.8141 8.86138 13.1031 8.60216 13.2875C8.06341 13.6706 7.68154 13.9344 7.31263 13.8097C7.06779 13.727 6.93888 13.5106 6.87576 13.4047C6.45685 12.702 6.92279 11.8005 6.98232 11.6889C7.85982 11.3159 8.73716 10.943 9.61451 10.57Z" fill="#FF9F8E"/>
<path d="M9.61488 10.5703V12.3928C9.22691 12.8141 8.86175 13.1031 8.60253 13.2878C8.06394 13.6705 7.68206 13.9341 7.31253 13.8097C7.06816 13.7273 6.93863 13.5111 6.8755 13.4052C6.60316 12.948 6.70566 12.4059 6.82644 12.053C6.84128 12.0083 6.85706 11.9662 6.87191 11.9286C6.92191 11.8052 6.96644 11.7184 6.98222 11.6886C7.85988 11.3155 8.73738 10.9433 9.61488 10.5703Z" fill="#FF9F8E"/>
<path d="M9.61485 10.5703V11.4434C9.2961 11.6308 8.88704 11.813 8.34579 12.0766C8.0761 12.2088 7.81251 12.3209 7.52532 12.32H7.51735C7.48938 12.32 7.46126 12.3183 7.43329 12.3156C7.41751 12.3139 7.40173 12.3122 7.38595 12.3103C7.37017 12.3077 7.35438 12.305 7.33782 12.3025C7.29845 12.2947 7.25907 12.2859 7.22048 12.2736C7.07423 12.2289 6.95251 12.1553 6.82642 12.053C6.84126 12.0083 6.85704 11.9662 6.87188 11.9286C6.92188 11.8052 6.96642 11.7184 6.9822 11.6886C7.85985 11.3155 8.73735 10.9433 9.61485 10.5703Z" fill="#F5575D"/>
<path d="M10.6964 10.0019C10.7854 9.82797 10.9895 9.48766 11.3878 9.21625C11.7145 8.99344 12.0306 8.91328 12.2153 8.8811C12.2023 8.84297 12.1781 8.7911 12.1315 8.745C11.994 8.6086 11.7889 8.64594 11.765 8.65078C11.9234 8.60953 12.2009 8.51125 12.4353 8.26313C12.5059 8.18828 12.5606 8.11282 12.6029 8.04313C12.5331 8.00828 12.4632 7.97328 12.3934 7.93844C12.5411 7.56813 12.9468 6.41047 12.5296 5.04735C12.2623 4.17407 11.7726 3.59344 11.4821 3.29797C11.5461 3.26469 11.6436 3.20391 11.7336 3.09891C11.8031 3.01782 11.8448 2.93782 11.8696 2.87891C11.7701 2.85594 11.654 2.83625 11.524 2.82657C11.3514 2.81375 11.1989 2.82188 11.0736 2.83703C11.0989 2.80047 11.1925 2.65578 11.1678 2.46C11.1359 2.20703 10.9329 2.07844 10.9059 2.06188C10.2523 2.05657 9.31074 2.12094 8.23465 2.44953C7.14777 2.78141 6.32449 3.26047 5.78355 3.63328C5.99652 3.62282 6.20949 3.61235 6.42246 3.60188C6.21199 3.68922 5.90355 3.84657 5.59496 4.12563C5.25777 4.43063 5.06262 4.7525 4.95605 4.9636C5.07215 4.84141 5.20418 4.71766 5.35402 4.59703C6.00449 4.07375 6.69496 3.85063 7.18715 3.7486C6.88527 3.82188 6.37121 3.9925 5.88824 4.41907C5.66434 4.61672 5.50184 4.8211 5.38543 4.99516C5.51637 4.94375 5.71152 4.86172 5.94059 4.74375C6.2959 4.56063 6.50184 4.40969 6.51668 4.42953C6.5348 4.45375 6.25371 4.70922 5.96152 4.94282C5.41949 5.3761 5.08887 5.53407 5.12355 5.64469C5.13746 5.68907 5.21309 5.73594 5.51121 5.72844C5.4148 5.75235 5.2684 5.80516 5.21793 5.9275C5.17371 6.03453 5.2234 6.1461 5.24934 6.21032C5.31887 6.38188 5.3909 6.63828 5.40652 7.01688C7.1698 8.01157 8.93309 9.00672 10.6964 10.0019Z" fill="#152140"/>
<path d="M10.8325 9.09061C10.7681 9.64655 10.7159 10.0898 10.4034 10.5567C10.0417 11.0956 9.4895 11.2992 8.43341 11.8136C8.09716 11.9784 7.77044 12.113 7.39622 12.0342C7.08935 11.9698 6.89997 11.7926 6.61106 11.5105C5.04935 9.9828 4.93653 9.62186 4.90341 9.40499C4.85607 9.09718 4.88638 8.82249 4.91388 8.54593C5.02278 7.45296 5.55325 6.5239 5.55325 6.5239C6.25607 5.00952 6.46247 4.48561 6.56481 4.2603C6.60466 4.23858 6.64435 4.21765 6.68419 4.19686C7.0981 3.97999 7.49216 3.80952 7.84919 3.67311C7.70419 3.73374 7.51388 3.83702 7.33685 4.01593C7.21935 4.13436 7.13982 4.25468 7.08497 4.35311C7.317 4.1789 7.62013 3.97999 7.997 3.80374C8.39294 3.61718 8.75669 3.50827 9.04935 3.44186C9.18091 3.45046 9.37794 3.48171 9.55982 3.60671C9.717 3.71468 9.98325 3.97327 10.1026 5.3039C10.1358 5.67608 10.1633 6.19421 10.1339 6.8203C10.2239 6.65452 10.3356 6.39983 10.3848 6.07405C10.417 5.8628 10.4142 5.67811 10.4009 5.53233C10.435 5.63655 10.4662 5.7464 10.4947 5.86186C10.5448 6.06452 10.58 6.25874 10.6017 6.44155C10.5837 6.47186 10.5667 6.49936 10.5497 6.5239C10.58 6.61577 10.6084 6.70577 10.634 6.79483C10.6397 6.81561 10.6454 6.83749 10.6511 6.85827C10.9178 7.83093 10.8875 8.6189 10.8325 9.09061Z" fill="#FF9F8E"/>
<path d="M6.83979 6.3361C7.26651 6.43454 7.50526 6.97814 7.37322 7.55017C7.24119 8.1222 6.78838 8.5061 6.36166 8.40767C5.9351 8.30907 5.69619 7.76564 5.82822 7.1936C5.96026 6.62157 6.41307 6.23767 6.83979 6.3361Z" fill="white" fill-opacity="0.4" stroke="#0F0F0F" stroke-opacity="0.4" stroke-width="0.1"/>
<path d="M7.00482 7.43765C7.00482 7.60875 6.86607 7.7475 6.69498 7.7475C6.52388 7.7475 6.38513 7.60875 6.38513 7.43765C6.38513 7.26656 6.52388 7.12781 6.69498 7.12781C6.86607 7.12781 7.00482 7.26656 7.00482 7.43765Z" fill="#152140"/>
<path d="M6.92192 7.31564C6.92192 7.3622 6.88411 7.40001 6.83755 7.40001C6.79099 7.40001 6.75317 7.3622 6.75317 7.31564C6.75317 7.26908 6.79099 7.23126 6.83755 7.23126C6.88411 7.23126 6.92192 7.26908 6.92192 7.31564Z" fill="white"/>
<path d="M9.30994 6.11172C9.77275 6.33516 9.904 7.02188 9.60307 7.64547C9.30213 8.26922 8.68291 8.59375 8.2201 8.37031C7.75713 8.14688 7.62588 7.46031 7.92682 6.83656C8.22775 6.21297 8.84697 5.88844 9.30994 6.11172Z" fill="white" fill-opacity="0.4" stroke="#0F0F0F" stroke-opacity="0.4" stroke-width="0.1"/>
<path d="M8.92792 7.03063C9.1112 7.07297 9.22542 7.25672 9.18277 7.4411C9.14027 7.62532 8.95714 7.74047 8.77386 7.69813C8.59058 7.65579 8.47652 7.47219 8.51902 7.28782C8.56152 7.10344 8.74464 6.98844 8.92792 7.03063Z" fill="#152140"/>
<path d="M9.05501 7.17735C9.10485 7.18892 9.13579 7.23892 9.12422 7.28907C9.11266 7.33923 9.06282 7.37063 9.01297 7.35907C8.96313 7.34767 8.93204 7.29767 8.94376 7.24735C8.95532 7.1972 9.00516 7.16579 9.05501 7.17735Z" fill="white"/>
<path d="M8.42698 5.96671C8.44776 5.98608 8.66135 5.71733 8.97166 5.66562C9.09713 5.64468 9.19557 5.6664 9.21526 5.67077C9.30541 5.69155 9.37276 5.72952 9.41432 5.75718C9.39635 5.72187 9.36635 5.67218 9.31744 5.62358C9.21401 5.52108 9.07823 5.4753 8.97698 5.47171C8.6251 5.45905 8.40182 5.94312 8.42698 5.96671Z" fill="#152140"/>
<path d="M7.1176 5.95892C7.10932 5.83579 6.9476 5.70954 6.79807 5.68923C6.62291 5.66533 6.43432 5.78251 6.32666 5.98251C6.489 5.85204 6.59822 5.84173 6.66979 5.85939C6.72463 5.87298 6.79463 5.9122 6.929 5.98767C7.00463 6.03017 7.05822 6.06408 7.09135 6.04267C7.12197 6.02298 7.11822 5.96767 7.1176 5.95892Z" fill="#152140"/>
<path d="M8.68472 10.8886C8.68472 11.5341 8.20237 12.0573 7.60737 12.0573C7.01237 12.0573 6.53003 11.5341 6.53003 10.8886C6.53003 10.2431 7.01237 9.71985 7.60737 9.71985C8.20237 9.71985 8.68472 10.2431 8.68472 10.8886Z" fill="url(#paint0_linear_2_1142)" fill-opacity="0.6"/>
<path d="M9.7792 8.08517C9.80185 8.13642 9.76779 8.21001 9.68482 8.2897C9.60185 8.36955 9.47654 8.44876 9.3367 8.51033C9.19685 8.57189 9.05373 8.61048 8.93888 8.61783C8.82404 8.62501 8.74685 8.60033 8.7242 8.54908C8.7017 8.49783 8.7356 8.42423 8.81873 8.34455C8.9017 8.2647 9.02685 8.18533 9.16685 8.12392C9.3067 8.06236 9.44982 8.02376 9.56467 8.01642C9.67951 8.00923 9.7567 8.03392 9.7792 8.08517Z" fill="#FF8777"/>
<path d="M6.17135 8.24171C6.26088 8.31249 6.33667 8.39327 6.38167 8.46655C6.42667 8.53984 6.43745 8.59952 6.41151 8.63234C6.38557 8.66515 6.3251 8.66859 6.24338 8.64187C6.16167 8.61499 6.06542 8.56015 5.97573 8.48937C5.88604 8.41859 5.81042 8.33765 5.76542 8.26437C5.72026 8.19109 5.70963 8.13156 5.73557 8.09859C5.76151 8.06577 5.82198 8.06234 5.9037 8.08921C5.98542 8.11609 6.08167 8.17093 6.17135 8.24171Z" fill="#FF8777"/>
<path d="M10.6135 6.73327C10.5807 6.62155 10.555 6.54171 10.5494 6.52405C10.5002 6.36858 10.4432 6.08608 10.4007 5.53202C10.414 5.67796 10.4168 5.86343 10.3849 6.07405C10.3357 6.4003 10.2238 6.65421 10.1335 6.82046C10.1625 6.19452 10.1352 5.67593 10.1021 5.30421C9.98333 3.97312 9.71677 3.71468 9.56005 3.60718C9.37755 3.48218 9.18114 3.4503 9.04942 3.44218C8.75661 3.50827 8.3927 3.61749 7.99661 3.80358C7.62036 3.98046 7.31677 4.17874 7.08521 4.35358C7.13927 4.25515 7.21927 4.13468 7.33661 4.01577C7.56567 3.78374 7.81755 3.67874 7.9652 3.63077C7.57692 3.7728 7.1438 3.95655 6.68458 4.1964C6.20895 4.44483 5.79802 4.70483 5.45114 4.95062C5.52942 4.79577 5.62724 4.63905 5.74974 4.48718C6.50333 3.55155 7.69661 3.40343 8.13021 3.37155C7.90771 3.3278 7.70474 3.31702 7.5252 3.32437C6.12255 3.38202 5.1938 4.58983 4.9563 4.91921C5.02458 4.75124 5.13458 4.52062 5.30974 4.27499C6.38286 2.77093 8.68958 2.40468 10.2357 2.98655C10.5866 3.11858 11.4608 3.44765 11.6105 4.13358C11.6394 4.26577 11.6346 4.38046 11.6263 4.45562C11.6241 4.5164 11.6244 4.61046 11.6421 4.7228C11.7058 5.13124 11.9332 5.37843 12.0611 5.57124C12.2057 5.78905 12.36 6.14358 12.3544 6.72358C12.3435 6.7264 11.5496 6.92718 11.5385 6.92983C11.5275 6.93265 10.7335 7.13343 10.7225 7.13608C10.6991 7.04187 10.663 6.90218 10.6135 6.73327Z" fill="#152140"/>
<path d="M11.5211 6.70796C11.6868 6.76342 11.8128 6.91546 11.8711 7.13046C11.9293 7.34561 11.9154 7.60608 11.8321 7.85483C11.7489 8.10342 11.6031 8.31983 11.4271 8.45655C11.2511 8.59311 11.059 8.63858 10.8932 8.58311C10.5481 8.46764 10.4087 7.95405 10.5821 7.43624C10.7556 6.91842 11.1759 6.59233 11.5211 6.70796Z" fill="#FF9F8E"/>
<path d="M11.5599 7.59705C11.5485 7.49095 11.5002 7.37251 11.4036 7.3347C11.3061 7.30064 11.2124 7.37923 11.1336 7.44642C10.9736 7.58658 10.8911 7.79205 10.8608 7.99861C10.8599 8.00705 10.8571 8.0147 10.8531 8.02236C10.8455 7.92298 10.8352 7.8197 10.8219 7.71267C10.8863 7.58673 10.9744 7.47392 11.0899 7.39251C11.1363 7.35939 11.1836 7.32814 11.2396 7.30533C11.2925 7.28267 11.3617 7.27501 11.4177 7.30345C11.5286 7.36314 11.558 7.49001 11.5599 7.59705Z" fill="#152140"/>
<path d="M7.62287 10.3269C7.60006 10.3278 7.57709 10.3285 7.55365 10.3286C7.04943 10.3305 6.6674 10.1085 6.48459 9.97595C6.46334 9.96064 6.45865 9.93095 6.47396 9.90986C6.48927 9.88861 6.51896 9.88392 6.54006 9.89923C6.71365 10.025 7.07599 10.2356 7.55334 10.2338C8.36974 10.2335 8.86568 9.62314 8.95724 9.50158C8.97302 9.48048 9.00271 9.47642 9.02349 9.4922C9.04443 9.50798 9.04865 9.53752 9.03287 9.55845C8.93927 9.68298 8.44052 10.2911 7.62287 10.3269Z" fill="#152140"/>
<path d="M9.12717 9.54016L8.86436 9.55173C8.83827 9.55282 8.81608 9.53266 8.81498 9.50641C8.81389 9.48032 8.83405 9.45813 8.8603 9.45704L9.12311 9.44548C9.1492 9.44438 9.17139 9.46454 9.17248 9.49079C9.17358 9.51688 9.15342 9.53891 9.12717 9.54016Z" fill="#152140"/>
<path d="M7.3656 10.653C7.42654 10.6703 7.57716 10.7041 7.75451 10.6491C7.89498 10.6055 7.98685 10.5264 8.03154 10.4822C8.03263 10.515 8.03013 10.5703 8.00404 10.6295C7.92982 10.7978 7.69669 10.9225 7.52482 10.8416C7.43044 10.7972 7.38529 10.7055 7.3656 10.653Z" fill="#152140"/>
<path d="M11.3986 15.0983L10.1885 15.1606C10.1808 15.1611 10.1741 15.155 10.1738 15.1473L10.1668 15.0109C10.1663 15.0031 10.1724 14.9965 10.1801 14.9962L11.3902 14.9339C11.398 14.9334 11.4046 14.9395 11.4049 14.9472L11.4119 15.0836C11.4122 15.0912 11.4063 15.0978 11.3986 15.0983Z" fill="#1467A8"/>
<path d="M9.96845 3.84561C9.91079 3.88014 10.0819 4.14014 10.2009 4.84811C10.2527 5.15545 10.2727 5.41795 10.2808 5.61092C10.2986 5.50311 10.3305 5.37983 10.3897 5.37124C10.5002 5.35514 10.6395 5.74639 10.6584 5.79983C10.7211 5.97592 10.7902 6.24889 10.7747 6.61342C10.9109 6.5128 11.0792 6.35389 11.1669 6.11952C11.5374 5.12967 10.1111 3.76014 9.96845 3.84561Z" fill="white" fill-opacity="0.05"/>
<path d="M9.12576 3.31531C8.99919 3.31234 8.87388 3.33203 8.6681 3.4025C8.51373 3.45531 8.30388 3.54031 8.06513 3.67859C8.07966 3.62297 8.09419 3.56719 8.10873 3.51156C7.80841 3.55453 7.42341 3.64875 7.01904 3.86031C6.88998 3.92781 6.77388 3.99938 6.67029 4.07094C6.69498 4.00375 6.74373 3.88406 6.83013 3.75125C7.39513 2.88313 8.89669 2.48719 9.61232 3.07563C9.71685 3.16156 9.84826 3.30438 9.94654 3.54781C9.70091 3.42984 9.49388 3.37359 9.35076 3.34438C9.23154 3.32 9.16544 3.31625 9.12576 3.31531Z" fill="white" fill-opacity="0.05"/>
<path d="M7.40338 9.52938L7.23619 9.49704C6.81682 9.4161 6.5426 9.01047 6.62354 8.59125L6.65072 8.45032C6.69838 8.20391 6.93666 8.04266 7.18307 8.09032L7.35807 8.12407C7.81416 8.21219 8.11244 8.65344 8.02416 9.10954C7.96885 9.39704 7.69088 9.58485 7.40338 9.52938Z" fill="url(#paint1_linear_2_1142)"/>
</g>
<defs>
<linearGradient id="paint0_linear_2_1142" x1="1055.59" y1="1813.5" x2="1055.59" y2="1463.79" gradientUnits="userSpaceOnUse">
<stop stop-color="#E9705E" stop-opacity="0.8"/>
<stop offset="0.6685" stop-color="#FF9F8E" stop-opacity="0"/>
</linearGradient>
<linearGradient id="paint1_linear_2_1142" x1="738.753" y1="867.266" x2="612.876" y2="795.93" gradientUnits="userSpaceOnUse">
<stop offset="0.2403" stop-color="#DD5543" stop-opacity="0"/>
<stop offset="1" stop-color="#DD5543" stop-opacity="0.6"/>
</linearGradient>
<clipPath id="clip0_2_1142">
<rect width="16" height="16" fill="white"/>
</clipPath>
</defs>
</svg>
