<svg width="16" height="16" viewBox="0 0 16 16" fill="none" xmlns="http://www.w3.org/2000/svg">
<g clip-path="url(#clip0_2_1358)">
<path fill-rule="evenodd" clip-rule="evenodd" d="M16 8C16 10.1217 15.1572 12.1566 13.6569 13.6569C12.1566 15.1572 10.1217 16 8 16C5.87828 16 3.84344 15.1572 2.34313 13.6569C0.842813 12.1566 0 10.1217 0 8C0 5.87828 0.842813 3.84344 2.34313 2.34313C3.84344 0.842813 5.87828 0 8 0C10.1217 0 12.1566 0.842813 13.6569 2.34313C15.1572 3.84344 16 5.87828 16 8Z" fill="#FFDBCF"/>
<mask id="mask0_2_1358" style="mask-type:alpha" maskUnits="userSpaceOnUse" x="0" y="0" width="16" height="16">
<path fill-rule="evenodd" clip-rule="evenodd" d="M16 8C16 10.1217 15.1572 12.1566 13.6569 13.6569C12.1566 15.1572 10.1217 16 8 16C5.87828 16 3.84344 15.1572 2.34313 13.6569C0.842813 12.1566 0 10.1217 0 8C0 5.87828 0.842813 3.84344 2.34313 2.34313C3.84344 0.842813 5.87828 0 8 0C10.1217 0 12.1566 0.842813 13.6569 2.34313C15.1572 3.84344 16 5.87828 16 8Z" fill="#FFDBCF"/>
</mask>
<g mask="url(#mask0_2_1358)">
<path fill-rule="evenodd" clip-rule="evenodd" d="M5.3125 7.6875H10.7031V11.5312H5.3125V7.6875Z" fill="#110D2E"/>
<path fill-rule="evenodd" clip-rule="evenodd" d="M7.14062 9.65625H8.875V11.5312H7.14062V9.65625Z" fill="#FFCACA"/>
<path fill-rule="evenodd" clip-rule="evenodd" d="M8.76562 9.82031C8.76562 10.0231 8.43687 10.1875 8.03125 10.1875C7.62563 10.1875 7.29688 10.0231 7.29688 9.82031C7.29688 9.6175 7.62563 9.45312 8.03125 9.45312C8.43687 9.45312 8.76562 9.6175 8.76562 9.82031Z" fill="#FFB0B0" fill-opacity="0.519148"/>
<path fill-rule="evenodd" clip-rule="evenodd" d="M3.60076 15.175C3.37513 13.0578 4.10185 11.312 5.78123 9.9375C7.14138 11.6298 8.51591 11.7888 9.90513 10.4141C11.2059 10.1902 12.0395 10.8963 12.4056 12.5322C12.7717 14.1683 12.9251 15.4075 12.8661 16.2497C6.91482 17.6505 3.82638 17.2922 3.60076 15.175Z" fill="#FF7D5B"/>
<path fill-rule="evenodd" clip-rule="evenodd" d="M9.57812 10.8906C9.57812 11.3467 8.87156 11.7164 8 11.7164C7.12844 11.7164 6.42188 11.3467 6.42188 10.8906C6.42188 10.4345 7.12844 10.0648 8 10.0648C8.87156 10.0648 9.57812 10.4345 9.57812 10.8906Z" fill="white"/>
<path fill-rule="evenodd" clip-rule="evenodd" d="M9.73766 11.7656C10.3461 11.7656 10.7109 10.7413 10.7109 10.1328C10.7109 9.52438 10.2178 9.03125 9.60938 9.03125C9.00094 9.03125 8.50781 9.52438 8.50781 10.1328C8.50781 10.7413 9.12938 11.7656 9.73766 11.7656Z" fill="#110D2E"/>
<path fill-rule="evenodd" clip-rule="evenodd" d="M10.2188 6.82812C10.2188 8.54531 9.22531 9.9375 8 9.9375C6.77469 9.9375 5.78125 8.54531 5.78125 6.82812C5.78125 5.11094 6.77469 3.71875 8 3.71875C9.22531 3.71875 10.2188 5.11094 10.2188 6.82812Z" fill="#FFCACA"/>
<path fill-rule="evenodd" clip-rule="evenodd" d="M7.7897 2.93392C6.9233 2.79314 6.33705 2.94532 6.0308 3.39032C5.57142 4.05798 5.7022 4.38376 5.2047 4.52392C4.7072 4.66407 4.84626 5.75001 4.84626 5.75001C4.84626 5.75001 4.95954 6.60939 4.34501 6.81251C3.73033 7.01564 3.60439 7.19548 3.88142 7.84376C4.15845 8.49204 4.57205 8.90157 3.77939 9.17736C2.98673 9.45314 3.16955 10.25 3.32564 10.8906C3.48189 11.5313 3.89611 11.938 3.01283 12.5906C2.12955 13.2431 2.17017 13.1934 2.3322 14.1586C2.44017 14.802 3.61736 15.5545 5.86361 16.4159L5.2047 7.54923" fill="#110D2E"/>
<path fill-rule="evenodd" clip-rule="evenodd" d="M7.78967 2.9339C8.6417 2.83859 9.17967 2.98859 9.40374 3.38421C9.73999 3.97765 9.9428 4.34171 10.3059 4.47046C10.6692 4.59921 10.838 4.99921 10.838 5.37656C10.838 5.7539 10.5842 5.93952 10.957 6.40734C11.3297 6.87499 11.5209 7.26749 11.5209 7.63374C11.5209 7.99999 11.5172 8.44843 12.1094 8.97968C12.7015 9.51093 13.115 10.1875 12.6875 10.6016C12.26 11.0156 12.3778 11.8411 13.0176 12.4219C13.6576 13.0026 12.9403 14.4428 12.6505 14.7705C12.3605 15.0981 12.2423 15.885 12.6505 16.1953C12.9225 16.4022 12.358 16.668 10.957 16.9925L10.838 8.97968" fill="#110D2E"/>
<path fill-rule="evenodd" clip-rule="evenodd" d="M7.79715 4.66218C7.1859 4.81906 6.83355 5.10952 6.74012 5.53343C6.58309 6.24656 7.31074 6.58593 6.25449 7.68749C5.19824 8.78905 6.60199 9.20468 6.60199 9.65624C6.60199 10.1078 6.67184 9.8939 6.67184 10.9531C6.67184 12.0123 6.74012 11.5348 6.74012 12.1723C6.74012 12.8098 5.91027 12.9616 6.16605 13.817C6.42184 14.6723 6.94324 14.82 6.07871 15.9062C5.50246 16.6305 4.8534 16.2997 4.13184 14.9141L4.90559 8.95312L5.42746 5.61827L6.52762 3.71874L7.14059 3.26749L7.78965 2.9339C7.86012 3.02781 8.01824 3.45921 8.26402 4.22796L8.16652 4.38843C8.08387 4.52437 7.95137 4.62265 7.79715 4.66218Z" fill="#110D2E"/>
<path fill-rule="evenodd" clip-rule="evenodd" d="M7.5625 10.4219C7.5625 10.9137 7.16375 11.3125 6.67188 11.3125C6.18 11.3125 5.78125 10.9137 5.78125 10.4219C5.78125 9.93 6.18 9.53125 6.67188 9.53125C7.16375 9.53125 7.5625 9.93 7.5625 10.4219Z" fill="#110D2E"/>
<path fill-rule="evenodd" clip-rule="evenodd" d="M11.1094 11.7656C11.1094 12.2575 10.7106 12.6562 10.2188 12.6562C9.72688 12.6562 9.32812 12.2575 9.32812 11.7656C9.32812 11.2738 9.72688 10.875 10.2188 10.875C10.7106 10.875 11.1094 11.2738 11.1094 11.7656Z" fill="#110D2E"/>
<path fill-rule="evenodd" clip-rule="evenodd" d="M11.1094 13.0781C11.1094 13.57 10.7106 13.9688 10.2188 13.9688C9.72688 13.9688 9.32812 13.57 9.32812 13.0781C9.32812 12.5863 9.72688 12.1875 10.2188 12.1875C10.7106 12.1875 11.1094 12.5863 11.1094 13.0781Z" fill="#110D2E"/>
<path fill-rule="evenodd" clip-rule="evenodd" d="M11.4609 14.7578C11.4609 15.4481 10.9013 16.0078 10.2109 16.0078C9.52062 16.0078 8.96094 15.4481 8.96094 14.7578C8.96094 14.0675 9.52062 13.5078 10.2109 13.5078C10.9013 13.5078 11.4609 14.0675 11.4609 14.7578Z" fill="#110D2E"/>
<path fill-rule="evenodd" clip-rule="evenodd" d="M7.125 11.5312C7.125 12.0231 6.72625 12.4219 6.23438 12.4219C5.7425 12.4219 5.34375 12.0231 5.34375 11.5312C5.34375 11.0394 5.7425 10.6406 6.23438 10.6406C6.72625 10.6406 7.125 11.0394 7.125 11.5312Z" fill="#110D2E"/>
<path fill-rule="evenodd" clip-rule="evenodd" d="M7.4375 12.8281C7.4375 13.32 7.03875 13.7188 6.54688 13.7188C6.055 13.7188 5.65625 13.32 5.65625 12.8281C5.65625 12.3363 6.055 11.9375 6.54688 11.9375C7.03875 11.9375 7.4375 12.3363 7.4375 12.8281Z" fill="#110D2E"/>
<path fill-rule="evenodd" clip-rule="evenodd" d="M7.09375 13.7188C7.09375 14.3056 6.61812 14.7812 6.03125 14.7812C5.44437 14.7812 4.96875 14.3056 4.96875 13.7188C4.96875 13.1319 5.44437 12.6562 6.03125 12.6562C6.61812 12.6562 7.09375 13.1319 7.09375 13.7188Z" fill="#110D2E"/>
<path fill-rule="evenodd" clip-rule="evenodd" d="M7.29688 15.3125C7.29688 15.9209 6.80375 16.4141 6.19531 16.4141C5.58688 16.4141 5.09375 15.9209 5.09375 15.3125C5.09375 14.7041 5.58688 14.2109 6.19531 14.2109C6.80375 14.2109 7.29688 14.7041 7.29688 15.3125Z" fill="#110D2E"/>
<path fill-rule="evenodd" clip-rule="evenodd" d="M9.02483 4.69296C9.57577 4.85796 9.78624 5.2714 9.65624 5.93312C9.39311 7.27327 9.79577 7.54468 9.94092 7.77874C10.4145 8.54234 9.48389 8.51124 9.53249 9.82031C9.55655 10.4731 9.65952 11.2123 9.98436 11.3125C10.3345 11.4205 10.8776 10.8977 9.98436 11.9375C9.5792 12.4092 9.83358 12.8525 10.3083 13.5119C10.5287 13.8181 10.0081 15.1002 10.2187 15.5409C10.4617 16.0494 10.06 16.6028 9.83561 16.6389C9.55639 16.6837 10.2384 16.8017 11.8817 16.9925L11.2558 13.2389V8.24984L10.3083 5.16468L9.43499 3.59827L8.34248 3.13046H7.78967L8.00233 3.72374C8.16999 4.19078 8.54936 4.55062 9.02483 4.69296Z" fill="#110D2E"/>
<path d="M8.3425 3.13046L8.33594 4.66406" stroke="white" stroke-opacity="0.063684" stroke-width="0.078125"/>
<path d="M8.71143 6.40735C8.93627 6.29001 9.11799 6.23141 9.25642 6.23141C9.39486 6.23141 9.57658 6.29001 9.80142 6.40735" stroke="#110D2E" stroke-width="0.109375" stroke-linecap="round"/>
<path d="M6.60205 6.36046C6.82268 6.30171 7.00221 6.27249 7.14064 6.27249C7.27908 6.27249 7.46283 6.30171 7.69205 6.36046" stroke="#110D2E" stroke-width="0.109375" stroke-linecap="round"/>
<path fill-rule="evenodd" clip-rule="evenodd" d="M7.42188 6.95312C7.42188 7.03078 7.35891 7.09375 7.28125 7.09375C7.20359 7.09375 7.14062 7.03078 7.14062 6.95312C7.14062 6.87547 7.20359 6.8125 7.28125 6.8125C7.35891 6.8125 7.42188 6.87547 7.42188 6.95312Z" fill="#110D2E"/>
<path fill-rule="evenodd" clip-rule="evenodd" d="M9.17188 6.875C9.17188 6.95266 9.10891 7.01562 9.03125 7.01562C8.95359 7.01562 8.89062 6.95266 8.89062 6.875C8.89062 6.79734 8.95359 6.73438 9.03125 6.73438C9.10891 6.73438 9.17188 6.79734 9.17188 6.875Z" fill="#110D2E"/>
<path d="M8.15784 7.375V7.78125C8.15784 7.90203 8.25581 8 8.37659 8H8.48346" stroke="#FF9494" stroke-width="0.109375" stroke-linecap="round"/>
<path d="M8 8.78906H8.45" stroke="#110D2E" stroke-width="0.109375" stroke-linecap="round"/>
<path fill-rule="evenodd" clip-rule="evenodd" d="M7.29688 8.39844C7.29688 8.61844 7.04156 8.79688 6.72656 8.79688C6.41156 8.79688 6.15625 8.61844 6.15625 8.39844C6.15625 8.17844 6.41156 8 6.72656 8C7.04156 8 7.29688 8.17844 7.29688 8.39844Z" fill="#FFAAAA" fill-opacity="0.216335"/>
<path fill-rule="evenodd" clip-rule="evenodd" d="M10.2188 8.39844C10.2188 8.61844 9.96344 8.79688 9.64844 8.79688C9.33344 8.79688 9.07812 8.61844 9.07812 8.39844C9.07812 8.17844 9.33344 8 9.64844 8C9.96344 8 10.2188 8.17844 10.2188 8.39844Z" fill="#FFAAAA" fill-opacity="0.216335"/>
</g>
</g>
<defs>
<clipPath id="clip0_2_1358">
<rect width="16" height="16" fill="white"/>
</clipPath>
</defs>
</svg>
