<svg width="16" height="16" viewBox="0 0 16 16" fill="none" xmlns="http://www.w3.org/2000/svg">
<g clip-path="url(#clip0_2_1457)">
<path d="M0 0H16V16H0V0Z" fill="#F7FFD2"/>
<path fill-rule="evenodd" clip-rule="evenodd" d="M7.68951 12.2762C9.08483 12.355 10.0942 11.9272 10.5669 11.6437C10.7008 11.5633 10.8145 11.0455 10.8714 10.7383C10.88 10.6917 10.9461 10.6911 10.9558 10.7372C11.0101 10.9944 10.8619 11.4808 10.9101 11.4591C11.2297 11.3158 12.6965 10.3075 11.9661 8.74406C11.4119 7.55765 11.3325 7.00421 11.3325 7.00421C10.8836 2.12749 8.03264 2.63718 8.03264 2.63718C8.03264 2.63718 4.81217 1.8639 4.44279 6.79328C4.28436 8.24312 3.51873 8.69124 3.82545 10.2966C3.92873 10.8384 4.28701 11.2975 4.79748 11.5086C4.89983 11.5506 5.01498 11.4873 5.03373 11.3784C5.07608 10.9847 4.9442 10.7209 5.31373 11.5909C5.31373 11.5909 5.68092 11.8566 6.29061 12.0391C6.66514 12.1511 6.89998 12.2317 7.68951 12.2762Z" fill="#B07436"/>
<path fill-rule="evenodd" clip-rule="evenodd" d="M6.55057 11.987L6.46057 9.03062L9.17776 9.05812L9.1976 11.987C9.22885 12.4547 10.5709 12.5295 10.957 12.8194C10.9432 14.4136 10.9018 15.2694 7.9226 15.2495C5.17776 15.2003 4.70885 14.662 4.69495 12.8194C5.02604 12.5986 6.51807 12.4714 6.55057 11.987Z" fill="#FFD1AA"/>
<path fill-rule="evenodd" clip-rule="evenodd" d="M9.17787 9.95532C9.17787 9.95532 8.28131 11.1563 6.52959 11.0319C6.52959 10.8802 6.44678 9.01672 6.44678 9.01672L9.21928 9.08579L9.17787 9.95532Z" fill="#FFC18D"/>
<path fill-rule="evenodd" clip-rule="evenodd" d="M7.39139 13.1517C7.38186 13.1806 7.35061 13.1964 7.3217 13.1869L6.37326 12.8742C6.34436 12.8647 6.32858 12.8334 6.33811 12.8045C6.34764 12.7756 6.37889 12.7598 6.40779 12.7694L7.35623 13.082C7.38514 13.0916 7.40092 13.1228 7.39139 13.1517Z" fill="#FFC18D"/>
<path fill-rule="evenodd" clip-rule="evenodd" d="M8.51731 13.1517C8.52684 13.1806 8.55809 13.1964 8.58699 13.1869L9.53543 12.8742C9.56434 12.8647 9.58012 12.8334 9.57059 12.8045C9.56106 12.7756 9.52981 12.7598 9.5009 12.7694L8.55246 13.082C8.52356 13.0916 8.50777 13.1228 8.51731 13.1517Z" fill="#FFC18D"/>
<path fill-rule="evenodd" clip-rule="evenodd" d="M5.59151 7.1811C5.59151 7.1811 5.10714 6.90391 4.79511 7.22953C4.52526 7.51094 4.6837 8.57438 5.66058 8.56125L5.59151 7.1811Z" fill="#FFD1AA"/>
<path fill-rule="evenodd" clip-rule="evenodd" d="M10.071 7.1811C10.071 7.1811 10.5554 6.90391 10.8674 7.22953C11.1372 7.51094 10.9788 8.57438 10.0021 8.56125L10.071 7.1811Z" fill="#FFD1AA"/>
<path fill-rule="evenodd" clip-rule="evenodd" d="M7.81092 3.26109C6.03545 3.26109 5.19389 4.50062 5.2867 7.05078C5.2867 7.05078 5.26842 8.46094 6.00029 9.32062C6.34592 9.73797 7.13107 10.3208 7.81232 10.3208C8.49326 10.3208 9.21545 9.93937 9.66342 9.34484C10.1448 8.70562 10.3426 8.03547 10.3426 7.05172C10.3426 4.48312 9.74654 3.26109 7.81092 3.26109Z" fill="#FFE1C7"/>
<path fill-rule="evenodd" clip-rule="evenodd" d="M5.99947 6.46828C5.96666 6.46828 5.93463 6.45093 5.9176 6.42015C5.89244 6.37484 5.90869 6.31797 5.954 6.29281C6.45635 6.01437 7.22244 6.20547 7.25463 6.21375C7.30494 6.2264 7.3351 6.27734 7.32244 6.3275C7.30947 6.37765 7.25931 6.40797 7.20822 6.39515C7.20103 6.39328 6.48166 6.21422 6.0451 6.45656C6.03057 6.46453 6.0151 6.46828 5.99947 6.46828Z" fill="#654840"/>
<path fill-rule="evenodd" clip-rule="evenodd" d="M9.51311 6.46828C9.49748 6.46828 9.48201 6.46453 9.46748 6.45656C9.03233 6.215 8.35389 6.39297 8.34686 6.39468C8.29748 6.40828 8.2453 6.37859 8.23201 6.3289C8.21858 6.2789 8.24795 6.2275 8.29795 6.21406C8.32873 6.20578 9.05576 6.01406 9.55858 6.29281C9.60389 6.31797 9.62014 6.37484 9.59498 6.42015C9.57795 6.45093 9.54592 6.46828 9.51311 6.46828Z" fill="#654840"/>
<path fill-rule="evenodd" clip-rule="evenodd" d="M5.96395 5.27249L5.68379 5.60452L5.80629 5.62202C5.80629 5.62202 5.34395 5.9639 5.4227 7.11718C5.43848 7.34999 5.28395 7.58812 5.16129 7.41359C4.0391 4.49093 5.71441 2.70312 7.86613 2.70343C10.3877 2.70374 10.9141 5.36609 10.733 7.76546C8.99504 8.27577 9.1841 5.99374 9.0502 5.19999C8.85723 4.05515 7.47785 4.77249 7.47785 4.77249L6.83129 4.64437L6.84879 4.83671C6.84879 4.83671 6.48067 4.75265 6.24426 4.81827C5.84645 5.0614 5.77145 5.28999 5.77145 5.28999C5.81457 5.26593 5.96395 5.27249 5.96395 5.27249Z" fill="#B07436"/>
<path d="M7.90535 6.62062C7.90535 6.63453 7.90535 6.89656 7.91926 7.29656C7.92816 7.55859 7.98816 7.80687 8.02957 7.98625C7.94676 8.02765 7.83645 8.08281 7.65723 8.17937" stroke="#DD936F" stroke-width="0.165517" stroke-linecap="round"/>
<path fill-rule="evenodd" clip-rule="evenodd" d="M6.89637 7.01656C6.84262 6.95859 6.76121 6.90469 6.64012 6.91031C6.51496 6.91594 6.4384 6.97156 6.39184 7.02515C6.36809 7.05234 6.35184 7.07953 6.34184 7.09953C6.33668 7.10953 6.33324 7.1175 6.33121 7.12266C6.33027 7.12531 6.32965 7.12703 6.32918 7.12812C6.32902 7.12844 6.32902 7.12875 6.32902 7.1289C6.31496 7.17219 6.26871 7.19609 6.22527 7.18234C6.18168 7.16859 6.15746 7.12203 6.17121 7.07859L6.25027 7.10344C6.17121 7.07859 6.17121 7.07844 6.17137 7.07844V7.07828V7.07812L6.17152 7.07765C6.17168 7.07734 6.17184 7.07687 6.17199 7.07641C6.17231 7.07547 6.17262 7.07437 6.17324 7.07297C6.17418 7.07 6.17559 7.06625 6.17746 7.06156C6.18106 7.05234 6.18652 7.03984 6.19402 7.025C6.20887 6.99547 6.23231 6.95625 6.26715 6.91625C6.33777 6.83531 6.45434 6.75297 6.63262 6.74484C6.81496 6.73656 6.94059 6.82078 7.01777 6.90406C7.05606 6.94531 7.08293 6.98687 7.10043 7.01797C7.10918 7.03359 7.11574 7.04687 7.12012 7.05656C7.12231 7.0614 7.12402 7.06547 7.12527 7.06844C7.1259 7.06984 7.12637 7.07109 7.12684 7.07203C7.12699 7.0725 7.12715 7.07281 7.12715 7.07328L7.12746 7.07359V7.07391C7.12746 7.07391 7.12746 7.07406 7.05012 7.10344L7.12746 7.07406C7.14387 7.11672 7.12231 7.16453 7.07965 7.18078C7.03699 7.19703 6.98934 7.17578 6.97293 7.13328C6.97293 7.13312 6.97293 7.13312 6.97293 7.13312V7.13328C6.97293 7.13312 6.97277 7.13266 6.97246 7.13203C6.97199 7.13078 6.97106 7.12844 6.96965 7.12547C6.96684 7.11937 6.96231 7.11015 6.95606 7.0989C6.94324 7.07609 6.92371 7.04609 6.89637 7.01656ZM6.97293 7.13297C6.97293 7.13297 6.97293 7.13297 6.97293 7.13312V7.13297Z" fill="#654840"/>
<path fill-rule="evenodd" clip-rule="evenodd" d="M9.29643 7.01656C9.24268 6.95859 9.16143 6.90469 9.04018 6.91031C8.91503 6.91594 8.83862 6.97156 8.7919 7.02515C8.76815 7.05234 8.7519 7.07953 8.7419 7.09953C8.73674 7.10953 8.73346 7.1175 8.73127 7.12266C8.73034 7.12531 8.72971 7.12703 8.72924 7.12812C8.72909 7.12844 8.72909 7.12875 8.72909 7.1289C8.71502 7.17219 8.66878 7.19609 8.62534 7.18234C8.58174 7.16859 8.55753 7.12203 8.57143 7.07859L8.65034 7.10344C8.57143 7.07859 8.57143 7.07844 8.57143 7.07844V7.07828V7.07812L8.57159 7.07765C8.57174 7.07734 8.5719 7.07687 8.57206 7.07641C8.57237 7.07547 8.57268 7.07437 8.57331 7.07297C8.57424 7.07 8.57565 7.06625 8.57753 7.06156C8.58112 7.05234 8.58659 7.03984 8.59409 7.025C8.60893 6.99547 8.63237 6.95625 8.66721 6.91625C8.73784 6.83531 8.8544 6.75297 9.03268 6.74484C9.21503 6.73656 9.34065 6.82078 9.41784 6.90406C9.45612 6.94531 9.48299 6.98687 9.50049 7.01797C9.50924 7.03359 9.51581 7.04687 9.52018 7.05656C9.52237 7.0614 9.52409 7.06547 9.52534 7.06844C9.52596 7.06984 9.52643 7.07109 9.5269 7.07203C9.52706 7.0725 9.52721 7.07281 9.52737 7.07328L9.52753 7.07359V7.07391C9.52753 7.07391 9.52768 7.07406 9.45034 7.10344L9.52768 7.07406C9.54393 7.11672 9.52237 7.16453 9.47971 7.18078C9.43721 7.19703 9.3894 7.17578 9.37315 7.13328C9.37299 7.13312 9.37299 7.13312 9.37299 7.13312L9.37315 7.13328C9.37299 7.13312 9.37284 7.13266 9.37253 7.13203C9.37206 7.13078 9.37112 7.12844 9.36971 7.12547C9.3669 7.11937 9.36237 7.11015 9.35612 7.0989C9.34331 7.07609 9.32377 7.04609 9.29643 7.01656ZM9.37299 7.13297C9.37299 7.13297 9.37299 7.13297 9.37299 7.13312V7.13297Z" fill="#654840"/>
<path d="M6.7422 8.19141C6.7422 8.33407 6.68548 8.47094 6.5847 8.57172C6.48376 8.67266 6.34688 8.72938 6.20423 8.72938C6.06157 8.72938 5.9247 8.67266 5.82392 8.57172C5.72298 8.47094 5.66626 8.33407 5.66626 8.19141C5.66626 8.04875 5.72298 7.91188 5.82392 7.8111C5.9247 7.71016 6.06157 7.65344 6.20423 7.65344C6.34688 7.65344 6.48376 7.71016 6.5847 7.8111C6.68548 7.91188 6.7422 8.04875 6.7422 8.19141Z" fill="#FFD2B9"/>
<path d="M9.99732 8.19141C9.99732 8.33407 9.94061 8.47094 9.83982 8.57172C9.73889 8.67266 9.60201 8.72938 9.45936 8.72938C9.3167 8.72938 9.17982 8.67266 9.07904 8.57172C8.97811 8.47094 8.92139 8.33407 8.92139 8.19141C8.92139 8.04875 8.97811 7.91188 9.07904 7.8111C9.17982 7.71016 9.3167 7.65344 9.45936 7.65344C9.60201 7.65344 9.73889 7.71016 9.83982 7.8111C9.94061 7.91188 9.99732 8.04875 9.99732 8.19141Z" fill="#FFD2B9"/>
<path fill-rule="evenodd" clip-rule="evenodd" d="M7.21709 8.82078C7.16381 8.80485 7.13459 8.75219 7.15178 8.70297C7.16912 8.65406 7.22975 8.65625 7.28428 8.67235C7.28912 8.67391 7.81162 8.82391 8.48772 8.67047C8.54303 8.65797 8.59272 8.65938 8.606 8.70922C8.61928 8.75953 8.586 8.81032 8.53162 8.82266C8.28318 8.87891 8.05537 8.89782 7.86146 8.89782C7.48162 8.89782 7.23256 8.82547 7.21709 8.82078Z" fill="#BB6855"/>
<path fill-rule="evenodd" clip-rule="evenodd" d="M7.86581 9.29703C7.68877 9.29703 7.57315 9.24172 7.5658 9.23812C7.53112 9.22109 7.5169 9.17891 7.53393 9.14406C7.55096 9.10922 7.59362 9.09562 7.62768 9.11187C7.63659 9.11641 7.85034 9.21625 8.14049 9.10359C8.17737 9.08984 8.21768 9.10766 8.23143 9.14375C8.24549 9.17984 8.22768 9.22047 8.19143 9.23453C8.07049 9.28156 7.9594 9.29703 7.86581 9.29703Z" fill="#BB6855" fill-opacity="0.2"/>
<path fill-rule="evenodd" clip-rule="evenodd" d="M9.16063 6.48281C8.58407 6.48281 8.13985 6.85047 8.13985 7.27859C8.13985 7.70672 8.58407 8.07438 9.16063 8.07438C9.73704 8.07438 10.1813 7.70672 10.1813 7.27859C10.1813 6.85047 9.73704 6.48281 9.16063 6.48281ZM8.02954 7.27859C8.02954 6.76672 8.54876 6.37234 9.16063 6.37234C9.77251 6.37234 10.2916 6.76672 10.2916 7.27859C10.2916 7.79047 9.77251 8.18485 9.16063 8.18485C8.54876 8.18485 8.02954 7.79047 8.02954 7.27859Z" fill="#835C54"/>
<path fill-rule="evenodd" clip-rule="evenodd" d="M6.51232 6.48281C5.93576 6.48281 5.49154 6.85047 5.49154 7.27859C5.49154 7.70672 5.93576 8.07438 6.51232 8.07438C7.08873 8.07438 7.53294 7.70672 7.53294 7.27859C7.53294 6.85047 7.08873 6.48281 6.51232 6.48281ZM5.38123 7.27859C5.38123 6.76672 5.90029 6.37234 6.51232 6.37234C7.12419 6.37234 7.64326 6.76672 7.64326 7.27859C7.64326 7.79047 7.12419 8.18485 6.51232 8.18485C5.90029 8.18485 5.38123 7.79047 5.38123 7.27859Z" fill="#835C54"/>
<path fill-rule="evenodd" clip-rule="evenodd" d="M7.60564 7.12813C7.60564 7.12813 7.60564 7.12813 7.58814 7.07594C7.5708 7.02344 7.5708 7.02344 7.5708 7.02344H7.57096L7.57143 7.02328L7.57299 7.02281C7.57424 7.02234 7.57627 7.02172 7.57861 7.02094C7.58361 7.01938 7.59064 7.01719 7.59955 7.01453C7.61705 7.00906 7.64158 7.00203 7.66924 6.99484C7.72299 6.98094 7.79439 6.96547 7.85033 6.96547C7.90689 6.96547 7.97174 6.98125 8.01939 6.99531C8.04393 7.00266 8.06518 7.00984 8.08033 7.01531C8.08783 7.01797 8.09393 7.02031 8.0983 7.02188C8.10033 7.02281 8.10205 7.02344 8.1033 7.02391L8.10471 7.02438L8.10502 7.02453L8.10518 7.02469C8.10518 7.02469 8.10518 7.02469 8.08471 7.07594C8.06424 7.12703 8.06424 7.12703 8.06424 7.12703H8.06408L8.06314 7.12656C8.06221 7.12625 8.0608 7.12578 8.05893 7.125C8.05533 7.12359 8.04986 7.12156 8.04314 7.11922C8.02939 7.11422 8.01018 7.10766 7.98799 7.10125C7.94252 7.08766 7.89018 7.07594 7.85033 7.07594C7.80955 7.07594 7.75002 7.08797 7.69689 7.10172C7.67096 7.10828 7.64814 7.115 7.63158 7.12C7.6233 7.1225 7.61674 7.12469 7.61236 7.12609C7.61002 7.12672 7.6083 7.12734 7.60721 7.12766L7.60596 7.12813H7.60564Z" fill="#835C54"/>
<path d="M8.01574 14.5678C6.33293 14.5612 5.46387 14.347 5.46387 14.347L5.79496 15.4719C5.79496 15.4719 5.83684 15.6725 5.91074 16H10.7089C10.8286 15.6725 10.8984 15.4719 10.8984 15.4719L10.8295 14.3884C10.8295 14.3884 9.6984 14.5744 8.01574 14.5678Z" fill="white"/>
<path d="M1.64673 16H6.29954C6.05001 14.3053 5.86407 12.3873 5.86407 12.3873C5.86407 12.3873 5.42189 12.4389 4.56126 12.58L4.04329 12.6359C3.9586 12.652 3.87642 12.6669 3.79673 12.6814C2.77157 12.8672 2.00782 13.0313 1.81313 14.6305L1.64673 16Z" fill="#353E4D"/>
<path d="M9.6814 16C9.81499 14.2659 9.9053 12.4084 9.9053 12.4084C10.4655 12.677 11.6186 12.7412 12.1797 12.8047C13.0781 12.9062 13.5859 13.1719 13.9687 14C14.3516 14.8281 14.5078 16 14.5078 16H9.6814Z" fill="#353E4D"/>
</g>
<defs>
<clipPath id="clip0_2_1457">
<rect width="16" height="16" rx="8" fill="white"/>
</clipPath>
</defs>
</svg>
