<svg width="16" height="16" viewBox="0 0 16 16" fill="none" xmlns="http://www.w3.org/2000/svg">
<g clip-path="url(#clip0_2_1239)">
<path fill-rule="evenodd" clip-rule="evenodd" d="M16 8C16 10.1217 15.1572 12.1566 13.6569 13.6569C12.1566 15.1572 10.1217 16 8 16C5.87828 16 3.84344 15.1572 2.34313 13.6569C0.842813 12.1566 0 10.1217 0 8C0 5.87828 0.842813 3.84344 2.34313 2.34313C3.84344 0.842813 5.87828 0 8 0C10.1217 0 12.1566 0.842813 13.6569 2.34313C15.1572 3.84344 16 5.87828 16 8Z" fill="#9BA9DE"/>
<mask id="mask0_2_1239" style="mask-type:alpha" maskUnits="userSpaceOnUse" x="0" y="0" width="16" height="16">
<path fill-rule="evenodd" clip-rule="evenodd" d="M16 8C16 10.1217 15.1572 12.1566 13.6569 13.6569C12.1566 15.1572 10.1217 16 8 16C5.87828 16 3.84344 15.1572 2.34313 13.6569C0.842813 12.1566 0 10.1217 0 8C0 5.87828 0.842813 3.84344 2.34313 2.34313C3.84344 0.842813 5.87828 0 8 0C10.1217 0 12.1566 0.842813 13.6569 2.34313C15.1572 3.84344 16 5.87828 16 8Z" fill="#9BA9DE"/>
</mask>
<g mask="url(#mask0_2_1239)">
<path d="M10.9389 5.98608L10.9907 5.96845L10.9907 5.96845L10.9389 5.98608ZM11.6303 11.5689L11.5814 11.5934L11.5814 11.5934L11.6303 11.5689ZM5.01063 5.98686L4.95726 5.97076L4.9562 5.98152L5.01063 5.98686ZM4.38969 12.0078L4.43157 11.9726L4.43155 11.9726L4.38969 12.0078ZM7.69203 12.375L7.65145 12.3383L7.65145 12.3383L7.69203 12.375ZM7.14062 9.65624V9.60155H7.08594V9.65624H7.14062ZM8.875 9.65624H8.92969V9.60155H8.875V9.65624ZM8.875 11.5312V11.5859H8.92969V11.5312H8.875ZM7.14062 11.5312H7.08594V11.5859H7.14062V11.5312ZM8.87703 11.0644L8.88656 11.0105L8.85782 11.0054L8.8376 11.0265L8.87703 11.0644ZM11.8106 11.8137L11.7949 11.8661L11.7949 11.8661L11.8106 11.8137ZM12.9202 13.2019L12.9747 13.1981L12.9747 13.1981L12.9202 13.2019ZM13.1414 16.3839L13.1419 16.4386L13.2 16.438L13.196 16.3801L13.1414 16.3839ZM2.875 16.4776L2.82048 16.4734L2.81587 16.5329L2.8755 16.5323L2.875 16.4776ZM3.13 13.1878L3.18452 13.192L3.18452 13.192L3.13 13.1878ZM4.23313 11.8137L4.24903 11.8661L4.24904 11.8661L4.23313 11.8137ZM7.13797 11.0636L7.17747 11.0258L7.15722 11.0046L7.12839 11.0097L7.13797 11.0636ZM8.89062 13.9531V13.8984H8.83594V13.9531H8.89062ZM10.5781 13.9531H10.6328V13.8984H10.5781V13.9531ZM10.5781 14.2031V14.2578H10.6328V14.2031H10.5781ZM8.89062 14.2031H8.83594V14.2578H8.89062V14.2031ZM4.88238 14.1176C4.88829 14.0879 4.86907 14.0591 4.83945 14.0532C4.80983 14.0473 4.78103 14.0665 4.77512 14.0962L4.82875 14.1069L4.88238 14.1176ZM4.34481 16.2523C4.3389 16.2819 4.35812 16.3107 4.38773 16.3166C4.41735 16.3225 4.44616 16.3033 4.45207 16.2737L4.39844 16.263L4.34481 16.2523ZM11.3655 14.3121C11.3596 14.2825 11.3308 14.2633 11.3012 14.2692C11.2716 14.2751 11.2523 14.3039 11.2582 14.3335L11.3119 14.3228L11.3655 14.3121ZM11.6886 16.4896C11.6945 16.5192 11.7233 16.5384 11.7529 16.5325C11.7825 16.5266 11.8017 16.4978 11.7958 16.4682L11.7422 16.4789L11.6886 16.4896ZM8.3425 3.13046L8.33821 3.18498C9.41566 3.26974 10.27 4.1921 10.8871 6.00372L10.9389 5.98608L10.9907 5.96845C10.3703 4.14756 9.49371 3.16617 8.34679 3.07594L8.3425 3.13046ZM10.9389 5.98608L10.8871 6.00372C11.3481 7.3571 11.368 8.44013 11.3484 9.33997C11.3386 9.78897 11.3187 10.197 11.3399 10.5676C11.3612 10.9394 11.4238 11.2789 11.5814 11.5934L11.6303 11.5689L11.6792 11.5444C11.5307 11.2482 11.4699 10.9251 11.4491 10.5614C11.4283 10.1964 11.4478 9.79585 11.4577 9.34235C11.4774 8.43719 11.4577 7.33944 10.9907 5.96845L10.9389 5.98608ZM11.6303 11.5689L11.5814 11.5934C11.6781 11.7862 11.6811 11.9435 11.607 12.0744C11.5306 12.209 11.3655 12.3285 11.0963 12.4262C10.5587 12.6213 9.64383 12.7163 8.34493 12.7069L8.34453 12.7616L8.34413 12.8162C9.64398 12.8257 10.5761 12.7314 11.1337 12.529C11.4121 12.4279 11.6067 12.2966 11.7021 12.1283C11.7997 11.9562 11.7866 11.7586 11.6792 11.5444L11.6303 11.5689ZM8.3425 3.13046L8.36056 3.07884C7.59923 2.81239 6.92839 2.92218 6.35691 3.41212C5.78976 3.89834 5.32528 4.75477 4.95827 5.97107L5.01063 5.98686L5.06298 6.00266C5.42785 4.79349 5.88461 3.96109 6.42809 3.49516C6.96723 3.03295 7.59639 2.92728 8.32443 3.18208L8.3425 3.13046ZM5.01063 5.98686L4.9562 5.98152C4.93289 6.21907 4.8376 6.65779 4.71749 7.20148C4.59783 7.74312 4.45448 8.38508 4.33694 9.02412C4.21945 9.66283 4.12731 10.3009 4.11061 10.8347C4.10226 11.1016 4.1127 11.3442 4.14895 11.5488C4.18506 11.7525 4.24767 11.9238 4.34782 12.043L4.38969 12.0078L4.43155 11.9726C4.34913 11.8746 4.29125 11.725 4.25665 11.5297C4.2222 11.3353 4.21171 11.1009 4.21993 10.8381C4.23637 10.3126 4.32732 9.68098 4.44451 9.04391C4.56163 8.40716 4.70452 7.76723 4.82429 7.22508C4.94361 6.68498 5.04094 6.23802 5.06505 5.9922L5.01063 5.98686ZM4.38969 12.0078L4.34781 12.043C4.36582 12.0644 4.39543 12.0819 4.4254 12.0967C4.4575 12.1124 4.49821 12.1288 4.54558 12.1455C4.64048 12.179 4.76624 12.2152 4.91236 12.2518C5.20483 12.3251 5.58248 12.4006 5.96551 12.4583C6.34828 12.5159 6.73827 12.5561 7.05493 12.5579C7.2131 12.5589 7.35494 12.5503 7.46923 12.5288C7.58069 12.5079 7.67734 12.4728 7.73262 12.4116L7.69203 12.375L7.65145 12.3383C7.62176 12.3712 7.55651 12.4012 7.44907 12.4213C7.34446 12.441 7.21039 12.4495 7.05558 12.4486C6.74629 12.4467 6.36205 12.4074 5.9818 12.3501C5.6018 12.2929 5.22762 12.218 4.93894 12.1457C4.79449 12.1095 4.67235 12.0742 4.58195 12.0423C4.53667 12.0264 4.50038 12.0116 4.47363 11.9985C4.46026 11.9919 4.45001 11.9861 4.44254 11.9812C4.43884 11.9787 4.43612 11.9767 4.43421 11.9751C4.43224 11.9734 4.43153 11.9726 4.43157 11.9726L4.38969 12.0078ZM7.69203 12.375L7.73261 12.4116C7.79743 12.3399 7.85401 12.2278 7.9047 12.0815C7.95577 11.934 8.00243 11.7469 8.04499 11.5211C8.13011 11.0692 8.19967 10.4573 8.25393 9.686C8.36247 8.14319 8.41016 5.95768 8.39719 3.13021L8.3425 3.13046L8.28781 3.13071C8.30078 5.95729 8.25308 8.1396 8.14482 9.67832C8.09069 10.4478 8.02149 11.055 7.9375 11.5008C7.8955 11.7237 7.85002 11.9051 7.80135 12.0457C7.7523 12.1873 7.70155 12.2829 7.65145 12.3383L7.69203 12.375ZM7.14062 9.65624V9.71093H8.875V9.65624V9.60155H7.14062V9.65624ZM8.875 9.65624H8.82031V11.5312H8.875H8.92969V9.65624H8.875ZM8.875 11.5312V11.4766H7.14062V11.5312V11.5859H8.875V11.5312ZM7.14062 11.5312H7.19531V9.65624H7.14062H7.08594V11.5312H7.14062ZM9.10938 9.6328H9.05469C9.05469 9.74976 8.95844 9.87039 8.76915 9.96504C8.58314 10.0581 8.32233 10.1172 8.03125 10.1172V10.1719V10.2266C8.33564 10.2266 8.61389 10.165 8.81807 10.0629C9.01898 9.9624 9.16406 9.8135 9.16406 9.6328H9.10938ZM8.03125 10.1719V10.1172C7.74017 10.1172 7.47936 10.0581 7.29335 9.96504C7.10406 9.87039 7.00781 9.74976 7.00781 9.6328H6.95312H6.89844C6.89844 9.8135 7.04352 9.9624 7.24443 10.0629C7.44861 10.165 7.72686 10.2266 8.03125 10.2266V10.1719ZM6.95312 9.6328H7.00781C7.00781 9.51585 7.10406 9.39522 7.29335 9.30056C7.47936 9.20755 7.74017 9.14843 8.03125 9.14843V9.09374V9.03905C7.72686 9.03905 7.44861 9.10064 7.24443 9.20274C7.04352 9.3032 6.89844 9.4521 6.89844 9.6328H6.95312ZM8.03125 9.09374V9.14843C8.32233 9.14843 8.58314 9.20755 8.76915 9.30056C8.95844 9.39522 9.05469 9.51585 9.05469 9.6328H9.10938H9.16406C9.16406 9.4521 9.01898 9.3032 8.81807 9.20274C8.61389 9.10064 8.33564 9.03905 8.03125 9.03905V9.09374ZM8.00781 11.3594V11.4141C8.39115 11.4141 8.73361 11.2926 8.91646 11.1023L8.87703 11.0644L8.8376 11.0265C8.68233 11.1881 8.37322 11.3047 8.00781 11.3047V11.3594ZM8.87703 11.0644L8.86751 11.1182C9.57454 11.2433 10.5501 11.4924 11.7949 11.8661L11.8106 11.8137L11.8263 11.7614C10.5802 11.3872 9.59984 11.1367 8.88656 11.0105L8.87703 11.0644ZM11.8106 11.8137L11.7949 11.8661C12.3958 12.0465 12.822 12.5799 12.8656 13.2057L12.9202 13.2019L12.9747 13.1981C12.928 12.5269 12.4708 11.9548 11.8263 11.7614L11.8106 11.8137ZM12.9202 13.2019L12.8656 13.2057L13.0869 16.3877L13.1414 16.3839L13.196 16.3801L12.9747 13.1981L12.9202 13.2019ZM13.1414 16.3839L13.1409 16.3292L2.8745 16.423L2.875 16.4776L2.8755 16.5323L13.1419 16.4386L13.1414 16.3839ZM2.875 16.4776L2.92952 16.4819L3.18452 13.192L3.13 13.1878L3.07548 13.1836L2.82048 16.4734L2.875 16.4776ZM3.13 13.1878L3.18452 13.192C3.23247 12.5731 3.65496 12.0467 4.24903 11.8661L4.23313 11.8137L4.21722 11.7614C3.58004 11.9552 3.1269 12.5197 3.07548 13.1836L3.13 13.1878ZM4.23313 11.8137L4.24904 11.8661C5.47973 11.4916 6.44558 11.2423 7.14755 11.1174L7.13797 11.0636L7.12839 11.0097C6.42004 11.1358 5.44934 11.3865 4.21721 11.7614L4.23313 11.8137ZM7.13797 11.0636L7.09847 11.1014C7.28102 11.2921 7.62399 11.4141 8.00781 11.4141V11.3594V11.3047C7.64194 11.3047 7.33241 11.1876 7.17747 11.0258L7.13797 11.0636ZM9.01562 13.9531V14.0078H10.4688V13.9531V13.8984H9.01562V13.9531ZM10.4688 13.9531V14.0078C10.4731 14.0078 10.4766 14.0113 10.4766 14.0156H10.5312H10.5859C10.5859 13.9509 10.5335 13.8984 10.4688 13.8984V13.9531ZM10.5312 14.0156H10.4766V14.6484H10.5312H10.5859V14.0156H10.5312ZM10.5312 14.6484H10.4766C10.4766 15.0023 10.1898 15.2891 9.83594 15.2891V15.3437V15.3984C10.2502 15.3984 10.5859 15.0627 10.5859 14.6484H10.5312ZM9.83594 15.3437V15.2891H9.64844V15.3437V15.3984H9.83594V15.3437ZM9.64844 15.3437V15.2891C9.29458 15.2891 9.00781 15.0023 9.00781 14.6484H8.95312H8.89844C8.89844 15.0627 9.23417 15.3984 9.64844 15.3984V15.3437ZM8.95312 14.6484H9.00781V14.0156H8.95312H8.89844V14.6484H8.95312ZM8.95312 14.0156H9.00781C9.00781 14.0113 9.0113 14.0078 9.01562 14.0078V13.9531V13.8984C8.95089 13.8984 8.89844 13.9509 8.89844 14.0156H8.95312ZM8.89062 13.9531V14.0078H10.5781V13.9531V13.8984H8.89062V13.9531ZM10.5781 13.9531H10.5234V14.2031H10.5781H10.6328V13.9531H10.5781ZM10.5781 14.2031V14.1484H8.89062V14.2031V14.2578H10.5781V14.2031ZM8.89062 14.2031H8.94531V13.9531H8.89062H8.83594V14.2031H8.89062ZM4.82875 14.1069L4.77512 14.0962L4.34481 16.2523L4.39844 16.263L4.45207 16.2737L4.88238 14.1176L4.82875 14.1069ZM11.3119 14.3228L11.2582 14.3335L11.6886 16.4896L11.7422 16.4789L11.7958 16.4682L11.3655 14.3121L11.3119 14.3228Z" fill="black" fill-opacity="0.129434"/>
</g>
<path fill-rule="evenodd" clip-rule="evenodd" d="M10.2188 6.82812C10.2188 8.54531 9.22531 9.9375 8 9.9375C6.77469 9.9375 5.78125 8.54531 5.78125 6.82812C5.78125 5.11094 6.77469 3.71875 8 3.71875C9.22531 3.71875 10.2188 5.11094 10.2188 6.82812Z" fill="#FFCACA"/>
<path fill-rule="evenodd" clip-rule="evenodd" d="M7.29688 8.39844C7.29688 8.61844 7.04156 8.79688 6.72656 8.79688C6.41156 8.79688 6.15625 8.61844 6.15625 8.39844C6.15625 8.17844 6.41156 8 6.72656 8C7.04156 8 7.29688 8.17844 7.29688 8.39844Z" fill="#FFAAAA" fill-opacity="0.216335"/>
<path fill-rule="evenodd" clip-rule="evenodd" d="M10.2188 8.39844C10.2188 8.61844 9.96344 8.79688 9.64844 8.79688C9.33344 8.79688 9.07812 8.61844 9.07812 8.39844C9.07812 8.17844 9.33344 8 9.64844 8C9.96344 8 10.2188 8.17844 10.2188 8.39844Z" fill="#FFAAAA" fill-opacity="0.216335"/>
<path d="M6.46143 6.40734C6.68205 6.34859 6.86158 6.31937 7.00002 6.31937C7.13846 6.31937 7.32221 6.34859 7.55143 6.40734" stroke="#110D2E" stroke-width="0.109375" stroke-linecap="round"/>
<path d="M9.67642 6.40734C9.4558 6.34859 9.27627 6.31937 9.13783 6.31937C8.99939 6.31937 8.81564 6.34859 8.58643 6.40734" stroke="#110D2E" stroke-width="0.109375" stroke-linecap="round"/>
<path fill-rule="evenodd" clip-rule="evenodd" d="M7.28125 6.95312C7.28125 7.03078 7.21828 7.09375 7.14062 7.09375C7.06297 7.09375 7 7.03078 7 6.95312C7 6.87547 7.06297 6.8125 7.14062 6.8125C7.21828 6.8125 7.28125 6.87547 7.28125 6.95312Z" fill="#110D2E"/>
<path fill-rule="evenodd" clip-rule="evenodd" d="M9.0625 6.875C9.0625 6.95266 8.99953 7.01562 8.92188 7.01562C8.84422 7.01562 8.78125 6.95266 8.78125 6.875C8.78125 6.79734 8.84422 6.73438 8.92188 6.73438C8.99953 6.73438 9.0625 6.79734 9.0625 6.875Z" fill="#110D2E"/>
<path d="M8.15784 7.375V7.78125C8.15784 7.90203 8.25581 8 8.37659 8H8.48346" stroke="#FF9494" stroke-width="0.109375" stroke-linecap="round"/>
<path d="M8 8.78906H8.45" stroke="#110D2E" stroke-width="0.109375" stroke-linecap="round"/>
<path d="M8.3425 3.13046L8.33594 4.66406" stroke="white" stroke-opacity="0.063684" stroke-width="0.078125"/>
<path fill-rule="evenodd" clip-rule="evenodd" d="M7.92188 6.8125C7.92188 7.33031 7.50219 7.75 6.98438 7.75C6.46656 7.75 6.04688 7.33031 6.04688 6.8125C6.04688 6.29469 6.46656 5.875 6.98438 5.875C7.50219 5.875 7.92188 6.29469 7.92188 6.8125Z" fill="white" fill-opacity="0.155788"/>
<path fill-rule="evenodd" clip-rule="evenodd" d="M10.0938 6.8125C10.0938 7.33031 9.67406 7.75 9.15625 7.75C8.63844 7.75 8.21875 7.33031 8.21875 6.8125C8.21875 6.29469 8.63844 5.875 9.15625 5.875C9.67406 5.875 10.0938 6.29469 10.0938 6.8125Z" fill="white" fill-opacity="0.155788"/>
<path d="M7.875 6.8125C7.875 7.30437 7.47625 7.70312 6.98438 7.70312C6.4925 7.70312 6.09375 7.30437 6.09375 6.8125C6.09375 6.32063 6.4925 5.92188 6.98438 5.92188C7.47625 5.92188 7.875 6.32063 7.875 6.8125Z" stroke="black" stroke-width="0.09375"/>
<path d="M10.0469 6.8125C10.0469 7.30437 9.64812 7.70312 9.15625 7.70312C8.66438 7.70312 8.26562 7.30437 8.26562 6.8125C8.26562 6.32063 8.66438 5.92188 9.15625 5.92188C9.64812 5.92188 10.0469 6.32063 10.0469 6.8125Z" stroke="black" stroke-width="0.09375"/>
<path fill-rule="evenodd" clip-rule="evenodd" d="M7.9725 3.125H8.06094C8.70188 3.125 9.27781 3.51656 9.51375 4.1125L10.0938 5.57812H5.84375L6.55266 4.03516C6.8075 3.48047 7.36203 3.125 7.9725 3.125Z" fill="#110D2E"/>
<path d="M7.88525 6.89062C7.96041 6.91141 8.01838 6.92188 8.05916 6.92188C8.09994 6.92188 8.15791 6.91141 8.23307 6.89062" stroke="black" stroke-width="0.078125"/>
<path fill-rule="evenodd" clip-rule="evenodd" d="M6.43548 5.51218C6.35782 5.88093 6.22782 6.21593 6.04579 6.51672C5.8636 6.81765 5.54048 7.23109 5.07642 7.75703L5.77063 5.2789L6.15642 5.10953L6.43548 5.51218Z" fill="#110D2E"/>
<path fill-rule="evenodd" clip-rule="evenodd" d="M9.73547 5.51218C9.81313 5.88093 9.94297 6.21593 10.1252 6.51672C10.3073 6.81765 10.6305 7.23109 11.0944 7.75703L10.4003 5.2789L10.0145 5.10953L9.73547 5.51218Z" fill="#110D2E"/>
<path fill-rule="evenodd" clip-rule="evenodd" d="M4.16246 10.7328C4.05418 12.8056 4.54684 14.2311 5.64059 15.0091C7.28121 16.1759 7.50387 12.1891 7.14059 11.0636C6.8984 10.3133 5.90574 10.203 4.16246 10.7328Z" fill="#110D2E"/>
<path d="M10.0592 6.79688L10.5784 6.39172" stroke="black" stroke-width="0.09375"/>
<path d="M6.0628 6.79688L5.54358 6.39172" stroke="black" stroke-width="0.09375"/>
</g>
<defs>
<clipPath id="clip0_2_1239">
<rect width="16" height="16" fill="white"/>
</clipPath>
</defs>
</svg>
