<svg width="16" height="16" viewBox="0 0 16 16" fill="none" xmlns="http://www.w3.org/2000/svg">
<g clip-path="url(#clip0_24_47)">
<path d="M6.80001 9.99971H5.19973C4.98763 9.99971 4.78422 9.91546 4.63424 9.76548C4.48427 9.61551 4.40001 9.4121 4.40001 9.2V3.60029C4.40001 3.158 4.7583 2.79971 5.19973 2.79971H7.59973V2.40029C7.59973 2.29412 7.6419 2.19231 7.71697 2.11724C7.79204 2.04217 7.89385 2 8.00001 2C8.10617 2 8.20799 2.04217 8.28306 2.11724C8.35812 2.19231 8.4003 2.29412 8.4003 2.40029V2.79971H10.8003C11.2417 2.79971 11.6 3.158 11.6 3.60029V9.2C11.6 9.4121 11.5158 9.61551 11.3658 9.76548C11.2158 9.91546 11.0124 9.99971 10.8003 9.99971H9.20001V10.8003H12.0003C12.4417 10.8003 12.8 11.1586 12.8 11.6V13.2003C12.8 13.4124 12.7158 13.6158 12.5658 13.7658C12.4158 13.9157 12.2124 14 12.0003 14H3.99973C3.78763 14 3.58422 13.9157 3.43424 13.7658C3.28427 13.6158 3.20001 13.4124 3.20001 13.2003V11.6C3.20001 11.1586 3.5583 10.8003 3.99973 10.8003H6.80001V9.99971ZM9.6003 6.8C9.75943 6.8 9.91204 6.73679 10.0246 6.62426C10.1371 6.51174 10.2003 6.35913 10.2003 6.2C10.2003 6.04087 10.1371 5.88826 10.0246 5.77574C9.91204 5.66321 9.75943 5.6 9.6003 5.6C9.44117 5.6 9.28856 5.66321 9.17603 5.77574C9.06351 5.88826 9.0003 6.04087 9.0003 6.2C9.0003 6.35913 9.06351 6.51174 9.17603 6.62426C9.28856 6.73679 9.44117 6.8 9.6003 6.8ZM6.39973 6.8C6.55886 6.80011 6.71151 6.73701 6.82412 6.62457C6.93672 6.51213 7.00004 6.35956 7.00016 6.20043C7.00027 6.0413 6.93716 5.88864 6.82472 5.77604C6.71228 5.66344 6.55971 5.60011 6.40058 5.6C6.24145 5.6 6.08884 5.66321 5.97632 5.77574C5.8638 5.88826 5.80058 6.04087 5.80058 6.2C5.80058 6.35913 5.8638 6.51174 5.97632 6.62426C6.08884 6.73679 6.24145 6.8 6.40058 6.8H6.39973Z" fill="#26C8FC"/>
<path d="M12.3997 4.80029C12.6209 4.80029 12.8 4.97943 12.8 5.19971V7.59971C12.8025 7.65378 12.794 7.70779 12.7751 7.75849C12.7561 7.80918 12.727 7.8555 12.6897 7.89465C12.6523 7.9338 12.6074 7.96496 12.5576 7.98625C12.5078 8.00754 12.4543 8.01852 12.4001 8.01852C12.346 8.01852 12.2925 8.00754 12.2427 7.98625C12.1929 7.96496 12.148 7.9338 12.1106 7.89465C12.0732 7.8555 12.0442 7.80918 12.0252 7.75849C12.0063 7.70779 11.9978 7.65378 12.0003 7.59971V5.19971C12.0003 4.97943 12.1794 4.80029 12.3997 4.80029ZM3.60029 4.80029C3.82057 4.80029 3.99971 4.97943 3.99971 5.19971V7.59971C3.99495 7.70256 3.95074 7.79962 3.87628 7.87071C3.80181 7.94181 3.70281 7.98148 3.59986 7.98148C3.4969 7.98148 3.3979 7.94181 3.32344 7.87071C3.24897 7.79962 3.20476 7.70256 3.2 7.59971V5.19971C3.2 4.97943 3.37914 4.80029 3.60029 4.80029ZM13.5997 5.6C13.8209 5.6 14 5.77914 14 6.00029V6.8C14.0025 6.85407 13.994 6.90808 13.9751 6.95877C13.9561 7.00947 13.927 7.05579 13.8897 7.09494C13.8523 7.13409 13.8074 7.16525 13.7576 7.18654C13.7078 7.20783 13.6543 7.2188 13.6001 7.2188C13.546 7.2188 13.4925 7.20783 13.4427 7.18654C13.3929 7.16525 13.348 7.13409 13.3106 7.09494C13.2732 7.05579 13.2442 7.00947 13.2252 6.95877C13.2063 6.90808 13.1978 6.85407 13.2003 6.8V6.00029C13.2003 5.77914 13.3794 5.6 13.5997 5.6ZM2.40029 5.6C2.62057 5.6 2.79971 5.77914 2.79971 6.00029V6.8C2.79495 6.90285 2.75074 6.9999 2.67628 7.071C2.60181 7.1421 2.50281 7.18177 2.39986 7.18177C2.2969 7.18177 2.1979 7.1421 2.12344 7.071C2.04897 6.9999 2.00476 6.90285 2 6.8V6.00029C2 5.77914 2.17914 5.6 2.40029 5.6Z" fill="#26C8FC"/>
</g>
<defs>
<clipPath id="clip0_24_47">
<rect width="12" height="12" fill="white" transform="translate(2 2)"/>
</clipPath>
</defs>
</svg>
